<svg width="550" height="184" viewBox="0 0 335 112" fill="none" xmlns="http://www.w3.org/2000/svg"><path d="M109.256 48.295H97.664v17.568h-7.992v-49.32h18.72c11.136 0 16.704 5.232 16.704 15.696 0 7.008-2.688 11.76-8.064 14.256l8.136 19.368h-8.784l-7.128-17.568zm7.632-15.984c0-5.904-2.832-8.856-8.496-8.856H97.664v17.928h10.872c2.88 0 4.992-.816 6.336-2.448 1.344-1.68 2.016-3.888 2.016-6.624zm41.988 27.072l2.016-.216.144 5.832c-2.736.528-5.304.936-7.704 1.224-2.4.288-4.68.432-6.84.432-5.328 0-9.168-1.464-11.52-4.392-2.304-2.928-3.456-7.608-3.456-14.04 0-12.768 5.208-19.152 15.624-19.152 10.08 0 15.12 5.496 15.12 16.488l-.504 5.616h-22.32c.048 2.976.696 5.16 1.944 6.552 1.248 1.392 3.576 2.088 6.984 2.088s6.912-.144 10.512-.432zm-19.512-14.256h15.192c0-3.6-.552-6.096-1.656-7.488-1.104-1.392-3.024-2.088-5.76-2.088-2.736 0-4.704.744-5.904 2.232-1.2 1.44-1.824 3.888-1.872 7.344zm57.083-4.176v16.416c.048 1.056.312 1.848.792 2.376.528.48 1.32.792 2.376.936l-.216 5.976c-4.176 0-7.368-.888-9.576-2.664-3.744 1.776-7.608 2.664-11.592 2.664-7.152 0-10.728-3.816-10.728-11.448 0-3.648.96-6.288 2.88-7.92 1.92-1.632 4.92-2.616 9-2.952l9.288-.792v-2.592c0-1.92-.432-3.264-1.296-4.032-.816-.768-2.04-1.152-3.672-1.152-1.536 0-3.264.048-5.184.144-1.92.096-4.032.24-6.336.432l-2.304.144-.288-5.544c5.376-1.248 10.2-1.872 14.472-1.872 4.416 0 7.584.936 9.504 2.808 1.92 1.872 2.88 4.896 2.88 9.072zm-7.776 8.136l-8.352.792c-3.312.288-4.968 2.088-4.968 5.4 0 3.312 1.464 4.968 4.392 4.968 2.496 0 5.04-.384 7.632-1.152l1.296-.432v-9.576zm36.996-19.224v6.696h-9.936V52.4c0 1.44.024 2.64.072 3.6.096.96.288 1.704.576 2.232.288.528.696.912 1.224 1.152.528.192 1.224.288 2.088.288l5.904-.216.36 6.264c-3.12.624-5.568.936-7.344.936-2.016 0-3.72-.216-5.112-.648-1.344-.432-2.448-1.152-3.312-2.16-.816-1.008-1.392-2.376-1.728-4.104-.336-1.728-.504-3.888-.504-6.48V36.56h-4.608v-6.696h4.608v-10.44h7.776v10.44h9.936zm20.765-.792c5.76 0 9.864 1.56 12.312 4.68 2.496 3.12 3.744 7.8 3.744 14.04 0 3.12-.288 5.856-.864 8.208-.576 2.352-1.488 4.32-2.736 5.904-1.248 1.584-2.904 2.784-4.968 3.6-2.016.768-4.512 1.152-7.488 1.152-2.928 0-5.424-.384-7.488-1.152-2.064-.816-3.72-2.016-4.968-3.6-1.248-1.584-2.16-3.552-2.736-5.904-.576-2.352-.864-5.088-.864-8.208 0-2.832.264-5.4.792-7.704.528-2.304 1.392-4.272 2.592-5.904 1.248-1.632 2.904-2.88 4.968-3.744 2.064-.912 4.632-1.368 7.704-1.368zm-6.48 28.08c1.056 1.92 3.216 2.88 6.48 2.88 1.584 0 2.904-.216 3.96-.648a5.669 5.669 0 002.52-2.232c.624-1.008 1.056-2.28 1.296-3.816.24-1.584.36-3.456.36-5.616 0-4.368-.6-7.464-1.8-9.288-1.152-1.824-3.264-2.736-6.336-2.736-3.072 0-5.208.912-6.408 2.736-1.152 1.824-1.728 4.92-1.728 9.288 0 4.32.552 7.464 1.656 9.432zm38.179-19.224v27.936h-7.848v-36h7.776v2.232c3.408-2.016 6.528-3.024 9.36-3.024 4.176 0 7.224 1.176 9.144 3.528 4.368-2.352 8.712-3.528 13.032-3.528 2.16 0 3.984.312 5.472.936 1.536.624 2.76 1.656 3.672 3.096.96 1.392 1.632 3.192 2.016 5.4.432 2.208.648 4.896.648 8.064v19.296h-7.776v-19.08c0-3.888-.408-6.648-1.224-8.28-.768-1.632-2.4-2.448-4.896-2.448-2.064 0-4.392.48-6.984 1.44l-1.224.504c.384 1.008.576 4.08.576 9.216v18.648h-7.776V47.36c0-2.16-.096-3.96-.288-5.4-.144-1.44-.432-2.592-.864-3.456-.432-.864-1.056-1.488-1.872-1.872-.816-.384-1.872-.576-3.168-.576-2.304 0-4.536.48-6.696 1.44l-1.08.432zM93.86 73.94h1.332v12.923H93.86v-.612c-.924.528-1.836.792-2.736.792-.684 0-1.236-.12-1.656-.36-.42-.24-.75-.564-.99-.972a4.21 4.21 0 01-.468-1.404 11 11 0 01-.126-1.692c0-1.752.288-3.012.864-3.78.588-.768 1.554-1.152 2.898-1.152.732 0 1.47.078 2.214.234V73.94zm-2.502 11.897c.168 0 .348-.012.54-.036a8.64 8.64 0 00.594-.126c.204-.06.39-.12.558-.18.18-.06.33-.114.45-.162l.36-.162V79.07a11.67 11.67 0 00-2.142-.216c-.912 0-1.548.288-1.908.864-.36.576-.54 1.482-.54 2.718 0 .384.018.78.054 1.188.036.396.12.762.252 1.098.144.324.354.594.63.81.288.204.672.306 1.152.306zm12.57-.09l.522-.054.036 1.062c-.684.096-1.32.168-1.908.216a19.38 19.38 0 01-1.602.072c-1.296 0-2.214-.372-2.754-1.116-.54-.756-.81-1.926-.81-3.51 0-3.156 1.254-4.734 3.762-4.734 1.224 0 2.13.342 2.718 1.026.6.672.9 1.734.9 3.186l-.072 1.026h-5.94c0 1.008.18 1.752.54 2.232.36.468.99.702 1.89.702.9 0 1.806-.036 2.718-.108zm-5.166-3.906h4.68c0-1.104-.18-1.884-.54-2.34-.348-.456-.918-.684-1.71-.684-.804 0-1.41.24-1.818.72-.396.48-.6 1.248-.612 2.304zm12.796-3.978v1.17h-2.862v4.302c0 1.044.078 1.722.234 2.034.144.324.498.486 1.062.486l1.602-.108.09 1.116c-.408.06-.768.108-1.08.144a6.53 6.53 0 01-.756.054c-.468 0-.864-.054-1.188-.162a1.468 1.468 0 01-.756-.522c-.192-.252-.33-.588-.414-1.008-.084-.42-.126-.954-.126-1.602v-4.734h-1.278v-1.17h1.278V75.11h1.332v2.754h2.862zm7.768 7.884l.522-.054.036 1.062c-.684.096-1.32.168-1.908.216a19.38 19.38 0 01-1.602.072c-1.296 0-2.214-.372-2.754-1.116-.54-.756-.81-1.926-.81-3.51 0-3.156 1.254-4.734 3.762-4.734 1.224 0 2.13.342 2.718 1.026.6.672.9 1.734.9 3.186l-.072 1.026h-5.94c0 1.008.18 1.752.54 2.232.36.468.99.702 1.89.702.9 0 1.806-.036 2.718-.108zm-5.166-3.906h4.68c0-1.104-.18-1.884-.54-2.34-.348-.456-.918-.684-1.71-.684-.804 0-1.41.24-1.818.72-.396.48-.6 1.248-.612 2.304zm9.484 5.022h-1.35v-9h1.332v1.224a8.991 8.991 0 013.294-1.422v1.368a7.632 7.632 0 00-.792.198 20.55 20.55 0 00-.792.27 7.815 7.815 0 00-.702.27c-.216.096-.396.18-.54.252l-.45.234v6.606zm6.223-7.308v7.308h-1.35v-9h1.332v.63c.9-.54 1.776-.81 2.628-.81 1.116 0 1.896.306 2.34.918.204-.12.438-.234.702-.342.264-.12.54-.222.828-.306.3-.084.594-.15.882-.198.288-.048.552-.072.792-.072.6 0 1.092.078 1.476.234.396.144.708.39.936.738.24.336.402.792.486 1.368.096.564.144 1.26.144 2.088v4.752h-1.35v-4.716c0-.624-.024-1.146-.072-1.566-.048-.42-.144-.756-.288-1.008a1.063 1.063 0 00-.576-.522c-.24-.108-.558-.162-.954-.162-.396 0-.804.06-1.224.18-.42.108-.744.216-.972.324l-.342.162c.156.384.234 1.26.234 2.628v4.68h-1.35V82.22c0-.648-.024-1.182-.072-1.602-.048-.432-.144-.774-.288-1.026a1.053 1.053 0 00-.576-.54c-.24-.108-.558-.162-.954-.162-.384 0-.78.06-1.188.18a5.195 5.195 0 00-.918.324l-.306.162zm15.047 7.308v-9h-1.35v9h1.35zm0-11.034v-1.566h-1.35v1.566h1.35zm3.937 3.726v7.308h-1.35v-9h1.332v.63c.972-.54 1.902-.81 2.79-.81.6 0 1.092.078 1.476.234.396.144.708.39.936.738.24.348.402.804.486 1.368.096.564.144 1.26.144 2.088v4.752h-1.332v-4.716c0-.624-.03-1.146-.09-1.566-.048-.42-.144-.756-.288-1.008a1.14 1.14 0 00-.594-.522c-.252-.108-.576-.162-.972-.162-.384 0-.792.06-1.224.18-.42.108-.744.216-.972.324l-.342.162zm9.668 7.308v-9h-1.35v9h1.35zm0-11.034v-1.566h-1.35v1.566h1.35zm5.414 3.06c-1.308 0-1.962.456-1.962 1.368 0 .432.15.726.45.882.312.18.996.36 2.052.54.54.096.996.204 1.368.324.372.108.672.264.9.468.24.192.408.438.504.738.108.3.162.684.162 1.152 0 .936-.294 1.62-.882 2.052-.588.42-1.458.63-2.61.63-.372 0-.78-.024-1.224-.072-.432-.036-.9-.096-1.404-.18l-.54-.09.072-1.17c.684.096 1.284.174 1.8.234.516.048.948.072 1.296.072.696 0 1.224-.108 1.584-.324.372-.228.558-.606.558-1.134 0-.504-.156-.858-.468-1.062-.324-.192-1.008-.366-2.052-.522-.528-.084-.978-.18-1.35-.288-.36-.12-.66-.27-.9-.45a1.708 1.708 0 01-.504-.72c-.108-.288-.162-.648-.162-1.08 0-.432.078-.81.234-1.134.168-.324.396-.594.684-.81.288-.216.63-.372 1.026-.468a4.914 4.914 0 011.296-.162c.372 0 .786.024 1.242.072.456.036.96.096 1.512.18l.504.09-.036 1.152a35.788 35.788 0 00-1.8-.216 14.82 14.82 0 00-1.35-.072zm10.203-1.026v1.17h-2.862v4.302c0 1.044.078 1.722.234 2.034.144.324.498.486 1.062.486l1.602-.108.09 1.116c-.408.06-.768.108-1.08.144a6.53 6.53 0 01-.756.054c-.468 0-.864-.054-1.188-.162a1.468 1.468 0 01-.756-.522c-.192-.252-.33-.588-.414-1.008-.084-.42-.126-.954-.126-1.602v-4.734h-1.278v-1.17h1.278V75.11h1.332v2.754h2.862zm2.998 9v-9h-1.35v9h1.35zm0-11.034v-1.566h-1.35v1.566h1.35zm5.954 1.854c.396 0 1.068.072 2.016.216l.432.054-.054 1.098c-.948-.108-1.656-.162-2.124-.162-.504 0-.93.054-1.278.162a1.624 1.624 0 00-.81.558c-.192.264-.33.618-.414 1.062-.084.432-.126.978-.126 1.638 0 .66.036 1.218.108 1.674.072.444.204.804.396 1.08.204.276.474.474.81.594.348.12.792.18 1.332.18l2.124-.162.054 1.116a24.26 24.26 0 01-1.476.18c-.408.048-.75.072-1.026.072-.696 0-1.284-.084-1.764-.252a2.564 2.564 0 01-1.134-.828c-.288-.384-.498-.876-.63-1.476-.12-.6-.18-1.326-.18-2.178 0-.852.066-1.572.198-2.16.144-.588.366-1.062.666-1.422.3-.372.684-.636 1.152-.792.48-.168 1.056-.252 1.728-.252zm11.255 1.206c-1.308 0-1.962.456-1.962 1.368 0 .432.15.726.45.882.312.18.996.36 2.052.54.54.096.996.204 1.368.324.372.108.672.264.9.468.24.192.408.438.504.738.108.3.162.684.162 1.152 0 .936-.294 1.62-.882 2.052-.588.42-1.458.63-2.61.63-.372 0-.78-.024-1.224-.072-.432-.036-.9-.096-1.404-.18l-.54-.09.072-1.17c.684.096 1.284.174 1.8.234.516.048.948.072 1.296.072.696 0 1.224-.108 1.584-.324.372-.228.558-.606.558-1.134 0-.504-.156-.858-.468-1.062-.324-.192-1.008-.366-2.052-.522-.528-.084-.978-.18-1.35-.288-.36-.12-.66-.27-.9-.45a1.708 1.708 0 01-.504-.72c-.108-.288-.162-.648-.162-1.08 0-.432.078-.81.234-1.134.168-.324.396-.594.684-.81.288-.216.63-.372 1.026-.468a4.914 4.914 0 011.296-.162c.372 0 .786.024 1.242.072.456.036.96.096 1.512.18l.504.09-.036 1.152a35.788 35.788 0 00-1.8-.216 14.82 14.82 0 00-1.35-.072zm10.203-1.026v1.17h-2.862v4.302c0 1.044.078 1.722.234 2.034.144.324.498.486 1.062.486l1.602-.108.09 1.116c-.408.06-.768.108-1.08.144a6.53 6.53 0 01-.756.054c-.468 0-.864-.054-1.188-.162a1.468 1.468 0 01-.756-.522c-.192-.252-.33-.588-.414-1.008-.084-.42-.126-.954-.126-1.602v-4.734h-1.278v-1.17h1.278V75.11h1.332v2.754h2.862zm8.002 2.718v4.608c.036.444.384.708 1.044.792l-.054 1.062c-.948 0-1.662-.24-2.142-.72-1.068.48-2.148.72-3.24.72-.828 0-1.458-.234-1.89-.702-.432-.468-.648-1.14-.648-2.016 0-.876.222-1.518.666-1.926.444-.42 1.14-.678 2.088-.774l2.826-.27v-.774c0-.612-.132-1.05-.396-1.314s-.624-.396-1.08-.396c-.48 0-.972.018-1.476.054a22.65 22.65 0 00-1.512.126l-.558.054-.054-1.026c1.284-.264 2.454-.396 3.51-.396 1.02 0 1.758.234 2.214.702.468.456.702 1.188.702 2.196zm-5.544 3.672c0 1.104.456 1.656 1.368 1.656.804 0 1.608-.138 2.412-.414l.414-.144v-2.97l-2.664.252c-.54.048-.93.204-1.17.468-.24.264-.36.648-.36 1.152zm12.87-6.39v1.17h-2.862v4.302c0 1.044.078 1.722.234 2.034.144.324.498.486 1.062.486l1.602-.108.09 1.116c-.408.06-.768.108-1.08.144a6.53 6.53 0 01-.756.054c-.468 0-.864-.054-1.188-.162a1.468 1.468 0 01-.756-.522c-.192-.252-.33-.588-.414-1.008-.084-.42-.126-.954-.126-1.602v-4.734h-1.278v-1.17h1.278V75.11h1.332v2.754h2.862zm7.769 7.884l.522-.054.036 1.062c-.684.096-1.32.168-1.908.216a19.38 19.38 0 01-1.602.072c-1.296 0-2.214-.372-2.754-1.116-.54-.756-.81-1.926-.81-3.51 0-3.156 1.254-4.734 3.762-4.734 1.224 0 2.13.342 2.718 1.026.6.672.9 1.734.9 3.186l-.072 1.026h-5.94c0 1.008.18 1.752.54 2.232.36.468.99.702 1.89.702.9 0 1.806-.036 2.718-.108zm-5.166-3.906h4.68c0-1.104-.18-1.884-.54-2.34-.348-.456-.918-.684-1.71-.684-.804 0-1.41.24-1.818.72-.396.48-.6 1.248-.612 2.304zm13.439-2.286v7.308h-1.35v-9h1.332v.63c.9-.54 1.776-.81 2.628-.81 1.116 0 1.896.306 2.34.918.204-.12.438-.234.702-.342.264-.12.54-.222.828-.306.3-.084.594-.15.882-.198.288-.048.552-.072.792-.072.6 0 1.092.078 1.476.234.396.144.708.39.936.738.24.336.402.792.486 1.368.096.564.144 1.26.144 2.088v4.752h-1.35v-4.716c0-.624-.024-1.146-.072-1.566-.048-.42-.144-.756-.288-1.008a1.063 1.063 0 00-.576-.522c-.24-.108-.558-.162-.954-.162-.396 0-.804.06-1.224.18-.42.108-.744.216-.972.324l-.342.162c.156.384.234 1.26.234 2.628v4.68h-1.35V82.22c0-.648-.024-1.182-.072-1.602-.048-.432-.144-.774-.288-1.026a1.053 1.053 0 00-.576-.54c-.24-.108-.558-.162-.954-.162-.384 0-.78.06-1.188.18a5.195 5.195 0 00-.918.324l-.306.162zm20.05 1.026v4.608c.036.444.384.708 1.044.792l-.054 1.062c-.948 0-1.662-.24-2.142-.72-1.068.48-2.148.72-3.24.72-.828 0-1.458-.234-1.89-.702-.432-.468-.648-1.14-.648-2.016 0-.876.222-1.518.666-1.926.444-.42 1.14-.678 2.088-.774l2.826-.27v-.774c0-.612-.132-1.05-.396-1.314s-.624-.396-1.08-.396c-.48 0-.972.018-1.476.054a22.65 22.65 0 00-1.512.126l-.558.054-.054-1.026c1.284-.264 2.454-.396 3.51-.396 1.02 0 1.758.234 2.214.702.468.456.702 1.188.702 2.196zm-5.544 3.672c0 1.104.456 1.656 1.368 1.656.804 0 1.608-.138 2.412-.414l.414-.144v-2.97l-2.664.252c-.54.048-.93.204-1.17.468-.24.264-.36.648-.36 1.152zm9.558-4.698v7.308h-1.35v-9h1.332v.63c.972-.54 1.902-.81 2.79-.81.6 0 1.092.078 1.476.234.396.144.708.39.936.738.24.348.402.804.486 1.368.096.564.144 1.26.144 2.088v4.752h-1.332v-4.716c0-.624-.03-1.146-.09-1.566-.048-.42-.144-.756-.288-1.008a1.14 1.14 0 00-.594-.522c-.252-.108-.576-.162-.972-.162-.384 0-.792.06-1.224.18-.42.108-.744.216-.972.324l-.342.162zm14.672 1.026v4.608c.036.444.384.708 1.044.792l-.054 1.062c-.948 0-1.662-.24-2.142-.72-1.068.48-2.148.72-3.24.72-.828 0-1.458-.234-1.89-.702-.432-.468-.648-1.14-.648-2.016 0-.876.222-1.518.666-1.926.444-.42 1.14-.678 2.088-.774l2.826-.27v-.774c0-.612-.132-1.05-.396-1.314s-.624-.396-1.08-.396c-.48 0-.972.018-1.476.054a22.65 22.65 0 00-1.512.126l-.558.054-.054-1.026c1.284-.264 2.454-.396 3.51-.396 1.02 0 1.758.234 2.214.702.468.456.702 1.188.702 2.196zm-5.544 3.672c0 1.104.456 1.656 1.368 1.656.804 0 1.608-.138 2.412-.414l.414-.144v-2.97l-2.664.252c-.54.048-.93.204-1.17.468-.24.264-.36.648-.36 1.152zm11.682 6.84c-.72 0-1.326-.048-1.818-.144-.492-.084-.894-.234-1.206-.45-.3-.204-.516-.48-.648-.828s-.198-.78-.198-1.296c0-.252.024-.474.072-.666.06-.18.144-.36.252-.54.12-.168.27-.33.45-.486.18-.168.396-.348.648-.54-.336-.228-.504-.642-.504-1.242 0-.204.15-.582.45-1.134l.162-.288c-.948-.432-1.422-1.338-1.422-2.718 0-2.052 1.122-3.078 3.366-3.078.6 0 1.134.06 1.602.18l.27.054 2.664-.072v1.152l-1.71-.036c.396.396.594.996.594 1.8 0 1.128-.282 1.92-.846 2.376-.552.444-1.428.666-2.628.666-.348 0-.642-.024-.882-.072-.216.516-.324.858-.324 1.026 0 .372.114.6.342.684.252.096.942.144 2.07.144.576 0 1.068.042 1.476.126.408.072.744.21 1.008.414s.456.474.576.81c.12.348.18.78.18 1.296 0 1.908-1.332 2.862-3.996 2.862zm-2.412-10.332c0 .72.156 1.23.468 1.53.324.288.852.432 1.584.432.732 0 1.254-.15 1.566-.45.312-.3.468-.81.468-1.53s-.156-1.224-.468-1.512c-.312-.3-.834-.45-1.566-.45-.732 0-1.26.15-1.584.45-.312.3-.468.81-.468 1.53zm-.126 7.506c0 .324.042.594.126.81.084.216.222.39.414.522.192.132.444.222.756.27.324.06.726.09 1.206.09.96 0 1.644-.132 2.052-.396.408-.264.612-.708.612-1.332 0-.3-.036-.546-.108-.738a.804.804 0 00-.342-.45c-.168-.108-.396-.18-.684-.216a8.954 8.954 0 00-1.08-.054l-1.944-.09c-.396.288-.666.54-.81.756-.132.216-.198.492-.198.828zm14.43-2.52l.522-.054.036 1.062c-.684.096-1.32.168-1.908.216a19.38 19.38 0 01-1.602.072c-1.296 0-2.214-.372-2.754-1.116-.54-.756-.81-1.926-.81-3.51 0-3.156 1.254-4.734 3.762-4.734 1.224 0 2.13.342 2.718 1.026.6.672.9 1.734.9 3.186l-.072 1.026h-5.94c0 1.008.18 1.752.54 2.232.36.468.99.702 1.89.702.9 0 1.806-.036 2.718-.108zm-5.166-3.906h4.68c0-1.104-.18-1.884-.54-2.34-.348-.456-.918-.684-1.71-.684-.804 0-1.41.24-1.818.72-.396.48-.6 1.248-.612 2.304zM297 86.863h-1.35v-9h1.332v1.224a8.991 8.991 0 013.294-1.422v1.368a7.632 7.632 0 00-.792.198 20.55 20.55 0 00-.792.27 7.815 7.815 0 00-.702.27c-.216.096-.396.18-.54.252l-.45.234v6.606z" fill="#141134"/><path fill-rule="evenodd" clip-rule="evenodd" d="M22.039 17.936a34.356 34.356 0 0122.114-1.425 4.909 4.909 0 00-1.923 3.896v.013A26.997 26.997 0 004.292 45.103a27 27 0 001.56 9.045 4.906 4.906 0 00-4.542 1.254 34.356 34.356 0 0120.73-37.467zm28.343 8.076a27.025 27.025 0 00-1.21-1.137A4.909 4.909 0 0052 19.715a34.35 34.35 0 017.277 5.466 6.404 6.404 0 00-2.781.477 6.382 6.382 0 00-3.453 3.451 26.995 26.995 0 00-2.66-3.097zM9.286 60.747a4.918 4.918 0 01-1.087 1.65 4.91 4.91 0 01-4.351 1.36A34.347 34.347 0 009.5 72.492a6.379 6.379 0 014.125-6.973 27.044 27.044 0 01-4.339-4.773zm12.753 20.67a34.347 34.347 0 01-6.453-3.524c.073.002.146.004.22.004a6.381 6.381 0 006.297-7.407 27 27 0 008.812 1.61 7.904 7.904 0 001.948 11.854 34.346 34.346 0 01-10.824-2.537zm18.859-11.082a7.905 7.905 0 01.998 13.036 34.346 34.346 0 0017.997-9.822 7.502 7.502 0 01-11.307-7.714 26.998 26.998 0 01-7.688 4.5zm26.029-7.511a34.348 34.348 0 01-3.985 7.099 7.501 7.501 0 00-9.11-9.958 26.997 26.997 0 003.402-7.384 7.406 7.406 0 0011.996 1.716 34.346 34.346 0 01-2.303 8.527zm-8.648-18.5a7.408 7.408 0 0110.787-.347 34.348 34.348 0 00-3.894-11.07 6.38 6.38 0 01-7.915 4.801 26.996 26.996 0 011.022 6.615zM28.373 21.282a23.992 23.992 0 0119.888 6.85 23.998 23.998 0 01.438 33.49 4.909 4.909 0 00-2.183-4 15.3 15.3 0 006.509-12.52A15.296 15.296 0 0032.43 30.756a8.147 8.147 0 00-4.058-9.474zm13.982 45.116a4.909 4.909 0 01-3.28-6.06 15.313 15.313 0 01-5.594-.543 7.336 7.336 0 01.791 3.311 7.322 7.322 0 01-3.116 5.995h.135a23.998 23.998 0 0011.064-2.703zm-15.57-10.613a15.294 15.294 0 01-3.422-5.435A8.656 8.656 0 018.526 52.7a24.007 24.007 0 0011.948 13.827 7.322 7.322 0 016.31-10.74zM9.15 41.154a8.656 8.656 0 00-1.826 2.69 23.999 23.999 0 019.55-17.928 8.149 8.149 0 008.114 10.726 15.302 15.302 0 00-2.365 6.064A8.655 8.655 0 009.15 41.154zm28.579-8.346a12.295 12.295 0 100 24.59 12.295 12.295 0 000-24.59zm-15.099-9.06a5.148 5.148 0 015.61 8.396 5.147 5.147 0 11-5.61-8.395zM15.272 41.62a5.655 5.655 0 00-2.164 10.882 5.655 5.655 0 104.329-10.451 5.655 5.655 0 00-2.165-.431zm10.024 17.495a4.324 4.324 0 113.308 7.989 4.324 4.324 0 01-3.308-7.99zm33.64-30.942a3.38 3.38 0 100 6.76 3.38 3.38 0 000-6.76zM62.15 45.15a4.407 4.407 0 113.373 8.143 4.407 4.407 0 01-3.373-8.143zm-6.18 17.503a4.502 4.502 0 100 9.005 4.502 4.502 0 000-9.005zM35.085 72.66a4.906 4.906 0 113.755 9.066 4.906 4.906 0 01-3.756-9.066zm-19.28-4.523a3.38 3.38 0 100 6.76 3.38 3.38 0 000-6.76zM3.998 57.163a1.91 1.91 0 111.461 3.529 1.91 1.91 0 01-1.461-3.53zM47.14 18.498a1.908 1.908 0 00-1.35 3.259 1.91 1.91 0 003.259-1.35 1.91 1.91 0 00-1.91-1.91zm-4.08 41.443a1.91 1.91 0 111.462 3.53 1.91 1.91 0 01-1.461-3.53z" fill="#141134"/></svg>