<svg width="70" height="69" viewBox="0 0 70 69" fill="none" xmlns="http://www.w3.org/2000/svg">
<path fill-rule="evenodd" clip-rule="evenodd" d="M22.0386 2.93551C29.0876 0.0156991 36.8662 -0.459182 44.1525 1.51086C43.9821 1.64145 43.8201 1.78334 43.6677 1.93578C43.2119 2.39163 42.8503 2.9328 42.6036 3.52839C42.3569 4.12399 42.2299 4.76234 42.2299 5.40701L42.2299 5.41963C42.0288 5.33052 41.8266 5.24382 41.6231 5.15955C38.3475 3.80274 34.8367 3.10439 31.2911 3.10439C27.7456 3.10439 24.2348 3.80274 20.9592 5.15955C17.6835 6.51636 14.7072 8.50508 12.2001 11.0121C9.69307 13.5192 7.70436 16.4955 6.34754 19.7712C4.99073 23.0468 4.29238 26.5576 4.29238 30.1031C4.29238 33.1885 4.82121 36.2475 5.85258 39.1482C5.48465 39.0615 5.10708 39.0175 4.72732 39.0175C4.08266 39.0175 3.4443 39.1445 2.84871 39.3912C2.27659 39.6281 1.7547 39.9711 1.3104 40.4018C0.243001 34.0856 0.954623 27.5418 3.44527 21.5288C6.9322 13.1107 13.6204 6.42243 22.0386 2.93551ZM50.3821 11.0122C49.9903 10.6203 49.5869 10.2411 49.1728 9.87495C49.7073 9.63163 50.1942 9.29417 50.6102 8.87824C51.066 8.42239 51.4276 7.88122 51.6743 7.28563C51.921 6.69003 52.048 6.05168 52.048 5.40701C52.048 5.17503 52.0316 4.94386 51.999 4.7152C54.6685 6.21314 57.1134 8.05434 59.2761 10.1813C59.1631 10.1753 59.0499 10.1723 58.9365 10.1723C58.0986 10.1723 57.2689 10.3373 56.4948 10.6579C55.7207 10.9786 55.0173 11.4486 54.4248 12.0411C53.8329 12.633 53.3632 13.3357 53.0425 14.1091C52.237 13.0136 51.348 11.9781 50.3821 11.0122ZM9.28642 45.7468C9.27864 45.7663 9.27074 45.7858 9.26271 45.8052C9.016 46.4008 8.6544 46.9419 8.19856 47.3978C7.74271 47.8536 7.20154 48.2152 6.60594 48.4619C6.01035 48.7086 5.37199 48.8356 4.72732 48.8356C4.43162 48.8356 4.13724 48.8089 3.8477 48.7562C5.28889 51.9641 7.20155 54.9047 9.50035 57.4925C9.45043 57.1702 9.42519 56.8438 9.42519 56.5161C9.42519 55.6782 9.59023 54.8485 9.91088 54.0744C10.2315 53.3003 10.7015 52.5969 11.294 52.0044C11.8865 51.412 12.5898 50.942 13.364 50.6213C13.4503 50.5856 13.5374 50.5517 13.625 50.5198C13.135 50.0958 12.6597 49.6537 12.2001 49.1942C11.1319 48.1259 10.1577 46.9724 9.28642 45.7468ZM22.0386 66.4171C19.7499 65.4691 17.5891 64.2844 15.5857 62.8927C15.6589 62.8953 15.7322 62.8965 15.8056 62.8965C16.6435 62.8965 17.4732 62.7315 18.2473 62.4109C19.0214 62.0902 19.7248 61.6202 20.3173 61.0277C20.9098 60.4353 21.3798 59.7319 21.7004 58.9578C22.0211 58.1837 22.1861 57.354 22.1861 56.5161C22.1861 56.1717 22.1582 55.8287 22.1031 55.4904C24.9283 56.5129 27.9064 57.0573 30.9147 57.0993C30.3928 57.7189 29.9684 58.416 29.6574 59.1669C29.2601 60.1262 29.0556 61.1543 29.0556 62.1926C29.0556 63.2309 29.2601 64.259 29.6574 65.2183C30.0548 66.1776 30.6372 67.0492 31.3713 67.7834C31.8209 68.2329 32.322 68.6256 32.8632 68.9537C29.1752 68.7039 25.518 67.8583 22.0386 66.4171ZM40.8976 55.3351C41.5016 55.6817 42.0584 56.1073 42.5529 56.6018C43.2871 57.336 43.8695 58.2076 44.2668 59.1669C44.6642 60.1262 44.8687 61.1543 44.8687 62.1926C44.8687 63.2309 44.6642 64.259 44.2668 65.2183C43.8695 66.1776 43.2871 67.0492 42.5529 67.7834C42.3446 67.9917 42.1253 68.1877 41.896 68.3708C44.0848 67.935 46.2413 67.2837 48.3335 66.4171C52.7279 64.5969 56.6509 61.9043 59.8932 58.5487C59.558 58.7543 59.2063 58.9338 58.8412 59.085C57.9311 59.462 56.9557 59.656 55.9706 59.656C54.9855 59.656 54.01 59.462 53.0999 59.085C52.1898 58.7081 51.3628 58.1555 50.6663 57.4589C49.9697 56.7624 49.4171 55.9354 49.0402 55.0253C48.6632 54.1152 48.4691 53.1397 48.4691 52.1546C48.4691 51.7112 48.5085 51.2697 48.5861 50.8352C46.4948 52.5798 44.1479 54.001 41.6231 55.0468C41.3825 55.1464 41.1406 55.2425 40.8976 55.3351ZM66.9269 47.8238C65.8761 50.3606 64.5345 52.7404 62.9425 54.9228C63.2922 54.0421 63.472 53.1028 63.472 52.1546C63.472 51.1695 63.2779 50.1941 62.9009 49.284C62.524 48.3739 61.9714 47.5469 61.2748 46.8503C60.5783 46.1538 59.7513 45.6012 58.8412 45.2242C57.9311 44.8473 56.9557 44.6532 55.9706 44.6532C55.2449 44.6532 54.5244 44.7585 53.8315 44.9647C54.7722 43.5379 55.5776 42.0216 56.2347 40.4351C56.6216 39.5012 56.9549 38.5482 57.2338 37.5807C57.5863 38.2735 58.0463 38.9076 58.5977 39.459C59.2855 40.1469 60.1021 40.6925 61.0008 41.0647C61.8995 41.437 62.8627 41.6286 63.8355 41.6286C64.8082 41.6286 65.7715 41.437 66.6702 41.0647C67.5689 40.6925 68.3854 40.1469 69.0733 39.459C69.1264 39.406 69.1786 39.3521 69.2299 39.2975C68.8357 42.2024 68.068 45.0688 66.9269 47.8238ZM58.2786 29.3232C58.3813 29.2068 58.4877 29.0935 58.5977 28.9834C59.2855 28.2956 60.1021 27.75 61.0008 27.3777C61.8995 27.0055 62.8627 26.8139 63.8355 26.8139C64.8082 26.8139 65.7715 27.0055 66.6702 27.3777C67.5657 27.7487 68.3797 28.2918 69.066 28.9762C68.6395 26.4409 67.9265 23.9421 66.9269 21.5288C66.4104 20.282 65.8237 19.0731 65.1716 17.9069C65.091 18.278 64.9773 18.6419 64.8313 18.9944C64.5106 19.7685 64.0406 20.4719 63.4482 21.0644C62.8557 21.6568 62.1523 22.1268 61.3782 22.4475C60.6041 22.7681 59.7744 22.9332 58.9365 22.9332C58.3681 22.9332 57.8035 22.8572 57.2574 22.7083C57.8701 24.8595 58.2138 27.0814 58.2786 29.3232ZM28.3729 6.28248C29.3391 6.16411 30.3136 6.10439 31.2911 6.10439C34.4427 6.10439 37.5634 6.72514 40.4751 7.93119C43.3867 9.13724 46.0323 10.905 48.2608 13.1335C50.4893 15.362 52.2571 18.0076 53.4631 20.9192C54.6692 23.8309 55.2899 26.9516 55.2899 30.1032C55.2899 33.2547 54.6692 36.3754 53.4631 39.2871C52.3371 42.0054 50.7216 44.4918 48.6987 46.6234C48.6885 46.0065 48.562 45.3967 48.3257 44.8262C48.079 44.2307 47.7174 43.6895 47.2615 43.2336C47.0333 43.0053 46.7836 42.8007 46.5164 42.6223C47.2388 42.1152 47.9177 41.5454 48.5448 40.9183C49.965 39.4981 51.0916 37.812 51.8603 35.9563C52.6289 34.1007 53.0245 32.1118 53.0245 30.1033C53.0245 28.0947 52.6289 26.1059 51.8603 24.2502C51.0916 22.3946 49.965 20.7085 48.5448 19.2882C47.1245 17.868 45.4384 16.7414 43.5828 15.9727C41.7271 15.2041 39.7383 14.8085 37.7297 14.8085C35.9198 14.8085 34.1258 15.1297 32.4309 15.7557C32.641 15.0251 32.7483 14.2672 32.7483 13.504C32.7483 12.4341 32.5376 11.3747 32.1281 10.3862C31.7187 9.39775 31.1186 8.49961 30.362 7.74308C29.776 7.15705 29.105 6.66487 28.3729 6.28248ZM42.355 51.3994C42.2051 51.3536 42.0571 51.3005 41.9117 51.2402C41.3161 50.9935 40.7749 50.6319 40.3191 50.1761C39.8632 49.7202 39.5016 49.1791 39.2549 48.5835C39.0082 47.9879 38.8812 47.3495 38.8812 46.7049C38.8812 46.2417 38.9468 45.7819 39.0752 45.3388C38.6285 45.3782 38.1796 45.398 37.7297 45.398C36.2895 45.398 34.8593 45.1946 33.4812 44.7961C33.5655 44.9624 33.6435 45.1321 33.7151 45.3049C34.0831 46.1933 34.2725 47.1455 34.2725 48.1071C34.2725 49.0688 34.0831 50.021 33.7151 50.9094C33.3471 51.7978 32.8077 52.605 32.1278 53.285C31.8272 53.5855 31.5018 53.8586 31.1556 54.1015C31.2007 54.1018 31.2459 54.1019 31.2911 54.1019C34.4427 54.1019 37.5634 53.4812 40.4751 52.2751C41.1151 52.01 41.7423 51.7177 42.355 51.3994ZM26.7844 40.7864C25.4254 39.3941 24.3442 37.7549 23.5992 35.9563C23.5163 35.7561 23.4377 35.5544 23.3635 35.3512C23.3333 35.4304 23.302 35.5093 23.2695 35.5878C22.8345 36.638 22.1969 37.5922 21.3931 38.396C20.5893 39.1998 19.6351 39.8374 18.5848 40.2725C17.5346 40.7075 16.409 40.9314 15.2723 40.9314C14.1355 40.9314 13.0099 40.7075 11.9597 40.2725C10.9095 39.8374 9.95524 39.1998 9.15144 38.396C8.93021 38.1748 8.72156 37.9422 8.52627 37.6993C8.70489 38.2346 8.9026 38.7642 9.11918 39.2871C10.3252 42.1987 12.093 44.8443 14.3215 47.0728C16.1258 48.8771 18.2035 50.3794 20.4745 51.5261C20.3686 51.3255 20.2719 51.1197 20.1847 50.9094C19.8167 50.021 19.6273 49.0688 19.6273 48.1071C19.6273 47.1455 19.8167 46.1933 20.1847 45.3049C20.5527 44.4165 21.0921 43.6093 21.7721 42.9293C22.452 42.2493 23.2593 41.71 24.1477 41.342C24.9851 40.9951 25.8792 40.8069 26.7844 40.7864ZM9.15144 26.1544C8.37818 26.9276 7.75871 27.8402 7.32547 28.8434C7.4685 26.1223 8.07409 23.4423 9.11918 20.9192C10.3252 18.0076 12.093 15.362 14.3215 13.1335C15.1215 12.3334 15.9753 11.5927 16.8759 10.9161C16.5969 11.7491 16.454 12.623 16.454 13.504C16.454 14.5739 16.6647 15.6333 17.0742 16.6218C17.4836 17.6102 18.0837 18.5083 18.8402 19.2649C19.5968 20.0214 20.4949 20.6215 21.4834 21.031C22.4718 21.4404 23.5312 21.6511 24.6011 21.6511C24.7305 21.6511 24.8597 21.648 24.9886 21.6419C24.4437 22.4625 23.978 23.3358 23.5992 24.2502C23.1386 25.3623 22.8119 26.5223 22.624 27.7057C22.2752 27.1445 21.8625 26.6238 21.3931 26.1544C20.5893 25.3506 19.6351 24.713 18.5848 24.278C17.5346 23.8429 16.409 23.619 15.2723 23.619C14.1355 23.619 13.0099 23.8429 11.9597 24.278C10.9095 24.713 9.95524 25.3506 9.15144 26.1544ZM37.7297 17.8085C36.1152 17.8085 34.5164 18.1265 33.0247 18.7444C31.5331 19.3622 30.1777 20.2679 29.036 21.4096C27.8943 22.5512 26.9887 23.9066 26.3708 25.3983C25.753 26.8899 25.435 28.4887 25.435 30.1033C25.435 31.7178 25.753 33.3166 26.3708 34.8083C26.9887 36.2999 27.8943 37.6553 29.036 38.797C30.1777 39.9387 31.5331 40.8443 33.0247 41.4622C34.5164 42.08 36.1152 42.398 37.7297 42.398C39.3443 42.398 40.9431 42.08 42.4347 41.4622C43.9264 40.8443 45.2818 39.9387 46.4235 38.797C47.5651 37.6553 48.4708 36.3 49.0886 34.8083C49.7065 33.3166 50.0245 31.7178 50.0245 30.1033C50.0245 28.4887 49.7065 26.8899 49.0886 25.3983C48.4708 23.9066 47.5651 22.5512 46.4235 21.4096C45.2818 20.2679 43.9264 19.3622 42.4347 18.7444C40.9431 18.1265 39.3443 17.8085 37.7297 17.8085ZM22.6314 8.74864C23.2559 8.48997 23.9252 8.35683 24.6011 8.35683C25.2771 8.35683 25.9464 8.48997 26.5709 8.74864C27.1954 9.00731 27.7628 9.38644 28.2407 9.8644C28.7187 10.3424 29.0978 10.9098 29.3565 11.5343C29.6152 12.1587 29.7483 12.828 29.7483 13.504C29.7483 14.1799 29.6152 14.8492 29.3565 15.4737C29.0978 16.0982 28.7187 16.6656 28.2407 17.1436C27.7628 17.6215 27.1954 18.0006 26.5709 18.2593C25.9464 18.518 25.2771 18.6511 24.6011 18.6511C23.9252 18.6511 23.2559 18.518 22.6314 18.2593C22.0069 18.0006 21.4395 17.6215 20.9616 17.1436C20.4836 16.6656 20.1045 16.0982 19.8458 15.4737C19.5871 14.8492 19.454 14.1799 19.454 13.504C19.454 12.828 19.5871 12.1587 19.8458 11.5343C20.1045 10.9098 20.4836 10.3424 20.9616 9.8644C21.4395 9.38644 22.0069 9.00731 22.6314 8.74864ZM15.2723 26.619C14.5295 26.619 13.794 26.7653 13.1078 27.0496C12.4215 27.3338 11.798 27.7505 11.2728 28.2757C10.7475 28.8009 10.3309 29.4244 10.0467 30.1107C9.76241 30.7969 9.61611 31.5324 9.61611 32.2752C9.61611 33.018 9.76241 33.7535 10.0467 34.4397C10.3309 35.126 10.7475 35.7495 11.2728 36.2747C11.798 36.7999 12.4215 37.2166 13.1078 37.5008C13.794 37.7851 14.5295 37.9314 15.2723 37.9314C16.0151 37.9314 16.7506 37.7851 17.4368 37.5008C18.123 37.2166 18.7466 36.7999 19.2718 36.2747C19.797 35.7495 20.2136 35.126 20.4979 34.4397C20.7821 33.7535 20.9284 33.018 20.9284 32.2752C20.9284 31.5324 20.7821 30.7969 20.4979 30.1107C20.2136 29.4244 19.797 28.8009 19.2718 28.2757C18.7466 27.7505 18.123 27.3338 17.4368 27.0496C16.7506 26.7653 16.0151 26.619 15.2723 26.619ZM25.2957 44.1136C25.8202 43.8964 26.3823 43.7846 26.9499 43.7846C27.5176 43.7846 28.0797 43.8964 28.6041 44.1136C29.1285 44.3308 29.605 44.6492 30.0064 45.0506C30.4078 45.452 30.7262 45.9285 30.9435 46.453C31.1607 46.9774 31.2725 47.5395 31.2725 48.1071C31.2725 48.6748 31.1607 49.2369 30.9435 49.7613C30.7262 50.2858 30.4078 50.7623 30.0064 51.1637C29.605 51.5651 29.1285 51.8834 28.6041 52.1007C28.0797 52.3179 27.5176 52.4297 26.9499 52.4297C26.3823 52.4297 25.8202 52.3179 25.2957 52.1007C24.7713 51.8834 24.2948 51.5651 23.8934 51.1637C23.492 50.7623 23.1736 50.2858 22.9564 49.7613C22.7391 49.2369 22.6273 48.6748 22.6273 48.1071C22.6273 47.5395 22.7391 46.9774 22.9564 46.453C23.1736 45.9285 23.492 45.452 23.8934 45.0506C24.2948 44.6492 24.7713 44.3308 25.2957 44.1136ZM58.9365 13.1723C58.4926 13.1723 58.053 13.2597 57.6429 13.4296C57.2327 13.5995 56.8601 13.8485 56.5462 14.1624C56.2323 14.4763 55.9833 14.8489 55.8134 15.2591C55.6435 15.6692 55.5561 16.1088 55.5561 16.5527C55.5561 16.9966 55.6435 17.4362 55.8134 17.8464C55.9833 18.2565 56.2323 18.6291 56.5462 18.943C56.8601 19.257 57.2327 19.506 57.6429 19.6758C58.053 19.8457 58.4926 19.9332 58.9365 19.9332C59.3804 19.9332 59.82 19.8457 60.2301 19.6758C60.6403 19.506 61.0129 19.257 61.3268 18.943C61.6407 18.6291 61.8897 18.2565 62.0596 17.8464C62.2295 17.4362 62.3169 16.9966 62.3169 16.5527C62.3169 16.1088 62.2295 15.6692 62.0596 15.2591C61.8897 14.8489 61.6407 14.4763 61.3268 14.1624C61.0129 13.8485 60.6403 13.5995 60.2301 13.4296C59.82 13.2597 59.3804 13.1723 58.9365 13.1723ZM62.1489 30.1494C62.6836 29.9279 63.2567 29.8139 63.8355 29.8139C64.4143 29.8139 64.9874 29.9279 65.5221 30.1494C66.0568 30.3708 66.5427 30.6955 66.952 31.1048C67.3612 31.514 67.6859 31.9999 67.9074 32.5346C68.1289 33.0693 68.2429 33.6424 68.2429 34.2212C68.2429 34.8 68.1289 35.3731 67.9074 35.9079C67.6859 36.4426 67.3612 36.9284 66.952 37.3377C66.5427 37.747 66.0568 38.0716 65.5221 38.2931C64.9874 38.5146 64.4143 38.6286 63.8355 38.6286C63.2567 38.6286 62.6836 38.5146 62.1489 38.2931C61.6141 38.0716 61.1283 37.747 60.719 37.3377C60.3098 36.9284 59.9851 36.4426 59.7636 35.9079C59.5421 35.3731 59.4281 34.8 59.4281 34.2212C59.4281 33.6424 59.5421 33.0693 59.7636 32.5346C59.9851 31.9999 60.3098 31.514 60.719 31.1048C61.1283 30.6955 61.6141 30.3708 62.1489 30.1494ZM55.9706 47.6532C55.3794 47.6532 54.7941 47.7697 54.2479 47.9959C53.7018 48.2221 53.2056 48.5537 52.7876 48.9717C52.3696 49.3896 52.038 49.8859 51.8118 50.432C51.5856 50.9782 51.4691 51.5635 51.4691 52.1546C51.4691 52.7458 51.5856 53.3311 51.8118 53.8772C52.038 54.4234 52.3696 54.9196 52.7876 55.3376C53.2056 55.7556 53.7018 56.0872 54.2479 56.3134C54.7941 56.5396 55.3794 56.656 55.9706 56.656C56.5617 56.656 57.147 56.5396 57.6932 56.3134C58.2393 56.0872 58.7355 55.7556 59.1535 55.3376C59.5715 54.9196 59.9031 54.4234 60.1293 53.8772C60.3555 53.3311 60.472 52.7458 60.472 52.1546C60.472 51.5635 60.3555 50.9782 60.1293 50.432C59.9031 49.8859 59.5715 49.3896 59.1535 48.9717C58.7355 48.5537 58.2393 48.2221 57.6932 47.9959C57.147 47.7697 56.5617 47.6532 55.9706 47.6532ZM35.0845 57.6595C35.6798 57.4129 36.3178 57.286 36.9621 57.286C37.6065 57.286 38.2445 57.4129 38.8398 57.6595C39.4351 57.9061 39.976 58.2675 40.4316 58.7231C40.8872 59.1787 41.2486 59.7196 41.4952 60.3149C41.7418 60.9102 41.8687 61.5483 41.8687 62.1926C41.8687 62.8369 41.7418 63.475 41.4952 64.0703C41.2486 64.6656 40.8872 65.2064 40.4316 65.6621C39.976 66.1177 39.4351 66.4791 38.8398 66.7257C38.2445 66.9723 37.6065 67.0992 36.9621 67.0992C36.3178 67.0992 35.6798 66.9723 35.0845 66.7257C34.4892 66.4791 33.9483 66.1177 33.4927 65.6621C33.037 65.2064 32.6756 64.6656 32.4291 64.0703C32.1825 63.475 32.0556 62.8369 32.0556 62.1926C32.0556 61.5483 32.1825 60.9102 32.4291 60.3149C32.6756 59.7196 33.037 59.1787 33.4927 58.7231C33.9483 58.2675 34.4892 57.9061 35.0845 57.6595ZM15.8056 53.1356C15.3617 53.1356 14.9221 53.2231 14.512 53.393C14.1019 53.5628 13.7292 53.8118 13.4153 54.1258C13.1014 54.4397 12.8524 54.8123 12.6825 55.2225C12.5126 55.6326 12.4252 56.0722 12.4252 56.5161C12.4252 56.96 12.5126 57.3996 12.6825 57.8097C12.8524 58.2199 13.1014 58.5925 13.4153 58.9064C13.7292 59.2203 14.1019 59.4693 14.512 59.6392C14.9221 59.8091 15.3617 59.8965 15.8056 59.8965C16.2496 59.8965 16.6891 59.8091 17.0993 59.6392C17.5094 59.4693 17.8821 59.2203 18.196 58.9064C18.5099 58.5925 18.7589 58.2199 18.9288 57.8097C19.0987 57.3996 19.1861 56.96 19.1861 56.5161C19.1861 56.0722 19.0987 55.6326 18.9288 55.2225C18.7589 54.8123 18.5099 54.4397 18.196 54.1258C17.8821 53.8119 17.5094 53.5628 17.0993 53.393C16.6891 53.2231 16.2496 53.1356 15.8056 53.1356ZM3.99676 42.1628C4.22838 42.0669 4.47662 42.0175 4.72732 42.0175C4.97803 42.0175 5.22627 42.0669 5.45789 42.1628C5.68951 42.2587 5.89996 42.3994 6.07724 42.5766C6.25451 42.7539 6.39513 42.9644 6.49107 43.196C6.58701 43.4276 6.63639 43.6758 6.63639 43.9265C6.63639 44.1772 6.58701 44.4255 6.49107 44.6571C6.39513 44.8887 6.25451 45.0992 6.07724 45.2765C5.89996 45.4537 5.68951 45.5943 5.45789 45.6903C5.22627 45.7862 4.97803 45.8356 4.72732 45.8356C4.47662 45.8356 4.22838 45.7862 3.99676 45.6903C3.76514 45.5943 3.55469 45.4537 3.37741 45.2765C3.20014 45.0992 3.05952 44.8887 2.96358 44.6571C2.86764 44.4255 2.81826 44.1772 2.81826 43.9265C2.81826 43.6758 2.86764 43.4276 2.96358 43.196C3.05952 42.9644 3.20014 42.7539 3.37741 42.5766C3.55469 42.3994 3.76514 42.2587 3.99676 42.1628ZM47.1389 3.49795C46.8882 3.49795 46.64 3.54733 46.4084 3.64327C46.1768 3.73921 45.9663 3.87983 45.789 4.0571C45.6118 4.23437 45.4711 4.44483 45.3752 4.67644C45.2793 4.90806 45.2299 5.15631 45.2299 5.40701C45.2299 5.65771 45.2793 5.90596 45.3752 6.13758C45.4711 6.3692 45.6118 6.57965 45.789 6.75692C45.9663 6.9342 46.1768 7.07482 46.4084 7.17076C46.64 7.2667 46.8882 7.31607 47.1389 7.31607C47.3896 7.31607 47.6379 7.2667 47.8695 7.17076C48.1011 7.07482 48.3116 6.9342 48.4889 6.75692C48.6661 6.57965 48.8068 6.3692 48.9027 6.13758C48.9986 5.90596 49.048 5.65771 49.048 5.40701C49.048 5.15631 48.9986 4.90806 48.9027 4.67644C48.8068 4.44483 48.6661 4.23437 48.4889 4.0571C48.3116 3.87983 48.1011 3.73921 47.8695 3.64327C47.6379 3.54733 47.3896 3.49795 47.1389 3.49795ZM43.0597 44.9411C43.2914 44.8452 43.5396 44.7958 43.7903 44.7958C44.041 44.7958 44.2893 44.8452 44.5209 44.9411C44.7525 45.0371 44.963 45.1777 45.1402 45.355C45.3175 45.5322 45.4581 45.7427 45.5541 45.9743C45.65 46.2059 45.6994 46.4542 45.6994 46.7049C45.6994 46.9556 45.65 47.2038 45.5541 47.4354C45.4581 47.667 45.3175 47.8775 45.1402 48.0548C44.963 48.232 44.7525 48.3727 44.5209 48.4686C44.2893 48.5645 44.041 48.6139 43.7903 48.6139C43.5396 48.6139 43.2914 48.5645 43.0597 48.4686C42.8281 48.3727 42.6177 48.232 42.4404 48.0548C42.2631 47.8775 42.1225 47.667 42.0266 47.4354C41.9306 47.2038 41.8812 46.9556 41.8812 46.7049C41.8812 46.4542 41.9306 46.2059 42.0266 45.9743C42.1225 45.7427 42.2631 45.5322 42.4404 45.355C42.6177 45.1777 42.8281 45.0371 43.0597 44.9411Z" fill="#141134"/>
</svg>
