<svg width="335" height="112" viewBox="0 0 335 112" fill="none" xmlns="http://www.w3.org/2000/svg">
<path d="M109.256 48.2953H97.6644V65.8633H89.6724V16.5433H108.392C119.528 16.5433 125.096 21.7753 125.096 32.2393C125.096 39.2473 122.408 43.9993 117.032 46.4953L125.168 65.8633H116.384L109.256 48.2953ZM116.888 32.3113C116.888 26.4073 114.056 23.4553 108.392 23.4553H97.6644V41.3833H108.536C111.416 41.3833 113.528 40.5673 114.872 38.9353C116.216 37.2553 116.888 35.0473 116.888 32.3113ZM158.876 59.3833L160.892 59.1673L161.036 64.9993C158.3 65.5273 155.732 65.9353 153.332 66.2233C150.932 66.5113 148.652 66.6553 146.492 66.6553C141.164 66.6553 137.324 65.1913 134.972 62.2633C132.668 59.3353 131.516 54.6553 131.516 48.2233C131.516 35.4553 136.724 29.0713 147.14 29.0713C157.22 29.0713 162.26 34.5673 162.26 45.5593L161.756 51.1753H139.436C139.484 54.1513 140.132 56.3353 141.38 57.7273C142.628 59.1193 144.956 59.8153 148.364 59.8153C151.772 59.8153 155.276 59.6713 158.876 59.3833ZM139.364 45.1273H154.556C154.556 41.5273 154.004 39.0313 152.9 37.6393C151.796 36.2473 149.876 35.5513 147.14 35.5513C144.404 35.5513 142.436 36.2953 141.236 37.7833C140.036 39.2233 139.412 41.6713 139.364 45.1273ZM196.447 40.9513V57.3673C196.495 58.4233 196.759 59.2153 197.239 59.7433C197.767 60.2233 198.559 60.5353 199.615 60.6793L199.399 66.6553C195.223 66.6553 192.031 65.7673 189.823 63.9913C186.079 65.7673 182.215 66.6553 178.231 66.6553C171.079 66.6553 167.503 62.8393 167.503 55.2073C167.503 51.5593 168.463 48.9193 170.383 47.2873C172.303 45.6553 175.303 44.6713 179.383 44.3353L188.671 43.5433V40.9513C188.671 39.0313 188.239 37.6873 187.375 36.9193C186.559 36.1513 185.335 35.7673 183.703 35.7673C182.167 35.7673 180.439 35.8153 178.519 35.9113C176.599 36.0073 174.487 36.1513 172.183 36.3433L169.879 36.4873L169.591 30.9433C174.967 29.6953 179.791 29.0713 184.063 29.0713C188.479 29.0713 191.647 30.0073 193.567 31.8793C195.487 33.7513 196.447 36.7753 196.447 40.9513ZM188.671 49.0873L180.319 49.8793C177.007 50.1673 175.351 51.9673 175.351 55.2793C175.351 58.5913 176.815 60.2473 179.743 60.2473C182.239 60.2473 184.783 59.8633 187.375 59.0953L188.671 58.6633V49.0873ZM225.667 29.8633V36.5593H215.731V52.3993C215.731 53.8393 215.755 55.0393 215.803 55.9993C215.899 56.9593 216.091 57.7033 216.379 58.2313C216.667 58.7593 217.075 59.1433 217.603 59.3833C218.131 59.5753 218.827 59.6713 219.691 59.6713L225.595 59.4553L225.955 65.7193C222.835 66.3433 220.387 66.6553 218.611 66.6553C216.595 66.6553 214.891 66.4393 213.499 66.0073C212.155 65.5753 211.051 64.8553 210.187 63.8473C209.371 62.8393 208.795 61.4713 208.459 59.7433C208.123 58.0153 207.955 55.8553 207.955 53.2633V36.5593H203.347V29.8633H207.955V19.4233H215.731V29.8633H225.667ZM246.432 29.0713C252.192 29.0713 256.296 30.6313 258.744 33.7513C261.24 36.8713 262.488 41.5513 262.488 47.7913C262.488 50.9113 262.2 53.6473 261.624 55.9993C261.048 58.3513 260.136 60.3193 258.888 61.9033C257.64 63.4873 255.984 64.6873 253.92 65.5033C251.904 66.2713 249.408 66.6553 246.432 66.6553C243.504 66.6553 241.008 66.2713 238.944 65.5033C236.88 64.6873 235.224 63.4873 233.976 61.9033C232.728 60.3193 231.816 58.3513 231.24 55.9993C230.664 53.6473 230.376 50.9113 230.376 47.7913C230.376 44.9593 230.64 42.3913 231.168 40.0873C231.696 37.7833 232.56 35.8153 233.76 34.1833C235.008 32.5513 236.664 31.3033 238.728 30.4393C240.792 29.5273 243.36 29.0713 246.432 29.0713ZM239.952 57.1513C241.008 59.0713 243.168 60.0313 246.432 60.0313C248.016 60.0313 249.336 59.8153 250.392 59.3833C251.448 58.9033 252.288 58.1593 252.912 57.1513C253.536 56.1433 253.968 54.8713 254.208 53.3353C254.448 51.7513 254.568 49.8793 254.568 47.7193C254.568 43.3513 253.968 40.2553 252.768 38.4313C251.616 36.6073 249.504 35.6953 246.432 35.6953C243.36 35.6953 241.224 36.6073 240.024 38.4313C238.872 40.2553 238.296 43.3513 238.296 47.7193C238.296 52.0393 238.848 55.1833 239.952 57.1513ZM278.131 37.9273V65.8633H270.283V29.8633H278.059V32.0953C281.467 30.0793 284.587 29.0713 287.419 29.0713C291.595 29.0713 294.643 30.2473 296.563 32.5993C300.931 30.2473 305.275 29.0713 309.595 29.0713C311.755 29.0713 313.579 29.3833 315.067 30.0073C316.603 30.6313 317.827 31.6633 318.739 33.1033C319.699 34.4953 320.371 36.2953 320.755 38.5033C321.187 40.7113 321.403 43.3993 321.403 46.5673V65.8633H313.627V46.7833C313.627 42.8953 313.219 40.1353 312.403 38.5033C311.635 36.8713 310.003 36.0553 307.507 36.0553C305.443 36.0553 303.115 36.5353 300.523 37.4953L299.299 37.9993C299.683 39.0073 299.875 42.0793 299.875 47.2153V65.8633H292.099V47.3593C292.099 45.1993 292.003 43.3993 291.811 41.9593C291.667 40.5193 291.379 39.3673 290.947 38.5033C290.515 37.6393 289.891 37.0153 289.075 36.6313C288.259 36.2473 287.203 36.0553 285.907 36.0553C283.603 36.0553 281.371 36.5353 279.211 37.4953L278.131 37.9273Z" fill="#141134"/>
<path d="M93.8604 73.9393H95.1924V86.8633H93.8604V86.2513C92.9364 86.7793 92.0244 87.0433 91.1244 87.0433C90.4404 87.0433 89.8884 86.9233 89.4684 86.6833C89.0484 86.4433 88.7184 86.1193 88.4784 85.7113C88.2504 85.3033 88.0944 84.8353 88.0104 84.3073C87.9264 83.7673 87.8844 83.2033 87.8844 82.6153C87.8844 80.8633 88.1724 79.6033 88.7484 78.8353C89.3364 78.0673 90.3024 77.6833 91.6464 77.6833C92.3784 77.6833 93.1164 77.7613 93.8604 77.9173V73.9393ZM91.3584 85.8373C91.5264 85.8373 91.7064 85.8253 91.8984 85.8013C92.1024 85.7653 92.3004 85.7233 92.4924 85.6753C92.6964 85.6153 92.8824 85.5553 93.0504 85.4953C93.2304 85.4353 93.3804 85.3813 93.5004 85.3333L93.8604 85.1713V79.0693C93.0924 78.9253 92.3784 78.8533 91.7184 78.8533C90.8064 78.8533 90.1704 79.1413 89.8104 79.7173C89.4504 80.2933 89.2704 81.1993 89.2704 82.4353C89.2704 82.8193 89.2884 83.2153 89.3244 83.6233C89.3604 84.0193 89.4444 84.3853 89.5764 84.7213C89.7204 85.0453 89.9304 85.3153 90.2064 85.5313C90.4944 85.7353 90.8784 85.8373 91.3584 85.8373ZM103.928 85.7473L104.45 85.6933L104.486 86.7553C103.802 86.8513 103.166 86.9233 102.578 86.9713C102.002 87.0193 101.468 87.0433 100.976 87.0433C99.6797 87.0433 98.7617 86.6713 98.2217 85.9273C97.6817 85.1713 97.4117 84.0013 97.4117 82.4173C97.4117 79.2613 98.6657 77.6833 101.174 77.6833C102.398 77.6833 103.304 78.0253 103.892 78.7093C104.492 79.3813 104.792 80.4433 104.792 81.8953L104.72 82.9213H98.7797C98.7797 83.9293 98.9597 84.6733 99.3197 85.1533C99.6797 85.6213 100.31 85.8553 101.21 85.8553C102.11 85.8553 103.016 85.8193 103.928 85.7473ZM98.7617 81.8413H103.442C103.442 80.7373 103.262 79.9573 102.902 79.5013C102.554 79.0453 101.984 78.8173 101.192 78.8173C100.388 78.8173 99.7817 79.0573 99.3737 79.5373C98.9777 80.0173 98.7737 80.7853 98.7617 81.8413ZM111.558 77.8633V79.0333H108.696V83.3353C108.696 84.3793 108.774 85.0573 108.93 85.3693C109.074 85.6933 109.428 85.8553 109.992 85.8553L111.594 85.7473L111.684 86.8633C111.276 86.9233 110.916 86.9713 110.604 87.0073C110.304 87.0433 110.052 87.0613 109.848 87.0613C109.38 87.0613 108.984 87.0073 108.66 86.8993C108.348 86.8033 108.096 86.6293 107.904 86.3773C107.712 86.1253 107.574 85.7893 107.49 85.3693C107.406 84.9493 107.364 84.4153 107.364 83.7673V79.0333H106.086V77.8633H107.364V75.1093H108.696V77.8633H111.558ZM119.326 85.7473L119.848 85.6933L119.884 86.7553C119.2 86.8513 118.564 86.9233 117.976 86.9713C117.4 87.0193 116.866 87.0433 116.374 87.0433C115.078 87.0433 114.16 86.6713 113.62 85.9273C113.08 85.1713 112.81 84.0013 112.81 82.4173C112.81 79.2613 114.064 77.6833 116.572 77.6833C117.796 77.6833 118.702 78.0253 119.29 78.7093C119.89 79.3813 120.19 80.4433 120.19 81.8953L120.118 82.9213H114.178C114.178 83.9293 114.358 84.6733 114.718 85.1533C115.078 85.6213 115.708 85.8553 116.608 85.8553C117.508 85.8553 118.414 85.8193 119.326 85.7473ZM114.16 81.8413H118.84C118.84 80.7373 118.66 79.9573 118.3 79.5013C117.952 79.0453 117.382 78.8173 116.59 78.8173C115.786 78.8173 115.18 79.0573 114.772 79.5373C114.376 80.0173 114.172 80.7853 114.16 81.8413ZM123.644 86.8633H122.294V77.8633H123.626V79.0873C124.658 78.3793 125.756 77.9053 126.92 77.6653V79.0333C126.668 79.0813 126.404 79.1473 126.128 79.2313C125.864 79.3153 125.6 79.4053 125.336 79.5013C125.084 79.5853 124.85 79.6753 124.634 79.7713C124.418 79.8673 124.238 79.9513 124.094 80.0233L123.644 80.2573V86.8633ZM129.867 79.5553V86.8633H128.517V77.8633H129.849V78.4933C130.749 77.9533 131.625 77.6833 132.477 77.6833C133.593 77.6833 134.373 77.9893 134.817 78.6013C135.021 78.4813 135.255 78.3673 135.519 78.2593C135.783 78.1393 136.059 78.0373 136.347 77.9533C136.647 77.8693 136.941 77.8033 137.229 77.7553C137.517 77.7073 137.781 77.6833 138.021 77.6833C138.621 77.6833 139.113 77.7613 139.497 77.9173C139.893 78.0613 140.205 78.3073 140.433 78.6553C140.673 78.9913 140.835 79.4473 140.919 80.0233C141.015 80.5873 141.063 81.2833 141.063 82.1113V86.8633H139.713V82.1473C139.713 81.5233 139.689 81.0013 139.641 80.5813C139.593 80.1613 139.497 79.8253 139.353 79.5733C139.221 79.3213 139.029 79.1473 138.777 79.0513C138.537 78.9433 138.219 78.8893 137.823 78.8893C137.427 78.8893 137.019 78.9493 136.599 79.0693C136.179 79.1773 135.855 79.2853 135.627 79.3933L135.285 79.5553C135.441 79.9393 135.519 80.8153 135.519 82.1833V86.8633H134.169V82.2193C134.169 81.5713 134.145 81.0373 134.097 80.6173C134.049 80.1853 133.953 79.8433 133.809 79.5913C133.677 79.3273 133.485 79.1473 133.233 79.0513C132.993 78.9433 132.675 78.8893 132.279 78.8893C131.895 78.8893 131.499 78.9493 131.091 79.0693C130.695 79.1773 130.389 79.2853 130.173 79.3933L129.867 79.5553ZM144.914 86.8633V77.8633H143.564V86.8633H144.914ZM144.914 75.8293V74.2633H143.564V75.8293H144.914ZM148.851 79.5553V86.8633H147.501V77.8633H148.833V78.4933C149.805 77.9533 150.735 77.6833 151.623 77.6833C152.223 77.6833 152.715 77.7613 153.099 77.9173C153.495 78.0613 153.807 78.3073 154.035 78.6553C154.275 79.0033 154.437 79.4593 154.521 80.0233C154.617 80.5873 154.665 81.2833 154.665 82.1113V86.8633H153.333V82.1473C153.333 81.5233 153.303 81.0013 153.243 80.5813C153.195 80.1613 153.099 79.8253 152.955 79.5733C152.811 79.3213 152.613 79.1473 152.361 79.0513C152.109 78.9433 151.785 78.8893 151.389 78.8893C151.005 78.8893 150.597 78.9493 150.165 79.0693C149.745 79.1773 149.421 79.2853 149.193 79.3933L148.851 79.5553ZM158.519 86.8633V77.8633H157.169V86.8633H158.519ZM158.519 75.8293V74.2633H157.169V75.8293H158.519ZM163.933 78.8893C162.625 78.8893 161.971 79.3453 161.971 80.2573C161.971 80.6893 162.121 80.9833 162.421 81.1393C162.733 81.3193 163.417 81.4993 164.473 81.6793C165.013 81.7753 165.469 81.8833 165.841 82.0033C166.213 82.1113 166.513 82.2673 166.741 82.4713C166.981 82.6633 167.149 82.9093 167.245 83.2093C167.353 83.5093 167.407 83.8933 167.407 84.3613C167.407 85.2973 167.113 85.9813 166.525 86.4133C165.937 86.8333 165.067 87.0433 163.915 87.0433C163.543 87.0433 163.135 87.0193 162.691 86.9713C162.259 86.9353 161.791 86.8753 161.287 86.7913L160.747 86.7013L160.819 85.5313C161.503 85.6273 162.103 85.7053 162.619 85.7653C163.135 85.8133 163.567 85.8373 163.915 85.8373C164.611 85.8373 165.139 85.7293 165.499 85.5133C165.871 85.2853 166.057 84.9073 166.057 84.3793C166.057 83.8753 165.901 83.5213 165.589 83.3173C165.265 83.1253 164.581 82.9513 163.537 82.7953C163.009 82.7113 162.559 82.6153 162.187 82.5073C161.827 82.3873 161.527 82.2373 161.287 82.0573C161.059 81.8653 160.891 81.6253 160.783 81.3373C160.675 81.0493 160.621 80.6893 160.621 80.2573C160.621 79.8253 160.699 79.4473 160.855 79.1233C161.023 78.7993 161.251 78.5293 161.539 78.3133C161.827 78.0973 162.169 77.9413 162.565 77.8453C162.961 77.7373 163.393 77.6833 163.861 77.6833C164.233 77.6833 164.647 77.7073 165.103 77.7553C165.559 77.7913 166.063 77.8513 166.615 77.9353L167.119 78.0253L167.083 79.1773C166.411 79.0813 165.811 79.0093 165.283 78.9613C164.767 78.9133 164.317 78.8893 163.933 78.8893ZM174.136 77.8633V79.0333H171.274V83.3353C171.274 84.3793 171.352 85.0573 171.508 85.3693C171.652 85.6933 172.006 85.8553 172.57 85.8553L174.172 85.7473L174.262 86.8633C173.854 86.9233 173.494 86.9713 173.182 87.0073C172.882 87.0433 172.63 87.0613 172.426 87.0613C171.958 87.0613 171.562 87.0073 171.238 86.8993C170.926 86.8033 170.674 86.6293 170.482 86.3773C170.29 86.1253 170.152 85.7893 170.068 85.3693C169.984 84.9493 169.942 84.4153 169.942 83.7673V79.0333H168.664V77.8633H169.942V75.1093H171.274V77.8633H174.136ZM177.134 86.8633V77.8633H175.784V86.8633H177.134ZM177.134 75.8293V74.2633H175.784V75.8293H177.134ZM183.088 77.6833C183.484 77.6833 184.156 77.7553 185.104 77.8993L185.536 77.9533L185.482 79.0513C184.534 78.9433 183.826 78.8893 183.358 78.8893C182.854 78.8893 182.428 78.9433 182.08 79.0513C181.744 79.1593 181.474 79.3453 181.27 79.6093C181.078 79.8733 180.94 80.2273 180.856 80.6713C180.772 81.1033 180.73 81.6493 180.73 82.3093C180.73 82.9693 180.766 83.5273 180.838 83.9833C180.91 84.4273 181.042 84.7873 181.234 85.0633C181.438 85.3393 181.708 85.5373 182.044 85.6573C182.392 85.7773 182.836 85.8373 183.376 85.8373L185.5 85.6753L185.554 86.7913C184.99 86.8753 184.498 86.9353 184.078 86.9713C183.67 87.0193 183.328 87.0433 183.052 87.0433C182.356 87.0433 181.768 86.9593 181.288 86.7913C180.82 86.6113 180.442 86.3353 180.154 85.9633C179.866 85.5793 179.656 85.0873 179.524 84.4873C179.404 83.8873 179.344 83.1613 179.344 82.3093C179.344 81.4573 179.41 80.7373 179.542 80.1493C179.686 79.5613 179.908 79.0873 180.208 78.7273C180.508 78.3553 180.892 78.0913 181.36 77.9353C181.84 77.7673 182.416 77.6833 183.088 77.6833ZM194.343 78.8893C193.035 78.8893 192.381 79.3453 192.381 80.2573C192.381 80.6893 192.531 80.9833 192.831 81.1393C193.143 81.3193 193.827 81.4993 194.883 81.6793C195.423 81.7753 195.879 81.8833 196.251 82.0033C196.623 82.1113 196.923 82.2673 197.151 82.4713C197.391 82.6633 197.559 82.9093 197.655 83.2093C197.763 83.5093 197.817 83.8933 197.817 84.3613C197.817 85.2973 197.523 85.9813 196.935 86.4133C196.347 86.8333 195.477 87.0433 194.325 87.0433C193.953 87.0433 193.545 87.0193 193.101 86.9713C192.669 86.9353 192.201 86.8753 191.697 86.7913L191.157 86.7013L191.229 85.5313C191.913 85.6273 192.513 85.7053 193.029 85.7653C193.545 85.8133 193.977 85.8373 194.325 85.8373C195.021 85.8373 195.549 85.7293 195.909 85.5133C196.281 85.2853 196.467 84.9073 196.467 84.3793C196.467 83.8753 196.311 83.5213 195.999 83.3173C195.675 83.1253 194.991 82.9513 193.947 82.7953C193.419 82.7113 192.969 82.6153 192.597 82.5073C192.237 82.3873 191.937 82.2373 191.697 82.0573C191.469 81.8653 191.301 81.6253 191.193 81.3373C191.085 81.0493 191.031 80.6893 191.031 80.2573C191.031 79.8253 191.109 79.4473 191.265 79.1233C191.433 78.7993 191.661 78.5293 191.949 78.3133C192.237 78.0973 192.579 77.9413 192.975 77.8453C193.371 77.7373 193.803 77.6833 194.271 77.6833C194.643 77.6833 195.057 77.7073 195.513 77.7553C195.969 77.7913 196.473 77.8513 197.025 77.9353L197.529 78.0253L197.493 79.1773C196.821 79.0813 196.221 79.0093 195.693 78.9613C195.177 78.9133 194.727 78.8893 194.343 78.8893ZM204.546 77.8633V79.0333H201.684V83.3353C201.684 84.3793 201.762 85.0573 201.918 85.3693C202.062 85.6933 202.416 85.8553 202.98 85.8553L204.582 85.7473L204.672 86.8633C204.264 86.9233 203.904 86.9713 203.592 87.0073C203.292 87.0433 203.04 87.0613 202.836 87.0613C202.368 87.0613 201.972 87.0073 201.648 86.8993C201.336 86.8033 201.084 86.6293 200.892 86.3773C200.7 86.1253 200.562 85.7893 200.478 85.3693C200.394 84.9493 200.352 84.4153 200.352 83.7673V79.0333H199.074V77.8633H200.352V75.1093H201.684V77.8633H204.546ZM212.548 80.5813V85.1893C212.584 85.6333 212.932 85.8973 213.592 85.9813L213.538 87.0433C212.59 87.0433 211.876 86.8033 211.396 86.3233C210.328 86.8033 209.248 87.0433 208.156 87.0433C207.328 87.0433 206.698 86.8093 206.266 86.3413C205.834 85.8733 205.618 85.2013 205.618 84.3253C205.618 83.4493 205.84 82.8073 206.284 82.3993C206.728 81.9793 207.424 81.7213 208.372 81.6253L211.198 81.3553V80.5813C211.198 79.9693 211.066 79.5313 210.802 79.2673C210.538 79.0033 210.178 78.8713 209.722 78.8713C209.242 78.8713 208.75 78.8893 208.246 78.9253C207.754 78.9493 207.25 78.9913 206.734 79.0513L206.176 79.1053L206.122 78.0793C207.406 77.8153 208.576 77.6833 209.632 77.6833C210.652 77.6833 211.39 77.9173 211.846 78.3853C212.314 78.8413 212.548 79.5733 212.548 80.5813ZM207.004 84.2533C207.004 85.3573 207.46 85.9093 208.372 85.9093C209.176 85.9093 209.98 85.7713 210.784 85.4953L211.198 85.3513V82.3813L208.534 82.6333C207.994 82.6813 207.604 82.8373 207.364 83.1013C207.124 83.3653 207.004 83.7493 207.004 84.2533ZM219.874 77.8633V79.0333H217.012V83.3353C217.012 84.3793 217.09 85.0573 217.246 85.3693C217.39 85.6933 217.744 85.8553 218.308 85.8553L219.91 85.7473L220 86.8633C219.592 86.9233 219.232 86.9713 218.92 87.0073C218.62 87.0433 218.368 87.0613 218.164 87.0613C217.696 87.0613 217.3 87.0073 216.976 86.8993C216.664 86.8033 216.412 86.6293 216.22 86.3773C216.028 86.1253 215.89 85.7893 215.806 85.3693C215.722 84.9493 215.68 84.4153 215.68 83.7673V79.0333H214.402V77.8633H215.68V75.1093H217.012V77.8633H219.874ZM227.643 85.7473L228.165 85.6933L228.201 86.7553C227.517 86.8513 226.881 86.9233 226.293 86.9713C225.717 87.0193 225.183 87.0433 224.691 87.0433C223.395 87.0433 222.477 86.6713 221.937 85.9273C221.397 85.1713 221.127 84.0013 221.127 82.4173C221.127 79.2613 222.381 77.6833 224.889 77.6833C226.113 77.6833 227.019 78.0253 227.607 78.7093C228.207 79.3813 228.507 80.4433 228.507 81.8953L228.435 82.9213H222.495C222.495 83.9293 222.675 84.6733 223.035 85.1533C223.395 85.6213 224.025 85.8553 224.925 85.8553C225.825 85.8553 226.731 85.8193 227.643 85.7473ZM222.477 81.8413H227.157C227.157 80.7373 226.977 79.9573 226.617 79.5013C226.269 79.0453 225.699 78.8173 224.907 78.8173C224.103 78.8173 223.497 79.0573 223.089 79.5373C222.693 80.0173 222.489 80.7853 222.477 81.8413ZM235.916 79.5553V86.8633H234.566V77.8633H235.898V78.4933C236.798 77.9533 237.674 77.6833 238.526 77.6833C239.642 77.6833 240.422 77.9893 240.866 78.6013C241.07 78.4813 241.304 78.3673 241.568 78.2593C241.832 78.1393 242.108 78.0373 242.396 77.9533C242.696 77.8693 242.99 77.8033 243.278 77.7553C243.566 77.7073 243.83 77.6833 244.07 77.6833C244.67 77.6833 245.162 77.7613 245.546 77.9173C245.942 78.0613 246.254 78.3073 246.482 78.6553C246.722 78.9913 246.884 79.4473 246.968 80.0233C247.064 80.5873 247.112 81.2833 247.112 82.1113V86.8633H245.762V82.1473C245.762 81.5233 245.738 81.0013 245.69 80.5813C245.642 80.1613 245.546 79.8253 245.402 79.5733C245.27 79.3213 245.078 79.1473 244.826 79.0513C244.586 78.9433 244.268 78.8893 243.872 78.8893C243.476 78.8893 243.068 78.9493 242.648 79.0693C242.228 79.1773 241.904 79.2853 241.676 79.3933L241.334 79.5553C241.49 79.9393 241.568 80.8153 241.568 82.1833V86.8633H240.218V82.2193C240.218 81.5713 240.194 81.0373 240.146 80.6173C240.098 80.1853 240.002 79.8433 239.858 79.5913C239.726 79.3273 239.534 79.1473 239.282 79.0513C239.042 78.9433 238.724 78.8893 238.328 78.8893C237.944 78.8893 237.548 78.9493 237.14 79.0693C236.744 79.1773 236.438 79.2853 236.222 79.3933L235.916 79.5553ZM255.966 80.5813V85.1893C256.002 85.6333 256.35 85.8973 257.01 85.9813L256.956 87.0433C256.008 87.0433 255.294 86.8033 254.814 86.3233C253.746 86.8033 252.666 87.0433 251.574 87.0433C250.746 87.0433 250.116 86.8093 249.684 86.3413C249.252 85.8733 249.036 85.2013 249.036 84.3253C249.036 83.4493 249.258 82.8073 249.702 82.3993C250.146 81.9793 250.842 81.7213 251.79 81.6253L254.616 81.3553V80.5813C254.616 79.9693 254.484 79.5313 254.22 79.2673C253.956 79.0033 253.596 78.8713 253.14 78.8713C252.66 78.8713 252.168 78.8893 251.664 78.9253C251.172 78.9493 250.668 78.9913 250.152 79.0513L249.594 79.1053L249.54 78.0793C250.824 77.8153 251.994 77.6833 253.05 77.6833C254.07 77.6833 254.808 77.9173 255.264 78.3853C255.732 78.8413 255.966 79.5733 255.966 80.5813ZM250.422 84.2533C250.422 85.3573 250.878 85.9093 251.79 85.9093C252.594 85.9093 253.398 85.7713 254.202 85.4953L254.616 85.3513V82.3813L251.952 82.6333C251.412 82.6813 251.022 82.8373 250.782 83.1013C250.542 83.3653 250.422 83.7493 250.422 84.2533ZM259.98 79.5553V86.8633H258.63V77.8633H259.962V78.4933C260.934 77.9533 261.864 77.6833 262.752 77.6833C263.352 77.6833 263.844 77.7613 264.228 77.9173C264.624 78.0613 264.936 78.3073 265.164 78.6553C265.404 79.0033 265.566 79.4593 265.65 80.0233C265.746 80.5873 265.794 81.2833 265.794 82.1113V86.8633H264.462V82.1473C264.462 81.5233 264.432 81.0013 264.372 80.5813C264.324 80.1613 264.228 79.8253 264.084 79.5733C263.94 79.3213 263.742 79.1473 263.49 79.0513C263.238 78.9433 262.914 78.8893 262.518 78.8893C262.134 78.8893 261.726 78.9493 261.294 79.0693C260.874 79.1773 260.55 79.2853 260.322 79.3933L259.98 79.5553ZM274.652 80.5813V85.1893C274.688 85.6333 275.036 85.8973 275.696 85.9813L275.642 87.0433C274.694 87.0433 273.98 86.8033 273.5 86.3233C272.432 86.8033 271.352 87.0433 270.26 87.0433C269.432 87.0433 268.802 86.8093 268.37 86.3413C267.938 85.8733 267.722 85.2013 267.722 84.3253C267.722 83.4493 267.944 82.8073 268.388 82.3993C268.832 81.9793 269.528 81.7213 270.476 81.6253L273.302 81.3553V80.5813C273.302 79.9693 273.17 79.5313 272.906 79.2673C272.642 79.0033 272.282 78.8713 271.826 78.8713C271.346 78.8713 270.854 78.8893 270.35 78.9253C269.858 78.9493 269.354 78.9913 268.838 79.0513L268.28 79.1053L268.226 78.0793C269.51 77.8153 270.68 77.6833 271.736 77.6833C272.756 77.6833 273.494 77.9173 273.95 78.3853C274.418 78.8413 274.652 79.5733 274.652 80.5813ZM269.108 84.2533C269.108 85.3573 269.564 85.9093 270.476 85.9093C271.28 85.9093 272.084 85.7713 272.888 85.4953L273.302 85.3513V82.3813L270.638 82.6333C270.098 82.6813 269.708 82.8373 269.468 83.1013C269.228 83.3653 269.108 83.7493 269.108 84.2533ZM280.79 91.0933C280.07 91.0933 279.464 91.0453 278.972 90.9493C278.48 90.8653 278.078 90.7153 277.766 90.4993C277.466 90.2953 277.25 90.0193 277.118 89.6713C276.986 89.3233 276.92 88.8913 276.92 88.3753C276.92 88.1233 276.944 87.9013 276.992 87.7093C277.052 87.5293 277.136 87.3493 277.244 87.1693C277.364 87.0013 277.514 86.8393 277.694 86.6833C277.874 86.5153 278.09 86.3353 278.342 86.1433C278.006 85.9153 277.838 85.5013 277.838 84.9013C277.838 84.6973 277.988 84.3193 278.288 83.7673L278.45 83.4793C277.502 83.0473 277.028 82.1413 277.028 80.7613C277.028 78.7093 278.15 77.6833 280.394 77.6833C280.994 77.6833 281.528 77.7433 281.996 77.8633L282.266 77.9173L284.93 77.8453V78.9973L283.22 78.9613C283.616 79.3573 283.814 79.9573 283.814 80.7613C283.814 81.8893 283.532 82.6813 282.968 83.1373C282.416 83.5813 281.54 83.8033 280.34 83.8033C279.992 83.8033 279.698 83.7793 279.458 83.7313C279.242 84.2473 279.134 84.5893 279.134 84.7573C279.134 85.1293 279.248 85.3573 279.476 85.4413C279.728 85.5373 280.418 85.5853 281.546 85.5853C282.122 85.5853 282.614 85.6273 283.022 85.7113C283.43 85.7833 283.766 85.9213 284.03 86.1253C284.294 86.3293 284.486 86.5993 284.606 86.9353C284.726 87.2833 284.786 87.7153 284.786 88.2313C284.786 90.1393 283.454 91.0933 280.79 91.0933ZM278.378 80.7613C278.378 81.4813 278.534 81.9913 278.846 82.2913C279.17 82.5793 279.698 82.7233 280.43 82.7233C281.162 82.7233 281.684 82.5733 281.996 82.2733C282.308 81.9733 282.464 81.4633 282.464 80.7433C282.464 80.0233 282.308 79.5193 281.996 79.2313C281.684 78.9313 281.162 78.7813 280.43 78.7813C279.698 78.7813 279.17 78.9313 278.846 79.2313C278.534 79.5313 278.378 80.0413 278.378 80.7613ZM278.252 88.2673C278.252 88.5913 278.294 88.8613 278.378 89.0773C278.462 89.2933 278.6 89.4673 278.792 89.5993C278.984 89.7313 279.236 89.8213 279.548 89.8693C279.872 89.9293 280.274 89.9593 280.754 89.9593C281.714 89.9593 282.398 89.8273 282.806 89.5633C283.214 89.2993 283.418 88.8553 283.418 88.2313C283.418 87.9313 283.382 87.6853 283.31 87.4933C283.25 87.3013 283.136 87.1513 282.968 87.0433C282.8 86.9353 282.572 86.8633 282.284 86.8273C281.996 86.7913 281.636 86.7733 281.204 86.7733L279.26 86.6833C278.864 86.9713 278.594 87.2233 278.45 87.4393C278.318 87.6553 278.252 87.9313 278.252 88.2673ZM292.682 85.7473L293.204 85.6933L293.24 86.7553C292.556 86.8513 291.92 86.9233 291.332 86.9713C290.756 87.0193 290.222 87.0433 289.73 87.0433C288.434 87.0433 287.516 86.6713 286.976 85.9273C286.436 85.1713 286.166 84.0013 286.166 82.4173C286.166 79.2613 287.42 77.6833 289.928 77.6833C291.152 77.6833 292.058 78.0253 292.646 78.7093C293.246 79.3813 293.546 80.4433 293.546 81.8953L293.474 82.9213H287.534C287.534 83.9293 287.714 84.6733 288.074 85.1533C288.434 85.6213 289.064 85.8553 289.964 85.8553C290.864 85.8553 291.77 85.8193 292.682 85.7473ZM287.516 81.8413H292.196C292.196 80.7373 292.016 79.9573 291.656 79.5013C291.308 79.0453 290.738 78.8173 289.946 78.8173C289.142 78.8173 288.536 79.0573 288.128 79.5373C287.732 80.0173 287.528 80.7853 287.516 81.8413ZM297 86.8633H295.65V77.8633H296.982V79.0873C298.014 78.3793 299.112 77.9053 300.276 77.6653V79.0333C300.024 79.0813 299.76 79.1473 299.484 79.2313C299.22 79.3153 298.956 79.4053 298.692 79.5013C298.44 79.5853 298.206 79.6753 297.99 79.7713C297.774 79.8673 297.594 79.9513 297.45 80.0233L297 80.2573V86.8633Z" fill="#141134"/>
<path fill-rule="evenodd" clip-rule="evenodd" d="M22.0386 17.9355C29.0876 15.0157 36.8662 14.5408 44.1525 16.5109C43.9821 16.6414 43.8201 16.7833 43.6677 16.9358C43.2119 17.3916 42.8503 17.9328 42.6036 18.5284C42.3569 19.124 42.2299 19.7623 42.2299 20.407L42.2299 20.4196C42.0288 20.3305 41.8266 20.2438 41.6231 20.1596C38.3475 18.8027 34.8367 18.1044 31.2911 18.1044C27.7456 18.1044 24.2348 18.8027 20.9592 20.1596C17.6835 21.5164 14.7072 23.5051 12.2001 26.0121C9.69307 28.5192 7.70436 31.4955 6.34754 34.7712C4.99073 38.0468 4.29238 41.5576 4.29238 45.1031C4.29238 48.1885 4.82121 51.2475 5.85258 54.1482C5.48465 54.0615 5.10708 54.0175 4.72732 54.0175C4.08266 54.0175 3.4443 54.1445 2.84871 54.3912C2.27659 54.6281 1.7547 54.9711 1.3104 55.4018C0.243001 49.0856 0.954623 42.5418 3.44527 36.5288C6.9322 28.1107 13.6204 21.4224 22.0386 17.9355ZM50.3821 26.0122C49.9903 25.6203 49.5869 25.2411 49.1728 24.8749C49.7073 24.6316 50.1942 24.2942 50.6102 23.8782C51.066 23.4224 51.4276 22.8812 51.6743 22.2856C51.921 21.69 52.048 21.0517 52.048 20.407C52.048 20.175 52.0316 19.9439 51.999 19.7152C54.6685 21.2131 57.1134 23.0543 59.2761 25.1813C59.1631 25.1753 59.0499 25.1723 58.9365 25.1723C58.0986 25.1723 57.2689 25.3373 56.4948 25.6579C55.7207 25.9786 55.0173 26.4486 54.4248 27.0411C53.8329 27.633 53.3632 28.3357 53.0425 29.1091C52.237 28.0136 51.348 26.9781 50.3821 26.0122ZM9.28642 60.7468C9.27864 60.7663 9.27074 60.7858 9.26271 60.8052C9.016 61.4008 8.6544 61.9419 8.19856 62.3978C7.74271 62.8536 7.20154 63.2152 6.60594 63.4619C6.01035 63.7086 5.37199 63.8356 4.72732 63.8356C4.43162 63.8356 4.13724 63.8089 3.8477 63.7562C5.28889 66.9641 7.20155 69.9047 9.50035 72.4925C9.45043 72.1702 9.42519 71.8438 9.42519 71.5161C9.42519 70.6782 9.59023 69.8485 9.91088 69.0744C10.2315 68.3003 10.7015 67.5969 11.294 67.0044C11.8865 66.412 12.5898 65.942 13.364 65.6213C13.4503 65.5856 13.5374 65.5517 13.625 65.5198C13.135 65.0958 12.6597 64.6537 12.2001 64.1942C11.1319 63.1259 10.1577 61.9724 9.28642 60.7468ZM22.0386 81.4171C19.7499 80.4691 17.5891 79.2844 15.5857 77.8927C15.6589 77.8953 15.7322 77.8965 15.8056 77.8965C16.6435 77.8965 17.4732 77.7315 18.2473 77.4109C19.0214 77.0902 19.7248 76.6202 20.3173 76.0277C20.9098 75.4353 21.3798 74.7319 21.7004 73.9578C22.0211 73.1837 22.1861 72.354 22.1861 71.5161C22.1861 71.1717 22.1582 70.8287 22.1031 70.4904C24.9283 71.5129 27.9064 72.0573 30.9147 72.0993C30.3928 72.7189 29.9684 73.416 29.6574 74.1669C29.2601 75.1262 29.0556 76.1543 29.0556 77.1926C29.0556 78.2309 29.2601 79.259 29.6574 80.2183C30.0548 81.1776 30.6372 82.0492 31.3713 82.7834C31.8209 83.2329 32.322 83.6256 32.8632 83.9537C29.1752 83.7039 25.518 82.8583 22.0386 81.4171ZM40.8976 70.3351C41.5016 70.6817 42.0584 71.1073 42.5529 71.6018C43.2871 72.336 43.8695 73.2076 44.2668 74.1669C44.6642 75.1262 44.8687 76.1543 44.8687 77.1926C44.8687 78.2309 44.6642 79.259 44.2668 80.2183C43.8695 81.1776 43.2871 82.0492 42.5529 82.7834C42.3446 82.9917 42.1253 83.1877 41.896 83.3708C44.0848 82.935 46.2413 82.2837 48.3335 81.4171C52.7279 79.5969 56.6509 76.9043 59.8932 73.5487C59.558 73.7543 59.2063 73.9338 58.8412 74.085C57.9311 74.462 56.9557 74.656 55.9706 74.656C54.9855 74.656 54.01 74.462 53.0999 74.085C52.1898 73.7081 51.3628 73.1555 50.6663 72.4589C49.9697 71.7624 49.4171 70.9354 49.0402 70.0253C48.6632 69.1152 48.4691 68.1397 48.4691 67.1546C48.4691 66.7112 48.5085 66.2697 48.5861 65.8352C46.4948 67.5798 44.1479 69.001 41.6231 70.0468C41.3825 70.1464 41.1406 70.2425 40.8976 70.3351ZM66.9269 62.8238C65.8761 65.3606 64.5345 67.7404 62.9425 69.9228C63.2922 69.0421 63.472 68.1028 63.472 67.1546C63.472 66.1695 63.2779 65.1941 62.9009 64.284C62.524 63.3739 61.9714 62.5469 61.2748 61.8503C60.5783 61.1538 59.7513 60.6012 58.8412 60.2242C57.9311 59.8473 56.9557 59.6532 55.9706 59.6532C55.2449 59.6532 54.5244 59.7585 53.8315 59.9647C54.7722 58.5379 55.5776 57.0216 56.2347 55.4351C56.6216 54.5012 56.9549 53.5482 57.2338 52.5807C57.5863 53.2735 58.0463 53.9076 58.5977 54.459C59.2855 55.1469 60.1021 55.6925 61.0008 56.0647C61.8995 56.437 62.8627 56.6286 63.8355 56.6286C64.8082 56.6286 65.7715 56.437 66.6702 56.0647C67.5689 55.6925 68.3854 55.1469 69.0733 54.459C69.1264 54.406 69.1786 54.3521 69.2299 54.2975C68.8357 57.2024 68.068 60.0688 66.9269 62.8238ZM58.2786 44.3232C58.3813 44.2068 58.4877 44.0935 58.5977 43.9834C59.2855 43.2956 60.1021 42.75 61.0008 42.3777C61.8995 42.0055 62.8627 41.8139 63.8355 41.8139C64.8082 41.8139 65.7715 42.0055 66.6702 42.3777C67.5657 42.7487 68.3797 43.2918 69.066 43.9762C68.6395 41.4409 67.9265 38.9421 66.9269 36.5288C66.4104 35.282 65.8237 34.0731 65.1716 32.9069C65.091 33.278 64.9773 33.6419 64.8313 33.9944C64.5106 34.7685 64.0406 35.4719 63.4482 36.0644C62.8557 36.6568 62.1523 37.1268 61.3782 37.4475C60.6041 37.7681 59.7744 37.9332 58.9365 37.9332C58.3681 37.9332 57.8035 37.8572 57.2574 37.7083C57.8701 39.8595 58.2138 42.0814 58.2786 44.3232ZM28.3729 21.2825C29.3391 21.1641 30.3136 21.1044 31.2911 21.1044C34.4427 21.1044 37.5634 21.7251 40.4751 22.9312C43.3867 24.1372 46.0323 25.905 48.2608 28.1335C50.4893 30.362 52.2571 33.0076 53.4631 35.9192C54.6692 38.8309 55.2899 41.9516 55.2899 45.1032C55.2899 48.2547 54.6692 51.3754 53.4631 54.2871C52.3371 57.0054 50.7216 59.4918 48.6987 61.6234C48.6885 61.0065 48.562 60.3967 48.3257 59.8262C48.079 59.2307 47.7174 58.6895 47.2615 58.2336C47.0333 58.0053 46.7836 57.8007 46.5164 57.6223C47.2388 57.1152 47.9177 56.5454 48.5448 55.9183C49.965 54.4981 51.0916 52.812 51.8603 50.9563C52.6289 49.1007 53.0245 47.1118 53.0245 45.1033C53.0245 43.0947 52.6289 41.1059 51.8603 39.2502C51.0916 37.3946 49.965 35.7085 48.5448 34.2882C47.1245 32.868 45.4384 31.7414 43.5828 30.9727C41.7271 30.2041 39.7383 29.8085 37.7297 29.8085C35.9198 29.8085 34.1258 30.1297 32.4309 30.7557C32.641 30.0251 32.7483 29.2672 32.7483 28.504C32.7483 27.4341 32.5376 26.3747 32.1281 25.3862C31.7187 24.3977 31.1186 23.4996 30.362 22.7431C29.776 22.157 29.105 21.6649 28.3729 21.2825ZM42.355 66.3994C42.2051 66.3536 42.0571 66.3005 41.9117 66.2402C41.3161 65.9935 40.7749 65.6319 40.3191 65.1761C39.8632 64.7202 39.5016 64.1791 39.2549 63.5835C39.0082 62.9879 38.8812 62.3495 38.8812 61.7049C38.8812 61.2417 38.9468 60.7819 39.0752 60.3388C38.6285 60.3782 38.1796 60.398 37.7297 60.398C36.2895 60.398 34.8593 60.1946 33.4812 59.7961C33.5655 59.9624 33.6435 60.1321 33.7151 60.3049C34.0831 61.1933 34.2725 62.1455 34.2725 63.1071C34.2725 64.0688 34.0831 65.021 33.7151 65.9094C33.3471 66.7978 32.8077 67.605 32.1278 68.285C31.8272 68.5855 31.5018 68.8586 31.1556 69.1015C31.2007 69.1018 31.2459 69.1019 31.2911 69.1019C34.4427 69.1019 37.5634 68.4812 40.4751 67.2751C41.1151 67.01 41.7423 66.7177 42.355 66.3994ZM26.7844 55.7864C25.4254 54.3941 24.3442 52.7549 23.5992 50.9563C23.5163 50.7561 23.4377 50.5544 23.3635 50.3512C23.3333 50.4304 23.302 50.5093 23.2695 50.5878C22.8345 51.638 22.1969 52.5922 21.3931 53.396C20.5893 54.1998 19.6351 54.8374 18.5848 55.2725C17.5346 55.7075 16.409 55.9314 15.2723 55.9314C14.1355 55.9314 13.0099 55.7075 11.9597 55.2725C10.9095 54.8374 9.95524 54.1998 9.15144 53.396C8.93021 53.1748 8.72156 52.9422 8.52627 52.6993C8.70489 53.2346 8.9026 53.7642 9.11918 54.2871C10.3252 57.1987 12.093 59.8443 14.3215 62.0728C16.1258 63.8771 18.2035 65.3794 20.4745 66.5261C20.3686 66.3255 20.2719 66.1197 20.1847 65.9094C19.8167 65.021 19.6273 64.0688 19.6273 63.1071C19.6273 62.1455 19.8167 61.1933 20.1847 60.3049C20.5527 59.4165 21.0921 58.6093 21.7721 57.9293C22.452 57.2493 23.2593 56.71 24.1477 56.342C24.9851 55.9951 25.8792 55.8069 26.7844 55.7864ZM9.15144 41.1544C8.37818 41.9276 7.75871 42.8402 7.32547 43.8434C7.4685 41.1223 8.07409 38.4423 9.11918 35.9192C10.3252 33.0076 12.093 30.362 14.3215 28.1335C15.1215 27.3334 15.9753 26.5927 16.8759 25.9161C16.5969 26.7491 16.454 27.623 16.454 28.504C16.454 29.5739 16.6647 30.6333 17.0742 31.6218C17.4836 32.6102 18.0837 33.5083 18.8402 34.2649C19.5968 35.0214 20.4949 35.6215 21.4834 36.031C22.4718 36.4404 23.5312 36.6511 24.6011 36.6511C24.7305 36.6511 24.8597 36.648 24.9886 36.6419C24.4437 37.4625 23.978 38.3358 23.5992 39.2502C23.1386 40.3623 22.8119 41.5223 22.624 42.7057C22.2752 42.1445 21.8625 41.6238 21.3931 41.1544C20.5893 40.3506 19.6351 39.713 18.5848 39.278C17.5346 38.8429 16.409 38.619 15.2723 38.619C14.1355 38.619 13.0099 38.8429 11.9597 39.278C10.9095 39.713 9.95524 40.3506 9.15144 41.1544ZM37.7297 32.8085C36.1152 32.8085 34.5164 33.1265 33.0247 33.7444C31.5331 34.3622 30.1777 35.2679 29.036 36.4096C27.8943 37.5512 26.9887 38.9066 26.3708 40.3983C25.753 41.8899 25.435 43.4887 25.435 45.1033C25.435 46.7178 25.753 48.3166 26.3708 49.8083C26.9887 51.2999 27.8943 52.6553 29.036 53.797C30.1777 54.9387 31.5331 55.8443 33.0247 56.4622C34.5164 57.08 36.1152 57.398 37.7297 57.398C39.3443 57.398 40.9431 57.08 42.4347 56.4622C43.9264 55.8443 45.2818 54.9387 46.4235 53.797C47.5651 52.6553 48.4708 51.3 49.0886 49.8083C49.7065 48.3166 50.0245 46.7178 50.0245 45.1033C50.0245 43.4887 49.7065 41.8899 49.0886 40.3983C48.4708 38.9066 47.5651 37.5512 46.4235 36.4096C45.2818 35.2679 43.9264 34.3622 42.4347 33.7444C40.9431 33.1265 39.3443 32.8085 37.7297 32.8085ZM22.6314 23.7486C23.2559 23.49 23.9252 23.3568 24.6011 23.3568C25.2771 23.3568 25.9464 23.49 26.5709 23.7486C27.1954 24.0073 27.7628 24.3864 28.2407 24.8644C28.7187 25.3424 29.0978 25.9098 29.3565 26.5343C29.6152 27.1587 29.7483 27.828 29.7483 28.504C29.7483 29.1799 29.6152 29.8492 29.3565 30.4737C29.0978 31.0982 28.7187 31.6656 28.2407 32.1436C27.7628 32.6215 27.1954 33.0006 26.5709 33.2593C25.9464 33.518 25.2771 33.6511 24.6011 33.6511C23.9252 33.6511 23.2559 33.518 22.6314 33.2593C22.0069 33.0006 21.4395 32.6215 20.9616 32.1436C20.4836 31.6656 20.1045 31.0982 19.8458 30.4737C19.5871 29.8492 19.454 29.1799 19.454 28.504C19.454 27.828 19.5871 27.1587 19.8458 26.5343C20.1045 25.9098 20.4836 25.3424 20.9616 24.8644C21.4395 24.3864 22.0069 24.0073 22.6314 23.7486ZM15.2723 41.619C14.5295 41.619 13.794 41.7653 13.1078 42.0496C12.4215 42.3338 11.798 42.7505 11.2728 43.2757C10.7475 43.8009 10.3309 44.4244 10.0467 45.1107C9.76241 45.7969 9.61611 46.5324 9.61611 47.2752C9.61611 48.018 9.76241 48.7535 10.0467 49.4397C10.3309 50.126 10.7475 50.7495 11.2728 51.2747C11.798 51.7999 12.4215 52.2166 13.1078 52.5008C13.794 52.7851 14.5295 52.9314 15.2723 52.9314C16.0151 52.9314 16.7506 52.7851 17.4368 52.5008C18.123 52.2166 18.7466 51.7999 19.2718 51.2747C19.797 50.7495 20.2136 50.126 20.4979 49.4397C20.7821 48.7535 20.9284 48.018 20.9284 47.2752C20.9284 46.5324 20.7821 45.7969 20.4979 45.1107C20.2136 44.4244 19.797 43.8009 19.2718 43.2757C18.7466 42.7505 18.123 42.3338 17.4368 42.0496C16.7506 41.7653 16.0151 41.619 15.2723 41.619ZM25.2957 59.1136C25.8202 58.8964 26.3823 58.7846 26.9499 58.7846C27.5176 58.7846 28.0797 58.8964 28.6041 59.1136C29.1285 59.3308 29.605 59.6492 30.0064 60.0506C30.4078 60.452 30.7262 60.9285 30.9435 61.453C31.1607 61.9774 31.2725 62.5395 31.2725 63.1071C31.2725 63.6748 31.1607 64.2369 30.9435 64.7613C30.7262 65.2858 30.4078 65.7623 30.0064 66.1637C29.605 66.5651 29.1285 66.8834 28.6041 67.1007C28.0797 67.3179 27.5176 67.4297 26.9499 67.4297C26.3823 67.4297 25.8202 67.3179 25.2957 67.1007C24.7713 66.8834 24.2948 66.5651 23.8934 66.1637C23.492 65.7623 23.1736 65.2858 22.9564 64.7613C22.7391 64.2369 22.6273 63.6748 22.6273 63.1071C22.6273 62.5395 22.7391 61.9774 22.9564 61.453C23.1736 60.9285 23.492 60.452 23.8934 60.0506C24.2948 59.6492 24.7713 59.3308 25.2957 59.1136ZM58.9365 28.1723C58.4926 28.1723 58.053 28.2597 57.6429 28.4296C57.2327 28.5995 56.8601 28.8485 56.5462 29.1624C56.2323 29.4763 55.9833 29.8489 55.8134 30.2591C55.6435 30.6692 55.5561 31.1088 55.5561 31.5527C55.5561 31.9966 55.6435 32.4362 55.8134 32.8464C55.9833 33.2565 56.2323 33.6291 56.5462 33.943C56.8601 34.257 57.2327 34.506 57.6429 34.6758C58.053 34.8457 58.4926 34.9332 58.9365 34.9332C59.3804 34.9332 59.82 34.8457 60.2301 34.6758C60.6403 34.506 61.0129 34.257 61.3268 33.943C61.6407 33.6291 61.8897 33.2565 62.0596 32.8464C62.2295 32.4362 62.3169 31.9966 62.3169 31.5527C62.3169 31.1088 62.2295 30.6692 62.0596 30.2591C61.8897 29.8489 61.6407 29.4763 61.3268 29.1624C61.0129 28.8485 60.6403 28.5995 60.2301 28.4296C59.82 28.2597 59.3804 28.1723 58.9365 28.1723ZM62.1489 45.1494C62.6836 44.9279 63.2567 44.8139 63.8355 44.8139C64.4143 44.8139 64.9874 44.9279 65.5221 45.1494C66.0568 45.3708 66.5427 45.6955 66.952 46.1048C67.3612 46.514 67.6859 46.9999 67.9074 47.5346C68.1289 48.0693 68.2429 48.6424 68.2429 49.2212C68.2429 49.8 68.1289 50.3731 67.9074 50.9079C67.6859 51.4426 67.3612 51.9284 66.952 52.3377C66.5427 52.747 66.0568 53.0716 65.5221 53.2931C64.9874 53.5146 64.4143 53.6286 63.8355 53.6286C63.2567 53.6286 62.6836 53.5146 62.1489 53.2931C61.6141 53.0716 61.1283 52.747 60.719 52.3377C60.3098 51.9284 59.9851 51.4426 59.7636 50.9079C59.5421 50.3731 59.4281 49.8 59.4281 49.2212C59.4281 48.6424 59.5421 48.0693 59.7636 47.5346C59.9851 46.9999 60.3098 46.514 60.719 46.1048C61.1283 45.6955 61.6141 45.3708 62.1489 45.1494ZM55.9706 62.6532C55.3794 62.6532 54.7941 62.7697 54.2479 62.9959C53.7018 63.2221 53.2056 63.5537 52.7876 63.9717C52.3696 64.3896 52.038 64.8859 51.8118 65.432C51.5856 65.9782 51.4691 66.5635 51.4691 67.1546C51.4691 67.7458 51.5856 68.3311 51.8118 68.8772C52.038 69.4234 52.3696 69.9196 52.7876 70.3376C53.2056 70.7556 53.7018 71.0872 54.2479 71.3134C54.7941 71.5396 55.3794 71.656 55.9706 71.656C56.5617 71.656 57.147 71.5396 57.6932 71.3134C58.2393 71.0872 58.7355 70.7556 59.1535 70.3376C59.5715 69.9196 59.9031 69.4234 60.1293 68.8772C60.3555 68.3311 60.472 67.7458 60.472 67.1546C60.472 66.5635 60.3555 65.9782 60.1293 65.432C59.9031 64.8859 59.5715 64.3896 59.1535 63.9717C58.7355 63.5537 58.2393 63.2221 57.6932 62.9959C57.147 62.7697 56.5617 62.6532 55.9706 62.6532ZM35.0845 72.6595C35.6798 72.4129 36.3178 72.286 36.9621 72.286C37.6065 72.286 38.2445 72.4129 38.8398 72.6595C39.4351 72.9061 39.976 73.2675 40.4316 73.7231C40.8872 74.1787 41.2486 74.7196 41.4952 75.3149C41.7418 75.9102 41.8687 76.5483 41.8687 77.1926C41.8687 77.8369 41.7418 78.475 41.4952 79.0703C41.2486 79.6656 40.8872 80.2064 40.4316 80.6621C39.976 81.1177 39.4351 81.4791 38.8398 81.7257C38.2445 81.9723 37.6065 82.0992 36.9621 82.0992C36.3178 82.0992 35.6798 81.9723 35.0845 81.7257C34.4892 81.4791 33.9483 81.1177 33.4927 80.6621C33.037 80.2064 32.6756 79.6656 32.4291 79.0703C32.1825 78.475 32.0556 77.8369 32.0556 77.1926C32.0556 76.5483 32.1825 75.9102 32.4291 75.3149C32.6756 74.7196 33.037 74.1787 33.4927 73.7231C33.9483 73.2675 34.4892 72.9061 35.0845 72.6595ZM15.8056 68.1356C15.3617 68.1356 14.9221 68.2231 14.512 68.393C14.1019 68.5628 13.7292 68.8118 13.4153 69.1258C13.1014 69.4397 12.8524 69.8123 12.6825 70.2225C12.5126 70.6326 12.4252 71.0722 12.4252 71.5161C12.4252 71.96 12.5126 72.3996 12.6825 72.8097C12.8524 73.2199 13.1014 73.5925 13.4153 73.9064C13.7292 74.2203 14.1019 74.4693 14.512 74.6392C14.9221 74.8091 15.3617 74.8965 15.8056 74.8965C16.2496 74.8965 16.6891 74.8091 17.0993 74.6392C17.5094 74.4693 17.8821 74.2203 18.196 73.9064C18.5099 73.5925 18.7589 73.2199 18.9288 72.8097C19.0987 72.3996 19.1861 71.96 19.1861 71.5161C19.1861 71.0722 19.0987 70.6326 18.9288 70.2225C18.7589 69.8123 18.5099 69.4397 18.196 69.1258C17.8821 68.8119 17.5094 68.5628 17.0993 68.393C16.6891 68.2231 16.2496 68.1356 15.8056 68.1356ZM3.99676 57.1628C4.22838 57.0669 4.47662 57.0175 4.72732 57.0175C4.97803 57.0175 5.22627 57.0669 5.45789 57.1628C5.68951 57.2587 5.89996 57.3994 6.07724 57.5766C6.25451 57.7539 6.39513 57.9644 6.49107 58.196C6.58701 58.4276 6.63639 58.6758 6.63639 58.9265C6.63639 59.1772 6.58701 59.4255 6.49107 59.6571C6.39513 59.8887 6.25451 60.0992 6.07724 60.2765C5.89996 60.4537 5.68951 60.5943 5.45789 60.6903C5.22627 60.7862 4.97803 60.8356 4.72732 60.8356C4.47662 60.8356 4.22838 60.7862 3.99676 60.6903C3.76514 60.5943 3.55469 60.4537 3.37741 60.2765C3.20014 60.0992 3.05952 59.8887 2.96358 59.6571C2.86764 59.4255 2.81826 59.1772 2.81826 58.9265C2.81826 58.6758 2.86764 58.4276 2.96358 58.196C3.05952 57.9644 3.20014 57.7539 3.37741 57.5766C3.55469 57.3994 3.76514 57.2587 3.99676 57.1628ZM47.1389 18.4979C46.8882 18.4979 46.64 18.5473 46.4084 18.6433C46.1768 18.7392 45.9663 18.8798 45.789 19.0571C45.6118 19.2344 45.4711 19.4448 45.3752 19.6764C45.2793 19.9081 45.2299 20.1563 45.2299 20.407C45.2299 20.6577 45.2793 20.906 45.3752 21.1376C45.4711 21.3692 45.6118 21.5796 45.789 21.7569C45.9663 21.9342 46.1768 22.0748 46.4084 22.1708C46.64 22.2667 46.8882 22.3161 47.1389 22.3161C47.3896 22.3161 47.6379 22.2667 47.8695 22.1708C48.1011 22.0748 48.3116 21.9342 48.4889 21.7569C48.6661 21.5797 48.8068 21.3692 48.9027 21.1376C48.9986 20.906 49.048 20.6577 49.048 20.407C49.048 20.1563 48.9986 19.9081 48.9027 19.6764C48.8068 19.4448 48.6661 19.2344 48.4889 19.0571C48.3116 18.8798 48.1011 18.7392 47.8695 18.6433C47.6379 18.5473 47.3896 18.4979 47.1389 18.4979ZM43.0597 59.9411C43.2914 59.8452 43.5396 59.7958 43.7903 59.7958C44.041 59.7958 44.2893 59.8452 44.5209 59.9411C44.7525 60.0371 44.963 60.1777 45.1402 60.355C45.3175 60.5322 45.4581 60.7427 45.5541 60.9743C45.65 61.2059 45.6994 61.4542 45.6994 61.7049C45.6994 61.9556 45.65 62.2038 45.5541 62.4354C45.4581 62.667 45.3175 62.8775 45.1402 63.0548C44.963 63.232 44.7525 63.3727 44.5209 63.4686C44.2893 63.5645 44.041 63.6139 43.7903 63.6139C43.5396 63.6139 43.2914 63.5645 43.0597 63.4686C42.8281 63.3727 42.6177 63.232 42.4404 63.0548C42.2631 62.8775 42.1225 62.667 42.0266 62.4354C41.9306 62.2038 41.8812 61.9556 41.8812 61.7049C41.8812 61.4542 41.9306 61.2059 42.0266 60.9743C42.1225 60.7427 42.2631 60.5322 42.4404 60.355C42.6177 60.1777 42.8281 60.0371 43.0597 59.9411Z" fill="#141134"/>
</svg>
