<svg width="287" height="155" viewBox="0 0 287 155" fill="none" xmlns="http://www.w3.org/2000/svg">
<path d="M51.776 89.92H37.664V109H32.12V59.176H50.552C55.88 59.176 59.864 60.4 62.504 62.848C65.144 65.248 66.464 69.064 66.464 74.296C66.464 82.024 63.416 86.848 57.32 88.768L66.896 109H60.776L51.776 89.92ZM37.664 85.024H50.624C57.392 85.024 60.776 81.52 60.776 74.512C60.776 67.552 57.368 64.072 50.552 64.072H37.664V85.024ZM100.031 104.536L102.119 104.32L102.263 108.568C99.5272 108.952 96.9832 109.24 94.6312 109.432C92.3272 109.624 90.1912 109.72 88.2232 109.72C83.0392 109.72 79.3672 108.232 77.2072 105.256C75.0472 102.232 73.9672 97.552 73.9672 91.216C73.9672 78.592 78.9832 72.28 89.0152 72.28C93.9112 72.28 97.5352 73.648 99.8872 76.384C102.287 79.072 103.487 83.32 103.487 89.128L103.199 93.232H79.4392C79.4392 97.264 80.1592 100.24 81.5992 102.16C83.0392 104.032 85.5592 104.968 89.1592 104.968C92.7592 104.968 96.3832 104.824 100.031 104.536ZM79.3672 88.912H98.0872C98.0872 84.496 97.3672 81.376 95.9272 79.552C94.5352 77.728 92.2552 76.816 89.0872 76.816C85.8712 76.816 83.4472 77.776 81.8152 79.696C80.2312 81.616 79.4152 84.688 79.3672 88.912ZM117.879 109L119.823 100.144H136.959L138.903 109H148.839L137.823 60.04H118.959L107.943 109H117.879ZM130.119 68.248L135.087 91.504H121.695L126.663 68.248H130.119ZM174.439 73V81.208H165.583V95.968C165.583 96.688 165.583 97.312 165.583 97.84C165.631 98.32 165.679 98.704 165.727 98.992C165.823 99.616 166.087 100.144 166.519 100.576C166.951 101.008 167.647 101.224 168.607 101.224L174.079 101.08L174.511 108.784C171.295 109.504 168.847 109.864 167.167 109.864C165.007 109.864 163.207 109.624 161.767 109.144C160.327 108.712 159.175 107.968 158.311 106.912C157.447 105.856 156.823 104.464 156.439 102.736C156.103 100.96 155.935 98.776 155.935 96.184V81.208H151.687V73H155.935V62.992H165.583V73H174.439ZM195.41 72.136C201.362 72.136 205.61 73.792 208.154 77.104C210.698 80.368 211.97 84.976 211.97 90.928C211.97 103.552 206.45 109.864 195.41 109.864C184.37 109.864 178.85 103.552 178.85 90.928C178.85 88.048 179.138 85.456 179.714 83.152C180.29 80.848 181.226 78.88 182.522 77.248C183.818 75.616 185.522 74.368 187.634 73.504C189.746 72.592 192.338 72.136 195.41 72.136ZM195.41 101.656C198.002 101.656 199.778 100.816 200.738 99.136C201.698 97.408 202.178 94.672 202.178 90.928C202.178 87.184 201.698 84.496 200.738 82.864C199.778 81.184 198.002 80.344 195.41 80.344C192.818 80.344 191.042 81.184 190.082 82.864C189.122 84.496 188.642 87.184 188.642 90.928C188.642 92.176 188.69 93.448 188.786 94.744C188.93 95.992 189.218 97.144 189.65 98.2C190.13 99.208 190.802 100.048 191.666 100.72C192.578 101.344 193.826 101.656 195.41 101.656ZM228.69 82.072V109H219.042V73H228.618V75.016C231.882 73.096 234.714 72.136 237.114 72.136C241.002 72.136 244.002 73.264 246.114 75.52C250.53 73.264 254.562 72.136 258.21 72.136C260.61 72.136 262.602 72.472 264.186 73.144C265.818 73.816 267.114 74.872 268.074 76.312C269.082 77.704 269.802 79.504 270.234 81.712C270.666 83.872 270.882 86.464 270.882 89.488V109H261.234V89.776C261.234 86.704 260.898 84.448 260.226 83.008C259.554 81.52 258.21 80.776 256.194 80.776C254.754 80.776 252.882 81.112 250.578 81.784L249.498 82.144C249.594 83.968 249.666 85.552 249.714 86.896C249.762 88.24 249.786 89.392 249.786 90.352V109H240.138V90.496C240.138 88.72 240.066 87.208 239.922 85.96C239.826 84.712 239.586 83.704 239.202 82.936C238.866 82.168 238.362 81.616 237.69 81.28C237.018 80.944 236.154 80.776 235.098 80.776C233.274 80.776 231.426 81.112 229.554 81.784L228.69 82.072Z" fill="black"/>
<path d="M177.377 66V59.538H176.702V66H177.377ZM180.126 66V61.5H179.451V66H180.126ZM180.126 60.483V59.7H179.451V60.483H180.126ZM183.877 68.115C183.517 68.115 183.214 68.091 182.968 68.043C182.722 68.001 182.521 67.926 182.365 67.818C182.215 67.716 182.107 67.578 182.041 67.404C181.975 67.23 181.942 67.014 181.942 66.756C181.942 66.63 181.954 66.519 181.978 66.423C182.008 66.333 182.05 66.243 182.104 66.153C182.164 66.069 182.239 65.988 182.329 65.91C182.419 65.826 182.527 65.736 182.653 65.64C182.485 65.526 182.401 65.319 182.401 65.019C182.401 64.917 182.476 64.728 182.626 64.452L182.707 64.308C182.233 64.092 181.996 63.639 181.996 62.949C181.996 61.923 182.557 61.41 183.679 61.41C183.979 61.41 184.246 61.44 184.48 61.5L184.615 61.527L185.947 61.491V62.067L185.092 62.049C185.29 62.247 185.389 62.547 185.389 62.949C185.389 63.513 185.248 63.909 184.966 64.137C184.69 64.359 184.252 64.47 183.652 64.47C183.478 64.47 183.331 64.458 183.211 64.434C183.103 64.692 183.049 64.863 183.049 64.947C183.049 65.133 183.106 65.247 183.22 65.289C183.346 65.337 183.691 65.361 184.255 65.361C184.543 65.361 184.789 65.382 184.993 65.424C185.197 65.46 185.365 65.529 185.497 65.631C185.629 65.733 185.725 65.868 185.785 66.036C185.845 66.21 185.875 66.426 185.875 66.684C185.875 67.638 185.209 68.115 183.877 68.115ZM182.671 62.949C182.671 63.309 182.749 63.564 182.905 63.714C183.067 63.858 183.331 63.93 183.697 63.93C184.063 63.93 184.324 63.855 184.48 63.705C184.636 63.555 184.714 63.3 184.714 62.94C184.714 62.58 184.636 62.328 184.48 62.184C184.324 62.034 184.063 61.959 183.697 61.959C183.331 61.959 183.067 62.034 182.905 62.184C182.749 62.334 182.671 62.589 182.671 62.949ZM182.608 66.702C182.608 66.864 182.629 66.999 182.671 67.107C182.713 67.215 182.782 67.302 182.878 67.368C182.974 67.434 183.1 67.479 183.256 67.503C183.418 67.533 183.619 67.548 183.859 67.548C184.339 67.548 184.681 67.482 184.885 67.35C185.089 67.218 185.191 66.996 185.191 66.684C185.191 66.534 185.173 66.411 185.137 66.315C185.107 66.219 185.05 66.144 184.966 66.09C184.882 66.036 184.768 66 184.624 65.982C184.48 65.964 184.3 65.955 184.084 65.955L183.112 65.91C182.914 66.054 182.779 66.18 182.707 66.288C182.641 66.396 182.608 66.534 182.608 66.702ZM188.158 62.283V66H187.483V59.538H188.158V61.752C188.644 61.524 189.106 61.41 189.544 61.41C189.844 61.41 190.09 61.449 190.282 61.527C190.48 61.599 190.636 61.722 190.75 61.896C190.87 62.07 190.951 62.298 190.993 62.58C191.041 62.862 191.065 63.21 191.065 63.624V66H190.39V63.642C190.39 63.33 190.375 63.069 190.345 62.859C190.321 62.649 190.273 62.481 190.201 62.355C190.135 62.229 190.039 62.142 189.913 62.094C189.787 62.04 189.625 62.013 189.427 62.013C189.055 62.013 188.689 62.082 188.329 62.22L188.158 62.283ZM195.368 61.5V62.085H193.937V64.236C193.937 64.758 193.976 65.097 194.054 65.253C194.126 65.415 194.303 65.496 194.585 65.496L195.386 65.442L195.431 66C195.227 66.03 195.047 66.054 194.891 66.072C194.741 66.09 194.615 66.099 194.513 66.099C194.279 66.099 194.081 66.072 193.919 66.018C193.763 65.97 193.637 65.883 193.541 65.757C193.445 65.631 193.376 65.463 193.334 65.253C193.292 65.043 193.271 64.776 193.271 64.452V62.085H192.632V61.5H193.271V60.123H193.937V61.5H195.368ZM197.614 66H198.739L199.693 62.481L200.647 66H201.772L202.843 61.5H202.168L201.268 65.415H201.115L200.044 61.59H199.342L198.271 65.415H198.127L197.218 61.5H196.543L197.614 66ZM207.548 65.442L207.809 65.415L207.827 65.946C207.485 65.994 207.167 66.03 206.873 66.054C206.585 66.078 206.318 66.09 206.072 66.09C205.424 66.09 204.965 65.904 204.695 65.532C204.425 65.154 204.29 64.569 204.29 63.777C204.29 62.199 204.917 61.41 206.171 61.41C206.783 61.41 207.236 61.581 207.53 61.923C207.83 62.259 207.98 62.79 207.98 63.516L207.944 64.029H204.974C204.974 64.533 205.064 64.905 205.244 65.145C205.424 65.379 205.739 65.496 206.189 65.496C206.639 65.496 207.092 65.478 207.548 65.442ZM204.965 63.489H207.305C207.305 62.937 207.215 62.547 207.035 62.319C206.861 62.091 206.576 61.977 206.18 61.977C205.778 61.977 205.475 62.097 205.271 62.337C205.073 62.577 204.971 62.961 204.965 63.489ZM210.426 66V61.5H209.751V66H210.426ZM210.426 60.483V59.7H209.751V60.483H210.426ZM214.177 68.115C213.817 68.115 213.514 68.091 213.268 68.043C213.022 68.001 212.821 67.926 212.665 67.818C212.515 67.716 212.407 67.578 212.341 67.404C212.275 67.23 212.242 67.014 212.242 66.756C212.242 66.63 212.254 66.519 212.278 66.423C212.308 66.333 212.35 66.243 212.404 66.153C212.464 66.069 212.539 65.988 212.629 65.91C212.719 65.826 212.827 65.736 212.953 65.64C212.785 65.526 212.701 65.319 212.701 65.019C212.701 64.917 212.776 64.728 212.926 64.452L213.007 64.308C212.533 64.092 212.296 63.639 212.296 62.949C212.296 61.923 212.857 61.41 213.979 61.41C214.279 61.41 214.546 61.44 214.78 61.5L214.915 61.527L216.247 61.491V62.067L215.392 62.049C215.59 62.247 215.689 62.547 215.689 62.949C215.689 63.513 215.548 63.909 215.266 64.137C214.99 64.359 214.552 64.47 213.952 64.47C213.778 64.47 213.631 64.458 213.511 64.434C213.403 64.692 213.349 64.863 213.349 64.947C213.349 65.133 213.406 65.247 213.52 65.289C213.646 65.337 213.991 65.361 214.555 65.361C214.843 65.361 215.089 65.382 215.293 65.424C215.497 65.46 215.665 65.529 215.797 65.631C215.929 65.733 216.025 65.868 216.085 66.036C216.145 66.21 216.175 66.426 216.175 66.684C216.175 67.638 215.509 68.115 214.177 68.115ZM212.971 62.949C212.971 63.309 213.049 63.564 213.205 63.714C213.367 63.858 213.631 63.93 213.997 63.93C214.363 63.93 214.624 63.855 214.78 63.705C214.936 63.555 215.014 63.3 215.014 62.94C215.014 62.58 214.936 62.328 214.78 62.184C214.624 62.034 214.363 61.959 213.997 61.959C213.631 61.959 213.367 62.034 213.205 62.184C213.049 62.334 212.971 62.589 212.971 62.949ZM212.908 66.702C212.908 66.864 212.929 66.999 212.971 67.107C213.013 67.215 213.082 67.302 213.178 67.368C213.274 67.434 213.4 67.479 213.556 67.503C213.718 67.533 213.919 67.548 214.159 67.548C214.639 67.548 214.981 67.482 215.185 67.35C215.389 67.218 215.491 66.996 215.491 66.684C215.491 66.534 215.473 66.411 215.437 66.315C215.407 66.219 215.35 66.144 215.266 66.09C215.182 66.036 215.068 66 214.924 65.982C214.78 65.964 214.6 65.955 214.384 65.955L213.412 65.91C213.214 66.054 213.079 66.18 213.007 66.288C212.941 66.396 212.908 66.534 212.908 66.702ZM218.458 62.283V66H217.783V59.538H218.458V61.752C218.944 61.524 219.406 61.41 219.844 61.41C220.144 61.41 220.39 61.449 220.582 61.527C220.78 61.599 220.936 61.722 221.05 61.896C221.17 62.07 221.251 62.298 221.293 62.58C221.341 62.862 221.365 63.21 221.365 63.624V66H220.69V63.642C220.69 63.33 220.675 63.069 220.645 62.859C220.621 62.649 220.573 62.481 220.501 62.355C220.435 62.229 220.339 62.142 220.213 62.094C220.087 62.04 219.925 62.013 219.727 62.013C219.355 62.013 218.989 62.082 218.629 62.22L218.458 62.283ZM225.668 61.5V62.085H224.237V64.236C224.237 64.758 224.276 65.097 224.354 65.253C224.426 65.415 224.603 65.496 224.885 65.496L225.686 65.442L225.731 66C225.527 66.03 225.347 66.054 225.191 66.072C225.041 66.09 224.915 66.099 224.813 66.099C224.579 66.099 224.381 66.072 224.219 66.018C224.063 65.97 223.937 65.883 223.841 65.757C223.745 65.631 223.676 65.463 223.634 65.253C223.592 65.043 223.571 64.776 223.571 64.452V62.085H222.932V61.5H223.571V60.123H224.237V61.5H225.668ZM231.323 62.013C230.669 62.013 230.342 62.241 230.342 62.697C230.342 62.913 230.417 63.06 230.567 63.138C230.723 63.228 231.065 63.318 231.593 63.408C231.863 63.456 232.091 63.51 232.277 63.57C232.463 63.624 232.613 63.702 232.727 63.804C232.847 63.9 232.931 64.023 232.979 64.173C233.033 64.323 233.06 64.515 233.06 64.749C233.06 65.217 232.913 65.559 232.619 65.775C232.325 65.985 231.89 66.09 231.314 66.09C231.128 66.09 230.924 66.078 230.702 66.054C230.486 66.036 230.252 66.006 230 65.964L229.73 65.919L229.766 65.334C230.108 65.382 230.408 65.421 230.666 65.451C230.924 65.475 231.14 65.487 231.314 65.487C231.662 65.487 231.926 65.433 232.106 65.325C232.292 65.211 232.385 65.022 232.385 64.758C232.385 64.506 232.307 64.329 232.151 64.227C231.989 64.131 231.647 64.044 231.125 63.966C230.861 63.924 230.636 63.876 230.45 63.822C230.27 63.762 230.12 63.687 230 63.597C229.886 63.501 229.802 63.381 229.748 63.237C229.694 63.093 229.667 62.913 229.667 62.697C229.667 62.481 229.706 62.292 229.784 62.13C229.868 61.968 229.982 61.833 230.126 61.725C230.27 61.617 230.441 61.539 230.639 61.491C230.837 61.437 231.053 61.41 231.287 61.41C231.473 61.41 231.68 61.422 231.908 61.446C232.136 61.464 232.388 61.494 232.664 61.536L232.916 61.581L232.898 62.157C232.562 62.109 232.262 62.073 231.998 62.049C231.74 62.025 231.515 62.013 231.323 62.013ZM234.616 63.741C234.616 63.327 234.649 62.973 234.715 62.679C234.787 62.385 234.901 62.145 235.057 61.959C235.213 61.767 235.414 61.629 235.66 61.545C235.906 61.455 236.203 61.41 236.551 61.41C236.899 61.41 237.193 61.455 237.433 61.545C237.679 61.629 237.877 61.767 238.027 61.959C238.183 62.145 238.294 62.385 238.36 62.679C238.432 62.973 238.468 63.327 238.468 63.741C238.468 64.155 238.435 64.509 238.369 64.803C238.309 65.097 238.204 65.34 238.054 65.532C237.904 65.724 237.706 65.865 237.46 65.955C237.214 66.045 236.908 66.09 236.542 66.09C236.176 66.09 235.87 66.045 235.624 65.955C235.378 65.865 235.18 65.724 235.03 65.532C234.88 65.34 234.772 65.097 234.706 64.803C234.646 64.509 234.616 64.155 234.616 63.741ZM235.309 63.723C235.309 64.053 235.324 64.332 235.354 64.56C235.39 64.782 235.453 64.965 235.543 65.109C235.639 65.247 235.768 65.349 235.93 65.415C236.092 65.475 236.299 65.505 236.551 65.505C236.803 65.505 237.007 65.475 237.163 65.415C237.325 65.355 237.451 65.256 237.541 65.118C237.631 64.974 237.691 64.791 237.721 64.569C237.757 64.341 237.775 64.062 237.775 63.732C237.775 63.402 237.754 63.126 237.712 62.904C237.676 62.682 237.61 62.505 237.514 62.373C237.418 62.235 237.292 62.139 237.136 62.085C236.98 62.025 236.785 61.995 236.551 61.995C236.317 61.995 236.119 62.025 235.957 62.085C235.801 62.139 235.675 62.235 235.579 62.373C235.483 62.505 235.414 62.682 235.372 62.904C235.33 63.12 235.309 63.393 235.309 63.723ZM241.018 66V59.538H240.343V66H241.018ZM245.9 65.154V61.5H246.575V66H245.9V65.685C245.45 65.955 245.006 66.09 244.568 66.09C244.262 66.09 244.01 66.054 243.812 65.982C243.614 65.91 243.458 65.787 243.344 65.613C243.236 65.439 243.158 65.211 243.11 64.929C243.068 64.641 243.047 64.281 243.047 63.849V61.5H243.722V63.84C243.722 64.164 243.734 64.434 243.758 64.65C243.782 64.86 243.827 65.028 243.893 65.154C243.959 65.28 244.055 65.367 244.181 65.415C244.307 65.463 244.469 65.487 244.667 65.487C244.865 65.487 245.066 65.46 245.27 65.406C245.474 65.346 245.63 65.289 245.738 65.235L245.9 65.154ZM250.924 61.5V62.085H249.493V64.236C249.493 64.758 249.532 65.097 249.61 65.253C249.682 65.415 249.859 65.496 250.141 65.496L250.942 65.442L250.987 66C250.783 66.03 250.603 66.054 250.447 66.072C250.297 66.09 250.171 66.099 250.069 66.099C249.835 66.099 249.637 66.072 249.475 66.018C249.319 65.97 249.193 65.883 249.097 65.757C249.001 65.631 248.932 65.463 248.89 65.253C248.848 65.043 248.827 64.776 248.827 64.452V62.085H248.188V61.5H248.827V60.123H249.493V61.5H250.924ZM253.143 66V61.5H252.468V66H253.143ZM253.143 60.483V59.7H252.468V60.483H253.143ZM254.959 63.741C254.959 63.327 254.992 62.973 255.058 62.679C255.13 62.385 255.244 62.145 255.4 61.959C255.556 61.767 255.757 61.629 256.003 61.545C256.249 61.455 256.546 61.41 256.894 61.41C257.242 61.41 257.536 61.455 257.776 61.545C258.022 61.629 258.22 61.767 258.37 61.959C258.526 62.145 258.637 62.385 258.703 62.679C258.775 62.973 258.811 63.327 258.811 63.741C258.811 64.155 258.778 64.509 258.712 64.803C258.652 65.097 258.547 65.34 258.397 65.532C258.247 65.724 258.049 65.865 257.803 65.955C257.557 66.045 257.251 66.09 256.885 66.09C256.519 66.09 256.213 66.045 255.967 65.955C255.721 65.865 255.523 65.724 255.373 65.532C255.223 65.34 255.115 65.097 255.049 64.803C254.989 64.509 254.959 64.155 254.959 63.741ZM255.652 63.723C255.652 64.053 255.667 64.332 255.697 64.56C255.733 64.782 255.796 64.965 255.886 65.109C255.982 65.247 256.111 65.349 256.273 65.415C256.435 65.475 256.642 65.505 256.894 65.505C257.146 65.505 257.35 65.475 257.506 65.415C257.668 65.355 257.794 65.256 257.884 65.118C257.974 64.974 258.034 64.791 258.064 64.569C258.1 64.341 258.118 64.062 258.118 63.732C258.118 63.402 258.097 63.126 258.055 62.904C258.019 62.682 257.953 62.505 257.857 62.373C257.761 62.235 257.635 62.139 257.479 62.085C257.323 62.025 257.128 61.995 256.894 61.995C256.66 61.995 256.462 62.025 256.3 62.085C256.144 62.139 256.018 62.235 255.922 62.373C255.826 62.505 255.757 62.682 255.715 62.904C255.673 63.12 255.652 63.393 255.652 63.723ZM261.307 62.346V66H260.632V61.5H261.298V61.815C261.784 61.545 262.249 61.41 262.693 61.41C262.993 61.41 263.239 61.449 263.431 61.527C263.629 61.599 263.785 61.722 263.899 61.896C264.019 62.07 264.1 62.298 264.142 62.58C264.19 62.862 264.214 63.21 264.214 63.624V66H263.548V63.642C263.548 63.33 263.533 63.069 263.503 62.859C263.479 62.649 263.431 62.481 263.359 62.355C263.287 62.229 263.188 62.142 263.062 62.094C262.936 62.04 262.774 62.013 262.576 62.013C262.384 62.013 262.18 62.043 261.964 62.103C261.754 62.157 261.592 62.211 261.478 62.265L261.307 62.346ZM267.599 62.013C266.945 62.013 266.618 62.241 266.618 62.697C266.618 62.913 266.693 63.06 266.843 63.138C266.999 63.228 267.341 63.318 267.869 63.408C268.139 63.456 268.367 63.51 268.553 63.57C268.739 63.624 268.889 63.702 269.003 63.804C269.123 63.9 269.207 64.023 269.255 64.173C269.309 64.323 269.336 64.515 269.336 64.749C269.336 65.217 269.189 65.559 268.895 65.775C268.601 65.985 268.166 66.09 267.59 66.09C267.404 66.09 267.2 66.078 266.978 66.054C266.762 66.036 266.528 66.006 266.276 65.964L266.006 65.919L266.042 65.334C266.384 65.382 266.684 65.421 266.942 65.451C267.2 65.475 267.416 65.487 267.59 65.487C267.938 65.487 268.202 65.433 268.382 65.325C268.568 65.211 268.661 65.022 268.661 64.758C268.661 64.506 268.583 64.329 268.427 64.227C268.265 64.131 267.923 64.044 267.401 63.966C267.137 63.924 266.912 63.876 266.726 63.822C266.546 63.762 266.396 63.687 266.276 63.597C266.162 63.501 266.078 63.381 266.024 63.237C265.97 63.093 265.943 62.913 265.943 62.697C265.943 62.481 265.982 62.292 266.06 62.13C266.144 61.968 266.258 61.833 266.402 61.725C266.546 61.617 266.717 61.539 266.915 61.491C267.113 61.437 267.329 61.41 267.563 61.41C267.749 61.41 267.956 61.422 268.184 61.446C268.412 61.464 268.664 61.494 268.94 61.536L269.192 61.581L269.174 62.157C268.838 62.109 268.538 62.073 268.274 62.049C268.016 62.025 267.791 62.013 267.599 62.013Z" fill="black"/>
<path d="M14.3664 111.5C14.3664 111.5 -20.5421 53.6026 89.3663 24.5002C161.967 5.2766 250.591 19.4058 250.591 19.4058" stroke="#E10000" stroke-width="2.06154"/>
<circle cx="259.942" cy="21.0751" r="19.1708" transform="rotate(-6.01786 259.942 21.0751)" fill="#DB0000"/>
<path d="M23.4021 114.146C23.8181 118.091 20.9566 121.627 17.011 122.043C13.0653 122.459 9.5295 119.598 9.11355 115.652C8.6976 111.706 11.559 108.17 15.5047 107.754C19.4504 107.338 22.9862 110.2 23.4021 114.146Z" fill="black"/>
<path d="M37.7427 117.075H39.0747V129.999H37.7427V129.387C36.8187 129.915 35.9067 130.179 35.0067 130.179C34.3227 130.179 33.7707 130.059 33.3507 129.819C32.9307 129.579 32.6007 129.255 32.3607 128.847C32.1327 128.439 31.9767 127.971 31.8927 127.443C31.8087 126.903 31.7667 126.339 31.7667 125.751C31.7667 123.999 32.0547 122.739 32.6307 121.971C33.2187 121.203 34.1847 120.819 35.5287 120.819C36.2607 120.819 36.9987 120.897 37.7427 121.053V117.075ZM35.2407 128.973C35.4087 128.973 35.5887 128.961 35.7807 128.937C35.9847 128.901 36.1827 128.859 36.3747 128.811C36.5787 128.751 36.7647 128.691 36.9327 128.631C37.1127 128.571 37.2627 128.517 37.3827 128.469L37.7427 128.307V122.205C36.9747 122.061 36.2607 121.989 35.6007 121.989C34.6887 121.989 34.0527 122.277 33.6927 122.853C33.3327 123.429 33.1527 124.335 33.1527 125.571C33.1527 125.955 33.1707 126.351 33.2067 126.759C33.2427 127.155 33.3267 127.521 33.4587 127.857C33.6027 128.181 33.8127 128.451 34.0887 128.667C34.3767 128.871 34.7607 128.973 35.2407 128.973ZM47.81 128.883L48.332 128.829L48.368 129.891C47.684 129.987 47.048 130.059 46.46 130.107C45.884 130.155 45.35 130.179 44.858 130.179C43.562 130.179 42.644 129.807 42.104 129.063C41.564 128.307 41.294 127.137 41.294 125.553C41.294 122.397 42.548 120.819 45.056 120.819C46.28 120.819 47.186 121.161 47.774 121.845C48.374 122.517 48.674 123.579 48.674 125.031L48.602 126.057H42.662C42.662 127.065 42.842 127.809 43.202 128.289C43.562 128.757 44.192 128.991 45.092 128.991C45.992 128.991 46.898 128.955 47.81 128.883ZM42.644 124.977H47.324C47.324 123.873 47.144 123.093 46.784 122.637C46.436 122.181 45.866 121.953 45.074 121.953C44.27 121.953 43.664 122.193 43.256 122.673C42.86 123.153 42.656 123.921 42.644 124.977ZM55.4399 120.999V122.169H52.5779V126.471C52.5779 127.515 52.6559 128.193 52.8119 128.505C52.9559 128.829 53.3099 128.991 53.8739 128.991L55.4759 128.883L55.5659 129.999C55.1579 130.059 54.7979 130.107 54.4859 130.143C54.1859 130.179 53.9339 130.197 53.7299 130.197C53.2619 130.197 52.8659 130.143 52.5419 130.035C52.2299 129.939 51.9779 129.765 51.7859 129.513C51.5939 129.261 51.4559 128.925 51.3719 128.505C51.2879 128.085 51.2459 127.551 51.2459 126.903V122.169H49.9679V120.999H51.2459V118.245H52.5779V120.999H55.4399ZM63.2085 128.883L63.7305 128.829L63.7665 129.891C63.0825 129.987 62.4465 130.059 61.8585 130.107C61.2825 130.155 60.7485 130.179 60.2565 130.179C58.9605 130.179 58.0425 129.807 57.5025 129.063C56.9625 128.307 56.6925 127.137 56.6925 125.553C56.6925 122.397 57.9465 120.819 60.4545 120.819C61.6785 120.819 62.5845 121.161 63.1725 121.845C63.7725 122.517 64.0725 123.579 64.0725 125.031L64.0005 126.057H58.0605C58.0605 127.065 58.2405 127.809 58.6005 128.289C58.9605 128.757 59.5905 128.991 60.4905 128.991C61.3905 128.991 62.2965 128.955 63.2085 128.883ZM58.0425 124.977H62.7225C62.7225 123.873 62.5425 123.093 62.1825 122.637C61.8345 122.181 61.2645 121.953 60.4725 121.953C59.6685 121.953 59.0625 122.193 58.6545 122.673C58.2585 123.153 58.0545 123.921 58.0425 124.977ZM67.5264 129.999H66.1764V120.999H67.5084V122.223C68.5404 121.515 69.6384 121.041 70.8024 120.801V122.169C70.5504 122.217 70.2864 122.283 70.0104 122.367C69.7464 122.451 69.4824 122.541 69.2184 122.637C68.9664 122.721 68.7324 122.811 68.5164 122.907C68.3004 123.003 68.1204 123.087 67.9764 123.159L67.5264 123.393V129.999ZM73.749 122.691V129.999H72.399V120.999H73.731V121.629C74.631 121.089 75.507 120.819 76.359 120.819C77.475 120.819 78.255 121.125 78.699 121.737C78.903 121.617 79.137 121.503 79.401 121.395C79.665 121.275 79.941 121.173 80.229 121.089C80.529 121.005 80.823 120.939 81.111 120.891C81.399 120.843 81.663 120.819 81.903 120.819C82.503 120.819 82.995 120.897 83.379 121.053C83.775 121.197 84.087 121.443 84.315 121.791C84.555 122.127 84.717 122.583 84.801 123.159C84.897 123.723 84.945 124.419 84.945 125.247V129.999H83.595V125.283C83.595 124.659 83.571 124.137 83.523 123.717C83.475 123.297 83.379 122.961 83.235 122.709C83.103 122.457 82.911 122.283 82.659 122.187C82.419 122.079 82.101 122.025 81.705 122.025C81.309 122.025 80.901 122.085 80.481 122.205C80.061 122.313 79.737 122.421 79.509 122.529L79.167 122.691C79.323 123.075 79.401 123.951 79.401 125.319V129.999H78.051V125.355C78.051 124.707 78.027 124.173 77.979 123.753C77.931 123.321 77.835 122.979 77.691 122.727C77.559 122.463 77.367 122.283 77.115 122.187C76.875 122.079 76.557 122.025 76.161 122.025C75.777 122.025 75.381 122.085 74.973 122.205C74.577 122.313 74.271 122.421 74.055 122.529L73.749 122.691ZM88.7959 129.999V120.999H87.4459V129.999H88.7959ZM88.7959 118.965V117.399H87.4459V118.965H88.7959ZM92.7334 122.691V129.999H91.3834V120.999H92.7154V121.629C93.6874 121.089 94.6174 120.819 95.5054 120.819C96.1054 120.819 96.5974 120.897 96.9814 121.053C97.3774 121.197 97.6894 121.443 97.9174 121.791C98.1574 122.139 98.3194 122.595 98.4034 123.159C98.4994 123.723 98.5474 124.419 98.5474 125.247V129.999H97.2154V125.283C97.2154 124.659 97.1854 124.137 97.1254 123.717C97.0774 123.297 96.9814 122.961 96.8374 122.709C96.6934 122.457 96.4954 122.283 96.2434 122.187C95.9914 122.079 95.6674 122.025 95.2714 122.025C94.8874 122.025 94.4794 122.085 94.0474 122.205C93.6274 122.313 93.3034 122.421 93.0754 122.529L92.7334 122.691ZM102.401 129.999V120.999H101.051V129.999H102.401ZM102.401 118.965V117.399H101.051V118.965H102.401ZM107.815 122.025C106.507 122.025 105.853 122.481 105.853 123.393C105.853 123.825 106.003 124.119 106.303 124.275C106.615 124.455 107.299 124.635 108.355 124.815C108.895 124.911 109.351 125.019 109.723 125.139C110.095 125.247 110.395 125.403 110.623 125.607C110.863 125.799 111.031 126.045 111.127 126.345C111.235 126.645 111.289 127.029 111.289 127.497C111.289 128.433 110.995 129.117 110.407 129.549C109.819 129.969 108.949 130.179 107.797 130.179C107.425 130.179 107.017 130.155 106.573 130.107C106.141 130.071 105.673 130.011 105.169 129.927L104.629 129.837L104.701 128.667C105.385 128.763 105.985 128.841 106.501 128.901C107.017 128.949 107.449 128.973 107.797 128.973C108.493 128.973 109.021 128.865 109.381 128.649C109.753 128.421 109.939 128.043 109.939 127.515C109.939 127.011 109.783 126.657 109.471 126.453C109.147 126.261 108.463 126.087 107.419 125.931C106.891 125.847 106.441 125.751 106.069 125.643C105.709 125.523 105.409 125.373 105.169 125.193C104.941 125.001 104.773 124.761 104.665 124.473C104.557 124.185 104.503 123.825 104.503 123.393C104.503 122.961 104.581 122.583 104.737 122.259C104.905 121.935 105.133 121.665 105.421 121.449C105.709 121.233 106.051 121.077 106.447 120.981C106.843 120.873 107.275 120.819 107.743 120.819C108.115 120.819 108.529 120.843 108.985 120.891C109.441 120.927 109.945 120.987 110.497 121.071L111.001 121.161L110.965 122.313C110.293 122.217 109.693 122.145 109.165 122.097C108.649 122.049 108.199 122.025 107.815 122.025ZM118.018 120.999V122.169H115.156V126.471C115.156 127.515 115.234 128.193 115.39 128.505C115.534 128.829 115.888 128.991 116.452 128.991L118.054 128.883L118.144 129.999C117.736 130.059 117.376 130.107 117.064 130.143C116.764 130.179 116.512 130.197 116.308 130.197C115.84 130.197 115.444 130.143 115.12 130.035C114.808 129.939 114.556 129.765 114.364 129.513C114.172 129.261 114.034 128.925 113.95 128.505C113.866 128.085 113.824 127.551 113.824 126.903V122.169H112.546V120.999H113.824V118.245H115.156V120.999H118.018ZM121.017 129.999V120.999H119.667V129.999H121.017ZM121.017 118.965V117.399H119.667V118.965H121.017ZM126.97 120.819C127.366 120.819 128.038 120.891 128.986 121.035L129.418 121.089L129.364 122.187C128.416 122.079 127.708 122.025 127.24 122.025C126.736 122.025 126.31 122.079 125.962 122.187C125.626 122.295 125.356 122.481 125.152 122.745C124.96 123.009 124.822 123.363 124.738 123.807C124.654 124.239 124.612 124.785 124.612 125.445C124.612 126.105 124.648 126.663 124.72 127.119C124.792 127.563 124.924 127.923 125.116 128.199C125.32 128.475 125.59 128.673 125.926 128.793C126.274 128.913 126.718 128.973 127.258 128.973L129.382 128.811L129.436 129.927C128.872 130.011 128.38 130.071 127.96 130.107C127.552 130.155 127.21 130.179 126.934 130.179C126.238 130.179 125.65 130.095 125.17 129.927C124.702 129.747 124.324 129.471 124.036 129.099C123.748 128.715 123.538 128.223 123.406 127.623C123.286 127.023 123.226 126.297 123.226 125.445C123.226 124.593 123.292 123.873 123.424 123.285C123.568 122.697 123.79 122.223 124.09 121.863C124.39 121.491 124.774 121.227 125.242 121.071C125.722 120.903 126.298 120.819 126.97 120.819ZM138.225 122.025C136.917 122.025 136.263 122.481 136.263 123.393C136.263 123.825 136.413 124.119 136.713 124.275C137.025 124.455 137.709 124.635 138.765 124.815C139.305 124.911 139.761 125.019 140.133 125.139C140.505 125.247 140.805 125.403 141.033 125.607C141.273 125.799 141.441 126.045 141.537 126.345C141.645 126.645 141.699 127.029 141.699 127.497C141.699 128.433 141.405 129.117 140.817 129.549C140.229 129.969 139.359 130.179 138.207 130.179C137.835 130.179 137.427 130.155 136.983 130.107C136.551 130.071 136.083 130.011 135.579 129.927L135.039 129.837L135.111 128.667C135.795 128.763 136.395 128.841 136.911 128.901C137.427 128.949 137.859 128.973 138.207 128.973C138.903 128.973 139.431 128.865 139.791 128.649C140.163 128.421 140.349 128.043 140.349 127.515C140.349 127.011 140.193 126.657 139.881 126.453C139.557 126.261 138.873 126.087 137.829 125.931C137.301 125.847 136.851 125.751 136.479 125.643C136.119 125.523 135.819 125.373 135.579 125.193C135.351 125.001 135.183 124.761 135.075 124.473C134.967 124.185 134.913 123.825 134.913 123.393C134.913 122.961 134.991 122.583 135.147 122.259C135.315 121.935 135.543 121.665 135.831 121.449C136.119 121.233 136.461 121.077 136.857 120.981C137.253 120.873 137.685 120.819 138.153 120.819C138.525 120.819 138.939 120.843 139.395 120.891C139.851 120.927 140.355 120.987 140.907 121.071L141.411 121.161L141.375 122.313C140.703 122.217 140.103 122.145 139.575 122.097C139.059 122.049 138.609 122.025 138.225 122.025ZM148.428 120.999V122.169H145.566V126.471C145.566 127.515 145.644 128.193 145.8 128.505C145.944 128.829 146.298 128.991 146.862 128.991L148.464 128.883L148.554 129.999C148.146 130.059 147.786 130.107 147.474 130.143C147.174 130.179 146.922 130.197 146.718 130.197C146.25 130.197 145.854 130.143 145.53 130.035C145.218 129.939 144.966 129.765 144.774 129.513C144.582 129.261 144.444 128.925 144.36 128.505C144.276 128.085 144.234 127.551 144.234 126.903V122.169H142.956V120.999H144.234V118.245H145.566V120.999H148.428ZM156.431 123.717V128.325C156.467 128.769 156.815 129.033 157.475 129.117L157.421 130.179C156.473 130.179 155.759 129.939 155.279 129.459C154.211 129.939 153.131 130.179 152.039 130.179C151.211 130.179 150.581 129.945 150.149 129.477C149.717 129.009 149.501 128.337 149.501 127.461C149.501 126.585 149.723 125.943 150.167 125.535C150.611 125.115 151.307 124.857 152.255 124.761L155.081 124.491V123.717C155.081 123.105 154.949 122.667 154.685 122.403C154.421 122.139 154.061 122.007 153.605 122.007C153.125 122.007 152.633 122.025 152.129 122.061C151.637 122.085 151.133 122.127 150.617 122.187L150.059 122.241L150.005 121.215C151.289 120.951 152.459 120.819 153.515 120.819C154.535 120.819 155.273 121.053 155.729 121.521C156.197 121.977 156.431 122.709 156.431 123.717ZM150.887 127.389C150.887 128.493 151.343 129.045 152.255 129.045C153.059 129.045 153.863 128.907 154.667 128.631L155.081 128.487V125.517L152.417 125.769C151.877 125.817 151.487 125.973 151.247 126.237C151.007 126.501 150.887 126.885 150.887 127.389ZM163.756 120.999V122.169H160.894V126.471C160.894 127.515 160.972 128.193 161.128 128.505C161.272 128.829 161.626 128.991 162.19 128.991L163.792 128.883L163.882 129.999C163.474 130.059 163.114 130.107 162.802 130.143C162.502 130.179 162.25 130.197 162.046 130.197C161.578 130.197 161.182 130.143 160.858 130.035C160.546 129.939 160.294 129.765 160.102 129.513C159.91 129.261 159.772 128.925 159.688 128.505C159.604 128.085 159.562 127.551 159.562 126.903V122.169H158.284V120.999H159.562V118.245H160.894V120.999H163.756ZM171.525 128.883L172.047 128.829L172.083 129.891C171.399 129.987 170.763 130.059 170.175 130.107C169.599 130.155 169.065 130.179 168.573 130.179C167.277 130.179 166.359 129.807 165.819 129.063C165.279 128.307 165.009 127.137 165.009 125.553C165.009 122.397 166.263 120.819 168.771 120.819C169.995 120.819 170.901 121.161 171.489 121.845C172.089 122.517 172.389 123.579 172.389 125.031L172.317 126.057H166.377C166.377 127.065 166.557 127.809 166.917 128.289C167.277 128.757 167.907 128.991 168.807 128.991C169.707 128.991 170.613 128.955 171.525 128.883ZM166.359 124.977H171.039C171.039 123.873 170.859 123.093 170.499 122.637C170.151 122.181 169.581 121.953 168.789 121.953C167.985 121.953 167.379 122.193 166.971 122.673C166.575 123.153 166.371 123.921 166.359 124.977ZM179.798 122.691V129.999H178.448V120.999H179.78V121.629C180.68 121.089 181.556 120.819 182.408 120.819C183.524 120.819 184.304 121.125 184.748 121.737C184.952 121.617 185.186 121.503 185.45 121.395C185.714 121.275 185.99 121.173 186.278 121.089C186.578 121.005 186.872 120.939 187.16 120.891C187.448 120.843 187.712 120.819 187.952 120.819C188.552 120.819 189.044 120.897 189.428 121.053C189.824 121.197 190.136 121.443 190.364 121.791C190.604 122.127 190.766 122.583 190.85 123.159C190.946 123.723 190.994 124.419 190.994 125.247V129.999H189.644V125.283C189.644 124.659 189.62 124.137 189.572 123.717C189.524 123.297 189.428 122.961 189.284 122.709C189.152 122.457 188.96 122.283 188.708 122.187C188.468 122.079 188.15 122.025 187.754 122.025C187.358 122.025 186.95 122.085 186.53 122.205C186.11 122.313 185.786 122.421 185.558 122.529L185.216 122.691C185.372 123.075 185.45 123.951 185.45 125.319V129.999H184.1V125.355C184.1 124.707 184.076 124.173 184.028 123.753C183.98 123.321 183.884 122.979 183.74 122.727C183.608 122.463 183.416 122.283 183.164 122.187C182.924 122.079 182.606 122.025 182.21 122.025C181.826 122.025 181.43 122.085 181.022 122.205C180.626 122.313 180.32 122.421 180.104 122.529L179.798 122.691ZM199.849 123.717V128.325C199.885 128.769 200.233 129.033 200.893 129.117L200.839 130.179C199.891 130.179 199.177 129.939 198.697 129.459C197.629 129.939 196.549 130.179 195.457 130.179C194.629 130.179 193.999 129.945 193.567 129.477C193.135 129.009 192.919 128.337 192.919 127.461C192.919 126.585 193.141 125.943 193.585 125.535C194.029 125.115 194.725 124.857 195.673 124.761L198.499 124.491V123.717C198.499 123.105 198.367 122.667 198.103 122.403C197.839 122.139 197.479 122.007 197.023 122.007C196.543 122.007 196.051 122.025 195.547 122.061C195.055 122.085 194.551 122.127 194.035 122.187L193.477 122.241L193.423 121.215C194.707 120.951 195.877 120.819 196.933 120.819C197.953 120.819 198.691 121.053 199.147 121.521C199.615 121.977 199.849 122.709 199.849 123.717ZM194.305 127.389C194.305 128.493 194.761 129.045 195.673 129.045C196.477 129.045 197.281 128.907 198.085 128.631L198.499 128.487V125.517L195.835 125.769C195.295 125.817 194.905 125.973 194.665 126.237C194.425 126.501 194.305 126.885 194.305 127.389ZM203.862 122.691V129.999H202.512V120.999H203.844V121.629C204.816 121.089 205.746 120.819 206.634 120.819C207.234 120.819 207.726 120.897 208.11 121.053C208.506 121.197 208.818 121.443 209.046 121.791C209.286 122.139 209.448 122.595 209.532 123.159C209.628 123.723 209.676 124.419 209.676 125.247V129.999H208.344V125.283C208.344 124.659 208.314 124.137 208.254 123.717C208.206 123.297 208.11 122.961 207.966 122.709C207.822 122.457 207.624 122.283 207.372 122.187C207.12 122.079 206.796 122.025 206.4 122.025C206.016 122.025 205.608 122.085 205.176 122.205C204.756 122.313 204.432 122.421 204.204 122.529L203.862 122.691ZM218.534 123.717V128.325C218.57 128.769 218.918 129.033 219.578 129.117L219.524 130.179C218.576 130.179 217.862 129.939 217.382 129.459C216.314 129.939 215.234 130.179 214.142 130.179C213.314 130.179 212.684 129.945 212.252 129.477C211.82 129.009 211.604 128.337 211.604 127.461C211.604 126.585 211.826 125.943 212.27 125.535C212.714 125.115 213.41 124.857 214.358 124.761L217.184 124.491V123.717C217.184 123.105 217.052 122.667 216.788 122.403C216.524 122.139 216.164 122.007 215.708 122.007C215.228 122.007 214.736 122.025 214.232 122.061C213.74 122.085 213.236 122.127 212.72 122.187L212.162 122.241L212.108 121.215C213.392 120.951 214.562 120.819 215.618 120.819C216.638 120.819 217.376 121.053 217.832 121.521C218.3 121.977 218.534 122.709 218.534 123.717ZM212.99 127.389C212.99 128.493 213.446 129.045 214.358 129.045C215.162 129.045 215.966 128.907 216.77 128.631L217.184 128.487V125.517L214.52 125.769C213.98 125.817 213.59 125.973 213.35 126.237C213.11 126.501 212.99 126.885 212.99 127.389ZM224.672 134.229C223.952 134.229 223.346 134.181 222.854 134.085C222.362 134.001 221.96 133.851 221.648 133.635C221.348 133.431 221.132 133.155 221 132.807C220.868 132.459 220.802 132.027 220.802 131.511C220.802 131.259 220.826 131.037 220.874 130.845C220.934 130.665 221.018 130.485 221.126 130.305C221.246 130.137 221.396 129.975 221.576 129.819C221.756 129.651 221.972 129.471 222.224 129.279C221.888 129.051 221.72 128.637 221.72 128.037C221.72 127.833 221.87 127.455 222.17 126.903L222.332 126.615C221.384 126.183 220.91 125.277 220.91 123.897C220.91 121.845 222.032 120.819 224.276 120.819C224.876 120.819 225.41 120.879 225.878 120.999L226.148 121.053L228.812 120.981V122.133L227.102 122.097C227.498 122.493 227.696 123.093 227.696 123.897C227.696 125.025 227.414 125.817 226.85 126.273C226.298 126.717 225.422 126.939 224.222 126.939C223.874 126.939 223.58 126.915 223.34 126.867C223.124 127.383 223.016 127.725 223.016 127.893C223.016 128.265 223.13 128.493 223.358 128.577C223.61 128.673 224.3 128.721 225.428 128.721C226.004 128.721 226.496 128.763 226.904 128.847C227.312 128.919 227.648 129.057 227.912 129.261C228.176 129.465 228.368 129.735 228.488 130.071C228.608 130.419 228.668 130.851 228.668 131.367C228.668 133.275 227.336 134.229 224.672 134.229ZM222.26 123.897C222.26 124.617 222.416 125.127 222.728 125.427C223.052 125.715 223.58 125.859 224.312 125.859C225.044 125.859 225.566 125.709 225.878 125.409C226.19 125.109 226.346 124.599 226.346 123.879C226.346 123.159 226.19 122.655 225.878 122.367C225.566 122.067 225.044 121.917 224.312 121.917C223.58 121.917 223.052 122.067 222.728 122.367C222.416 122.667 222.26 123.177 222.26 123.897ZM222.134 131.403C222.134 131.727 222.176 131.997 222.26 132.213C222.344 132.429 222.482 132.603 222.674 132.735C222.866 132.867 223.118 132.957 223.43 133.005C223.754 133.065 224.156 133.095 224.636 133.095C225.596 133.095 226.28 132.963 226.688 132.699C227.096 132.435 227.3 131.991 227.3 131.367C227.3 131.067 227.264 130.821 227.192 130.629C227.132 130.437 227.018 130.287 226.85 130.179C226.682 130.071 226.454 129.999 226.166 129.963C225.878 129.927 225.518 129.909 225.086 129.909L223.142 129.819C222.746 130.107 222.476 130.359 222.332 130.575C222.2 130.791 222.134 131.067 222.134 131.403ZM236.564 128.883L237.086 128.829L237.122 129.891C236.438 129.987 235.802 130.059 235.214 130.107C234.638 130.155 234.104 130.179 233.612 130.179C232.316 130.179 231.398 129.807 230.858 129.063C230.318 128.307 230.048 127.137 230.048 125.553C230.048 122.397 231.302 120.819 233.81 120.819C235.034 120.819 235.94 121.161 236.528 121.845C237.128 122.517 237.428 123.579 237.428 125.031L237.356 126.057H231.416C231.416 127.065 231.596 127.809 231.956 128.289C232.316 128.757 232.946 128.991 233.846 128.991C234.746 128.991 235.652 128.955 236.564 128.883ZM231.398 124.977H236.078C236.078 123.873 235.898 123.093 235.538 122.637C235.19 122.181 234.62 121.953 233.828 121.953C233.024 121.953 232.418 122.193 232.01 122.673C231.614 123.153 231.41 123.921 231.398 124.977ZM240.882 129.999H239.532V120.999H240.864V122.223C241.896 121.515 242.994 121.041 244.158 120.801V122.169C243.906 122.217 243.642 122.283 243.366 122.367C243.102 122.451 242.838 122.541 242.574 122.637C242.322 122.721 242.088 122.811 241.872 122.907C241.656 123.003 241.476 123.087 241.332 123.159L240.882 123.393V129.999Z" fill="black"/>
</svg>
