<svg width="500" height="447" viewBox="0 0 2554 2282" fill="none" xmlns="http://www.w3.org/2000/svg"><path d="M1976.7 622.2h19.3V723h-19.16v-3.024c-6.72 3.168-12.52 4.752-17.42 4.752-5.18 0-9.6-.72-13.25-2.16-3.55-1.536-6.43-3.84-8.64-6.912-2.21-3.168-3.79-7.104-4.75-11.808-.96-4.8-1.44-10.464-1.44-16.992 0-13.152 2.45-22.704 7.34-28.656 4.9-5.952 12.39-8.928 22.47-8.928 1.53 0 3.36.144 5.47.432 2.11.192 4.56.528 7.34 1.008l2.74.576V622.2zm-2.02 83.52l2.02-.432v-37.872c-5.09-.96-9.79-1.44-14.11-1.44-7.78 0-11.67 6.912-11.67 20.736 0 7.488.87 12.816 2.6 15.984 1.72 3.168 4.6 4.752 8.64 4.752 3.93 0 8.11-.576 12.52-1.728zm58.44 17.28v-72h-19.29v72h19.29zm0-81.216V622.2h-19.29v19.584h19.29zm69.82 11.232l-.29 15.984c-6.05-.768-11.14-1.344-15.27-1.728-4.03-.384-7.24-.576-9.64-.576-4.8 0-7.88.432-9.22 1.296-1.44.864-2.16 2.208-2.16 4.032 0 1.824.96 3.12 2.88 3.888.96.384 2.59.864 4.9 1.44 2.4.48 5.56 1.056 9.5 1.728 3.84.672 7.1 1.584 9.79 2.736 2.69 1.056 4.9 2.448 6.63 4.176 1.72 1.728 2.97 3.84 3.74 6.336.77 2.496 1.15 5.52 1.15 9.072 0 15.552-9.65 23.328-28.94 23.328-6.24 0-13.92-.864-23.04-2.592l-4.61-.864.58-16.128c6.04.768 11.08 1.344 15.12 1.728 4.12.384 7.39.576 9.79.576 4.7 0 7.87-.48 9.5-1.44 1.63-.864 2.45-2.208 2.45-4.032 0-1.824-.86-3.168-2.59-4.032-1.73-.768-6.34-1.824-13.83-3.168-3.74-.576-7-1.344-9.79-2.304-2.78-1.056-5.09-2.4-6.91-4.032-1.82-1.728-3.22-3.84-4.18-6.336-.86-2.592-1.29-5.808-1.29-9.648s.67-7.2 2.01-10.08c1.44-2.88 3.36-5.28 5.76-7.2 2.5-1.92 5.43-3.36 8.79-4.32 3.45-.96 7.2-1.44 11.23-1.44 2.78 0 6.1.24 9.94.72 3.93.384 8.35 1.056 13.24 2.016l4.76.864zm35.23 100.224h-19.3V651h19.16v3.888c6.24-3.744 11.71-5.616 16.41-5.616 4.9 0 9.12.72 12.67 2.16 3.56 1.344 6.48 3.552 8.79 6.624 2.3 2.976 4.03 6.912 5.18 11.808 1.15 4.896 1.73 10.8 1.73 17.712 0 6.912-.62 12.768-1.87 17.568-1.25 4.704-3.22 8.544-5.91 11.52-2.59 2.88-5.95 4.944-10.08 6.192-4.12 1.248-9.07 1.872-14.83 1.872-3.17 0-6.57-.288-10.22-.864l-1.73-.288v29.664zm12.53-86.688c-3.55 0-7.15.72-10.8 2.16l-1.73.72v37.728c4.32.576 7.82.864 10.51.864 5.57 0 9.36-1.632 11.38-4.896 2.11-3.264 3.17-8.832 3.17-16.704 0-13.248-4.18-19.872-12.53-19.872zm101.65 6.912v29.952c.2 2.304.58 3.936 1.16 4.896.57.864 1.77 1.488 3.6 1.872l-.58 14.544c-4.9 0-8.83-.336-11.81-1.008-2.88-.672-5.81-2.016-8.78-4.032-7.01 3.36-14.07 5.04-21.17 5.04-14.88 0-22.32-7.872-22.32-23.616 0-7.68 2.06-13.104 6.19-16.272 4.13-3.264 10.47-5.184 19.01-5.76l15.41-1.152v-4.464c0-2.976-.67-4.992-2.02-6.048-1.34-1.152-3.5-1.728-6.48-1.728l-27.07 1.152-.58-13.392c10.37-2.784 20.16-4.176 29.38-4.176 9.31 0 15.98 1.92 20.02 5.76 4.03 3.84 6.04 9.984 6.04 18.432zm-19.29 17.856l-13.11 1.152c-5.37.48-8.06 3.36-8.06 8.64 0 5.28 2.35 7.92 7.06 7.92 3.64 0 7.63-.576 11.95-1.728l2.16-.576V691.32zm77.58-40.32v16.416h-17.72v33.264c.1.96.2 1.728.29 2.304.19 1.248.72 2.304 1.59 3.168.86.864 2.25 1.296 4.17 1.296l10.95-.288.86 15.408c-6.43 1.44-11.33 2.16-14.69 2.16-4.32 0-7.92-.48-10.8-1.44-2.88-.864-5.18-2.352-6.91-4.464-1.73-2.112-2.98-4.896-3.74-8.352-.68-3.552-1.01-7.92-1.01-13.104v-29.952h-8.5V651h8.5v-20.016h19.29V651h17.72zm39.49-1.728c5.18 0 11.57.768 19.15 2.304l3.89.864-.58 15.264c-3.84-.384-7.15-.672-9.93-.864-2.79-.192-5.09-.288-6.91-.288-3.27 0-6 .336-8.21 1.008-2.11.576-3.79 1.68-5.04 3.312-1.15 1.536-1.97 3.6-2.45 6.192-.48 2.592-.72 5.856-.72 9.792s.24 7.248.72 9.936c.48 2.592 1.3 4.704 2.45 6.336 1.25 1.536 2.93 2.64 5.04 3.312 2.21.672 4.99 1.008 8.35 1.008l16.7-1.152.58 15.408c-10.18 2.016-18 3.024-23.47 3.024-10.66 0-18.34-2.976-23.04-8.928-4.61-6.048-6.91-15.696-6.91-28.944s2.4-22.8 7.2-28.656c4.8-5.952 12.52-8.928 23.18-8.928zm56.63 19.584V723h-19.29V622.2h19.29v32.256c6.63-3.456 12.58-5.184 17.86-5.184 4.8 0 8.78.72 11.95 2.16 3.27 1.344 5.86 3.456 7.78 6.336 2.01 2.88 3.45 6.48 4.32 10.8.86 4.32 1.29 9.456 1.29 15.408V723h-19.29v-38.592c0-6.048-.72-10.512-2.16-13.392-1.44-2.976-4.32-4.464-8.64-4.464-3.75 0-7.49.576-11.23 1.728l-1.88.576z" fill="#141134"/><path d="M62.5 776h2387" stroke="#141134" stroke-width="4" stroke-dasharray="100 50"/><path d="M1049.03 131h30.09l15.41-74.448L1109.94 131h30.09l18.72-97.92h-20.88l-12.09 80.928h-2.16l-17.57-80.928h-23.04l-17.57 80.928h-2.16l-12.09-80.928h-20.88l18.72 97.92zm159.36 1.728c-7.49 0-13.82-1.008-19.01-3.024-5.09-2.016-9.26-5.04-12.53-9.072-3.16-4.128-5.47-9.36-6.91-15.696-1.44-6.336-2.16-13.824-2.16-22.464 0-8.64.72-16.128 2.16-22.464 1.44-6.432 3.75-11.76 6.91-15.984 3.27-4.32 7.44-7.488 12.53-9.504 5.19-2.112 11.52-3.168 19.01-3.168 7.49 0 13.78 1.056 18.86 3.168 5.19 2.016 9.36 5.184 12.53 9.504 3.27 4.224 5.62 9.552 7.06 15.984 1.44 6.336 2.16 13.824 2.16 22.464 0 7.392-.58 14.208-1.73 20.448-1.06 6.144-3.12 11.424-6.19 15.84-2.98 4.416-7.11 7.872-12.39 10.368-5.18 2.4-11.95 3.6-20.3 3.6zm-15.84-24.912c2.78 5.088 8.06 7.632 15.84 7.632 3.94 0 7.15-.576 9.65-1.728 2.59-1.248 4.65-3.168 6.19-5.76 1.63-2.688 2.74-6.096 3.31-10.224.67-4.224 1.01-9.312 1.01-15.264s-.34-11.04-1.01-15.264c-.67-4.224-1.77-7.728-3.31-10.512-1.54-2.784-3.6-4.8-6.19-6.048-2.59-1.344-5.81-2.016-9.65-2.016-3.84 0-7.06.672-9.65 2.016-2.59 1.248-4.65 3.264-6.19 6.048-1.54 2.784-2.64 6.288-3.31 10.512-.67 4.224-1.01 9.312-1.01 15.264 0 11.808 1.44 20.256 4.32 25.344zm112.51-9.648h-19.15V131h-19.87V33.08h38.01c23.04 0 34.56 10.752 34.56 32.256 0 12.768-4.8 22.176-14.4 28.224l13.97 37.44h-21.74l-11.38-32.832zm-19.15-16.992h18.43c4.71 0 8.21-1.44 10.51-4.32 2.31-2.88 3.46-6.672 3.46-11.376s-1.25-8.448-3.74-11.232c-2.4-2.784-5.91-4.176-10.52-4.176h-18.14v31.104zm125.15 32.256h-35.85V33.08h-19.87V131h55.72v-17.568zM1456.23 131h-32.97V33.08h32.97c8.74 0 15.8.96 21.17 2.88 5.47 1.92 9.7 4.848 12.67 8.784 3.08 3.84 5.14 8.736 6.2 14.688 1.05 5.952 1.58 12.96 1.58 21.024 0 7.968-.48 15.12-1.44 21.456-.96 6.24-2.93 11.52-5.9 15.84-2.88 4.32-7.06 7.632-12.53 9.936-5.47 2.208-12.72 3.312-21.75 3.312zm20.88-38.88c.1-1.536.15-3.36.15-5.472.09-2.112.14-4.56.14-7.344 0-5.472-.19-9.792-.57-12.96-.39-3.264-1.3-6.24-2.74-8.928-1.44-2.688-3.55-4.512-6.34-5.472-2.78-1.056-6.62-1.584-11.52-1.584h-13.1v63.36h13.1c7.2 0 12.29-1.632 15.27-4.896 3.07-3.36 4.94-8.928 5.61-16.704zM122.678 653.016L122.39 669c-6.048-.768-11.136-1.344-15.264-1.728-4.032-.384-7.248-.576-9.648-.576-4.8 0-7.872.432-9.216 1.296-1.44.864-2.16 2.208-2.16 4.032 0 1.824.96 3.12 2.88 3.888.96.384 2.592.864 4.896 1.44 2.4.48 5.568 1.056 9.504 1.728 3.84.672 7.104 1.584 9.792 2.736 2.688 1.056 4.896 2.448 6.624 4.176 1.728 1.728 2.976 3.84 3.744 6.336.768 2.496 1.152 5.52 1.152 9.072 0 15.552-9.648 23.328-28.944 23.328-6.24 0-13.92-.864-23.04-2.592l-4.608-.864.576-16.128c6.048.768 11.088 1.344 15.12 1.728 4.128.384 7.392.576 9.792.576 4.704 0 7.872-.48 9.504-1.44 1.632-.864 2.448-2.208 2.448-4.032 0-1.824-.864-3.168-2.592-4.032-1.728-.768-6.336-1.824-13.824-3.168-3.744-.576-7.008-1.344-9.792-2.304-2.784-1.056-5.088-2.4-6.912-4.032-1.824-1.728-3.216-3.84-4.176-6.336-.864-2.592-1.296-5.808-1.296-9.648s.672-7.2 2.016-10.08c1.44-2.88 3.36-5.28 5.76-7.2 2.496-1.92 5.424-3.36 8.784-4.32 3.456-.96 7.2-1.44 11.232-1.44 2.784 0 6.096.24 9.936.72 3.936.384 8.352 1.056 13.248 2.016l4.752.864zm58.418 51.84V651h19.296v72H181.24v-4.032c-6.816 3.84-12.816 5.76-18 5.76-4.992 0-9.12-.672-12.385-2.016-3.263-1.344-5.855-3.456-7.775-6.336-1.92-2.88-3.264-6.576-4.032-11.088-.768-4.608-1.152-10.128-1.152-16.56V651h19.296v38.016c0 3.552.096 6.528.288 8.928.288 2.304.768 4.176 1.44 5.616.768 1.44 1.776 2.448 3.024 3.024 1.344.576 3.12.864 5.328.864a35.92 35.92 0 0011.952-2.016l1.872-.576zm71.961-55.584c5.088 0 9.456.672 13.104 2.016 3.648 1.248 6.624 3.36 8.928 6.336 2.4 2.88 4.176 6.768 5.328 11.664 1.152 4.8 1.728 10.752 1.728 17.856 0 7.104-.624 13.056-1.872 17.856-1.248 4.8-3.312 8.688-6.192 11.664-2.784 2.88-6.48 4.944-11.088 6.192-4.512 1.248-10.08 1.872-16.704 1.872-2.112 0-5.04-.144-8.784-.432-3.744-.192-8.352-.528-13.824-1.008l-5.472-.576V622.2h19.296v30.96c6.24-2.592 11.424-3.888 15.552-3.888zm-6.768 58.176c3.168 0 5.808-.336 7.92-1.008 2.112-.768 3.792-1.968 5.04-3.6 1.248-1.728 2.112-3.936 2.592-6.624.48-2.784.72-6.192.72-10.224 0-12.96-4.032-19.44-12.096-19.44-4.032 0-7.68.48-10.944 1.44l-2.016.432v38.448c2.208.192 4.032.336 5.472.432 1.44.096 2.544.144 3.312.144zm102.232-54.432L348.233 669c-6.048-.768-11.136-1.344-15.264-1.728-4.032-.384-7.248-.576-9.648-.576-4.8 0-7.872.432-9.216 1.296-1.44.864-2.16 2.208-2.16 4.032 0 1.824.96 3.12 2.88 3.888.96.384 2.592.864 4.896 1.44 2.4.48 5.568 1.056 9.504 1.728 3.84.672 7.104 1.584 9.792 2.736 2.688 1.056 4.896 2.448 6.624 4.176 1.728 1.728 2.976 3.84 3.744 6.336.768 2.496 1.152 5.52 1.152 9.072 0 15.552-9.648 23.328-28.944 23.328-6.24 0-13.92-.864-23.04-2.592l-4.608-.864.576-16.128c6.048.768 11.088 1.344 15.12 1.728 4.128.384 7.392.576 9.792.576 4.704 0 7.872-.48 9.504-1.44 1.632-.864 2.448-2.208 2.448-4.032 0-1.824-.864-3.168-2.592-4.032-1.728-.768-6.336-1.824-13.824-3.168-3.744-.576-7.008-1.344-9.792-2.304-2.784-1.056-5.088-2.4-6.912-4.032-1.824-1.728-3.216-3.84-4.176-6.336-.864-2.592-1.296-5.808-1.296-9.648s.672-7.2 2.016-10.08c1.44-2.88 3.36-5.28 5.76-7.2 2.496-1.92 5.424-3.36 8.784-4.32 3.456-.96 7.2-1.44 11.232-1.44 2.784 0 6.096.24 9.936.72 3.936.384 8.352 1.056 13.248 2.016l4.752.864zm42.866-3.744c5.184 0 11.568.768 19.152 2.304l3.888.864-.576 15.264c-3.84-.384-7.152-.672-9.936-.864-2.784-.192-5.088-.288-6.912-.288-3.264 0-6 .336-8.208 1.008-2.112.576-3.792 1.68-5.04 3.312-1.152 1.536-1.968 3.6-2.448 6.192s-.72 5.856-.72 9.792.24 7.248.72 9.936c.48 2.592 1.296 4.704 2.448 6.336 1.248 1.536 2.928 2.64 5.04 3.312 2.208.672 4.992 1.008 8.352 1.008l16.704-1.152.576 15.408c-10.176 2.016-18 3.024-23.472 3.024-10.656 0-18.336-2.976-23.04-8.928-4.608-6.048-6.912-15.696-6.912-28.944s2.4-22.8 7.2-28.656c4.8-5.952 12.528-8.928 23.184-8.928zM448.021 723h-19.296v-72h19.152v7.632c8.256-4.8 15.936-7.92 23.04-9.36v19.44a190.846 190.846 0 00-10.944 2.448 224.747 224.747 0 00-9.072 2.592l-2.88 1.008V723zm53.578 0v-72h-19.296v72h19.296zm0-81.216V622.2h-19.296v19.584h19.296zm52.677 7.488c5.088 0 9.456.672 13.104 2.016 3.648 1.248 6.624 3.36 8.928 6.336 2.4 2.88 4.176 6.768 5.328 11.664 1.152 4.8 1.728 10.752 1.728 17.856 0 7.104-.624 13.056-1.872 17.856-1.248 4.8-3.312 8.688-6.192 11.664-2.784 2.88-6.48 4.944-11.088 6.192-4.512 1.248-10.08 1.872-16.704 1.872-2.112 0-5.04-.144-8.784-.432-3.744-.192-8.352-.528-13.824-1.008l-5.472-.576V622.2h19.296v30.96c6.24-2.592 11.424-3.888 15.552-3.888zm-6.768 58.176c3.168 0 5.808-.336 7.92-1.008 2.112-.768 3.792-1.968 5.04-3.6 1.248-1.728 2.112-3.936 2.592-6.624.48-2.784.72-6.192.72-10.224 0-12.96-4.032-19.44-12.096-19.44-4.032 0-7.68.48-10.944 1.44l-2.016.432v38.448c2.208.192 4.032.336 5.472.432 1.44.096 2.544.144 3.312.144zm108.424-12.24h-42.336c.096 4.416 1.248 7.632 3.456 9.648 2.208 1.92 5.472 2.88 9.792 2.88 8.928 0 16.896-.288 23.904-.864l4.032-.432.288 14.256c-10.848 2.688-20.832 4.032-29.952 4.032-10.848 0-18.72-2.88-23.616-8.64-4.896-5.76-7.344-15.12-7.344-28.08 0-25.824 10.608-38.736 31.824-38.736 20.928 0 31.392 10.848 31.392 32.544l-1.44 13.392zm-42.48-14.688h24.912c0-5.76-.912-9.744-2.736-11.952-1.728-2.304-4.896-3.456-9.504-3.456s-7.872 1.2-9.792 3.6c-1.824 2.304-2.784 6.24-2.88 11.808zm504.758 1423.11c-10.47 0-15.7 3.46-15.7 10.37 0 3.07 1.3 5.42 3.89 7.06 1.34.76 3.5 1.77 6.48 3.02 2.97 1.15 6.91 2.5 11.81 4.03 4.8 1.54 8.83 3.12 12.09 4.75 3.27 1.64 5.91 3.56 7.92 5.76 2.02 2.12 3.46 4.61 4.32 7.49.96 2.88 1.44 6.34 1.44 10.37 0 5.18-.81 9.74-2.45 13.68-1.63 3.84-3.93 7.06-6.91 9.65-2.97 2.59-6.53 4.56-10.65 5.9-4.13 1.35-8.74 2.02-13.83 2.02-7.49 0-16.65-1.15-27.5-3.46l-5.19-1.01 2.02-15.4c12.86 1.72 22.7 2.59 29.52 2.59 10.18 0 15.26-4.23 15.26-12.67 0-3.08-1.15-5.48-3.45-7.2-2.5-1.73-7.2-3.6-14.11-5.62-5.57-1.63-10.32-3.31-14.26-5.04-3.84-1.82-6.96-3.89-9.36-6.19-2.4-2.4-4.13-5.09-5.18-8.07-1.06-2.97-1.59-6.38-1.59-10.22 0-9.89 2.93-17.18 8.79-21.89 5.95-4.8 14.16-7.2 24.62-7.2 3.55 0 7.58.24 12.1.72 4.51.48 9.5 1.2 14.97 2.16l5.19 1.01-1.59 15.7c-6.81-.77-12.62-1.35-17.42-1.73-4.71-.39-8.45-.58-11.23-.58zm65.65 2.02V2186h19.87v-80.35h25.92v-17.57h-72v17.57h26.21zm94.66 82.08c-7.49 0-13.82-1.01-19.01-3.03-5.08-2.01-9.26-5.04-12.52-9.07-3.17-4.13-5.48-9.36-6.92-15.69-1.44-6.34-2.16-13.83-2.16-22.47 0-8.64.72-16.13 2.16-22.46 1.44-6.43 3.75-11.76 6.92-15.99 3.26-4.32 7.44-7.48 12.52-9.5 5.19-2.11 11.52-3.17 19.01-3.17 7.49 0 13.78 1.06 18.87 3.17 5.18 2.02 9.36 5.18 12.52 9.5 3.27 4.23 5.62 9.56 7.06 15.99 1.44 6.33 2.16 13.82 2.16 22.46 0 7.39-.58 14.21-1.73 20.45-1.05 6.14-3.12 11.42-6.19 15.84-2.98 4.42-7.1 7.87-12.38 10.37-5.19 2.4-11.96 3.6-20.31 3.6zm-15.84-24.91c2.79 5.08 8.07 7.63 15.84 7.63 3.94 0 7.15-.58 9.65-1.73 2.59-1.25 4.66-3.17 6.19-5.76 1.63-2.69 2.74-6.1 3.31-10.22.68-4.23 1.01-9.32 1.01-15.27 0-5.95-.33-11.04-1.01-15.26-.67-4.23-1.77-7.73-3.31-10.51-1.53-2.79-3.6-4.8-6.19-6.05-2.59-1.35-5.81-2.02-9.65-2.02-3.84 0-7.05.67-9.65 2.02-2.59 1.25-4.65 3.26-6.19 6.05-1.53 2.78-2.64 6.28-3.31 10.51-.67 4.22-1.01 9.31-1.01 15.26 0 11.81 1.44 20.26 4.32 25.35zm112.52-9.65h-19.16V2186h-19.87v-97.92h38.02c23.04 0 34.56 10.75 34.56 32.26 0 12.76-4.8 22.17-14.4 28.22l13.97 37.44h-21.75l-11.37-32.83zm-19.16-16.99h18.44c4.7 0 8.2-1.44 10.51-4.32 2.3-2.88 3.45-6.68 3.45-11.38 0-4.7-1.24-8.45-3.74-11.23-2.4-2.79-5.9-4.18-10.51-4.18h-18.15v31.11zm132.79 49.82v-17.28h-43.49v-23.47h34.85v-16.99h-34.85v-22.9h43.49v-17.28h-63.36V2186h63.36zm472.89-1997.371l-26.07 26.067c-2.31 2.715-1.83 6.177 1.43 10.386l-6.32 5.702c-5.36-5.363-8.04-10.759-8.04-16.19-8.76-3.326-16.22-8.078-22.4-14.255-4.69-4.684-6.93-9.572-6.72-14.663.2-5.091 2.78-10.114 7.74-15.07 4.95-4.955 9.84-7.331 14.66-7.127 4.89.136 10.28 2.613 16.19 7.433l17.51 14.459 4.38-4.379c3.46-3.462 5.19-6.686 5.19-9.673s-1.29-5.77-3.87-8.349c-2.71-2.716-5.6-5.397-8.65-8.044a181.011 181.011 0 00-9.27-7.841l-3.46-2.851 5.5-6.109c8.76 5.77 16.12 11.642 22.1 17.615 5.77 5.77 8.62 11.269 8.55 16.496.07 5.227-2.75 10.691-8.45 16.393zm-52.14-10.589c-6.24 6.245-6.78 11.947-1.63 17.106 4.55 4.548 9.88 8.315 15.99 11.302l3.16 1.528 16.8-16.801-16.5-13.645c-3.32-2.783-6.41-4.106-9.26-3.971-2.85.136-5.71 1.63-8.56 4.481zm102.64 28.304c2.24 2.24 5.63 6.449 10.18 12.626l2.14 2.749-6.52 5.906c-4.75-5.973-8.45-10.284-11.1-12.931-2.85-2.851-5.56-4.956-8.14-6.313-2.51-1.29-5.09-1.765-7.74-1.426-2.58.407-5.36 1.629-8.35 3.666-2.92 1.968-6.24 4.819-9.98 8.553-3.73 3.733-6.68 7.094-8.86 10.08-2.1 2.919-3.39 5.702-3.87 8.35-.4 2.715 0 5.363 1.23 7.942 1.29 2.647 3.46 5.499 6.51 8.553l12.93 11.099-6 6.619c-3.67-2.716-6.79-5.16-9.37-7.332-2.58-2.036-4.65-3.835-6.21-5.396-3.94-3.938-6.79-7.739-8.56-11.405-1.62-3.665-2.2-7.365-1.73-11.098.55-3.802 2.14-7.773 4.79-11.914 2.71-4.073 6.48-8.519 11.3-13.339 4.82-4.819 9.27-8.519 13.34-11.098 4.14-2.512 8.08-3.937 11.81-4.277 3.8-.407 7.47.272 11 2.037 3.66 1.765 7.4 4.548 11.2 8.349zm50.66 52.698l-6.62 6.619-16.19-16.19-24.33 24.336c-5.91 5.906-9.3 10.182-10.19 12.83-1.01 2.647.07 5.566 3.26 8.756l9.68 8.452-5.81 6.822a282.43 282.43 0 01-6.92-5.295c-1.9-1.493-3.43-2.817-4.58-3.971-2.65-2.647-4.59-5.193-5.81-7.637-1.22-2.308-1.66-4.718-1.32-7.229.34-2.512 1.46-5.193 3.36-8.044 1.9-2.851 4.68-6.11 8.35-9.775l26.78-26.78-7.23-7.229 6.62-6.619 7.23 7.23 15.58-15.579 7.53 7.535-15.58 15.579 16.19 16.189zm-33.95 67.874l50.91-50.911-7.63-7.637-50.91 50.912 7.63 7.636zm62.42-62.417l8.86-8.859-7.64-7.637-8.86 8.859 7.64 7.637zm-24.46 49.257c4.68-4.684 9.06-8.316 13.13-10.895 4.14-2.512 8.15-3.937 12.02-4.277 3.93-.407 7.77.306 11.5 2.138 3.8 1.765 7.67 4.616 11.61 8.554 3.94 3.937 6.76 7.772 8.45 11.506 1.83 3.733 2.51 7.535 2.04 11.404-.34 3.869-1.8 7.84-4.38 11.913-2.51 4.141-6.11 8.553-10.79 13.237-4.69 4.684-9.07 8.316-13.14 10.895-4 2.648-7.94 4.209-11.81 4.684-3.87.475-7.7-.17-11.51-1.934-3.8-1.765-7.77-4.718-11.91-8.859-4.14-4.141-7.09-8.112-8.86-11.913-1.76-3.802-2.41-7.637-1.93-11.506.47-3.87 2-7.841 4.58-11.914 2.65-4.005 6.31-8.349 11-13.033zm8.04 7.637c-3.73 3.733-6.72 7.059-8.96 9.978-2.1 2.919-3.46 5.702-4.07 8.35-.48 2.647-.17 5.261.91 7.84 1.16 2.512 3.16 5.193 6.01 8.044 2.85 2.851 5.5 4.82 7.94 5.906 2.52 1.154 5.06 1.459 7.64.916 2.65-.611 5.4-2.002 8.25-4.174 2.98-2.173 6.34-5.125 10.08-8.859 3.73-3.734 6.62-7.094 8.65-10.081 2.11-2.918 3.36-5.668 3.77-8.247.48-2.648.14-5.159-1.02-7.535-1.08-2.444-2.95-4.989-5.6-7.637-2.65-2.647-5.22-4.548-7.74-5.702-2.37-1.154-4.88-1.493-7.53-1.018-2.58.407-5.36 1.629-8.35 3.665-2.92 1.969-6.25 4.82-9.98 8.554zm71.41 40.252L2105 402.986l-7.64-7.637 50.92-50.912 7.53 7.535-3.56 3.564c8.55 2.444 15.34 6.177 20.36 11.201 3.4 3.394 5.74 6.618 7.03 9.673 1.42 3.055 1.8 6.211 1.12 9.469-.61 3.327-2.28 6.823-4.99 10.488-2.65 3.734-6.31 7.942-11 12.626l-26.88 26.882-7.53-7.535 26.67-26.678c3.53-3.53 6.32-6.652 8.35-9.368 2.11-2.647 3.46-5.091 4.08-7.331.61-2.24.47-4.344-.41-6.313-.82-2.037-2.34-4.175-4.58-6.415-2.18-2.172-4.82-4.141-7.95-5.906-2.98-1.765-5.43-2.987-7.33-3.665l-2.85-1.019zM414.487 335.562l25.178 26.927c2.636 2.397 6.112 2.039 10.428-1.077l5.487 6.501c-5.539 5.18-11.023 7.679-16.45 7.496-3.618 8.641-8.618 15.944-14.999 21.911-4.838 4.524-9.798 6.599-14.88 6.225-5.081-.374-10.015-3.121-14.801-8.24-4.787-5.119-6.997-10.083-6.632-14.893.299-4.88 2.957-10.191 7.972-15.932l15.038-17.019-4.229-4.522c-3.344-3.577-6.509-5.415-9.494-5.515-2.985-.1-5.81 1.096-8.475 3.587a165.76 165.76 0 00-8.329 8.381 180.684 180.684 0 00-8.147 8.997l-2.966 3.365-5.921-5.7c6.06-8.559 12.176-15.723 18.346-21.493 5.96-5.573 11.551-8.238 16.773-7.995 5.226.107 10.593 3.106 16.101 8.996zm-12.332 51.749c6.032 6.451 11.713 7.185 17.042 2.202 4.698-4.393 8.642-9.592 11.832-15.598l1.633-3.103-16.228-17.355-14.19 16.028c-2.893 3.231-4.32 6.274-4.28 9.128.04 2.854 1.437 5.753 4.191 8.698zm40.287-107.658l6.393 6.837-16.724 15.638 23.506 25.138c5.705 6.101 9.865 9.636 12.481 10.607 2.612 1.106 5.566.119 8.861-2.963l8.771-9.384 6.624 6.029a281.51 281.51 0 01-5.524 6.743c-1.556 1.849-2.93 3.331-4.122 4.446-2.735 2.557-5.344 4.405-7.828 5.545-2.347 1.143-4.77 1.504-7.269 1.08-2.499-.423-5.141-1.633-7.927-3.628-2.786-1.995-5.949-4.886-9.49-8.673l-25.866-27.662-7.468 6.983-6.393-6.837 7.468-6.983-15.048-16.093 7.784-7.278 15.047 16.093 16.724-15.638zm31.809 19.346c-4.524-4.838-8.007-9.336-10.449-13.493-2.371-4.222-3.661-8.273-3.871-12.152-.275-3.948.566-7.757 2.523-11.427 1.891-3.741 4.871-7.512 8.938-11.315s7.994-6.49 11.783-8.061c3.793-1.706 7.615-2.257 11.466-1.653 3.855.469 7.775 2.061 11.76 4.776 4.054 2.649 8.343 6.393 12.867 11.231 4.524 4.838 8.007 9.336 10.449 13.493 2.511 4.092 3.94 8.079 4.285 11.962.345 3.883-.428 7.695-2.32 11.435-1.891 3.74-4.975 7.61-9.253 11.609-4.277 4-8.345 6.818-12.204 8.455-3.858 1.636-7.713 2.152-11.564 1.547-3.851-.604-7.769-2.264-11.753-4.979-3.914-2.78-8.133-6.589-12.657-11.428zm7.902-7.783c3.606 3.857 6.83 6.953 9.673 9.29 2.846 2.201 5.582 3.651 8.208 4.351 2.63.563 5.252.346 7.867-.653 2.548-1.069 5.295-2.981 8.241-5.735 2.945-2.753 5.001-5.333 6.168-7.739 1.238-2.472 1.629-5.006 1.172-7.602-.521-2.666-1.82-5.461-3.896-8.383-2.07-3.058-4.909-6.515-8.515-10.372-3.606-3.857-6.868-6.853-9.785-8.988-2.846-2.201-5.552-3.549-8.116-4.042-2.63-.564-5.152-.309-7.565.765-2.479 1.003-5.086 2.784-7.821 5.341-2.734 2.557-4.72 5.071-5.958 7.543-1.233 2.336-1.656 4.835-1.27 7.496.32 2.592 1.448 5.415 3.383 8.468 1.87 2.983 4.608 6.403 8.214 10.26zm42.625-70.021l39.931 42.704-7.889 7.376-49.176-52.59 7.784-7.278 3.442 3.681c2.309-8.073 5.952-14.437 10.931-19.092 6.521-6.098 12.751-8.572 18.689-7.422.537-1.816 1.281-3.76 2.234-5.834a49.237 49.237 0 013.166-6.312 66.98 66.98 0 014.072-5.976c1.42-1.855 2.832-3.437 4.234-4.749 3.506-3.278 6.808-5.511 9.904-6.697 3.101-1.322 6.268-1.59 9.502-.802 3.238.652 6.676 2.431 10.314 5.338 3.643 2.771 7.726 6.576 12.25 11.414l25.965 27.768-7.888 7.377-25.768-27.558c-3.41-3.646-6.402-6.565-8.978-8.757-2.575-2.192-4.972-3.631-7.19-4.317-2.149-.751-4.221-.719-6.218.097-1.993.681-4.146 2.103-6.46 4.266-2.314 2.164-4.37 4.744-6.169 7.74-1.864 2.926-3.167 5.327-3.909 7.204l-1.114 2.816c3.01 1.391 8.252 6.084 15.727 14.077l25.571 27.347-7.888 7.377-25.375-27.137c-3.54-3.786-6.598-6.776-9.174-8.968-2.641-2.262-5.07-3.736-7.289-4.421-2.213-.822-4.319-.824-6.316-.008-1.993.68-4.146 2.102-6.46 4.266-2.244 2.098-4.23 4.612-5.958 7.543-1.724 2.794-2.922 5.097-3.594 6.909l-.903 2.618zM1077.1 1080l3.89-17.71h34.27l3.89 17.71h19.87l-22.03-97.92h-37.73l-22.03 97.92h19.87zm24.48-81.504l9.94 46.514h-26.79l9.94-46.514h6.91zm88.64 9.504v16.42h-17.71v33.26c.1.96.19 1.73.29 2.3.19 1.25.72 2.31 1.58 3.17.87.87 2.26 1.3 4.18 1.3l10.94-.29.87 15.41c-6.44 1.44-11.33 2.16-14.69 2.16-4.32 0-7.92-.48-10.8-1.44-2.88-.87-5.19-2.35-6.91-4.47-1.73-2.11-2.98-4.89-3.75-8.35-.67-3.55-1.01-7.92-1.01-13.1v-29.95h-8.49V1008h8.49v-20.016h19.3V1008h17.71zm41.94-1.73c11.91 0 20.4 3.31 25.49 9.94 5.09 6.53 7.63 15.74 7.63 27.65 0 25.24-11.04 37.87-33.12 37.87s-33.12-12.63-33.12-37.87c0-5.76.58-10.95 1.73-15.56 1.15-4.6 3.03-8.54 5.62-11.8 2.59-3.27 6-5.76 10.22-7.49 4.23-1.83 9.41-2.74 15.55-2.74zm0 59.04c5.19 0 8.74-1.68 10.66-5.04 1.92-3.45 2.88-8.93 2.88-16.41 0-7.49-.96-12.87-2.88-16.13-1.92-3.36-5.47-5.04-10.66-5.04-5.18 0-8.73 1.68-10.65 5.04-1.92 3.26-2.88 8.64-2.88 16.13 0 2.49.09 5.04.29 7.63.28 2.49.86 4.8 1.72 6.91.96 2.02 2.31 3.7 4.04 5.04 1.82 1.25 4.32 1.87 7.48 1.87zm66.56-39.17V1080h-19.29v-72h19.15v4.03c6.53-3.84 12.19-5.76 16.99-5.76 7.78 0 13.78 2.26 18 6.77 8.83-4.51 16.9-6.77 24.19-6.77 4.8 0 8.79.67 11.96 2.02 3.26 1.34 5.85 3.45 7.77 6.33 2.02 2.79 3.46 6.39 4.32 10.8.87 4.32 1.3 9.51 1.3 15.56V1080h-19.3v-38.45c0-6.14-.67-10.65-2.01-13.53-1.35-2.98-4.04-4.47-8.07-4.47-2.88 0-6.62.67-11.23 2.02l-2.16.72c.19 3.65.34 6.81.43 9.5.1 2.69.15 4.99.15 6.91v37.3h-19.3v-37.01c0-3.55-.14-6.57-.43-9.07-.19-2.5-.67-4.51-1.44-6.05-.67-1.53-1.68-2.64-3.03-3.31-1.34-.67-3.07-1.01-5.18-1.01-3.65 0-7.34.67-11.09 2.02l-1.73.57zm153.49-16.12l-.29 15.98c-6.05-.77-11.14-1.34-15.26-1.73-4.04-.38-7.25-.57-9.65-.57-4.8 0-7.87.43-9.22 1.29-1.44.87-2.16 2.21-2.16 4.03 0 1.83.96 3.12 2.88 3.89.96.39 2.59.87 4.9 1.44 2.4.48 5.57 1.06 9.5 1.73 3.84.67 7.11 1.58 9.79 2.74 2.69 1.05 4.9 2.44 6.63 4.17 1.73 1.73 2.97 3.84 3.74 6.34.77 2.49 1.15 5.52 1.15 9.07 0 15.55-9.64 23.33-28.94 23.33-6.24 0-13.92-.87-23.04-2.59l-4.61-.87.58-16.13c6.05.77 11.09 1.35 15.12 1.73 4.13.39 7.39.58 9.79.58 4.7 0 7.87-.48 9.5-1.44 1.64-.87 2.45-2.21 2.45-4.03 0-1.83-.86-3.17-2.59-4.04-1.73-.76-6.34-1.82-13.82-3.16-3.75-.58-7.01-1.35-9.8-2.31-2.78-1.05-5.08-2.4-6.91-4.03-1.82-1.73-3.21-3.84-4.17-6.34-.87-2.59-1.3-5.8-1.3-9.64 0-3.84.67-7.2 2.02-10.08 1.44-2.88 3.36-5.28 5.76-7.2 2.49-1.92 5.42-3.36 8.78-4.32 3.46-.96 7.2-1.44 11.23-1.44 2.79 0 6.1.24 9.94.72 3.93.38 8.35 1.05 13.25 2.01l4.75.87z" fill="#141134"/><circle cx="924.5" cy="1269.5" r="78.5" stroke="#141134" stroke-width="10"/><circle cx="1263.5" cy="1269.5" r="83.5" fill="#1F7600"/><circle cx="1602.5" cy="1269.5" r="78.5" stroke="#141134" stroke-width="10"/><circle cx="1093.5" cy="1539.5" r="83.5" fill="#1F7600"/><circle cx="1263.5" cy="1786.5" r="83.5" fill="#1F7600"/><path d="M1029.86 1459.24c1.62.36 3.22-.66 3.57-2.28l5.8-26.37c.35-1.62-.67-3.22-2.29-3.58-1.62-.35-3.22.67-3.57 2.29l-5.15 23.44-23.44-5.15c-1.62-.35-3.22.67-3.58 2.29-.35 1.62.67 3.22 2.29 3.57l26.37 5.79zm-58.387-89.62l56.507 88.31 5.05-3.23-56.503-88.32-5.054 3.24zm217.547 341.88a2.99 2.99 0 003.6-2.25l6.07-26.3a2.99 2.99 0 00-2.24-3.6c-1.62-.37-3.23.63-3.6 2.25l-5.4 23.38-23.39-5.4a3 3 0 00-3.59 2.25 2.99 2.99 0 002.24 3.6l26.31 6.07zm-47.78-74.81l45.91 73.48 5.09-3.18-45.91-73.48-5.09 3.18zm189.83 69.94a2.99 2.99 0 003.56 2.3l26.4-5.64c1.62-.34 2.65-1.94 2.31-3.56a2.994 2.994 0 00-3.56-2.3l-23.47 5.01-5.02-23.47c-.34-1.62-1.94-2.65-3.56-2.31a2.994 2.994 0 00-2.3 3.56l5.64 26.41zm219.41-340.26l-219 338 5.04 3.26 219-338-5.04-3.26zm-401.64 90.78a3.004 3.004 0 003.57 2.3l26.38-5.72a3 3 0 002.3-3.56 3.004 3.004 0 00-3.57-2.3l-23.45 5.08-5.08-23.46a2.998 2.998 0 00-3.57-2.29 2.994 2.994 0 00-2.3 3.56l5.72 26.39zm59.81-94.5l-59.4 92.24 5.04 3.25 59.4-92.25-5.04-3.24z" fill="#141134"/><path d="M1234.61 2006.88a594.974 594.974 0 01-376.17-153.17 595.049 595.049 0 01-190.259-358.85 595.018 595.018 0 0184.297-397.31 595.019 595.019 0 01319.582-250.678 595.03 595.03 0 01405.96 12.765 595.037 595.037 0 01303.2 270.253 595.08 595.08 0 0159.17 401.83 595.02 595.02 0 01-212.43 346.18" stroke="#1F7600" stroke-width="10"/><path d="M281.726 845.328a5 5 0 00-6.898-1.556l-38.041 24.039a4.999 4.999 0 00-1.556 6.897 4.999 4.999 0 006.897 1.556l33.815-21.367 21.368 33.815a4.999 4.999 0 006.897 1.555 4.999 4.999 0 001.556-6.897l-24.038-38.042zM1033.7 2112.3c-536.025-193.29-874.18-718.55-751.323-1263.201l-9.755-2.2C148.48 1397.25 490.324 1926.99 1030.3 2121.7l3.4-9.4z" fill="#141134"/><path d="M1262.57 2002.86c-2.01 1.9-2.1 5.07-.2 7.07l30.9 32.71c1.89 2.01 5.06 2.1 7.07.21 2-1.9 2.09-5.07.2-7.07l-27.47-29.08 29.08-27.47c2-1.89 2.09-5.06.2-7.07-1.9-2-5.06-2.09-7.07-.2l-32.71 30.9zm748.93-301.36l-3.73-3.33 3.73 3.33zm232-854l-4.85 1.191v.012c0 .011.01.03.01.055.02.051.03.13.06.237.05.213.13.539.23.973.2.869.49 2.175.86 3.903.74 3.454 1.79 8.592 3 15.281 2.42 13.379 5.51 32.959 8.14 57.682 5.26 49.451 8.69 119.446 1.36 201.536-14.67 164.16-72.38 376.55-244.54 569.8l7.46 6.65c173.94-195.24 232.23-409.85 247.04-575.56 7.4-82.85 3.94-153.514-1.38-203.484-2.65-24.988-5.78-44.811-8.24-58.407-1.23-6.798-2.3-12.04-3.06-15.594-.38-1.777-.69-3.132-.9-4.049-.1-.458-.18-.806-.24-1.043-.03-.118-.05-.209-.07-.271 0-.031-.01-.055-.01-.072-.01-.009-.01-.016-.01-.021 0-.005 0-.009-4.86 1.181zm-235.73 850.67c-140.79 158.04-326.09 233.93-476.48 270.27-75.16 18.17-141.51 26.43-189.05 30.16-23.77 1.86-42.83 2.58-55.93 2.84-6.55.13-11.61.15-15.02.13-1.71-.01-3.01-.03-3.87-.04-.43-.01-.76-.02-.97-.02-.11 0-.19-.01-.24-.01h-.07l-.14 5c-.14 5-.14 5-.13 5h.09c.06 0 .15 0 .26.01.23 0 .58.01 1.03.02.9.01 2.24.03 3.98.04 3.5.02 8.64 0 15.28-.13 13.27-.26 32.53-1 56.51-2.87 47.95-3.76 114.84-12.09 190.62-30.41 151.51-36.61 338.96-113.23 481.59-273.34l-7.46-6.65zm144.29-1096.882a5 5 0 006.23-3.351l12.94-43.098a4.99 4.99 0 00-3.35-6.227 4.993 4.993 0 00-6.22 3.351l-11.51 38.309-38.31-11.504a5.008 5.008 0 00-6.23 3.351 5.005 5.005 0 003.36 6.227l43.09 12.942zm-554.69-473.562c249.23 86.061 439.28 262.167 551.73 471.142l8.81-4.738c-113.56-211.025-305.5-388.918-557.28-475.856l-3.26 9.452z" fill="#1F7600"/><path d="M934.033 124.61a5 5 0 00-2.423-6.643l-40.795-18.995a5 5 0 10-4.22 9.066l36.262 16.884-16.884 36.262a5 5 0 109.065 4.221l18.995-40.795zM377.937 603.303C479.401 407.838 655.466 227.74 931.213 127.197l-3.426-9.395C649.532 219.26 471.599 401.162 369.062 598.696l8.875 4.607z" fill="#141134"/></svg>