<svg width="2554" height="2296" viewBox="0 0 2554 2296" fill="none" xmlns="http://www.w3.org/2000/svg">
<path d="M1976.7 636.2H1996V737H1976.84V733.976C1970.12 737.144 1964.32 738.728 1959.42 738.728C1954.24 738.728 1949.82 738.008 1946.17 736.568C1942.62 735.032 1939.74 732.728 1937.53 729.656C1935.32 726.488 1933.74 722.552 1932.78 717.848C1931.82 713.048 1931.34 707.384 1931.34 700.856C1931.34 687.704 1933.79 678.152 1938.68 672.2C1943.58 666.248 1951.07 663.272 1961.15 663.272C1962.68 663.272 1964.51 663.416 1966.62 663.704C1968.73 663.896 1971.18 664.232 1973.96 664.712L1976.7 665.288V636.2ZM1974.68 719.72L1976.7 719.288V681.416C1971.61 680.456 1966.91 679.976 1962.59 679.976C1954.81 679.976 1950.92 686.888 1950.92 700.712C1950.92 708.2 1951.79 713.528 1953.52 716.696C1955.24 719.864 1958.12 721.448 1962.16 721.448C1966.09 721.448 1970.27 720.872 1974.68 719.72ZM2033.12 737V665H2013.83V737H2033.12ZM2033.12 655.784V636.2H2013.83V655.784H2033.12ZM2102.94 667.016L2102.65 683C2096.6 682.232 2091.51 681.656 2087.38 681.272C2083.35 680.888 2080.14 680.696 2077.74 680.696C2072.94 680.696 2069.86 681.128 2068.52 681.992C2067.08 682.856 2066.36 684.2 2066.36 686.024C2066.36 687.848 2067.32 689.144 2069.24 689.912C2070.2 690.296 2071.83 690.776 2074.14 691.352C2076.54 691.832 2079.7 692.408 2083.64 693.08C2087.48 693.752 2090.74 694.664 2093.43 695.816C2096.12 696.872 2098.33 698.264 2100.06 699.992C2101.78 701.72 2103.03 703.832 2103.8 706.328C2104.57 708.824 2104.95 711.848 2104.95 715.4C2104.95 730.952 2095.3 738.728 2076.01 738.728C2069.77 738.728 2062.09 737.864 2052.97 736.136L2048.36 735.272L2048.94 719.144C2054.98 719.912 2060.02 720.488 2064.06 720.872C2068.18 721.256 2071.45 721.448 2073.85 721.448C2078.55 721.448 2081.72 720.968 2083.35 720.008C2084.98 719.144 2085.8 717.8 2085.8 715.976C2085.8 714.152 2084.94 712.808 2083.21 711.944C2081.48 711.176 2076.87 710.12 2069.38 708.776C2065.64 708.2 2062.38 707.432 2059.59 706.472C2056.81 705.416 2054.5 704.072 2052.68 702.44C2050.86 700.712 2049.46 698.6 2048.5 696.104C2047.64 693.512 2047.21 690.296 2047.21 686.456C2047.21 682.616 2047.88 679.256 2049.22 676.376C2050.66 673.496 2052.58 671.096 2054.98 669.176C2057.48 667.256 2060.41 665.816 2063.77 664.856C2067.22 663.896 2070.97 663.416 2075 663.416C2077.78 663.416 2081.1 663.656 2084.94 664.136C2088.87 664.52 2093.29 665.192 2098.18 666.152L2102.94 667.016ZM2138.17 767.24H2118.87V665H2138.03V668.888C2144.27 665.144 2149.74 663.272 2154.44 663.272C2159.34 663.272 2163.56 663.992 2167.11 665.432C2170.67 666.776 2173.59 668.984 2175.9 672.056C2178.2 675.032 2179.93 678.968 2181.08 683.864C2182.23 688.76 2182.81 694.664 2182.81 701.576C2182.81 708.488 2182.19 714.344 2180.94 719.144C2179.69 723.848 2177.72 727.688 2175.03 730.664C2172.44 733.544 2169.08 735.608 2164.95 736.856C2160.83 738.104 2155.88 738.728 2150.12 738.728C2146.95 738.728 2143.55 738.44 2139.9 737.864L2138.17 737.576V767.24ZM2150.7 680.552C2147.15 680.552 2143.55 681.272 2139.9 682.712L2138.17 683.432V721.16C2142.49 721.736 2145.99 722.024 2148.68 722.024C2154.25 722.024 2158.04 720.392 2160.06 717.128C2162.17 713.864 2163.23 708.296 2163.23 700.424C2163.23 687.176 2159.05 680.552 2150.7 680.552ZM2252.35 687.464V717.416C2252.55 719.72 2252.93 721.352 2253.51 722.312C2254.08 723.176 2255.28 723.8 2257.11 724.184L2256.53 738.728C2251.63 738.728 2247.7 738.392 2244.72 737.72C2241.84 737.048 2238.91 735.704 2235.94 733.688C2228.93 737.048 2221.87 738.728 2214.77 738.728C2199.89 738.728 2192.45 730.856 2192.45 715.112C2192.45 707.432 2194.51 702.008 2198.64 698.84C2202.77 695.576 2209.11 693.656 2217.65 693.08L2233.06 691.928V687.464C2233.06 684.488 2232.39 682.472 2231.04 681.416C2229.7 680.264 2227.54 679.688 2224.56 679.688L2197.49 680.84L2196.91 667.448C2207.28 664.664 2217.07 663.272 2226.29 663.272C2235.6 663.272 2242.27 665.192 2246.31 669.032C2250.34 672.872 2252.35 679.016 2252.35 687.464ZM2233.06 705.32L2219.95 706.472C2214.58 706.952 2211.89 709.832 2211.89 715.112C2211.89 720.392 2214.24 723.032 2218.95 723.032C2222.59 723.032 2226.58 722.456 2230.9 721.304L2233.06 720.728V705.32ZM2310.64 665V681.416H2292.92V710.936C2292.92 712.376 2292.92 713.624 2292.92 714.68C2293.02 715.64 2293.12 716.408 2293.21 716.984C2293.4 718.232 2293.93 719.288 2294.8 720.152C2295.66 721.016 2297.05 721.448 2298.97 721.448L2309.92 721.16L2310.78 736.568C2304.35 738.008 2299.45 738.728 2296.09 738.728C2291.77 738.728 2288.17 738.248 2285.29 737.288C2282.41 736.424 2280.11 734.936 2278.38 732.824C2276.65 730.712 2275.4 727.928 2274.64 724.472C2273.96 720.92 2273.63 716.552 2273.63 711.368V681.416H2265.13V665H2273.63V644.984H2292.92V665H2310.64ZM2350.13 663.272C2355.31 663.272 2361.7 664.04 2369.28 665.576L2373.17 666.44L2372.59 681.704C2368.75 681.32 2365.44 681.032 2362.66 680.84C2359.87 680.648 2357.57 680.552 2355.75 680.552C2352.48 680.552 2349.75 680.888 2347.54 681.56C2345.43 682.136 2343.75 683.24 2342.5 684.872C2341.35 686.408 2340.53 688.472 2340.05 691.064C2339.57 693.656 2339.33 696.92 2339.33 700.856C2339.33 704.792 2339.57 708.104 2340.05 710.792C2340.53 713.384 2341.35 715.496 2342.5 717.128C2343.75 718.664 2345.43 719.768 2347.54 720.44C2349.75 721.112 2352.53 721.448 2355.89 721.448L2372.59 720.296L2373.17 735.704C2362.99 737.72 2355.17 738.728 2349.7 738.728C2339.04 738.728 2331.36 735.752 2326.66 729.8C2322.05 723.752 2319.75 714.104 2319.75 700.856C2319.75 687.608 2322.15 678.056 2326.95 672.2C2331.75 666.248 2339.47 663.272 2350.13 663.272ZM2406.76 682.856V737H2387.47V636.2H2406.76V668.456C2413.39 665 2419.34 663.272 2424.62 663.272C2429.42 663.272 2433.4 663.992 2436.57 665.432C2439.84 666.776 2442.43 668.888 2444.35 671.768C2446.36 674.648 2447.8 678.248 2448.67 682.568C2449.53 686.888 2449.96 692.024 2449.96 697.976V737H2430.67V698.408C2430.67 692.36 2429.95 687.896 2428.51 685.016C2427.07 682.04 2424.19 680.552 2419.87 680.552C2416.12 680.552 2412.38 681.128 2408.64 682.28L2406.76 682.856Z" fill="black"/>
<path d="M62.5 790L2449.5 790" stroke="black" stroke-width="4" stroke-dasharray="100 50"/>
<path d="M1049.03 131H1079.12L1094.53 56.552L1109.94 131H1140.03L1158.75 33.08H1137.87L1125.78 114.008H1123.62L1106.05 33.08H1083.01L1065.44 114.008H1063.28L1051.19 33.08H1030.31L1049.03 131ZM1208.39 132.728C1200.9 132.728 1194.57 131.72 1189.38 129.704C1184.29 127.688 1180.12 124.664 1176.85 120.632C1173.69 116.504 1171.38 111.272 1169.94 104.936C1168.5 98.6 1167.78 91.112 1167.78 82.472C1167.78 73.832 1168.5 66.344 1169.94 60.008C1171.38 53.576 1173.69 48.248 1176.85 44.024C1180.12 39.704 1184.29 36.536 1189.38 34.52C1194.57 32.408 1200.9 31.352 1208.39 31.352C1215.88 31.352 1222.17 32.408 1227.25 34.52C1232.44 36.536 1236.61 39.704 1239.78 44.024C1243.05 48.248 1245.4 53.576 1246.84 60.008C1248.28 66.344 1249 73.832 1249 82.472C1249 89.864 1248.42 96.68 1247.27 102.92C1246.21 109.064 1244.15 114.344 1241.08 118.76C1238.1 123.176 1233.97 126.632 1228.69 129.128C1223.51 131.528 1216.74 132.728 1208.39 132.728ZM1192.55 107.816C1195.33 112.904 1200.61 115.448 1208.39 115.448C1212.33 115.448 1215.54 114.872 1218.04 113.72C1220.63 112.472 1222.69 110.552 1224.23 107.96C1225.86 105.272 1226.97 101.864 1227.54 97.736C1228.21 93.512 1228.55 88.424 1228.55 82.472C1228.55 76.52 1228.21 71.432 1227.54 67.208C1226.87 62.984 1225.77 59.48 1224.23 56.696C1222.69 53.912 1220.63 51.896 1218.04 50.648C1215.45 49.304 1212.23 48.632 1208.39 48.632C1204.55 48.632 1201.33 49.304 1198.74 50.648C1196.15 51.896 1194.09 53.912 1192.55 56.696C1191.01 59.48 1189.91 62.984 1189.24 67.208C1188.57 71.432 1188.23 76.52 1188.23 82.472C1188.23 94.28 1189.67 102.728 1192.55 107.816ZM1305.06 98.168H1285.91V131H1266.04V33.08H1304.05C1327.09 33.08 1338.61 43.832 1338.61 65.336C1338.61 78.104 1333.81 87.512 1324.21 93.56L1338.18 131H1316.44L1305.06 98.168ZM1285.91 81.176H1304.34C1309.05 81.176 1312.55 79.736 1314.85 76.856C1317.16 73.976 1318.31 70.184 1318.31 65.48C1318.31 60.776 1317.06 57.032 1314.57 54.248C1312.17 51.464 1308.66 50.072 1304.05 50.072H1285.91V81.176ZM1411.06 113.432H1375.21V33.08H1355.34V131H1411.06V113.432ZM1456.23 131H1423.26V33.08H1456.23C1464.97 33.08 1472.03 34.04 1477.4 35.96C1482.87 37.88 1487.1 40.808 1490.07 44.744C1493.15 48.584 1495.21 53.48 1496.27 59.432C1497.32 65.384 1497.85 72.392 1497.85 80.456C1497.85 88.424 1497.37 95.576 1496.41 101.912C1495.45 108.152 1493.48 113.432 1490.51 117.752C1487.63 122.072 1483.45 125.384 1477.98 127.688C1472.51 129.896 1465.26 131 1456.23 131ZM1477.11 92.12C1477.21 90.584 1477.26 88.76 1477.26 86.648C1477.35 84.536 1477.4 82.088 1477.4 79.304C1477.4 73.832 1477.21 69.512 1476.83 66.344C1476.44 63.08 1475.53 60.104 1474.09 57.416C1472.65 54.728 1470.54 52.904 1467.75 51.944C1464.97 50.888 1461.13 50.36 1456.23 50.36H1443.13V113.72H1456.23C1463.43 113.72 1468.52 112.088 1471.5 108.824C1474.57 105.464 1476.44 99.896 1477.11 92.12Z" fill="black"/>
<path d="M122.678 667.016L122.39 683C116.342 682.232 111.254 681.656 107.126 681.272C103.094 680.888 99.8776 680.696 97.4776 680.696C92.6776 680.696 89.6056 681.128 88.2616 681.992C86.8216 682.856 86.1016 684.2 86.1016 686.024C86.1016 687.848 87.0616 689.144 88.9816 689.912C89.9416 690.296 91.5736 690.776 93.8776 691.352C96.2776 691.832 99.4456 692.408 103.382 693.08C107.222 693.752 110.486 694.664 113.174 695.816C115.862 696.872 118.07 698.264 119.798 699.992C121.526 701.72 122.774 703.832 123.542 706.328C124.31 708.824 124.694 711.848 124.694 715.4C124.694 730.952 115.046 738.728 95.7496 738.728C89.5096 738.728 81.8296 737.864 72.7096 736.136L68.1016 735.272L68.6776 719.144C74.7256 719.912 79.7656 720.488 83.7976 720.872C87.9256 721.256 91.1896 721.448 93.5896 721.448C98.2936 721.448 101.462 720.968 103.094 720.008C104.726 719.144 105.542 717.8 105.542 715.976C105.542 714.152 104.678 712.808 102.95 711.944C101.222 711.176 96.6136 710.12 89.1256 708.776C85.3816 708.2 82.1176 707.432 79.3336 706.472C76.5496 705.416 74.2456 704.072 72.4216 702.44C70.5976 700.712 69.2056 698.6 68.2456 696.104C67.3816 693.512 66.9496 690.296 66.9496 686.456C66.9496 682.616 67.6216 679.256 68.9656 676.376C70.4056 673.496 72.3256 671.096 74.7256 669.176C77.2216 667.256 80.1496 665.816 83.5096 664.856C86.9656 663.896 90.7096 663.416 94.7416 663.416C97.5256 663.416 100.838 663.656 104.678 664.136C108.614 664.52 113.03 665.192 117.926 666.152L122.678 667.016ZM181.096 718.856V665H200.392V737H181.24V732.968C174.424 736.808 168.424 738.728 163.24 738.728C158.248 738.728 154.12 738.056 150.855 736.712C147.592 735.368 145 733.256 143.08 730.376C141.16 727.496 139.816 723.8 139.048 719.288C138.28 714.68 137.896 709.16 137.896 702.728V665H157.192V703.016C157.192 706.568 157.288 709.544 157.48 711.944C157.768 714.248 158.248 716.12 158.92 717.56C159.688 719 160.696 720.008 161.944 720.584C163.288 721.16 165.064 721.448 167.272 721.448C171.4 721.448 175.384 720.776 179.224 719.432L181.096 718.856ZM253.057 663.272C258.145 663.272 262.513 663.944 266.161 665.288C269.809 666.536 272.785 668.648 275.089 671.624C277.489 674.504 279.265 678.392 280.417 683.288C281.569 688.088 282.145 694.04 282.145 701.144C282.145 708.248 281.521 714.2 280.273 719C279.025 723.8 276.961 727.688 274.081 730.664C271.297 733.544 267.601 735.608 262.993 736.856C258.481 738.104 252.913 738.728 246.289 738.728C244.177 738.728 241.249 738.584 237.505 738.296C233.761 738.104 229.153 737.768 223.681 737.288L218.209 736.712V636.2H237.505V667.16C243.745 664.568 248.929 663.272 253.057 663.272ZM246.289 721.448C249.457 721.448 252.097 721.112 254.209 720.44C256.321 719.672 258.001 718.472 259.249 716.84C260.497 715.112 261.361 712.904 261.841 710.216C262.321 707.432 262.561 704.024 262.561 699.992C262.561 687.032 258.529 680.552 250.465 680.552C246.433 680.552 242.785 681.032 239.521 681.992L237.505 682.424V720.872C239.713 721.064 241.537 721.208 242.977 721.304C244.417 721.4 245.521 721.448 246.289 721.448ZM348.521 667.016L348.233 683C342.185 682.232 337.097 681.656 332.969 681.272C328.937 680.888 325.721 680.696 323.321 680.696C318.521 680.696 315.449 681.128 314.105 681.992C312.665 682.856 311.945 684.2 311.945 686.024C311.945 687.848 312.905 689.144 314.825 689.912C315.785 690.296 317.417 690.776 319.721 691.352C322.121 691.832 325.289 692.408 329.225 693.08C333.065 693.752 336.329 694.664 339.017 695.816C341.705 696.872 343.913 698.264 345.641 699.992C347.369 701.72 348.617 703.832 349.385 706.328C350.153 708.824 350.537 711.848 350.537 715.4C350.537 730.952 340.889 738.728 321.593 738.728C315.353 738.728 307.673 737.864 298.553 736.136L293.945 735.272L294.521 719.144C300.569 719.912 305.609 720.488 309.641 720.872C313.769 721.256 317.033 721.448 319.433 721.448C324.137 721.448 327.305 720.968 328.937 720.008C330.569 719.144 331.385 717.8 331.385 715.976C331.385 714.152 330.521 712.808 328.793 711.944C327.065 711.176 322.457 710.12 314.969 708.776C311.225 708.2 307.961 707.432 305.177 706.472C302.393 705.416 300.089 704.072 298.265 702.44C296.441 700.712 295.049 698.6 294.089 696.104C293.225 693.512 292.793 690.296 292.793 686.456C292.793 682.616 293.465 679.256 294.809 676.376C296.249 673.496 298.169 671.096 300.569 669.176C303.065 667.256 305.993 665.816 309.353 664.856C312.809 663.896 316.553 663.416 320.585 663.416C323.369 663.416 326.681 663.656 330.521 664.136C334.457 664.52 338.873 665.192 343.769 666.152L348.521 667.016ZM391.387 663.272C396.571 663.272 402.955 664.04 410.539 665.576L414.427 666.44L413.851 681.704C410.011 681.32 406.699 681.032 403.915 680.84C401.131 680.648 398.827 680.552 397.003 680.552C393.739 680.552 391.003 680.888 388.795 681.56C386.683 682.136 385.003 683.24 383.755 684.872C382.603 686.408 381.787 688.472 381.307 691.064C380.827 693.656 380.587 696.92 380.587 700.856C380.587 704.792 380.827 708.104 381.307 710.792C381.787 713.384 382.603 715.496 383.755 717.128C385.003 718.664 386.683 719.768 388.795 720.44C391.003 721.112 393.787 721.448 397.147 721.448L413.851 720.296L414.427 735.704C404.251 737.72 396.427 738.728 390.955 738.728C380.299 738.728 372.619 735.752 367.915 729.8C363.307 723.752 361.003 714.104 361.003 700.856C361.003 687.608 363.403 678.056 368.203 672.2C373.003 666.248 380.731 663.272 391.387 663.272ZM448.021 737H428.725V665H447.877V672.632C456.133 667.832 463.813 664.712 470.917 663.272V682.712C466.981 683.48 463.333 684.296 459.973 685.16C456.709 686.024 453.685 686.888 450.901 687.752L448.021 688.76V737ZM501.599 737V665H482.303V737H501.599ZM501.599 655.784V636.2H482.303V655.784H501.599ZM554.276 663.272C559.364 663.272 563.732 663.944 567.38 665.288C571.028 666.536 574.004 668.648 576.308 671.624C578.708 674.504 580.484 678.392 581.636 683.288C582.788 688.088 583.364 694.04 583.364 701.144C583.364 708.248 582.74 714.2 581.492 719C580.244 723.8 578.18 727.688 575.3 730.664C572.516 733.544 568.82 735.608 564.212 736.856C559.7 738.104 554.132 738.728 547.508 738.728C545.396 738.728 542.468 738.584 538.724 738.296C534.98 738.104 530.372 737.768 524.9 737.288L519.428 736.712V636.2H538.724V667.16C544.964 664.568 550.148 663.272 554.276 663.272ZM547.508 721.448C550.676 721.448 553.316 721.112 555.428 720.44C557.54 719.672 559.22 718.472 560.468 716.84C561.716 715.112 562.58 712.904 563.06 710.216C563.54 707.432 563.78 704.024 563.78 699.992C563.78 687.032 559.748 680.552 551.684 680.552C547.652 680.552 544.004 681.032 540.74 681.992L538.724 682.424V720.872C540.932 721.064 542.756 721.208 544.196 721.304C545.636 721.4 546.74 721.448 547.508 721.448ZM655.932 709.208H613.596C613.692 713.624 614.844 716.84 617.052 718.856C619.26 720.776 622.524 721.736 626.844 721.736C635.772 721.736 643.74 721.448 650.748 720.872L654.78 720.44L655.068 734.696C644.22 737.384 634.236 738.728 625.116 738.728C614.268 738.728 606.396 735.848 601.5 730.088C596.604 724.328 594.156 714.968 594.156 702.008C594.156 676.184 604.764 663.272 625.98 663.272C646.908 663.272 657.372 674.12 657.372 695.816L655.932 709.208ZM613.452 694.52H638.364C638.364 688.76 637.452 684.776 635.628 682.568C633.9 680.264 630.732 679.112 626.124 679.112C621.516 679.112 618.252 680.312 616.332 682.712C614.508 685.016 613.548 688.952 613.452 694.52Z" fill="black"/>
<path d="M1118.21 2117.63C1107.74 2117.63 1102.51 2121.09 1102.51 2128C1102.51 2131.07 1103.81 2133.42 1106.4 2135.06C1107.74 2135.82 1109.9 2136.83 1112.88 2138.08C1115.85 2139.23 1119.79 2140.58 1124.69 2142.11C1129.49 2143.65 1133.52 2145.23 1136.78 2146.86C1140.05 2148.5 1142.69 2150.42 1144.7 2152.62C1146.72 2154.74 1148.16 2157.23 1149.02 2160.11C1149.98 2162.99 1150.46 2166.45 1150.46 2170.48C1150.46 2175.66 1149.65 2180.22 1148.01 2184.16C1146.38 2188 1144.08 2191.22 1141.1 2193.81C1138.13 2196.4 1134.57 2198.37 1130.45 2199.71C1126.32 2201.06 1121.71 2201.73 1116.62 2201.73C1109.13 2201.73 1099.97 2200.58 1089.12 2198.27L1083.93 2197.26L1085.95 2181.86C1098.81 2183.58 1108.65 2184.45 1115.47 2184.45C1125.65 2184.45 1130.73 2180.22 1130.73 2171.78C1130.73 2168.7 1129.58 2166.3 1127.28 2164.58C1124.78 2162.85 1120.08 2160.98 1113.17 2158.96C1107.6 2157.33 1102.85 2155.65 1098.91 2153.92C1095.07 2152.1 1091.95 2150.03 1089.55 2147.73C1087.15 2145.33 1085.42 2142.64 1084.37 2139.66C1083.31 2136.69 1082.78 2133.28 1082.78 2129.44C1082.78 2119.55 1085.71 2112.26 1091.57 2107.55C1097.52 2102.75 1105.73 2100.35 1116.19 2100.35C1119.74 2100.35 1123.77 2100.59 1128.29 2101.07C1132.8 2101.55 1137.79 2102.27 1143.26 2103.23L1148.45 2104.24L1146.86 2119.94C1140.05 2119.17 1134.24 2118.59 1129.44 2118.21C1124.73 2117.82 1120.99 2117.63 1118.21 2117.63ZM1183.86 2119.65V2200H1203.73V2119.65H1229.65V2102.08H1157.65V2119.65H1183.86ZM1278.52 2201.73C1271.03 2201.73 1264.7 2200.72 1259.51 2198.7C1254.43 2196.69 1250.25 2193.66 1246.99 2189.63C1243.82 2185.5 1241.51 2180.27 1240.07 2173.94C1238.63 2167.6 1237.91 2160.11 1237.91 2151.47C1237.91 2142.83 1238.63 2135.34 1240.07 2129.01C1241.51 2122.58 1243.82 2117.25 1246.99 2113.02C1250.25 2108.7 1254.43 2105.54 1259.51 2103.52C1264.7 2101.41 1271.03 2100.35 1278.52 2100.35C1286.01 2100.35 1292.3 2101.41 1297.39 2103.52C1302.57 2105.54 1306.75 2108.7 1309.91 2113.02C1313.18 2117.25 1315.53 2122.58 1316.97 2129.01C1318.41 2135.34 1319.13 2142.83 1319.13 2151.47C1319.13 2158.86 1318.55 2165.68 1317.4 2171.92C1316.35 2178.06 1314.28 2183.34 1311.21 2187.76C1308.23 2192.18 1304.11 2195.63 1298.83 2198.13C1293.64 2200.53 1286.87 2201.73 1278.52 2201.73ZM1262.68 2176.82C1265.47 2181.9 1270.75 2184.45 1278.52 2184.45C1282.46 2184.45 1285.67 2183.87 1288.17 2182.72C1290.76 2181.47 1292.83 2179.55 1294.36 2176.96C1295.99 2174.27 1297.1 2170.86 1297.67 2166.74C1298.35 2162.51 1298.68 2157.42 1298.68 2151.47C1298.68 2145.52 1298.35 2140.43 1297.67 2136.21C1297 2131.98 1295.9 2128.48 1294.36 2125.7C1292.83 2122.91 1290.76 2120.9 1288.17 2119.65C1285.58 2118.3 1282.36 2117.63 1278.52 2117.63C1274.68 2117.63 1271.47 2118.3 1268.87 2119.65C1266.28 2120.9 1264.22 2122.91 1262.68 2125.7C1261.15 2128.48 1260.04 2131.98 1259.37 2136.21C1258.7 2140.43 1258.36 2145.52 1258.36 2151.47C1258.36 2163.28 1259.8 2171.73 1262.68 2176.82ZM1375.2 2167.17H1356.04V2200H1336.17V2102.08H1374.19C1397.23 2102.08 1408.75 2112.83 1408.75 2134.34C1408.75 2147.1 1403.95 2156.51 1394.35 2162.56L1408.32 2200H1386.57L1375.2 2167.17ZM1356.04 2150.18H1374.48C1379.18 2150.18 1382.68 2148.74 1384.99 2145.86C1387.29 2142.98 1388.44 2139.18 1388.44 2134.48C1388.44 2129.78 1387.2 2126.03 1384.7 2123.25C1382.3 2120.46 1378.8 2119.07 1374.19 2119.07H1356.04V2150.18ZM1488.83 2200V2182.72H1445.34V2159.25H1480.19V2142.26H1445.34V2119.36H1488.83V2102.08H1425.47V2200H1488.83Z" fill="black"/>
<path d="M1961.72 202.629L1935.65 228.696C1933.34 231.411 1933.82 234.873 1937.08 239.082L1930.76 244.784C1925.4 239.421 1922.72 234.025 1922.72 228.594C1913.96 225.268 1906.5 220.516 1900.32 214.339C1895.63 209.655 1893.39 204.767 1893.6 199.676C1893.8 194.585 1896.38 189.562 1901.34 184.606C1906.29 179.651 1911.18 177.275 1916 177.479C1920.89 177.615 1926.28 180.092 1932.19 184.912L1949.7 199.371L1954.08 194.992C1957.54 191.53 1959.27 188.306 1959.27 185.319C1959.27 182.332 1957.98 179.549 1955.4 176.97C1952.69 174.254 1949.8 171.573 1946.75 168.926C1943.83 166.278 1940.74 163.665 1937.48 161.085L1934.02 158.234L1939.52 152.125C1948.28 157.895 1955.64 163.767 1961.62 169.74C1967.39 175.51 1970.24 181.009 1970.17 186.236C1970.24 191.463 1967.42 196.927 1961.72 202.629ZM1909.58 192.04C1903.34 198.285 1902.8 203.987 1907.95 209.146C1912.5 213.694 1917.83 217.461 1923.94 220.448L1927.1 221.976L1943.9 205.175L1927.4 191.53C1924.08 188.747 1920.99 187.424 1918.14 187.559C1915.29 187.695 1912.43 189.189 1909.58 192.04ZM2012.22 220.344C2014.46 222.584 2017.85 226.793 2022.4 232.97L2024.54 235.719L2018.02 241.625C2013.27 235.652 2009.57 231.341 2006.92 228.694C2004.07 225.843 2001.36 223.738 1998.78 222.381C1996.27 221.091 1993.69 220.616 1991.04 220.955C1988.46 221.362 1985.68 222.584 1982.69 224.621C1979.77 226.589 1976.45 229.44 1972.71 233.174C1968.98 236.907 1966.03 240.268 1963.85 243.254C1961.75 246.173 1960.46 248.956 1959.98 251.604C1959.58 254.319 1959.98 256.967 1961.21 259.546C1962.5 262.193 1964.67 265.045 1967.72 268.099L1980.65 279.198L1974.65 285.817C1970.98 283.101 1967.86 280.657 1965.28 278.485C1962.7 276.449 1960.63 274.65 1959.07 273.089C1955.13 269.151 1952.28 265.35 1950.51 261.684C1948.89 258.019 1948.31 254.319 1948.78 250.586C1949.33 246.784 1950.92 242.813 1953.57 238.672C1956.28 234.599 1960.05 230.153 1964.87 225.333C1969.69 220.514 1974.14 216.814 1978.21 214.235C1982.35 211.723 1986.29 210.298 1990.02 209.958C1993.82 209.551 1997.49 210.23 2001.02 211.995C2004.68 213.76 2008.42 216.543 2012.22 220.344ZM2062.88 273.042L2056.26 279.661L2040.07 263.471L2015.74 287.807C2009.83 293.713 2006.44 297.989 2005.55 300.637C2004.54 303.284 2005.62 306.203 2008.81 309.393L2018.49 317.845L2012.68 324.667C2010.03 322.698 2007.73 320.933 2005.76 319.372C2003.86 317.879 2002.33 316.555 2001.18 315.401C1998.53 312.754 1996.59 310.208 1995.37 307.764C1994.15 305.456 1993.71 303.046 1994.05 300.535C1994.39 298.023 1995.51 295.342 1997.41 292.491C1999.31 289.64 2002.09 286.381 2005.76 282.716L2032.54 255.936L2025.31 248.707L2031.93 242.088L2039.16 249.318L2054.74 233.739L2062.27 241.274L2046.69 256.853L2062.88 273.042ZM2028.93 340.916L2079.84 290.005L2072.21 282.368L2021.3 333.28L2028.93 340.916ZM2091.35 278.499L2100.21 269.64L2092.57 262.003L2083.71 270.862L2091.35 278.499ZM2066.89 327.756C2071.57 323.072 2075.95 319.44 2080.02 316.861C2084.16 314.349 2088.17 312.924 2092.04 312.584C2095.97 312.177 2099.81 312.89 2103.54 314.722C2107.34 316.487 2111.21 319.338 2115.15 323.276C2119.09 327.213 2121.91 331.048 2123.6 334.782C2125.43 338.515 2126.11 342.317 2125.64 346.186C2125.3 350.055 2123.84 354.026 2121.26 358.099C2118.75 362.24 2115.15 366.652 2110.47 371.336C2105.78 376.02 2101.4 379.652 2097.33 382.231C2093.33 384.879 2089.39 386.44 2085.52 386.915C2081.65 387.39 2077.82 386.745 2074.01 384.981C2070.21 383.216 2066.24 380.263 2062.1 376.122C2057.96 371.981 2055.01 368.01 2053.24 364.209C2051.48 360.407 2050.83 356.572 2051.31 352.703C2051.78 348.833 2053.31 344.862 2055.89 340.789C2058.54 336.784 2062.2 332.44 2066.89 327.756ZM2074.93 335.393C2071.2 339.126 2068.21 342.452 2065.97 345.371C2063.87 348.29 2062.51 351.073 2061.9 353.721C2061.42 356.368 2061.73 358.982 2062.81 361.561C2063.97 364.073 2065.97 366.754 2068.82 369.605C2071.67 372.456 2074.32 374.425 2076.76 375.511C2079.28 376.665 2081.82 376.97 2084.4 376.427C2087.05 375.816 2089.8 374.425 2092.65 372.253C2095.63 370.08 2098.99 367.128 2102.73 363.394C2106.46 359.66 2109.35 356.3 2111.38 353.313C2113.49 350.395 2114.74 347.645 2115.15 345.066C2115.63 342.418 2115.29 339.907 2114.13 337.531C2113.05 335.087 2111.18 332.542 2108.53 329.894C2105.88 327.247 2103.31 325.346 2100.79 324.192C2098.42 323.038 2095.91 322.699 2093.26 323.174C2090.68 323.581 2087.9 324.803 2084.91 326.839C2081.99 328.808 2078.66 331.659 2074.93 335.393ZM2146.34 375.645L2105 416.986L2097.36 409.349L2148.28 358.437L2155.81 365.972L2152.25 369.536C2160.8 371.98 2167.59 375.713 2172.61 380.737C2176.01 384.131 2178.35 387.355 2179.64 390.41C2181.06 393.465 2181.44 396.621 2180.76 399.879C2180.15 403.206 2178.48 406.702 2175.77 410.367C2173.12 414.101 2169.46 418.309 2164.77 422.993L2137.89 449.875L2130.36 442.34L2157.03 415.662C2160.56 412.132 2163.35 409.01 2165.38 406.294C2167.49 403.647 2168.84 401.203 2169.46 398.963C2170.07 396.723 2169.93 394.619 2169.05 392.65C2168.23 390.613 2166.71 388.475 2164.47 386.235C2162.29 384.063 2159.65 382.094 2156.52 380.329C2153.54 378.564 2151.09 377.342 2149.19 376.664L2146.34 375.645Z" fill="black"/>
<path d="M414.487 349.562L439.665 376.488C442.301 378.886 445.777 378.527 450.093 375.412L455.58 381.912C450.041 387.092 444.557 389.591 439.13 389.409C435.512 398.049 430.512 405.353 424.131 411.319C419.293 415.844 414.333 417.919 409.251 417.544C404.17 417.17 399.236 414.423 394.45 409.305C389.663 404.186 387.453 399.221 387.818 394.411C388.117 389.531 390.775 384.221 395.79 378.48L410.828 361.461L406.599 356.938C403.255 353.362 400.09 351.524 397.105 351.424C394.12 351.324 391.295 352.519 388.63 355.011C385.826 357.633 383.049 360.427 380.301 363.391C377.557 366.22 374.841 369.219 372.154 372.389L369.188 375.753L363.267 370.053C369.327 361.495 375.443 354.331 381.613 348.561C387.573 342.987 393.164 340.322 398.386 340.565C403.612 340.673 408.979 343.672 414.487 349.562ZM402.155 401.311C408.187 407.762 413.868 408.496 419.197 403.513C423.895 399.12 427.839 393.92 431.029 387.915L432.662 384.811L416.434 367.456L402.244 383.485C399.351 386.716 397.924 389.758 397.964 392.612C398.004 395.466 399.401 398.366 402.155 401.311ZM442.442 293.653L448.835 300.49L432.111 316.127L455.617 341.266C461.322 347.366 465.482 350.902 468.098 351.873C470.71 352.979 473.664 351.991 476.959 348.91L485.73 339.525L492.354 345.555C490.298 348.135 488.457 350.382 486.83 352.297C485.274 354.147 483.9 355.629 482.708 356.744C479.973 359.301 477.364 361.149 474.88 362.288C472.533 363.432 470.11 363.792 467.611 363.369C465.112 362.945 462.47 361.736 459.684 359.741C456.898 357.745 453.735 354.854 450.194 351.068L424.328 323.405L416.86 330.388L410.467 323.552L417.935 316.569L402.887 300.476L410.671 293.198L425.718 309.291L442.442 293.653ZM474.251 312.999C469.727 308.161 466.244 303.663 463.802 299.506C461.431 295.283 460.141 291.232 459.931 287.354C459.656 283.405 460.497 279.596 462.454 275.926C464.345 272.186 467.325 268.414 471.392 264.612C475.459 260.809 479.386 258.122 483.175 256.551C486.968 254.844 490.79 254.293 494.641 254.898C498.496 255.367 502.416 256.959 506.401 259.673C510.455 262.323 514.744 266.066 519.268 270.905C523.792 275.743 527.275 280.241 529.717 284.398C532.228 288.489 533.657 292.477 534.002 296.36C534.347 300.243 533.574 304.054 531.682 307.794C529.791 311.534 526.707 315.404 522.429 319.404C518.152 323.404 514.084 326.222 510.225 327.858C506.367 329.495 502.512 330.01 498.661 329.406C494.81 328.801 490.892 327.141 486.908 324.427C482.994 321.647 478.775 317.837 474.251 312.999ZM482.153 305.216C485.759 309.072 488.983 312.169 491.826 314.506C494.672 316.707 497.408 318.157 500.034 318.856C502.664 319.42 505.286 319.202 507.901 318.203C510.449 317.134 513.196 315.223 516.142 312.469C519.087 309.715 521.143 307.135 522.31 304.729C523.548 302.258 523.939 299.724 523.482 297.127C522.961 294.461 521.662 291.667 519.586 288.744C517.516 285.686 514.677 282.229 511.071 278.372C507.465 274.516 504.203 271.52 501.286 269.384C498.44 267.183 495.734 265.836 493.17 265.342C490.54 264.779 488.018 265.034 485.605 266.107C483.126 267.111 480.519 268.891 477.784 271.448C475.05 274.005 473.064 276.52 471.826 278.991C470.593 281.327 470.17 283.826 470.556 286.488C470.876 289.08 472.004 291.902 473.939 294.956C475.809 297.939 478.547 301.359 482.153 305.216ZM524.778 235.195L564.709 277.898L556.82 285.275L507.644 232.684L515.428 225.406L518.87 229.087C521.179 221.015 524.822 214.65 529.801 209.995C536.322 203.897 542.552 201.423 548.49 202.574C549.027 200.758 549.771 198.813 550.724 196.739C551.61 194.596 552.666 192.492 553.89 190.427C555.184 188.297 556.541 186.305 557.962 184.451C559.382 182.597 560.794 181.014 562.196 179.703C565.702 176.424 569.004 174.192 572.1 173.005C575.201 171.683 578.368 171.416 581.602 172.204C584.84 172.856 588.278 174.635 591.916 177.542C595.559 180.313 599.642 184.118 604.166 188.956L630.131 216.724L622.243 224.1L596.475 196.543C593.065 192.896 590.073 189.977 587.497 187.785C584.922 185.593 582.525 184.155 580.307 183.469C578.158 182.718 576.086 182.75 574.089 183.566C572.096 184.246 569.943 185.668 567.629 187.832C565.315 189.996 563.259 192.575 561.46 195.572C559.596 198.497 558.293 200.899 557.551 202.776L556.437 205.591C559.447 206.983 564.689 211.675 572.164 219.669L597.735 247.016L589.847 254.392L564.472 227.256C560.932 223.469 557.874 220.48 555.298 218.288C552.657 216.026 550.228 214.552 548.009 213.866C545.796 213.045 543.69 213.042 541.693 213.858C539.7 214.538 537.547 215.96 535.233 218.124C532.989 220.222 531.003 222.737 529.275 225.667C527.551 228.462 526.353 230.765 525.681 232.576L524.778 235.195Z" fill="black"/>
<path d="M1077.1 1094L1080.99 1076.29H1115.26L1119.15 1094H1139.02L1116.99 996.08H1079.26L1057.23 1094H1077.1ZM1101.58 1012.5L1111.52 1059.01H1084.73L1094.67 1012.5H1101.58ZM1190.22 1022V1038.42H1172.51V1067.94C1172.51 1069.38 1172.51 1070.62 1172.51 1071.68C1172.61 1072.64 1172.7 1073.41 1172.8 1073.98C1172.99 1075.23 1173.52 1076.29 1174.38 1077.15C1175.25 1078.02 1176.64 1078.45 1178.56 1078.45L1189.5 1078.16L1190.37 1093.57C1183.93 1095.01 1179.04 1095.73 1175.68 1095.73C1171.36 1095.73 1167.76 1095.25 1164.88 1094.29C1162 1093.42 1159.69 1091.94 1157.97 1089.82C1156.24 1087.71 1154.99 1084.93 1154.22 1081.47C1153.55 1077.92 1153.21 1073.55 1153.21 1068.37V1038.42H1144.72V1022H1153.21V1001.98H1172.51V1022H1190.22ZM1232.16 1020.27C1244.07 1020.27 1252.56 1023.58 1257.65 1030.21C1262.74 1036.74 1265.28 1045.95 1265.28 1057.86C1265.28 1083.1 1254.24 1095.73 1232.16 1095.73C1210.08 1095.73 1199.04 1083.1 1199.04 1057.86C1199.04 1052.1 1199.62 1046.91 1200.77 1042.3C1201.92 1037.7 1203.8 1033.76 1206.39 1030.5C1208.98 1027.23 1212.39 1024.74 1216.61 1023.01C1220.84 1021.18 1226.02 1020.27 1232.16 1020.27ZM1232.16 1079.31C1237.35 1079.31 1240.9 1077.63 1242.82 1074.27C1244.74 1070.82 1245.7 1065.34 1245.7 1057.86C1245.7 1050.37 1244.74 1044.99 1242.82 1041.73C1240.9 1038.37 1237.35 1036.69 1232.16 1036.69C1226.98 1036.69 1223.43 1038.37 1221.51 1041.73C1219.59 1044.99 1218.63 1050.37 1218.63 1057.86C1218.63 1060.35 1218.72 1062.9 1218.92 1065.49C1219.2 1067.98 1219.78 1070.29 1220.64 1072.4C1221.6 1074.42 1222.95 1076.1 1224.68 1077.44C1226.5 1078.69 1229 1079.31 1232.16 1079.31ZM1298.72 1040.14V1094H1279.43V1022H1298.58V1026.03C1305.11 1022.19 1310.77 1020.27 1315.57 1020.27C1323.35 1020.27 1329.35 1022.53 1333.57 1027.04C1342.4 1022.53 1350.47 1020.27 1357.76 1020.27C1362.56 1020.27 1366.55 1020.94 1369.72 1022.29C1372.98 1023.63 1375.57 1025.74 1377.49 1028.62C1379.51 1031.41 1380.95 1035.01 1381.81 1039.42C1382.68 1043.74 1383.11 1048.93 1383.11 1054.98V1094H1363.81V1055.55C1363.81 1049.41 1363.14 1044.9 1361.8 1042.02C1360.45 1039.04 1357.76 1037.55 1353.73 1037.55C1350.85 1037.55 1347.11 1038.22 1342.5 1039.57L1340.34 1040.29C1340.53 1043.94 1340.68 1047.1 1340.77 1049.79C1340.87 1052.48 1340.92 1054.78 1340.92 1056.7V1094H1321.62V1056.99C1321.62 1053.44 1321.48 1050.42 1321.19 1047.92C1321 1045.42 1320.52 1043.41 1319.75 1041.87C1319.08 1040.34 1318.07 1039.23 1316.72 1038.56C1315.38 1037.89 1313.65 1037.55 1311.54 1037.55C1307.89 1037.55 1304.2 1038.22 1300.45 1039.57L1298.72 1040.14ZM1452.21 1024.02L1451.92 1040C1445.87 1039.23 1440.78 1038.66 1436.66 1038.27C1432.62 1037.89 1429.41 1037.7 1427.01 1037.7C1422.21 1037.7 1419.14 1038.13 1417.79 1038.99C1416.35 1039.86 1415.63 1041.2 1415.63 1043.02C1415.63 1044.85 1416.59 1046.14 1418.51 1046.91C1419.47 1047.3 1421.1 1047.78 1423.41 1048.35C1425.81 1048.83 1428.98 1049.41 1432.91 1050.08C1436.75 1050.75 1440.02 1051.66 1442.7 1052.82C1445.39 1053.87 1447.6 1055.26 1449.33 1056.99C1451.06 1058.72 1452.3 1060.83 1453.07 1063.33C1453.84 1065.82 1454.22 1068.85 1454.22 1072.4C1454.22 1087.95 1444.58 1095.73 1425.28 1095.73C1419.04 1095.73 1411.36 1094.86 1402.24 1093.14L1397.63 1092.27L1398.21 1076.14C1404.26 1076.91 1409.3 1077.49 1413.33 1077.87C1417.46 1078.26 1420.72 1078.45 1423.12 1078.45C1427.82 1078.45 1430.99 1077.97 1432.62 1077.01C1434.26 1076.14 1435.07 1074.8 1435.07 1072.98C1435.07 1071.15 1434.21 1069.81 1432.48 1068.94C1430.75 1068.18 1426.14 1067.12 1418.66 1065.78C1414.91 1065.2 1411.65 1064.43 1408.86 1063.47C1406.08 1062.42 1403.78 1061.07 1401.95 1059.44C1400.13 1057.71 1398.74 1055.6 1397.78 1053.1C1396.91 1050.51 1396.48 1047.3 1396.48 1043.46C1396.48 1039.62 1397.15 1036.26 1398.5 1033.38C1399.94 1030.5 1401.86 1028.1 1404.26 1026.18C1406.75 1024.26 1409.68 1022.82 1413.04 1021.86C1416.5 1020.9 1420.24 1020.42 1424.27 1020.42C1427.06 1020.42 1430.37 1020.66 1434.21 1021.14C1438.14 1021.52 1442.56 1022.19 1447.46 1023.15L1452.21 1024.02Z" fill="black"/>
<circle cx="924.5" cy="1283.5" r="78.5" stroke="black" stroke-width="10"/>
<circle cx="1263.5" cy="1283.5" r="83.5" fill="#DB0000"/>
<circle cx="1602.5" cy="1283.5" r="78.5" stroke="black" stroke-width="10"/>
<circle cx="1093.5" cy="1553.5" r="83.5" fill="#DB0000"/>
<circle cx="1263.5" cy="1800.5" r="83.5" fill="#DB0000"/>
<path d="M1029.86 1473.24C1031.48 1473.6 1033.08 1472.58 1033.43 1470.96L1039.23 1444.59C1039.58 1442.97 1038.56 1441.37 1036.94 1441.01C1035.32 1440.66 1033.72 1441.68 1033.37 1443.3L1028.22 1466.74L1004.78 1461.59C1003.16 1461.24 1001.56 1462.26 1001.2 1463.88C1000.85 1465.5 1001.87 1467.1 1003.49 1467.45L1029.86 1473.24ZM971.473 1383.62L1027.98 1471.93L1033.03 1468.7L976.527 1380.38L971.473 1383.62Z" fill="black"/>
<path d="M1189.02 1725.5C1190.64 1725.88 1192.25 1724.87 1192.62 1723.25L1198.69 1696.95C1199.07 1695.33 1198.06 1693.72 1196.45 1693.35C1194.83 1692.98 1193.22 1693.98 1192.85 1695.6L1187.45 1718.98L1164.06 1713.58C1162.45 1713.21 1160.84 1714.22 1160.47 1715.83C1160.09 1717.45 1161.1 1719.06 1162.71 1719.43L1189.02 1725.5ZM1141.24 1650.69L1187.15 1724.17L1192.24 1720.99L1146.33 1647.51L1141.24 1650.69Z" fill="black"/>
<path d="M1331.07 1720.63C1331.41 1722.25 1333.01 1723.28 1334.63 1722.93L1361.03 1717.29C1362.65 1716.95 1363.68 1715.35 1363.34 1713.73C1362.99 1712.11 1361.4 1711.08 1359.78 1711.43L1336.31 1716.44L1331.29 1692.97C1330.95 1691.35 1329.35 1690.32 1327.73 1690.66C1326.11 1691.01 1325.08 1692.6 1325.43 1694.22L1331.07 1720.63ZM1550.48 1380.37L1331.48 1718.37L1336.52 1721.63L1555.52 1383.63L1550.48 1380.37Z" fill="black"/>
<path d="M1148.84 1471.15C1149.19 1472.77 1150.79 1473.8 1152.41 1473.45L1178.79 1467.73C1180.41 1467.38 1181.44 1465.78 1181.09 1464.17C1180.74 1462.55 1179.14 1461.52 1177.52 1461.87L1154.07 1466.95L1148.99 1443.49C1148.64 1441.87 1147.04 1440.85 1145.42 1441.2C1143.8 1441.55 1142.77 1443.14 1143.12 1444.76L1148.84 1471.15ZM1208.65 1376.65L1149.25 1468.89L1154.29 1472.14L1213.69 1379.89L1208.65 1376.65Z" fill="black"/>
<path d="M1234.61 2020.88C1095.14 2015.53 961.984 1961.31 858.44 1867.71C754.896 1774.11 687.551 1647.09 668.181 1508.86C648.811 1370.64 678.649 1230 752.478 1111.55C826.307 993.092 939.427 904.362 1072.06 860.872C1204.69 817.382 1348.38 821.9 1478.02 873.637C1607.65 925.373 1714.98 1021.03 1781.22 1143.89C1847.46 1266.75 1868.4 1408.98 1840.39 1545.72C1812.37 1682.46 1737.18 1805 1627.96 1891.9" stroke="black" stroke-width="10"/>
<path d="M281.726 859.328C280.251 856.994 277.163 856.297 274.828 857.772L236.787 881.811C234.452 883.286 233.756 886.374 235.231 888.708C236.706 891.043 239.794 891.739 242.128 890.264L275.943 868.897L297.311 902.712C298.786 905.046 301.874 905.743 304.208 904.268C306.543 902.792 307.239 899.704 305.764 897.37L281.726 859.328ZM1033.7 2126.3C497.675 1933.01 159.52 1407.75 282.377 863.099L272.622 860.899C148.48 1411.25 490.324 1940.99 1030.3 2135.7L1033.7 2126.3Z" fill="black"/>
<path d="M1262.56 2016.86C1260.56 2018.76 1260.47 2021.93 1262.36 2023.93L1293.27 2056.64C1295.16 2058.65 1298.33 2058.74 1300.33 2056.85C1302.34 2054.95 1302.43 2051.78 1300.54 2049.78L1273.07 2020.7L1302.14 1993.23C1304.15 1991.34 1304.24 1988.17 1302.34 1986.16C1300.45 1984.16 1297.28 1984.07 1295.28 1985.96L1262.56 2016.86ZM2011.5 1715.5L2007.76 1712.17L2011.5 1715.5ZM2243.5 861.5C2238.64 862.69 2238.64 862.69 2238.64 862.691C2238.65 862.694 2238.65 862.697 2238.65 862.703C2238.65 862.714 2238.65 862.733 2238.66 862.758C2238.67 862.809 2238.69 862.888 2238.72 862.995C2238.77 863.208 2238.84 863.534 2238.94 863.968C2239.14 864.837 2239.44 866.143 2239.81 867.871C2240.55 871.325 2241.6 876.463 2242.81 883.152C2245.23 896.531 2248.32 916.111 2250.95 940.834C2256.21 990.285 2259.64 1060.28 2252.31 1142.37C2237.64 1306.53 2179.92 1518.92 2007.76 1712.17L2015.23 1718.82C2189.17 1523.58 2247.46 1308.97 2262.27 1143.26C2269.67 1060.41 2266.21 989.746 2260.89 939.776C2258.23 914.788 2255.11 894.965 2252.65 881.369C2251.42 874.571 2250.35 869.329 2249.59 865.775C2249.21 863.998 2248.9 862.643 2248.69 861.726C2248.59 861.268 2248.5 860.92 2248.45 860.683C2248.42 860.565 2248.4 860.474 2248.38 860.412C2248.37 860.381 2248.37 860.357 2248.36 860.34C2248.36 860.331 2248.36 860.324 2248.36 860.319C2248.36 860.314 2248.36 860.31 2243.5 861.5ZM2007.76 1712.17C1866.98 1870.21 1681.68 1946.1 1531.29 1982.44C1456.13 2000.61 1389.78 2008.87 1342.24 2012.6C1318.47 2014.46 1299.41 2015.18 1286.31 2015.44C1279.76 2015.57 1274.7 2015.59 1271.28 2015.57C1269.58 2015.56 1268.28 2015.54 1267.42 2015.53C1266.99 2015.52 1266.66 2015.51 1266.45 2015.51C1266.34 2015.51 1266.26 2015.5 1266.21 2015.5C1266.19 2015.5 1266.17 2015.5 1266.15 2015.5C1266.15 2015.5 1266.15 2015.5 1266.14 2015.5C1266.14 2015.5 1266.14 2015.5 1266 2020.5C1265.86 2025.5 1265.86 2025.5 1265.86 2025.5C1265.87 2025.5 1265.88 2025.5 1265.88 2025.5C1265.9 2025.5 1265.92 2025.5 1265.95 2025.5C1266.02 2025.5 1266.1 2025.5 1266.22 2025.51C1266.45 2025.51 1266.8 2025.52 1267.25 2025.53C1268.15 2025.54 1269.48 2025.56 1271.23 2025.57C1274.72 2025.59 1279.87 2025.57 1286.51 2025.44C1299.78 2025.18 1319.04 2024.44 1343.02 2022.57C1390.97 2018.81 1457.86 2010.48 1533.64 1992.16C1685.15 1955.55 1872.6 1878.93 2015.23 1718.82L2007.76 1712.17Z" fill="black"/>
<path d="M2152.06 615.288C2154.71 616.083 2157.5 614.582 2158.29 611.938L2171.23 568.839C2172.03 566.194 2170.53 563.406 2167.88 562.612C2165.24 561.818 2162.45 563.318 2161.66 565.963L2150.15 604.273L2111.84 592.769C2109.2 591.974 2106.41 593.475 2105.61 596.119C2104.82 598.764 2106.32 601.552 2108.97 602.346L2152.06 615.288ZM1597.37 141.726C1846.6 227.787 2036.65 403.894 2149.1 612.869L2157.91 608.13C2044.35 397.106 1852.41 219.213 1600.63 132.274L1597.37 141.726Z" fill="black"/>
<path d="M934.033 138.61C935.198 136.107 934.114 133.133 931.61 131.967L890.815 112.973C888.312 111.807 885.338 112.891 884.172 115.395C883.007 117.898 884.091 120.872 886.595 122.038L922.857 138.922L905.973 175.184C904.807 177.687 905.891 180.662 908.395 181.827C910.898 182.993 913.873 181.908 915.038 179.405L934.033 138.61ZM377.937 617.303C479.401 421.838 655.466 241.74 931.213 141.197L927.787 131.802C649.532 233.26 471.599 415.162 369.062 612.696L377.937 617.303Z" fill="black"/>
</svg>
