<svg width="2554" height="2282" viewBox="0 0 2554 2282" fill="none" xmlns="http://www.w3.org/2000/svg">
<path d="M1976.7 622.2H1996V723H1976.84V719.976C1970.12 723.144 1964.32 724.728 1959.42 724.728C1954.24 724.728 1949.82 724.008 1946.17 722.568C1942.62 721.032 1939.74 718.728 1937.53 715.656C1935.32 712.488 1933.74 708.552 1932.78 703.848C1931.82 699.048 1931.34 693.384 1931.34 686.856C1931.34 673.704 1933.79 664.152 1938.68 658.2C1943.58 652.248 1951.07 649.272 1961.15 649.272C1962.68 649.272 1964.51 649.416 1966.62 649.704C1968.73 649.896 1971.18 650.232 1973.96 650.712L1976.7 651.288V622.2ZM1974.68 705.72L1976.7 705.288V667.416C1971.61 666.456 1966.91 665.976 1962.59 665.976C1954.81 665.976 1950.92 672.888 1950.92 686.712C1950.92 694.2 1951.79 699.528 1953.52 702.696C1955.24 705.864 1958.12 707.448 1962.16 707.448C1966.09 707.448 1970.27 706.872 1974.68 705.72ZM2033.12 723V651H2013.83V723H2033.12ZM2033.12 641.784V622.2H2013.83V641.784H2033.12ZM2102.94 653.016L2102.65 669C2096.6 668.232 2091.51 667.656 2087.38 667.272C2083.35 666.888 2080.14 666.696 2077.74 666.696C2072.94 666.696 2069.86 667.128 2068.52 667.992C2067.08 668.856 2066.36 670.2 2066.36 672.024C2066.36 673.848 2067.32 675.144 2069.24 675.912C2070.2 676.296 2071.83 676.776 2074.14 677.352C2076.54 677.832 2079.7 678.408 2083.64 679.08C2087.48 679.752 2090.74 680.664 2093.43 681.816C2096.12 682.872 2098.33 684.264 2100.06 685.992C2101.78 687.72 2103.03 689.832 2103.8 692.328C2104.57 694.824 2104.95 697.848 2104.95 701.4C2104.95 716.952 2095.3 724.728 2076.01 724.728C2069.77 724.728 2062.09 723.864 2052.97 722.136L2048.36 721.272L2048.94 705.144C2054.98 705.912 2060.02 706.488 2064.06 706.872C2068.18 707.256 2071.45 707.448 2073.85 707.448C2078.55 707.448 2081.72 706.968 2083.35 706.008C2084.98 705.144 2085.8 703.8 2085.8 701.976C2085.8 700.152 2084.94 698.808 2083.21 697.944C2081.48 697.176 2076.87 696.12 2069.38 694.776C2065.64 694.2 2062.38 693.432 2059.59 692.472C2056.81 691.416 2054.5 690.072 2052.68 688.44C2050.86 686.712 2049.46 684.6 2048.5 682.104C2047.64 679.512 2047.21 676.296 2047.21 672.456C2047.21 668.616 2047.88 665.256 2049.22 662.376C2050.66 659.496 2052.58 657.096 2054.98 655.176C2057.48 653.256 2060.41 651.816 2063.77 650.856C2067.22 649.896 2070.97 649.416 2075 649.416C2077.78 649.416 2081.1 649.656 2084.94 650.136C2088.87 650.52 2093.29 651.192 2098.18 652.152L2102.94 653.016ZM2138.17 753.24H2118.87V651H2138.03V654.888C2144.27 651.144 2149.74 649.272 2154.44 649.272C2159.34 649.272 2163.56 649.992 2167.11 651.432C2170.67 652.776 2173.59 654.984 2175.9 658.056C2178.2 661.032 2179.93 664.968 2181.08 669.864C2182.23 674.76 2182.81 680.664 2182.81 687.576C2182.81 694.488 2182.19 700.344 2180.94 705.144C2179.69 709.848 2177.72 713.688 2175.03 716.664C2172.44 719.544 2169.08 721.608 2164.95 722.856C2160.83 724.104 2155.88 724.728 2150.12 724.728C2146.95 724.728 2143.55 724.44 2139.9 723.864L2138.17 723.576V753.24ZM2150.7 666.552C2147.15 666.552 2143.55 667.272 2139.9 668.712L2138.17 669.432V707.16C2142.49 707.736 2145.99 708.024 2148.68 708.024C2154.25 708.024 2158.04 706.392 2160.06 703.128C2162.17 699.864 2163.23 694.296 2163.23 686.424C2163.23 673.176 2159.05 666.552 2150.7 666.552ZM2252.35 673.464V703.416C2252.55 705.72 2252.93 707.352 2253.51 708.312C2254.08 709.176 2255.28 709.8 2257.11 710.184L2256.53 724.728C2251.63 724.728 2247.7 724.392 2244.72 723.72C2241.84 723.048 2238.91 721.704 2235.94 719.688C2228.93 723.048 2221.87 724.728 2214.77 724.728C2199.89 724.728 2192.45 716.856 2192.45 701.112C2192.45 693.432 2194.51 688.008 2198.64 684.84C2202.77 681.576 2209.11 679.656 2217.65 679.08L2233.06 677.928V673.464C2233.06 670.488 2232.39 668.472 2231.04 667.416C2229.7 666.264 2227.54 665.688 2224.56 665.688L2197.49 666.84L2196.91 653.448C2207.28 650.664 2217.07 649.272 2226.29 649.272C2235.6 649.272 2242.27 651.192 2246.31 655.032C2250.34 658.872 2252.35 665.016 2252.35 673.464ZM2233.06 691.32L2219.95 692.472C2214.58 692.952 2211.89 695.832 2211.89 701.112C2211.89 706.392 2214.24 709.032 2218.95 709.032C2222.59 709.032 2226.58 708.456 2230.9 707.304L2233.06 706.728V691.32ZM2310.64 651V667.416H2292.92V696.936C2292.92 698.376 2292.92 699.624 2292.92 700.68C2293.02 701.64 2293.12 702.408 2293.21 702.984C2293.4 704.232 2293.93 705.288 2294.8 706.152C2295.66 707.016 2297.05 707.448 2298.97 707.448L2309.92 707.16L2310.78 722.568C2304.35 724.008 2299.45 724.728 2296.09 724.728C2291.77 724.728 2288.17 724.248 2285.29 723.288C2282.41 722.424 2280.11 720.936 2278.38 718.824C2276.65 716.712 2275.4 713.928 2274.64 710.472C2273.96 706.92 2273.63 702.552 2273.63 697.368V667.416H2265.13V651H2273.63V630.984H2292.92V651H2310.64ZM2350.13 649.272C2355.31 649.272 2361.7 650.04 2369.28 651.576L2373.17 652.44L2372.59 667.704C2368.75 667.32 2365.44 667.032 2362.66 666.84C2359.87 666.648 2357.57 666.552 2355.75 666.552C2352.48 666.552 2349.75 666.888 2347.54 667.56C2345.43 668.136 2343.75 669.24 2342.5 670.872C2341.35 672.408 2340.53 674.472 2340.05 677.064C2339.57 679.656 2339.33 682.92 2339.33 686.856C2339.33 690.792 2339.57 694.104 2340.05 696.792C2340.53 699.384 2341.35 701.496 2342.5 703.128C2343.75 704.664 2345.43 705.768 2347.54 706.44C2349.75 707.112 2352.53 707.448 2355.89 707.448L2372.59 706.296L2373.17 721.704C2362.99 723.72 2355.17 724.728 2349.7 724.728C2339.04 724.728 2331.36 721.752 2326.66 715.8C2322.05 709.752 2319.75 700.104 2319.75 686.856C2319.75 673.608 2322.15 664.056 2326.95 658.2C2331.75 652.248 2339.47 649.272 2350.13 649.272ZM2406.76 668.856V723H2387.47V622.2H2406.76V654.456C2413.39 651 2419.34 649.272 2424.62 649.272C2429.42 649.272 2433.4 649.992 2436.57 651.432C2439.84 652.776 2442.43 654.888 2444.35 657.768C2446.36 660.648 2447.8 664.248 2448.67 668.568C2449.53 672.888 2449.96 678.024 2449.96 683.976V723H2430.67V684.408C2430.67 678.36 2429.95 673.896 2428.51 671.016C2427.07 668.04 2424.19 666.552 2419.87 666.552C2416.12 666.552 2412.38 667.128 2408.64 668.28L2406.76 668.856Z" fill="#141134"/>
<path d="M62.5 776L2449.5 776" stroke="#141134" stroke-width="4" stroke-dasharray="100 50"/>
<path d="M1049.03 131H1079.12L1094.53 56.552L1109.94 131H1140.03L1158.75 33.08H1137.87L1125.78 114.008H1123.62L1106.05 33.08H1083.01L1065.44 114.008H1063.28L1051.19 33.08H1030.31L1049.03 131ZM1208.39 132.728C1200.9 132.728 1194.57 131.72 1189.38 129.704C1184.29 127.688 1180.12 124.664 1176.85 120.632C1173.69 116.504 1171.38 111.272 1169.94 104.936C1168.5 98.6 1167.78 91.112 1167.78 82.472C1167.78 73.832 1168.5 66.344 1169.94 60.008C1171.38 53.576 1173.69 48.248 1176.85 44.024C1180.12 39.704 1184.29 36.536 1189.38 34.52C1194.57 32.408 1200.9 31.352 1208.39 31.352C1215.88 31.352 1222.17 32.408 1227.25 34.52C1232.44 36.536 1236.61 39.704 1239.78 44.024C1243.05 48.248 1245.4 53.576 1246.84 60.008C1248.28 66.344 1249 73.832 1249 82.472C1249 89.864 1248.42 96.68 1247.27 102.92C1246.21 109.064 1244.15 114.344 1241.08 118.76C1238.1 123.176 1233.97 126.632 1228.69 129.128C1223.51 131.528 1216.74 132.728 1208.39 132.728ZM1192.55 107.816C1195.33 112.904 1200.61 115.448 1208.39 115.448C1212.33 115.448 1215.54 114.872 1218.04 113.72C1220.63 112.472 1222.69 110.552 1224.23 107.96C1225.86 105.272 1226.97 101.864 1227.54 97.736C1228.21 93.512 1228.55 88.424 1228.55 82.472C1228.55 76.52 1228.21 71.432 1227.54 67.208C1226.87 62.984 1225.77 59.48 1224.23 56.696C1222.69 53.912 1220.63 51.896 1218.04 50.648C1215.45 49.304 1212.23 48.632 1208.39 48.632C1204.55 48.632 1201.33 49.304 1198.74 50.648C1196.15 51.896 1194.09 53.912 1192.55 56.696C1191.01 59.48 1189.91 62.984 1189.24 67.208C1188.57 71.432 1188.23 76.52 1188.23 82.472C1188.23 94.28 1189.67 102.728 1192.55 107.816ZM1305.06 98.168H1285.91V131H1266.04V33.08H1304.05C1327.09 33.08 1338.61 43.832 1338.61 65.336C1338.61 78.104 1333.81 87.512 1324.21 93.56L1338.18 131H1316.44L1305.06 98.168ZM1285.91 81.176H1304.34C1309.05 81.176 1312.55 79.736 1314.85 76.856C1317.16 73.976 1318.31 70.184 1318.31 65.48C1318.31 60.776 1317.06 57.032 1314.57 54.248C1312.17 51.464 1308.66 50.072 1304.05 50.072H1285.91V81.176ZM1411.06 113.432H1375.21V33.08H1355.34V131H1411.06V113.432ZM1456.23 131H1423.26V33.08H1456.23C1464.97 33.08 1472.03 34.04 1477.4 35.96C1482.87 37.88 1487.1 40.808 1490.07 44.744C1493.15 48.584 1495.21 53.48 1496.27 59.432C1497.32 65.384 1497.85 72.392 1497.85 80.456C1497.85 88.424 1497.37 95.576 1496.41 101.912C1495.45 108.152 1493.48 113.432 1490.51 117.752C1487.63 122.072 1483.45 125.384 1477.98 127.688C1472.51 129.896 1465.26 131 1456.23 131ZM1477.11 92.12C1477.21 90.584 1477.26 88.76 1477.26 86.648C1477.35 84.536 1477.4 82.088 1477.4 79.304C1477.4 73.832 1477.21 69.512 1476.83 66.344C1476.44 63.08 1475.53 60.104 1474.09 57.416C1472.65 54.728 1470.54 52.904 1467.75 51.944C1464.97 50.888 1461.13 50.36 1456.23 50.36H1443.13V113.72H1456.23C1463.43 113.72 1468.52 112.088 1471.5 108.824C1474.57 105.464 1476.44 99.896 1477.11 92.12Z" fill="#141134"/>
<path d="M122.678 653.016L122.39 669C116.342 668.232 111.254 667.656 107.126 667.272C103.094 666.888 99.8776 666.696 97.4776 666.696C92.6776 666.696 89.6056 667.128 88.2616 667.992C86.8216 668.856 86.1016 670.2 86.1016 672.024C86.1016 673.848 87.0616 675.144 88.9816 675.912C89.9416 676.296 91.5736 676.776 93.8776 677.352C96.2776 677.832 99.4456 678.408 103.382 679.08C107.222 679.752 110.486 680.664 113.174 681.816C115.862 682.872 118.07 684.264 119.798 685.992C121.526 687.72 122.774 689.832 123.542 692.328C124.31 694.824 124.694 697.848 124.694 701.4C124.694 716.952 115.046 724.728 95.7496 724.728C89.5096 724.728 81.8296 723.864 72.7096 722.136L68.1016 721.272L68.6776 705.144C74.7256 705.912 79.7656 706.488 83.7976 706.872C87.9256 707.256 91.1896 707.448 93.5896 707.448C98.2936 707.448 101.462 706.968 103.094 706.008C104.726 705.144 105.542 703.8 105.542 701.976C105.542 700.152 104.678 698.808 102.95 697.944C101.222 697.176 96.6136 696.12 89.1256 694.776C85.3816 694.2 82.1176 693.432 79.3336 692.472C76.5496 691.416 74.2456 690.072 72.4216 688.44C70.5976 686.712 69.2056 684.6 68.2456 682.104C67.3816 679.512 66.9496 676.296 66.9496 672.456C66.9496 668.616 67.6216 665.256 68.9656 662.376C70.4056 659.496 72.3256 657.096 74.7256 655.176C77.2216 653.256 80.1496 651.816 83.5096 650.856C86.9656 649.896 90.7096 649.416 94.7416 649.416C97.5256 649.416 100.838 649.656 104.678 650.136C108.614 650.52 113.03 651.192 117.926 652.152L122.678 653.016ZM181.096 704.856V651H200.392V723H181.24V718.968C174.424 722.808 168.424 724.728 163.24 724.728C158.248 724.728 154.12 724.056 150.855 722.712C147.592 721.368 145 719.256 143.08 716.376C141.16 713.496 139.816 709.8 139.048 705.288C138.28 700.68 137.896 695.16 137.896 688.728V651H157.192V689.016C157.192 692.568 157.288 695.544 157.48 697.944C157.768 700.248 158.248 702.12 158.92 703.56C159.688 705 160.696 706.008 161.944 706.584C163.288 707.16 165.064 707.448 167.272 707.448C171.4 707.448 175.384 706.776 179.224 705.432L181.096 704.856ZM253.057 649.272C258.145 649.272 262.513 649.944 266.161 651.288C269.809 652.536 272.785 654.648 275.089 657.624C277.489 660.504 279.265 664.392 280.417 669.288C281.569 674.088 282.145 680.04 282.145 687.144C282.145 694.248 281.521 700.2 280.273 705C279.025 709.8 276.961 713.688 274.081 716.664C271.297 719.544 267.601 721.608 262.993 722.856C258.481 724.104 252.913 724.728 246.289 724.728C244.177 724.728 241.249 724.584 237.505 724.296C233.761 724.104 229.153 723.768 223.681 723.288L218.209 722.712V622.2H237.505V653.16C243.745 650.568 248.929 649.272 253.057 649.272ZM246.289 707.448C249.457 707.448 252.097 707.112 254.209 706.44C256.321 705.672 258.001 704.472 259.249 702.84C260.497 701.112 261.361 698.904 261.841 696.216C262.321 693.432 262.561 690.024 262.561 685.992C262.561 673.032 258.529 666.552 250.465 666.552C246.433 666.552 242.785 667.032 239.521 667.992L237.505 668.424V706.872C239.713 707.064 241.537 707.208 242.977 707.304C244.417 707.4 245.521 707.448 246.289 707.448ZM348.521 653.016L348.233 669C342.185 668.232 337.097 667.656 332.969 667.272C328.937 666.888 325.721 666.696 323.321 666.696C318.521 666.696 315.449 667.128 314.105 667.992C312.665 668.856 311.945 670.2 311.945 672.024C311.945 673.848 312.905 675.144 314.825 675.912C315.785 676.296 317.417 676.776 319.721 677.352C322.121 677.832 325.289 678.408 329.225 679.08C333.065 679.752 336.329 680.664 339.017 681.816C341.705 682.872 343.913 684.264 345.641 685.992C347.369 687.72 348.617 689.832 349.385 692.328C350.153 694.824 350.537 697.848 350.537 701.4C350.537 716.952 340.889 724.728 321.593 724.728C315.353 724.728 307.673 723.864 298.553 722.136L293.945 721.272L294.521 705.144C300.569 705.912 305.609 706.488 309.641 706.872C313.769 707.256 317.033 707.448 319.433 707.448C324.137 707.448 327.305 706.968 328.937 706.008C330.569 705.144 331.385 703.8 331.385 701.976C331.385 700.152 330.521 698.808 328.793 697.944C327.065 697.176 322.457 696.12 314.969 694.776C311.225 694.2 307.961 693.432 305.177 692.472C302.393 691.416 300.089 690.072 298.265 688.44C296.441 686.712 295.049 684.6 294.089 682.104C293.225 679.512 292.793 676.296 292.793 672.456C292.793 668.616 293.465 665.256 294.809 662.376C296.249 659.496 298.169 657.096 300.569 655.176C303.065 653.256 305.993 651.816 309.353 650.856C312.809 649.896 316.553 649.416 320.585 649.416C323.369 649.416 326.681 649.656 330.521 650.136C334.457 650.52 338.873 651.192 343.769 652.152L348.521 653.016ZM391.387 649.272C396.571 649.272 402.955 650.04 410.539 651.576L414.427 652.44L413.851 667.704C410.011 667.32 406.699 667.032 403.915 666.84C401.131 666.648 398.827 666.552 397.003 666.552C393.739 666.552 391.003 666.888 388.795 667.56C386.683 668.136 385.003 669.24 383.755 670.872C382.603 672.408 381.787 674.472 381.307 677.064C380.827 679.656 380.587 682.92 380.587 686.856C380.587 690.792 380.827 694.104 381.307 696.792C381.787 699.384 382.603 701.496 383.755 703.128C385.003 704.664 386.683 705.768 388.795 706.44C391.003 707.112 393.787 707.448 397.147 707.448L413.851 706.296L414.427 721.704C404.251 723.72 396.427 724.728 390.955 724.728C380.299 724.728 372.619 721.752 367.915 715.8C363.307 709.752 361.003 700.104 361.003 686.856C361.003 673.608 363.403 664.056 368.203 658.2C373.003 652.248 380.731 649.272 391.387 649.272ZM448.021 723H428.725V651H447.877V658.632C456.133 653.832 463.813 650.712 470.917 649.272V668.712C466.981 669.48 463.333 670.296 459.973 671.16C456.709 672.024 453.685 672.888 450.901 673.752L448.021 674.76V723ZM501.599 723V651H482.303V723H501.599ZM501.599 641.784V622.2H482.303V641.784H501.599ZM554.276 649.272C559.364 649.272 563.732 649.944 567.38 651.288C571.028 652.536 574.004 654.648 576.308 657.624C578.708 660.504 580.484 664.392 581.636 669.288C582.788 674.088 583.364 680.04 583.364 687.144C583.364 694.248 582.74 700.2 581.492 705C580.244 709.8 578.18 713.688 575.3 716.664C572.516 719.544 568.82 721.608 564.212 722.856C559.7 724.104 554.132 724.728 547.508 724.728C545.396 724.728 542.468 724.584 538.724 724.296C534.98 724.104 530.372 723.768 524.9 723.288L519.428 722.712V622.2H538.724V653.16C544.964 650.568 550.148 649.272 554.276 649.272ZM547.508 707.448C550.676 707.448 553.316 707.112 555.428 706.44C557.54 705.672 559.22 704.472 560.468 702.84C561.716 701.112 562.58 698.904 563.06 696.216C563.54 693.432 563.78 690.024 563.78 685.992C563.78 673.032 559.748 666.552 551.684 666.552C547.652 666.552 544.004 667.032 540.74 667.992L538.724 668.424V706.872C540.932 707.064 542.756 707.208 544.196 707.304C545.636 707.4 546.74 707.448 547.508 707.448ZM655.932 695.208H613.596C613.692 699.624 614.844 702.84 617.052 704.856C619.26 706.776 622.524 707.736 626.844 707.736C635.772 707.736 643.74 707.448 650.748 706.872L654.78 706.44L655.068 720.696C644.22 723.384 634.236 724.728 625.116 724.728C614.268 724.728 606.396 721.848 601.5 716.088C596.604 710.328 594.156 700.968 594.156 688.008C594.156 662.184 604.764 649.272 625.98 649.272C646.908 649.272 657.372 660.12 657.372 681.816L655.932 695.208ZM613.452 680.52H638.364C638.364 674.76 637.452 670.776 635.628 668.568C633.9 666.264 630.732 665.112 626.124 665.112C621.516 665.112 618.252 666.312 616.332 668.712C614.508 671.016 613.548 674.952 613.452 680.52Z" fill="#141134"/>
<path d="M1118.21 2103.63C1107.74 2103.63 1102.51 2107.09 1102.51 2114C1102.51 2117.07 1103.81 2119.42 1106.4 2121.06C1107.74 2121.82 1109.9 2122.83 1112.88 2124.08C1115.85 2125.23 1119.79 2126.58 1124.69 2128.11C1129.49 2129.65 1133.52 2131.23 1136.78 2132.86C1140.05 2134.5 1142.69 2136.42 1144.7 2138.62C1146.72 2140.74 1148.16 2143.23 1149.02 2146.11C1149.98 2148.99 1150.46 2152.45 1150.46 2156.48C1150.46 2161.66 1149.65 2166.22 1148.01 2170.16C1146.38 2174 1144.08 2177.22 1141.1 2179.81C1138.13 2182.4 1134.57 2184.37 1130.45 2185.71C1126.32 2187.06 1121.71 2187.73 1116.62 2187.73C1109.13 2187.73 1099.97 2186.58 1089.12 2184.27L1083.93 2183.26L1085.95 2167.86C1098.81 2169.58 1108.65 2170.45 1115.47 2170.45C1125.65 2170.45 1130.73 2166.22 1130.73 2157.78C1130.73 2154.7 1129.58 2152.3 1127.28 2150.58C1124.78 2148.85 1120.08 2146.98 1113.17 2144.96C1107.6 2143.33 1102.85 2141.65 1098.91 2139.92C1095.07 2138.1 1091.95 2136.03 1089.55 2133.73C1087.15 2131.33 1085.42 2128.64 1084.37 2125.66C1083.31 2122.69 1082.78 2119.28 1082.78 2115.44C1082.78 2105.55 1085.71 2098.26 1091.57 2093.55C1097.52 2088.75 1105.73 2086.35 1116.19 2086.35C1119.74 2086.35 1123.77 2086.59 1128.29 2087.07C1132.8 2087.55 1137.79 2088.27 1143.26 2089.23L1148.45 2090.24L1146.86 2105.94C1140.05 2105.17 1134.24 2104.59 1129.44 2104.21C1124.73 2103.82 1120.99 2103.63 1118.21 2103.63ZM1183.86 2105.65V2186H1203.73V2105.65H1229.65V2088.08H1157.65V2105.65H1183.86ZM1278.52 2187.73C1271.03 2187.73 1264.7 2186.72 1259.51 2184.7C1254.43 2182.69 1250.25 2179.66 1246.99 2175.63C1243.82 2171.5 1241.51 2166.27 1240.07 2159.94C1238.63 2153.6 1237.91 2146.11 1237.91 2137.47C1237.91 2128.83 1238.63 2121.34 1240.07 2115.01C1241.51 2108.58 1243.82 2103.25 1246.99 2099.02C1250.25 2094.7 1254.43 2091.54 1259.51 2089.52C1264.7 2087.41 1271.03 2086.35 1278.52 2086.35C1286.01 2086.35 1292.3 2087.41 1297.39 2089.52C1302.57 2091.54 1306.75 2094.7 1309.91 2099.02C1313.18 2103.25 1315.53 2108.58 1316.97 2115.01C1318.41 2121.34 1319.13 2128.83 1319.13 2137.47C1319.13 2144.86 1318.55 2151.68 1317.4 2157.92C1316.35 2164.06 1314.28 2169.34 1311.21 2173.76C1308.23 2178.18 1304.11 2181.63 1298.83 2184.13C1293.64 2186.53 1286.87 2187.73 1278.52 2187.73ZM1262.68 2162.82C1265.47 2167.9 1270.75 2170.45 1278.52 2170.45C1282.46 2170.45 1285.67 2169.87 1288.17 2168.72C1290.76 2167.47 1292.83 2165.55 1294.36 2162.96C1295.99 2160.27 1297.1 2156.86 1297.67 2152.74C1298.35 2148.51 1298.68 2143.42 1298.68 2137.47C1298.68 2131.52 1298.35 2126.43 1297.67 2122.21C1297 2117.98 1295.9 2114.48 1294.36 2111.7C1292.83 2108.91 1290.76 2106.9 1288.17 2105.65C1285.58 2104.3 1282.36 2103.63 1278.52 2103.63C1274.68 2103.63 1271.47 2104.3 1268.87 2105.65C1266.28 2106.9 1264.22 2108.91 1262.68 2111.7C1261.15 2114.48 1260.04 2117.98 1259.37 2122.21C1258.7 2126.43 1258.36 2131.52 1258.36 2137.47C1258.36 2149.28 1259.8 2157.73 1262.68 2162.82ZM1375.2 2153.17H1356.04V2186H1336.17V2088.08H1374.19C1397.23 2088.08 1408.75 2098.83 1408.75 2120.34C1408.75 2133.1 1403.95 2142.51 1394.35 2148.56L1408.32 2186H1386.57L1375.2 2153.17ZM1356.04 2136.18H1374.48C1379.18 2136.18 1382.68 2134.74 1384.99 2131.86C1387.29 2128.98 1388.44 2125.18 1388.44 2120.48C1388.44 2115.78 1387.2 2112.03 1384.7 2109.25C1382.3 2106.46 1378.8 2105.07 1374.19 2105.07H1356.04V2136.18ZM1488.83 2186V2168.72H1445.34V2145.25H1480.19V2128.26H1445.34V2105.36H1488.83V2088.08H1425.47V2186H1488.83Z" fill="#141134"/>
<path d="M1961.72 188.629L1935.65 214.696C1933.34 217.411 1933.82 220.873 1937.08 225.082L1930.76 230.784C1925.4 225.421 1922.72 220.025 1922.72 214.594C1913.96 211.268 1906.5 206.516 1900.32 200.339C1895.63 195.655 1893.39 190.767 1893.6 185.676C1893.8 180.585 1896.38 175.562 1901.34 170.606C1906.29 165.651 1911.18 163.275 1916 163.479C1920.89 163.615 1926.28 166.092 1932.19 170.912L1949.7 185.371L1954.08 180.992C1957.54 177.53 1959.27 174.306 1959.27 171.319C1959.27 168.332 1957.98 165.549 1955.4 162.97C1952.69 160.254 1949.8 157.573 1946.75 154.926C1943.83 152.278 1940.74 149.665 1937.48 147.085L1934.02 144.234L1939.52 138.125C1948.28 143.895 1955.64 149.767 1961.62 155.74C1967.39 161.51 1970.24 167.009 1970.17 172.236C1970.24 177.463 1967.42 182.927 1961.72 188.629ZM1909.58 178.04C1903.34 184.285 1902.8 189.987 1907.95 195.146C1912.5 199.694 1917.83 203.461 1923.94 206.448L1927.1 207.976L1943.9 191.175L1927.4 177.53C1924.08 174.747 1920.99 173.424 1918.14 173.559C1915.29 173.695 1912.43 175.189 1909.58 178.04ZM2012.22 206.344C2014.46 208.584 2017.85 212.793 2022.4 218.97L2024.54 221.719L2018.02 227.625C2013.27 221.652 2009.57 217.341 2006.92 214.694C2004.07 211.843 2001.36 209.738 1998.78 208.381C1996.27 207.091 1993.69 206.616 1991.04 206.955C1988.46 207.362 1985.68 208.584 1982.69 210.621C1979.77 212.589 1976.45 215.44 1972.71 219.174C1968.98 222.907 1966.03 226.268 1963.85 229.254C1961.75 232.173 1960.46 234.956 1959.98 237.604C1959.58 240.319 1959.98 242.967 1961.21 245.546C1962.5 248.193 1964.67 251.045 1967.72 254.099L1980.65 265.198L1974.65 271.817C1970.98 269.101 1967.86 266.657 1965.28 264.485C1962.7 262.449 1960.63 260.65 1959.07 259.089C1955.13 255.151 1952.28 251.35 1950.51 247.684C1948.89 244.019 1948.31 240.319 1948.78 236.586C1949.33 232.784 1950.92 228.813 1953.57 224.672C1956.28 220.599 1960.05 216.153 1964.87 211.333C1969.69 206.514 1974.14 202.814 1978.21 200.235C1982.35 197.723 1986.29 196.298 1990.02 195.958C1993.82 195.551 1997.49 196.23 2001.02 197.995C2004.68 199.76 2008.42 202.543 2012.22 206.344ZM2062.88 259.042L2056.26 265.661L2040.07 249.471L2015.74 273.807C2009.83 279.713 2006.44 283.989 2005.55 286.637C2004.54 289.284 2005.62 292.203 2008.81 295.393L2018.49 303.845L2012.68 310.667C2010.03 308.698 2007.73 306.933 2005.76 305.372C2003.86 303.879 2002.33 302.555 2001.18 301.401C1998.53 298.754 1996.59 296.208 1995.37 293.764C1994.15 291.456 1993.71 289.046 1994.05 286.535C1994.39 284.023 1995.51 281.342 1997.41 278.491C1999.31 275.64 2002.09 272.381 2005.76 268.716L2032.54 241.936L2025.31 234.707L2031.93 228.088L2039.16 235.318L2054.74 219.739L2062.27 227.274L2046.69 242.853L2062.88 259.042ZM2028.93 326.916L2079.84 276.005L2072.21 268.368L2021.3 319.28L2028.93 326.916ZM2091.35 264.499L2100.21 255.64L2092.57 248.003L2083.71 256.862L2091.35 264.499ZM2066.89 313.756C2071.57 309.072 2075.95 305.44 2080.02 302.861C2084.16 300.349 2088.17 298.924 2092.04 298.584C2095.97 298.177 2099.81 298.89 2103.54 300.722C2107.34 302.487 2111.21 305.338 2115.15 309.276C2119.09 313.213 2121.91 317.048 2123.6 320.782C2125.43 324.515 2126.11 328.317 2125.64 332.186C2125.3 336.055 2123.84 340.026 2121.26 344.099C2118.75 348.24 2115.15 352.652 2110.47 357.336C2105.78 362.02 2101.4 365.652 2097.33 368.231C2093.33 370.879 2089.39 372.44 2085.52 372.915C2081.65 373.39 2077.82 372.745 2074.01 370.981C2070.21 369.216 2066.24 366.263 2062.1 362.122C2057.96 357.981 2055.01 354.01 2053.24 350.209C2051.48 346.407 2050.83 342.572 2051.31 338.703C2051.78 334.833 2053.31 330.862 2055.89 326.789C2058.54 322.784 2062.2 318.44 2066.89 313.756ZM2074.93 321.393C2071.2 325.126 2068.21 328.452 2065.97 331.371C2063.87 334.29 2062.51 337.073 2061.9 339.721C2061.42 342.368 2061.73 344.982 2062.81 347.561C2063.97 350.073 2065.97 352.754 2068.82 355.605C2071.67 358.456 2074.32 360.425 2076.76 361.511C2079.28 362.665 2081.82 362.97 2084.4 362.427C2087.05 361.816 2089.8 360.425 2092.65 358.253C2095.63 356.08 2098.99 353.128 2102.73 349.394C2106.46 345.66 2109.35 342.3 2111.38 339.313C2113.49 336.395 2114.74 333.645 2115.15 331.066C2115.63 328.418 2115.29 325.907 2114.13 323.531C2113.05 321.087 2111.18 318.542 2108.53 315.894C2105.88 313.247 2103.31 311.346 2100.79 310.192C2098.42 309.038 2095.91 308.699 2093.26 309.174C2090.68 309.581 2087.9 310.803 2084.91 312.839C2081.99 314.808 2078.66 317.659 2074.93 321.393ZM2146.34 361.645L2105 402.986L2097.36 395.349L2148.28 344.437L2155.81 351.972L2152.25 355.536C2160.8 357.98 2167.59 361.713 2172.61 366.737C2176.01 370.131 2178.35 373.355 2179.64 376.41C2181.06 379.465 2181.44 382.621 2180.76 385.879C2180.15 389.206 2178.48 392.702 2175.77 396.367C2173.12 400.101 2169.46 404.309 2164.77 408.993L2137.89 435.875L2130.36 428.34L2157.03 401.662C2160.56 398.132 2163.35 395.01 2165.38 392.294C2167.49 389.647 2168.84 387.203 2169.46 384.963C2170.07 382.723 2169.93 380.619 2169.05 378.65C2168.23 376.613 2166.71 374.475 2164.47 372.235C2162.29 370.063 2159.65 368.094 2156.52 366.329C2153.54 364.564 2151.09 363.342 2149.19 362.664L2146.34 361.645Z" fill="#141134"/>
<path d="M414.487 335.562L439.665 362.489C442.301 364.886 445.777 364.528 450.093 361.412L455.58 367.913C450.041 373.093 444.557 375.592 439.13 375.409C435.512 384.05 430.512 391.353 424.131 397.32C419.293 401.844 414.333 403.919 409.251 403.545C404.17 403.171 399.236 400.424 394.45 395.305C389.663 390.186 387.453 385.222 387.818 380.412C388.117 375.532 390.775 370.221 395.79 364.48L410.828 347.461L406.599 342.939C403.255 339.362 400.09 337.524 397.105 337.424C394.12 337.324 391.295 338.52 388.63 341.011C385.826 343.634 383.049 346.427 380.301 349.392C377.557 352.22 374.841 355.219 372.154 358.389L369.188 361.754L363.267 356.054C369.327 347.495 375.443 340.331 381.613 334.561C387.573 328.988 393.164 326.323 398.386 326.566C403.612 326.673 408.979 329.672 414.487 335.562ZM402.155 387.311C408.187 393.762 413.868 394.496 419.197 389.513C423.895 385.12 427.839 379.921 431.029 373.915L432.662 370.812L416.434 353.457L402.244 369.485C399.351 372.716 397.924 375.759 397.964 378.613C398.004 381.467 399.401 384.366 402.155 387.311ZM442.442 279.653L448.835 286.49L432.111 302.128L455.617 327.266C461.322 333.367 465.482 336.902 468.098 337.873C470.71 338.979 473.664 337.992 476.959 334.91L485.73 325.526L492.354 331.555C490.298 334.135 488.457 336.383 486.83 338.298C485.274 340.147 483.9 341.629 482.708 342.744C479.973 345.301 477.364 347.149 474.88 348.289C472.533 349.432 470.11 349.793 467.611 349.369C465.112 348.946 462.47 347.736 459.684 345.741C456.898 343.746 453.735 340.855 450.194 337.068L424.328 309.406L416.86 316.389L410.467 309.552L417.935 302.569L402.887 286.476L410.671 279.198L425.718 295.291L442.442 279.653ZM474.251 298.999C469.727 294.161 466.244 289.663 463.802 285.506C461.431 281.284 460.141 277.233 459.931 273.354C459.656 269.406 460.497 265.597 462.454 261.927C464.345 258.186 467.325 254.415 471.392 250.612C475.459 246.809 479.386 244.122 483.175 242.551C486.968 240.845 490.79 240.294 494.641 240.898C498.496 241.367 502.416 242.959 506.401 245.674C510.455 248.323 514.744 252.067 519.268 256.905C523.792 261.743 527.275 266.241 529.717 270.398C532.228 274.49 533.657 278.477 534.002 282.36C534.347 286.243 533.574 290.055 531.682 293.795C529.791 297.535 526.707 301.405 522.429 305.404C518.152 309.404 514.084 312.222 510.225 313.859C506.367 315.495 502.512 316.011 498.661 315.406C494.81 314.802 490.892 313.142 486.908 310.427C482.994 307.647 478.775 303.838 474.251 298.999ZM482.153 291.216C485.759 295.073 488.983 298.169 491.826 300.506C494.672 302.707 497.408 304.157 500.034 304.857C502.664 305.42 505.286 305.203 507.901 304.204C510.449 303.135 513.196 301.223 516.142 298.469C519.087 295.716 521.143 293.136 522.31 290.73C523.548 288.258 523.939 285.724 523.482 283.128C522.961 280.462 521.662 277.667 519.586 274.745C517.516 271.687 514.677 268.23 511.071 264.373C507.465 260.516 504.203 257.52 501.286 255.385C498.44 253.184 495.734 251.836 493.17 251.343C490.54 250.779 488.018 251.034 485.605 252.108C483.126 253.111 480.519 254.892 477.784 257.449C475.05 260.006 473.064 262.52 471.826 264.992C470.593 267.328 470.17 269.827 470.556 272.488C470.876 275.08 472.004 277.903 473.939 280.956C475.809 283.939 478.547 287.359 482.153 291.216ZM524.778 221.195L564.709 263.899L556.82 271.275L507.644 218.685L515.428 211.407L518.87 215.088C521.179 207.015 524.822 200.651 529.801 195.996C536.322 189.898 542.552 187.424 548.49 188.574C549.027 186.758 549.771 184.814 550.724 182.74C551.61 180.596 552.666 178.492 553.89 176.428C555.184 174.298 556.541 172.306 557.962 170.452C559.382 168.597 560.794 167.015 562.196 165.703C565.702 162.425 569.004 160.192 572.1 159.006C575.201 157.684 578.368 157.416 581.602 158.204C584.84 158.856 588.278 160.635 591.916 163.542C595.559 166.313 599.642 170.118 604.166 174.956L630.131 202.724L622.243 210.101L596.475 182.543C593.065 178.897 590.073 175.978 587.497 173.786C584.922 171.594 582.525 170.155 580.307 169.469C578.158 168.718 576.086 168.75 574.089 169.566C572.096 170.247 569.943 171.669 567.629 173.832C565.315 175.996 563.259 178.576 561.46 181.572C559.596 184.498 558.293 186.899 557.551 188.776L556.437 191.592C559.447 192.983 564.689 197.676 572.164 205.669L597.735 233.016L589.847 240.393L564.472 213.256C560.932 209.47 557.874 206.48 555.298 204.288C552.657 202.026 550.228 200.552 548.009 199.867C545.796 199.045 543.69 199.043 541.693 199.859C539.7 200.539 537.547 201.961 535.233 204.125C532.989 206.223 531.003 208.737 529.275 211.668C527.551 214.462 526.353 216.765 525.681 218.577L524.778 221.195Z" fill="#141134"/>
<path d="M1077.1 1080L1080.99 1062.29H1115.26L1119.15 1080H1139.02L1116.99 982.08H1079.26L1057.23 1080H1077.1ZM1101.58 998.496L1111.52 1045.01H1084.73L1094.67 998.496H1101.58ZM1190.22 1008V1024.42H1172.51V1053.94C1172.51 1055.38 1172.51 1056.62 1172.51 1057.68C1172.61 1058.64 1172.7 1059.41 1172.8 1059.98C1172.99 1061.23 1173.52 1062.29 1174.38 1063.15C1175.25 1064.02 1176.64 1064.45 1178.56 1064.45L1189.5 1064.16L1190.37 1079.57C1183.93 1081.01 1179.04 1081.73 1175.68 1081.73C1171.36 1081.73 1167.76 1081.25 1164.88 1080.29C1162 1079.42 1159.69 1077.94 1157.97 1075.82C1156.24 1073.71 1154.99 1070.93 1154.22 1067.47C1153.55 1063.92 1153.21 1059.55 1153.21 1054.37V1024.42H1144.72V1008H1153.21V987.984H1172.51V1008H1190.22ZM1232.16 1006.27C1244.07 1006.27 1252.56 1009.58 1257.65 1016.21C1262.74 1022.74 1265.28 1031.95 1265.28 1043.86C1265.28 1069.1 1254.24 1081.73 1232.16 1081.73C1210.08 1081.73 1199.04 1069.1 1199.04 1043.86C1199.04 1038.1 1199.62 1032.91 1200.77 1028.3C1201.92 1023.7 1203.8 1019.76 1206.39 1016.5C1208.98 1013.23 1212.39 1010.74 1216.61 1009.01C1220.84 1007.18 1226.02 1006.27 1232.16 1006.27ZM1232.16 1065.31C1237.35 1065.31 1240.9 1063.63 1242.82 1060.27C1244.74 1056.82 1245.7 1051.34 1245.7 1043.86C1245.7 1036.37 1244.74 1030.99 1242.82 1027.73C1240.9 1024.37 1237.35 1022.69 1232.16 1022.69C1226.98 1022.69 1223.43 1024.37 1221.51 1027.73C1219.59 1030.99 1218.63 1036.37 1218.63 1043.86C1218.63 1046.35 1218.72 1048.9 1218.92 1051.49C1219.2 1053.98 1219.78 1056.29 1220.64 1058.4C1221.6 1060.42 1222.95 1062.1 1224.68 1063.44C1226.5 1064.69 1229 1065.31 1232.16 1065.31ZM1298.72 1026.14V1080H1279.43V1008H1298.58V1012.03C1305.11 1008.19 1310.77 1006.27 1315.57 1006.27C1323.35 1006.27 1329.35 1008.53 1333.57 1013.04C1342.4 1008.53 1350.47 1006.27 1357.76 1006.27C1362.56 1006.27 1366.55 1006.94 1369.72 1008.29C1372.98 1009.63 1375.57 1011.74 1377.49 1014.62C1379.51 1017.41 1380.95 1021.01 1381.81 1025.42C1382.68 1029.74 1383.11 1034.93 1383.11 1040.98V1080H1363.81V1041.55C1363.81 1035.41 1363.14 1030.9 1361.8 1028.02C1360.45 1025.04 1357.76 1023.55 1353.73 1023.55C1350.85 1023.55 1347.11 1024.22 1342.5 1025.57L1340.34 1026.29C1340.53 1029.94 1340.68 1033.1 1340.77 1035.79C1340.87 1038.48 1340.92 1040.78 1340.92 1042.7V1080H1321.62V1042.99C1321.62 1039.44 1321.48 1036.42 1321.19 1033.92C1321 1031.42 1320.52 1029.41 1319.75 1027.87C1319.08 1026.34 1318.07 1025.23 1316.72 1024.56C1315.38 1023.89 1313.65 1023.55 1311.54 1023.55C1307.89 1023.55 1304.2 1024.22 1300.45 1025.57L1298.72 1026.14ZM1452.21 1010.02L1451.92 1026C1445.87 1025.23 1440.78 1024.66 1436.66 1024.27C1432.62 1023.89 1429.41 1023.7 1427.01 1023.7C1422.21 1023.7 1419.14 1024.13 1417.79 1024.99C1416.35 1025.86 1415.63 1027.2 1415.63 1029.02C1415.63 1030.85 1416.59 1032.14 1418.51 1032.91C1419.47 1033.3 1421.1 1033.78 1423.41 1034.35C1425.81 1034.83 1428.98 1035.41 1432.91 1036.08C1436.75 1036.75 1440.02 1037.66 1442.7 1038.82C1445.39 1039.87 1447.6 1041.26 1449.33 1042.99C1451.06 1044.72 1452.3 1046.83 1453.07 1049.33C1453.84 1051.82 1454.22 1054.85 1454.22 1058.4C1454.22 1073.95 1444.58 1081.73 1425.28 1081.73C1419.04 1081.73 1411.36 1080.86 1402.24 1079.14L1397.63 1078.27L1398.21 1062.14C1404.26 1062.91 1409.3 1063.49 1413.33 1063.87C1417.46 1064.26 1420.72 1064.45 1423.12 1064.45C1427.82 1064.45 1430.99 1063.97 1432.62 1063.01C1434.26 1062.14 1435.07 1060.8 1435.07 1058.98C1435.07 1057.15 1434.21 1055.81 1432.48 1054.94C1430.75 1054.18 1426.14 1053.12 1418.66 1051.78C1414.91 1051.2 1411.65 1050.43 1408.86 1049.47C1406.08 1048.42 1403.78 1047.07 1401.95 1045.44C1400.13 1043.71 1398.74 1041.6 1397.78 1039.1C1396.91 1036.51 1396.48 1033.3 1396.48 1029.46C1396.48 1025.62 1397.15 1022.26 1398.5 1019.38C1399.94 1016.5 1401.86 1014.1 1404.26 1012.18C1406.75 1010.26 1409.68 1008.82 1413.04 1007.86C1416.5 1006.9 1420.24 1006.42 1424.27 1006.42C1427.06 1006.42 1430.37 1006.66 1434.21 1007.14C1438.14 1007.52 1442.56 1008.19 1447.46 1009.15L1452.21 1010.02Z" fill="#141134"/>
<circle cx="924.5" cy="1269.5" r="78.5" stroke="#141134" stroke-width="10"/>
<circle cx="1263.5" cy="1269.5" r="83.5" fill="#1F7600"/>
<circle cx="1602.5" cy="1269.5" r="78.5" stroke="#141134" stroke-width="10"/>
<circle cx="1093.5" cy="1539.5" r="83.5" fill="#1F7600"/>
<circle cx="1263.5" cy="1786.5" r="83.5" fill="#1F7600"/>
<path d="M1029.86 1459.24C1031.48 1459.6 1033.08 1458.58 1033.43 1456.96L1039.23 1430.59C1039.58 1428.97 1038.56 1427.37 1036.94 1427.01C1035.32 1426.66 1033.72 1427.68 1033.37 1429.3L1028.22 1452.74L1004.78 1447.59C1003.16 1447.24 1001.56 1448.26 1001.2 1449.88C1000.85 1451.5 1001.87 1453.1 1003.49 1453.45L1029.86 1459.24ZM971.473 1369.62L1027.98 1457.93L1033.03 1454.7L976.527 1366.38L971.473 1369.62Z" fill="#141134"/>
<path d="M1189.02 1711.5C1190.64 1711.88 1192.25 1710.87 1192.62 1709.25L1198.69 1682.95C1199.07 1681.33 1198.06 1679.72 1196.45 1679.35C1194.83 1678.98 1193.22 1679.98 1192.85 1681.6L1187.45 1704.98L1164.06 1699.58C1162.45 1699.21 1160.84 1700.22 1160.47 1701.83C1160.09 1703.45 1161.1 1705.06 1162.71 1705.43L1189.02 1711.5ZM1141.24 1636.69L1187.15 1710.17L1192.24 1706.99L1146.33 1633.51L1141.24 1636.69Z" fill="#141134"/>
<path d="M1331.07 1706.63C1331.41 1708.25 1333.01 1709.28 1334.63 1708.93L1361.03 1703.29C1362.65 1702.95 1363.68 1701.35 1363.34 1699.73C1362.99 1698.11 1361.4 1697.08 1359.78 1697.43L1336.31 1702.44L1331.29 1678.97C1330.95 1677.35 1329.35 1676.32 1327.73 1676.66C1326.11 1677.01 1325.08 1678.6 1325.43 1680.22L1331.07 1706.63ZM1550.48 1366.37L1331.48 1704.37L1336.52 1707.63L1555.52 1369.63L1550.48 1366.37Z" fill="#141134"/>
<path d="M1148.84 1457.15C1149.19 1458.77 1150.79 1459.8 1152.41 1459.45L1178.79 1453.73C1180.41 1453.38 1181.44 1451.78 1181.09 1450.17C1180.74 1448.55 1179.14 1447.52 1177.52 1447.87L1154.07 1452.95L1148.99 1429.49C1148.64 1427.87 1147.04 1426.85 1145.42 1427.2C1143.8 1427.55 1142.77 1429.14 1143.12 1430.76L1148.84 1457.15ZM1208.65 1362.65L1149.25 1454.89L1154.29 1458.14L1213.69 1365.89L1208.65 1362.65Z" fill="#141134"/>
<path d="M1234.61 2006.88C1095.14 2001.53 961.984 1947.31 858.44 1853.71C754.896 1760.11 687.551 1633.09 668.181 1494.86C648.811 1356.64 678.649 1216 752.478 1097.55C826.307 979.092 939.427 890.362 1072.06 846.872C1204.69 803.382 1348.38 807.9 1478.02 859.637C1607.65 911.373 1714.98 1007.03 1781.22 1129.89C1847.46 1252.75 1868.4 1394.98 1840.39 1531.72C1812.37 1668.46 1737.18 1791 1627.96 1877.9" stroke="#1F7600" stroke-width="10"/>
<path d="M281.726 845.328C280.251 842.994 277.163 842.297 274.828 843.772L236.787 867.811C234.452 869.286 233.756 872.374 235.231 874.708C236.706 877.043 239.794 877.739 242.128 876.264L275.943 854.897L297.311 888.712C298.786 891.046 301.874 891.743 304.208 890.267C306.543 888.792 307.239 885.704 305.764 883.37L281.726 845.328ZM1033.7 2112.3C497.675 1919.01 159.52 1393.75 282.377 849.099L272.622 846.899C148.48 1397.25 490.324 1926.99 1030.3 2121.7L1033.7 2112.3Z" fill="#141134"/>
<path d="M1262.57 2002.86C1260.56 2004.76 1260.47 2007.93 1262.37 2009.93L1293.27 2042.64C1295.16 2044.65 1298.33 2044.74 1300.34 2042.85C1302.34 2040.95 1302.43 2037.78 1300.54 2035.78L1273.07 2006.7L1302.15 1979.23C1304.15 1977.34 1304.24 1974.17 1302.35 1972.16C1300.45 1970.16 1297.29 1970.07 1295.28 1971.96L1262.57 2002.86ZM2011.5 1701.5L2007.77 1698.17L2011.5 1701.5ZM2243.5 847.5C2238.65 848.69 2238.65 848.69 2238.65 848.691C2238.65 848.694 2238.65 848.697 2238.65 848.703C2238.65 848.714 2238.66 848.733 2238.66 848.758C2238.68 848.809 2238.69 848.888 2238.72 848.995C2238.77 849.208 2238.85 849.534 2238.95 849.968C2239.15 850.837 2239.44 852.143 2239.81 853.871C2240.55 857.325 2241.6 862.463 2242.81 869.152C2245.23 882.531 2248.32 902.111 2250.95 926.834C2256.21 976.285 2259.64 1046.28 2252.31 1128.37C2237.64 1292.53 2179.93 1504.92 2007.77 1698.17L2015.23 1704.82C2189.17 1509.58 2247.46 1294.97 2262.27 1129.26C2269.67 1046.41 2266.21 975.746 2260.89 925.776C2258.24 900.788 2255.11 880.965 2252.65 867.369C2251.42 860.571 2250.35 855.329 2249.59 851.775C2249.21 849.998 2248.9 848.643 2248.69 847.726C2248.59 847.268 2248.51 846.92 2248.45 846.683C2248.42 846.565 2248.4 846.474 2248.38 846.412C2248.38 846.381 2248.37 846.357 2248.37 846.34C2248.36 846.331 2248.36 846.324 2248.36 846.319C2248.36 846.314 2248.36 846.31 2243.5 847.5ZM2007.77 1698.17C1866.98 1856.21 1681.68 1932.1 1531.29 1968.44C1456.13 1986.61 1389.78 1994.87 1342.24 1998.6C1318.47 2000.46 1299.41 2001.18 1286.31 2001.44C1279.76 2001.57 1274.7 2001.59 1271.29 2001.57C1269.58 2001.56 1268.28 2001.54 1267.42 2001.53C1266.99 2001.52 1266.66 2001.51 1266.45 2001.51C1266.34 2001.51 1266.26 2001.5 1266.21 2001.5C1266.19 2001.5 1266.17 2001.5 1266.16 2001.5C1266.15 2001.5 1266.15 2001.5 1266.14 2001.5C1266.14 2001.5 1266.14 2001.5 1266 2006.5C1265.86 2011.5 1265.86 2011.5 1265.87 2011.5C1265.87 2011.5 1265.88 2011.5 1265.89 2011.5C1265.9 2011.5 1265.93 2011.5 1265.96 2011.5C1266.02 2011.5 1266.11 2011.5 1266.22 2011.51C1266.45 2011.51 1266.8 2011.52 1267.25 2011.53C1268.15 2011.54 1269.49 2011.56 1271.23 2011.57C1274.73 2011.59 1279.87 2011.57 1286.51 2011.44C1299.78 2011.18 1319.04 2010.44 1343.02 2008.57C1390.97 2004.81 1457.86 1996.48 1533.64 1978.16C1685.15 1941.55 1872.6 1864.93 2015.23 1704.82L2007.77 1698.17Z" fill="#1F7600"/>
<path d="M2152.06 601.288C2154.71 602.082 2157.5 600.582 2158.29 597.937L2171.23 554.839C2172.03 552.194 2170.53 549.406 2167.88 548.612C2165.24 547.818 2162.45 549.318 2161.66 551.963L2150.15 590.272L2111.84 578.768C2109.2 577.974 2106.41 579.474 2105.61 582.119C2104.82 584.764 2106.32 587.551 2108.97 588.346L2152.06 601.288ZM1597.37 127.726C1846.6 213.787 2036.65 389.893 2149.1 598.868L2157.91 594.13C2044.35 383.105 1852.41 205.212 1600.63 118.274L1597.37 127.726Z" fill="#1F7600"/>
<path d="M934.033 124.61C935.198 122.107 934.114 119.133 931.61 117.967L890.815 98.9725C888.312 97.807 885.338 98.8914 884.172 101.395C883.007 103.898 884.091 106.872 886.595 108.038L922.857 124.922L905.973 161.184C904.807 163.687 905.892 166.662 908.395 167.827C910.898 168.993 913.873 167.908 915.038 165.405L934.033 124.61ZM377.937 603.303C479.401 407.838 655.466 227.74 931.213 127.197L927.787 117.802C649.532 219.26 471.599 401.162 369.062 598.696L377.937 603.303Z" fill="#141134"/>
</svg>
