<svg width="332" height="135" viewBox="0 0 332 135" fill="none" xmlns="http://www.w3.org/2000/svg">
<path d="M25.769 83.4615C25.769 83.4615 25.7689 21.5115 138.123 4.09212C212.338 -7.41431 289.646 24.7077 289.646 24.7077" stroke="#E10000" stroke-width="2.06154"/>
<path d="M76.079 70.272V96H69.3502V34.4507H87.2608C92.4724 34.4507 95.0782 37.0565 95.0782 42.2681V62.4546C95.0782 67.1385 93.0331 69.7113 88.943 70.173L98.2447 96H90.9221L81.9173 70.272H76.079ZM76.079 40.289V64.4337H85.2817C86.6011 64.4337 87.4257 64.2688 87.7556 63.939C88.1514 63.5431 88.3493 62.6855 88.3493 61.3662V43.3566C88.3493 42.0372 88.1514 41.2126 87.7556 40.8827C87.4257 40.4869 86.6011 40.289 85.2817 40.289H76.079ZM112.223 48.0074H121.326C126.538 48.0074 129.144 50.6132 129.144 55.8247V74.3291H111.233V87.0942C111.233 88.4135 111.431 89.2711 111.827 89.667C112.223 89.9968 113.047 90.1617 114.301 90.1617H118.952C120.271 90.1617 121.096 89.9968 121.425 89.667C121.821 89.2711 122.019 88.4135 122.019 87.0942V82.7402H128.847V88.1826C128.847 93.3942 126.241 96 121.03 96H112.223C107.011 96 104.405 93.3942 104.405 88.1826V55.8247C104.405 50.6132 107.011 48.0074 112.223 48.0074ZM111.233 68.4908H122.316V56.9132C122.316 55.6598 122.118 54.8352 121.722 54.4394C121.326 54.0436 120.502 53.8457 119.248 53.8457H114.301C113.047 53.8457 112.223 54.0436 111.827 54.4394C111.431 54.8352 111.233 55.6598 111.233 56.9132V68.4908ZM160.52 96L158.046 81.6517H144.984L142.708 96H133.802L144.786 34.0549H157.749L169.525 96H160.52ZM146.073 74.4281H156.859L151.218 41.7733L146.073 74.4281ZM186.2 65.2006H181.228V88.1332C181.228 89.0238 181.351 89.6175 181.599 89.9143C181.895 90.1617 182.489 90.2854 183.38 90.2854H186.2V96H181.45C176.799 96 174.474 93.823 174.474 89.469V65.2006H171.06V59.7829H174.474V53.623H181.228V59.7829H186.2V65.2006ZM196.646 59.7829H204.587C209.188 59.7829 211.489 61.9846 211.489 66.3881V89.469C211.489 93.823 209.188 96 204.587 96H196.646C192.094 96 189.818 93.823 189.818 89.469V66.3881C189.818 61.9846 192.094 59.7829 196.646 59.7829ZM204.884 88.5042V67.2786C204.884 66.3881 204.735 65.7943 204.438 65.4975C204.142 65.2006 203.548 65.0522 202.657 65.0522H198.575C197.685 65.0522 197.091 65.2006 196.794 65.4975C196.547 65.7943 196.423 66.3881 196.423 67.2786V88.5042C196.423 89.3948 196.547 89.9886 196.794 90.2854C197.091 90.5823 197.685 90.7307 198.575 90.7307H202.657C203.548 90.7307 204.142 90.5823 204.438 90.2854C204.735 89.9886 204.884 89.3948 204.884 88.5042ZM242.891 59.7829H245.488C249.941 59.7829 252.168 61.9846 252.168 66.3881V96H245.488V67.3529C245.488 66.4623 245.34 65.8933 245.043 65.6459C244.796 65.349 244.227 65.2006 243.336 65.2006H240.664C239.081 65.2006 238.289 66.0665 238.289 67.7982V96H231.61V67.3529C231.61 66.4623 231.461 65.8933 231.165 65.6459C230.868 65.349 230.274 65.2006 229.383 65.2006H226.786C225.895 65.2006 225.252 65.3985 224.856 65.7943C224.51 66.1902 224.337 66.8581 224.337 67.7982V96H217.657V59.7829H224.337V62.6773C224.98 60.7477 226.514 59.7829 228.938 59.7829H231.536C234.702 59.7829 236.756 60.8961 237.696 63.1226C238.289 60.8961 240.021 59.7829 242.891 59.7829Z" fill="black"/>
<path d="M174.757 39.5381H172.908V38.0909C172.908 37.7514 172.854 37.5281 172.747 37.4209C172.658 37.3137 172.434 37.2601 172.077 37.2601H170.737C170.38 37.2601 170.147 37.3137 170.04 37.4209C169.951 37.5281 169.906 37.7514 169.906 38.0909V46.2649C169.906 46.6222 169.951 46.8545 170.04 46.9617C170.147 47.051 170.38 47.0957 170.737 47.0957H172.077C172.434 47.0957 172.658 47.051 172.747 46.9617C172.854 46.8545 172.908 46.6222 172.908 46.2649V44.8177H174.757V46.5597C174.757 47.9711 174.051 48.6769 172.64 48.6769H170.174C168.763 48.6769 168.057 47.9711 168.057 46.5597V37.7961C168.057 36.3846 168.763 35.6789 170.174 35.6789H172.64C174.051 35.6789 174.757 36.3846 174.757 37.7961V39.5381ZM180.712 37.2601H178.862V46.1309C178.862 46.4703 178.916 46.6937 179.023 46.8009C179.13 46.9081 179.354 46.9617 179.693 46.9617H180.712V48.6769H179.13C177.719 48.6769 177.013 47.9711 177.013 46.5597V37.2601H175.834V35.6789H177.013V33.5617H178.862V35.6789H180.712V37.2601ZM182.139 32.8917V30.7209H184.096V32.8917H182.139ZM184.042 48.6769H182.193V35.6789H184.042V48.6769ZM187.236 35.6789L188.978 47.3905L190.747 35.6789H192.596L190.452 48.6769H187.531L185.387 35.6789H187.236ZM196.061 35.6789H198.527C199.938 35.6789 200.644 36.3846 200.644 37.7961V42.8077H195.793V46.2649C195.793 46.6222 195.847 46.8545 195.954 46.9617C196.061 47.051 196.285 47.0957 196.624 47.0957H197.884C198.241 47.0957 198.464 47.051 198.554 46.9617C198.661 46.8545 198.714 46.6222 198.714 46.2649V45.0857H200.564V46.5597C200.564 47.9711 199.858 48.6769 198.446 48.6769H196.061C194.65 48.6769 193.944 47.9711 193.944 46.5597V37.7961C193.944 36.3846 194.65 35.6789 196.061 35.6789ZM195.793 41.2265H198.795V38.0909C198.795 37.7514 198.741 37.5281 198.634 37.4209C198.527 37.3137 198.303 37.2601 197.964 37.2601H196.624C196.285 37.2601 196.061 37.3137 195.954 37.4209C195.847 37.5281 195.793 37.7514 195.793 38.0909V41.2265Z" fill="black"/>
<path d="M69.5048 104.161H74.7844C76.1958 104.161 76.9016 104.867 76.9016 106.278V118.713C76.9016 120.125 76.1958 120.831 74.7844 120.831H69.5048V104.161ZM75.0524 118.419V106.573C75.0524 106.216 74.9988 105.992 74.8916 105.903C74.7844 105.796 74.561 105.742 74.2216 105.742H71.354V119.249H74.2216C74.561 119.249 74.7844 119.205 74.8916 119.115C74.9988 119.008 75.0524 118.776 75.0524 118.419ZM81.561 107.833H84.0266C85.4381 107.833 86.1438 108.538 86.1438 109.95V114.961H81.293V118.419C81.293 118.776 81.3466 119.008 81.4538 119.115C81.561 119.205 81.7843 119.249 82.1238 119.249H83.3834C83.7407 119.249 83.9641 119.205 84.0534 119.115C84.1606 119.008 84.2142 118.776 84.2142 118.419V117.239H86.0634V118.713C86.0634 120.125 85.3577 120.831 83.9462 120.831H81.561C80.1495 120.831 79.4438 120.125 79.4438 118.713V109.95C79.4438 108.538 80.1495 107.833 81.561 107.833ZM81.293 113.38H84.2946V110.245C84.2946 109.905 84.241 109.682 84.1338 109.575C84.0266 109.467 83.8033 109.414 83.4638 109.414H82.1238C81.7843 109.414 81.561 109.467 81.4538 109.575C81.3466 109.682 81.293 109.905 81.293 110.245V113.38ZM94.8559 111.692H93.0067V110.245C93.0067 109.905 92.9531 109.682 92.8459 109.575C92.7566 109.467 92.5332 109.414 92.1759 109.414H90.8359C90.4786 109.414 90.2463 109.467 90.1391 109.575C90.0498 109.682 90.0051 109.905 90.0051 110.245V118.419C90.0051 118.776 90.0498 119.008 90.1391 119.115C90.2463 119.205 90.4786 119.249 90.8359 119.249H92.1759C92.5332 119.249 92.7566 119.205 92.8459 119.115C92.9531 119.008 93.0067 118.776 93.0067 118.419V116.971H94.8559V118.713C94.8559 120.125 94.1502 120.831 92.7387 120.831H90.2731C88.8616 120.831 88.1559 120.125 88.1559 118.713V109.95C88.1559 108.538 88.8616 107.833 90.2731 107.833H92.7387C94.1502 107.833 94.8559 108.538 94.8559 109.95V111.692ZM98.8543 120.831H97.0051V102.901H98.8543V120.831ZM105.8 107.833H107.65V120.831H105.8V119.946C105.604 120.536 105.112 120.831 104.326 120.831H103.254C101.843 120.831 101.137 120.125 101.137 118.713V109.95C101.137 108.538 101.843 107.833 103.254 107.833H104.326C105.112 107.833 105.604 108.127 105.8 108.717V107.833ZM103.817 119.249H104.889C105.211 119.249 105.443 119.178 105.586 119.035C105.729 118.892 105.8 118.642 105.8 118.285V110.379C105.8 110.021 105.729 109.771 105.586 109.628C105.443 109.485 105.211 109.414 104.889 109.414H103.817C103.46 109.414 103.228 109.467 103.12 109.575C103.031 109.682 102.986 109.905 102.986 110.245V118.419C102.986 118.776 103.031 119.008 103.12 119.115C103.228 119.205 103.46 119.249 103.817 119.249ZM113.844 107.833H114.406V109.441H113.602C112.477 109.441 111.914 110.111 111.914 111.451V120.831H110.065V107.833H111.914V109.333C112.057 108.923 112.289 108.574 112.611 108.288C112.95 107.985 113.361 107.833 113.844 107.833ZM120.273 107.833H122.123V120.831H120.273V119.946C120.077 120.536 119.586 120.831 118.799 120.831H117.727C116.316 120.831 115.61 120.125 115.61 118.713V109.95C115.61 108.538 116.316 107.833 117.727 107.833H118.799C119.586 107.833 120.077 108.127 120.273 108.717V107.833ZM118.29 119.249H119.362C119.684 119.249 119.916 119.178 120.059 119.035C120.202 118.892 120.273 118.642 120.273 118.285V110.379C120.273 110.021 120.202 109.771 120.059 109.628C119.916 109.485 119.684 109.414 119.362 109.414H118.29C117.933 109.414 117.701 109.467 117.593 109.575C117.504 109.682 117.459 109.905 117.459 110.245V118.419C117.459 118.776 117.504 119.008 117.593 119.115C117.701 119.205 117.933 119.249 118.29 119.249ZM128.344 109.414H126.494V118.285C126.494 118.624 126.548 118.847 126.655 118.955C126.762 119.062 126.986 119.115 127.325 119.115H128.344V120.831H126.762C125.351 120.831 124.645 120.125 124.645 118.713V109.414H123.466V107.833H124.645V105.715H126.494V107.833H128.344V109.414ZM129.771 105.045V102.875H131.727V105.045H129.771ZM131.674 120.831H129.825V107.833H131.674V120.831ZM134.868 107.833L136.61 119.544L138.379 107.833H140.228L138.084 120.831H135.163L133.019 107.833H134.868ZM143.693 107.833H146.159C147.57 107.833 148.276 108.538 148.276 109.95V114.961H143.425V118.419C143.425 118.776 143.479 119.008 143.586 119.115C143.693 119.205 143.916 119.249 144.256 119.249H145.515C145.873 119.249 146.096 119.205 146.185 119.115C146.293 119.008 146.346 118.776 146.346 118.419V117.239H148.195V118.713C148.195 120.125 147.49 120.831 146.078 120.831H143.693C142.282 120.831 141.576 120.125 141.576 118.713V109.95C141.576 108.538 142.282 107.833 143.693 107.833ZM143.425 113.38H146.427V110.245C146.427 109.905 146.373 109.682 146.266 109.575C146.159 109.467 145.935 109.414 145.596 109.414H144.256C143.916 109.414 143.693 109.467 143.586 109.575C143.479 109.682 143.425 109.905 143.425 110.245V113.38ZM157.896 118.445V115.98C157.896 115.64 157.842 115.417 157.735 115.31C157.628 115.203 157.405 115.149 157.065 115.149H155.752C154.341 115.149 153.635 114.443 153.635 113.032V109.95C153.635 108.538 154.341 107.833 155.752 107.833H157.574C158.986 107.833 159.692 108.538 159.692 109.95V111.263H157.869V110.218C157.869 109.861 157.816 109.637 157.708 109.548C157.619 109.441 157.396 109.387 157.038 109.387H156.288C155.931 109.387 155.698 109.441 155.591 109.548C155.502 109.637 155.457 109.861 155.457 110.218V112.764C155.457 113.103 155.502 113.327 155.591 113.434C155.698 113.541 155.931 113.595 156.288 113.595H157.601C159.013 113.595 159.718 114.3 159.718 115.712V118.713C159.718 120.125 159.013 120.831 157.601 120.831H155.806C154.394 120.831 153.688 120.125 153.688 118.713V117.4H155.511V118.445C155.511 118.785 155.555 119.008 155.645 119.115C155.752 119.223 155.984 119.276 156.342 119.276H157.065C157.405 119.276 157.628 119.223 157.735 119.115C157.842 119.008 157.896 118.785 157.896 118.445ZM165.665 109.414H163.815V118.285C163.815 118.624 163.869 118.847 163.976 118.955C164.083 119.062 164.307 119.115 164.646 119.115H165.665V120.831H164.083C162.672 120.831 161.966 120.125 161.966 118.713V109.414H160.787V107.833H161.966V105.715H163.815V107.833H165.665V109.414ZM171.675 107.833H173.524V120.831H171.675V119.946C171.478 120.536 170.987 120.831 170.201 120.831H169.129C167.717 120.831 167.012 120.125 167.012 118.713V109.95C167.012 108.538 167.717 107.833 169.129 107.833H170.201C170.987 107.833 171.478 108.127 171.675 108.717V107.833ZM169.692 119.249H170.764C171.085 119.249 171.318 119.178 171.461 119.035C171.603 118.892 171.675 118.642 171.675 118.285V110.379C171.675 110.021 171.603 109.771 171.461 109.628C171.318 109.485 171.085 109.414 170.764 109.414H169.692C169.334 109.414 169.102 109.467 168.995 109.575C168.906 109.682 168.861 109.905 168.861 110.245V118.419C168.861 118.776 168.906 119.008 168.995 119.115C169.102 119.205 169.334 119.249 169.692 119.249ZM179.745 109.414H177.896V118.285C177.896 118.624 177.949 118.847 178.057 118.955C178.164 119.062 178.387 119.115 178.727 119.115H179.745V120.831H178.164C176.752 120.831 176.047 120.125 176.047 118.713V109.414H174.867V107.833H176.047V105.715H177.896V107.833H179.745V109.414ZM183.343 107.833H185.809C187.22 107.833 187.926 108.538 187.926 109.95V114.961H183.075V118.419C183.075 118.776 183.129 119.008 183.236 119.115C183.343 119.205 183.567 119.249 183.906 119.249H185.166C185.523 119.249 185.746 119.205 185.836 119.115C185.943 119.008 185.997 118.776 185.997 118.419V117.239H187.846V118.713C187.846 120.125 187.14 120.831 185.729 120.831H183.343C181.932 120.831 181.226 120.125 181.226 118.713V109.95C181.226 108.538 181.932 107.833 183.343 107.833ZM183.075 113.38H186.077V110.245C186.077 109.905 186.023 109.682 185.916 109.575C185.809 109.467 185.586 109.414 185.246 109.414H183.906C183.567 109.414 183.343 109.467 183.236 109.575C183.129 109.682 183.075 109.905 183.075 110.245V113.38ZM201.54 107.833H202.612C204.023 107.833 204.729 108.538 204.729 109.95V120.831H202.88V110.245C202.88 109.905 202.826 109.682 202.719 109.575C202.629 109.467 202.406 109.414 202.049 109.414H200.977C200.655 109.414 200.423 109.485 200.28 109.628C200.137 109.771 200.066 110.021 200.066 110.379V120.831H198.216V110.245C198.216 109.905 198.163 109.682 198.056 109.575C197.966 109.467 197.743 109.414 197.386 109.414H196.314C195.992 109.414 195.76 109.485 195.617 109.628C195.474 109.771 195.402 110.021 195.402 110.379V120.831H193.553V107.833H195.402V108.717C195.599 108.127 196.09 107.833 196.876 107.833H197.948C198.967 107.833 199.619 108.19 199.905 108.905C200.083 108.19 200.628 107.833 201.54 107.833ZM211.535 107.833H213.384V120.831H211.535V119.946C211.338 120.536 210.847 120.831 210.061 120.831H208.989C207.577 120.831 206.871 120.125 206.871 118.713V109.95C206.871 108.538 207.577 107.833 208.989 107.833H210.061C210.847 107.833 211.338 108.127 211.535 108.717V107.833ZM209.551 119.249H210.623C210.945 119.249 211.177 119.178 211.32 119.035C211.463 118.892 211.535 118.642 211.535 118.285V110.379C211.535 110.021 211.463 109.771 211.32 109.628C211.177 109.485 210.945 109.414 210.623 109.414H209.551C209.194 109.414 208.962 109.467 208.855 109.575C208.765 109.682 208.721 109.905 208.721 110.245V118.419C208.721 118.776 208.765 119.008 208.855 119.115C208.962 119.205 209.194 119.249 209.551 119.249ZM219.122 107.833H220.194C221.606 107.833 222.312 108.538 222.312 109.95V120.831H220.462V110.245C220.462 109.905 220.409 109.682 220.302 109.575C220.212 109.467 219.989 109.414 219.632 109.414H218.56C218.238 109.414 218.006 109.485 217.863 109.628C217.72 109.771 217.648 110.021 217.648 110.379V120.831H215.799V107.833H217.648V108.717C217.845 108.127 218.336 107.833 219.122 107.833ZM229.253 107.833H231.102V120.831H229.253V119.946C229.057 120.536 228.565 120.831 227.779 120.831H226.707C225.296 120.831 224.59 120.125 224.59 118.713V109.95C224.59 108.538 225.296 107.833 226.707 107.833H227.779C228.565 107.833 229.057 108.127 229.253 108.717V107.833ZM227.27 119.249H228.342C228.663 119.249 228.896 119.178 229.039 119.035C229.182 118.892 229.253 118.642 229.253 118.285V110.379C229.253 110.021 229.182 109.771 229.039 109.628C228.896 109.485 228.663 109.414 228.342 109.414H227.27C226.913 109.414 226.68 109.467 226.573 109.575C226.484 109.682 226.439 109.905 226.439 110.245V118.419C226.439 118.776 226.484 119.008 226.573 119.115C226.68 119.205 226.913 119.249 227.27 119.249ZM238.047 107.833H239.896V122.492C239.896 123.904 239.19 124.609 237.779 124.609H233.786V123.028H237.216C237.555 123.028 237.779 122.975 237.886 122.867C237.993 122.76 238.047 122.537 238.047 122.197V119.946C237.85 120.536 237.359 120.831 236.573 120.831H235.501C234.089 120.831 233.384 120.125 233.384 118.713V109.95C233.384 108.538 234.089 107.833 235.501 107.833H236.573C237.359 107.833 237.85 108.127 238.047 108.717V107.833ZM236.064 119.249H237.136C237.457 119.249 237.689 119.178 237.832 119.035C237.975 118.892 238.047 118.642 238.047 118.285V110.379C238.047 110.021 237.975 109.771 237.832 109.628C237.689 109.485 237.457 109.414 237.136 109.414H236.064C235.706 109.414 235.474 109.467 235.367 109.575C235.277 109.682 235.233 109.905 235.233 110.245V118.419C235.233 118.776 235.277 119.008 235.367 119.115C235.474 119.205 235.706 119.249 236.064 119.249ZM244.429 107.833H246.894C248.306 107.833 249.011 108.538 249.011 109.95V114.961H244.161V118.419C244.161 118.776 244.214 119.008 244.321 119.115C244.429 119.205 244.652 119.249 244.991 119.249H246.251C246.608 119.249 246.832 119.205 246.921 119.115C247.028 119.008 247.082 118.776 247.082 118.419V117.239H248.931V118.713C248.931 120.125 248.225 120.831 246.814 120.831H244.429C243.017 120.831 242.311 120.125 242.311 118.713V109.95C242.311 108.538 243.017 107.833 244.429 107.833ZM244.161 113.38H247.162V110.245C247.162 109.905 247.109 109.682 247.001 109.575C246.894 109.467 246.671 109.414 246.331 109.414H244.991C244.652 109.414 244.429 109.467 244.321 109.575C244.214 109.682 244.161 109.905 244.161 110.245V113.38ZM254.936 107.833H255.499V109.441H254.695C253.569 109.441 253.007 110.111 253.007 111.451V120.831H251.157V107.833H253.007V109.333C253.15 108.923 253.382 108.574 253.703 108.288C254.043 107.985 254.454 107.833 254.936 107.833Z" fill="black"/>
<circle cx="305.108" cy="29.8616" r="26.8" fill="#E10000"/>
<circle cx="24.7385" cy="102.015" r="24.7385" fill="black"/>
</svg>
