<svg width="433" height="416" viewBox="0 0 433 416" fill="none" xmlns="http://www.w3.org/2000/svg">
<path d="M266.188 59.6455L291.097 106.871" stroke="black"/>
<line x1="323.433" y1="82.2492" x2="300.433" y2="122.249" stroke="black"/>
<line x1="378.928" y1="169.072" x2="314.928" y2="130.072" stroke="black"/>
<path d="M330.5 86.5C330.5 86.5 343.218 96.251 357.688 116.052C376.688 142.052 382 164.5 382 164.5" stroke="black"/>
<circle cx="263.316" cy="49.773" r="12.8181" transform="rotate(44.9263 263.316 49.773)" fill="#E10000"/>
<circle cx="323.316" cy="82.0802" r="12.8181" transform="rotate(44.9263 323.316 82.0802)" fill="#E10000"/>
<circle cx="386.207" cy="171.664" r="8.49842" transform="rotate(44.9263 386.207 171.664)" fill="#E10000"/>
<ellipse cx="299.97" cy="121.872" rx="21" ry="21.5" transform="rotate(44.5016 299.97 121.872)" fill="#E10000"/>
<path d="M94.5 322.5C94.5 322.5 81.544 308.642 71 286.5C56 255 55.4995 230 55.4995 230" stroke="#D3D3D3"/>
<line x1="61.1364" y1="232.555" x2="117.025" y2="282.489" stroke="#D3D3D3"/>
<line x1="105.606" y1="322.693" x2="118.514" y2="306.141" stroke="#D3D3D3"/>
<path d="M152.221 360.571L136.267 309.619" stroke="#D3D3D3"/>
<circle cx="153.26" cy="370.801" r="12.8181" transform="rotate(-124.652 153.26 370.801)" fill="#E3E3E3"/>
<circle cx="100.094" cy="328.173" r="12.8181" transform="rotate(-124.652 100.094 328.173)" fill="#E3E3E3"/>
<circle cx="54.4465" cy="228.69" r="8.49842" transform="rotate(-124.652 54.4465 228.69)" fill="#E3E3E3"/>
<ellipse cx="130.253" cy="293.261" rx="21" ry="21.5" transform="rotate(-125.076 130.253 293.261)" fill="#E3E3E3"/>
<path d="M171.561 213.056H165.177V224H158.553V191.36H171.225C178.905 191.36 182.745 194.944 182.745 202.112C182.745 206.368 181.145 209.504 177.945 211.52L182.601 224H175.353L171.561 213.056ZM165.177 207.392H171.321C172.889 207.392 174.057 206.912 174.825 205.952C175.593 204.992 175.977 203.728 175.977 202.16C175.977 200.592 175.561 199.344 174.729 198.416C173.929 197.488 172.761 197.024 171.225 197.024H165.177V207.392ZM209.439 224V218.24H194.943V210.416H206.559V204.752H194.943V197.12H209.439V191.36H188.319V224H209.439ZM216.145 224L218.545 215.456H232.753L235.153 224H238.801L229.681 190.784H221.617L212.497 224H216.145ZM226.897 193.952L231.937 212.144H219.361L224.401 193.952H226.897ZM251.854 206V208.34H246.13V216.944C246.13 219.032 246.286 220.388 246.598 221.012C246.886 221.66 247.594 221.984 248.722 221.984L251.926 221.768L252.106 224C251.29 224.12 250.57 224.216 249.946 224.288C249.346 224.36 248.842 224.396 248.434 224.396C247.498 224.396 246.706 224.288 246.058 224.072C245.434 223.88 244.93 223.532 244.546 223.028C244.162 222.524 243.886 221.852 243.718 221.012C243.55 220.172 243.466 219.104 243.466 217.808V208.34H240.91V206H243.466V200.492H246.13V206H251.854ZM254.36 214.964C254.36 213.308 254.492 211.892 254.756 210.716C255.044 209.54 255.5 208.58 256.124 207.836C256.748 207.068 257.552 206.516 258.536 206.18C259.52 205.82 260.708 205.64 262.1 205.64C263.492 205.64 264.668 205.82 265.628 206.18C266.612 206.516 267.404 207.068 268.004 207.836C268.628 208.58 269.072 209.54 269.336 210.716C269.624 211.892 269.768 213.308 269.768 214.964C269.768 216.62 269.636 218.036 269.372 219.212C269.132 220.388 268.712 221.36 268.112 222.128C267.512 222.896 266.72 223.46 265.736 223.82C264.752 224.18 263.528 224.36 262.064 224.36C260.6 224.36 259.376 224.18 258.392 223.82C257.408 223.46 256.616 222.896 256.016 222.128C255.416 221.36 254.984 220.388 254.72 219.212C254.48 218.036 254.36 216.62 254.36 214.964ZM257.132 214.892C257.132 216.212 257.192 217.328 257.312 218.24C257.456 219.128 257.708 219.86 258.068 220.436C258.452 220.988 258.968 221.396 259.616 221.66C260.264 221.9 261.092 222.02 262.1 222.02C263.108 222.02 263.924 221.9 264.548 221.66C265.196 221.42 265.7 221.024 266.06 220.472C266.42 219.896 266.66 219.164 266.78 218.276C266.924 217.364 266.996 216.248 266.996 214.928C266.996 213.608 266.912 212.504 266.744 211.616C266.6 210.728 266.336 210.02 265.952 209.492C265.568 208.94 265.064 208.556 264.44 208.34C263.816 208.1 263.036 207.98 262.1 207.98C261.164 207.98 260.372 208.1 259.724 208.34C259.1 208.556 258.596 208.94 258.212 209.492C257.828 210.02 257.552 210.728 257.384 211.616C257.216 212.48 257.132 213.572 257.132 214.892ZM276.871 209.384V224H274.171V206H276.835V207.26C278.635 206.18 280.387 205.64 282.091 205.64C284.323 205.64 285.883 206.252 286.771 207.476C287.179 207.236 287.647 207.008 288.175 206.792C288.703 206.552 289.255 206.348 289.831 206.18C290.431 206.012 291.019 205.88 291.595 205.784C292.171 205.688 292.699 205.64 293.179 205.64C294.379 205.64 295.363 205.796 296.131 206.108C296.923 206.396 297.547 206.888 298.003 207.584C298.483 208.256 298.807 209.168 298.975 210.32C299.167 211.448 299.263 212.84 299.263 214.496V224H296.563V214.568C296.563 213.32 296.515 212.276 296.419 211.436C296.323 210.596 296.131 209.924 295.843 209.42C295.579 208.916 295.195 208.568 294.691 208.376C294.211 208.16 293.575 208.052 292.783 208.052C291.991 208.052 291.175 208.172 290.335 208.412C289.495 208.628 288.847 208.844 288.391 209.06L287.707 209.384C288.019 210.152 288.175 211.904 288.175 214.64V224H285.475V214.712C285.475 213.416 285.427 212.348 285.331 211.508C285.235 210.644 285.043 209.96 284.755 209.456C284.491 208.928 284.107 208.568 283.603 208.376C283.123 208.16 282.487 208.052 281.695 208.052C280.927 208.052 280.135 208.172 279.319 208.412C278.527 208.628 277.915 208.844 277.483 209.06L276.871 209.384Z" fill="black"/>
<path d="M245.663 189.82C246.059 189.82 246.731 189.892 247.679 190.036L248.111 190.09L248.057 191.188C247.109 191.08 246.401 191.026 245.933 191.026C245.429 191.026 245.003 191.08 244.655 191.188C244.319 191.296 244.049 191.482 243.845 191.746C243.653 192.01 243.515 192.364 243.431 192.808C243.347 193.24 243.305 193.786 243.305 194.446C243.305 195.106 243.341 195.664 243.413 196.12C243.485 196.564 243.617 196.924 243.809 197.2C244.013 197.476 244.283 197.674 244.619 197.794C244.967 197.914 245.411 197.974 245.951 197.974L248.075 197.812L248.129 198.928C247.565 199.012 247.073 199.072 246.653 199.108C246.245 199.156 245.903 199.18 245.627 199.18C244.931 199.18 244.343 199.096 243.863 198.928C243.395 198.748 243.017 198.472 242.729 198.1C242.441 197.716 242.231 197.224 242.099 196.624C241.979 196.024 241.919 195.298 241.919 194.446C241.919 193.594 241.985 192.874 242.117 192.286C242.261 191.698 242.483 191.224 242.783 190.864C243.083 190.492 243.467 190.228 243.935 190.072C244.415 189.904 244.991 189.82 245.663 189.82ZM254.799 190V191.17H251.937V195.472C251.937 196.516 252.015 197.194 252.171 197.506C252.315 197.83 252.669 197.992 253.233 197.992L254.835 197.884L254.925 199C254.517 199.06 254.157 199.108 253.845 199.144C253.545 199.18 253.293 199.198 253.089 199.198C252.621 199.198 252.225 199.144 251.901 199.036C251.589 198.94 251.337 198.766 251.145 198.514C250.953 198.262 250.815 197.926 250.731 197.506C250.647 197.086 250.605 196.552 250.605 195.904V191.17H249.327V190H250.605V187.246H251.937V190H254.799ZM257.797 199V190H256.447V199H257.797ZM257.797 187.966V186.4H256.447V187.966H257.797ZM262.077 199H264.777L267.315 190H265.929L263.751 197.83H263.085L260.979 190H259.539L262.077 199ZM275.171 197.884L275.693 197.83L275.729 198.892C275.045 198.988 274.409 199.06 273.821 199.108C273.245 199.156 272.711 199.18 272.219 199.18C270.923 199.18 270.005 198.808 269.465 198.064C268.925 197.308 268.655 196.138 268.655 194.554C268.655 191.398 269.909 189.82 272.417 189.82C273.641 189.82 274.547 190.162 275.135 190.846C275.735 191.518 276.035 192.58 276.035 194.032L275.963 195.058H270.023C270.023 196.066 270.203 196.81 270.563 197.29C270.923 197.758 271.553 197.992 272.453 197.992C273.353 197.992 274.259 197.956 275.171 197.884ZM270.005 193.978H274.685C274.685 192.874 274.505 192.094 274.145 191.638C273.797 191.182 273.227 190.954 272.435 190.954C271.631 190.954 271.025 191.194 270.617 191.674C270.221 192.154 270.017 192.922 270.005 193.978Z" fill="black"/>
<path d="M162.317 247H159.106V238.004H162.317C163.045 238.004 163.626 238.13 164.059 238.381C164.501 238.632 164.839 238.966 165.073 239.382C165.307 239.789 165.459 240.253 165.528 240.773C165.606 241.293 165.645 241.826 165.645 242.372C165.645 242.979 165.602 243.564 165.515 244.127C165.428 244.682 165.259 245.171 165.008 245.596C164.765 246.021 164.427 246.363 163.994 246.623C163.569 246.874 163.01 247 162.317 247ZM164.618 242.372C164.618 241.947 164.592 241.527 164.54 241.111C164.488 240.695 164.38 240.322 164.215 239.993C164.059 239.664 163.829 239.399 163.526 239.2C163.223 238.992 162.82 238.888 162.317 238.888H160.107V246.116H162.317C163.851 246.116 164.618 244.868 164.618 242.372ZM171.736 246.194L172.113 246.155L172.139 246.922C171.645 246.991 171.186 247.043 170.761 247.078C170.345 247.113 169.959 247.13 169.604 247.13C168.668 247.13 168.005 246.861 167.615 246.324C167.225 245.778 167.03 244.933 167.03 243.789C167.03 241.51 167.936 240.37 169.747 240.37C170.631 240.37 171.285 240.617 171.71 241.111C172.143 241.596 172.36 242.363 172.36 243.412L172.308 244.153H168.018C168.018 244.881 168.148 245.418 168.408 245.765C168.668 246.103 169.123 246.272 169.773 246.272C170.423 246.272 171.077 246.246 171.736 246.194ZM168.005 243.373H171.385C171.385 242.576 171.255 242.012 170.995 241.683C170.744 241.354 170.332 241.189 169.76 241.189C169.179 241.189 168.742 241.362 168.447 241.709C168.161 242.056 168.014 242.61 168.005 243.373ZM176.31 240.37C176.596 240.37 177.082 240.422 177.766 240.526L178.078 240.565L178.039 241.358C177.355 241.28 176.843 241.241 176.505 241.241C176.141 241.241 175.834 241.28 175.582 241.358C175.34 241.436 175.145 241.57 174.997 241.761C174.859 241.952 174.759 242.207 174.698 242.528C174.638 242.84 174.607 243.234 174.607 243.711C174.607 244.188 174.633 244.591 174.685 244.92C174.737 245.241 174.833 245.501 174.971 245.7C175.119 245.899 175.314 246.042 175.556 246.129C175.808 246.216 176.128 246.259 176.518 246.259L178.052 246.142L178.091 246.948C177.684 247.009 177.329 247.052 177.025 247.078C176.731 247.113 176.484 247.13 176.284 247.13C175.782 247.13 175.357 247.069 175.01 246.948C174.672 246.818 174.399 246.619 174.191 246.35C173.983 246.073 173.832 245.717 173.736 245.284C173.65 244.851 173.606 244.326 173.606 243.711C173.606 243.096 173.654 242.576 173.749 242.151C173.853 241.726 174.014 241.384 174.23 241.124C174.447 240.855 174.724 240.665 175.062 240.552C175.409 240.431 175.825 240.37 176.31 240.37ZM180.594 247V237.666H179.619V247H180.594ZM187.139 242.463V245.791C187.165 246.112 187.417 246.302 187.893 246.363L187.854 247.13C187.17 247.13 186.654 246.957 186.307 246.61C185.536 246.957 184.756 247.13 183.967 247.13C183.369 247.13 182.914 246.961 182.602 246.623C182.29 246.285 182.134 245.8 182.134 245.167C182.134 244.534 182.295 244.071 182.615 243.776C182.936 243.473 183.439 243.286 184.123 243.217L186.164 243.022V242.463C186.164 242.021 186.069 241.705 185.878 241.514C185.688 241.323 185.428 241.228 185.098 241.228C184.752 241.228 184.396 241.241 184.032 241.267C183.677 241.284 183.313 241.315 182.94 241.358L182.537 241.397L182.498 240.656C183.426 240.465 184.271 240.37 185.033 240.37C185.77 240.37 186.303 240.539 186.632 240.877C186.97 241.206 187.139 241.735 187.139 242.463ZM183.135 245.115C183.135 245.912 183.465 246.311 184.123 246.311C184.704 246.311 185.285 246.211 185.865 246.012L186.164 245.908V243.763L184.24 243.945C183.85 243.98 183.569 244.092 183.395 244.283C183.222 244.474 183.135 244.751 183.135 245.115ZM190.038 247H189.063V240.5H190.025V241.384C190.77 240.873 191.563 240.53 192.404 240.357V241.345C192.222 241.38 192.031 241.427 191.832 241.488C191.641 241.549 191.451 241.614 191.26 241.683C191.078 241.744 190.909 241.809 190.753 241.878C190.597 241.947 190.467 242.008 190.363 242.06L190.038 242.229V247ZM198.146 242.463V245.791C198.172 246.112 198.423 246.302 198.9 246.363L198.861 247.13C198.176 247.13 197.661 246.957 197.314 246.61C196.543 246.957 195.763 247.13 194.974 247.13C194.376 247.13 193.921 246.961 193.609 246.623C193.297 246.285 193.141 245.8 193.141 245.167C193.141 244.534 193.301 244.071 193.622 243.776C193.943 243.473 194.445 243.286 195.13 243.217L197.171 243.022V242.463C197.171 242.021 197.076 241.705 196.885 241.514C196.694 241.323 196.434 241.228 196.105 241.228C195.758 241.228 195.403 241.241 195.039 241.267C194.684 241.284 194.32 241.315 193.947 241.358L193.544 241.397L193.505 240.656C194.432 240.465 195.277 240.37 196.04 240.37C196.777 240.37 197.31 240.539 197.639 240.877C197.977 241.206 198.146 241.735 198.146 242.463ZM194.142 245.115C194.142 245.912 194.471 246.311 195.13 246.311C195.711 246.311 196.291 246.211 196.872 246.012L197.171 245.908V243.763L195.247 243.945C194.857 243.98 194.575 244.092 194.402 244.283C194.229 244.474 194.142 244.751 194.142 245.115ZM203.437 240.5V241.345H201.37V244.452C201.37 245.206 201.426 245.696 201.539 245.921C201.643 246.155 201.898 246.272 202.306 246.272L203.463 246.194L203.528 247C203.233 247.043 202.973 247.078 202.748 247.104C202.531 247.13 202.349 247.143 202.202 247.143C201.864 247.143 201.578 247.104 201.344 247.026C201.118 246.957 200.936 246.831 200.798 246.649C200.659 246.467 200.559 246.224 200.499 245.921C200.438 245.618 200.408 245.232 200.408 244.764V241.345H199.485V240.5H200.408V238.511H201.37V240.5H203.437ZM205.602 247V240.5H204.627V247H205.602ZM205.602 239.031V237.9H204.627V239.031H205.602ZM208.693 247H210.643L212.476 240.5H211.475L209.902 246.155H209.421L207.9 240.5H206.86L208.693 247ZM218.15 246.194L218.527 246.155L218.553 246.922C218.059 246.991 217.6 247.043 217.175 247.078C216.759 247.113 216.373 247.13 216.018 247.13C215.082 247.13 214.419 246.861 214.029 246.324C213.639 245.778 213.444 244.933 213.444 243.789C213.444 241.51 214.35 240.37 216.161 240.37C217.045 240.37 217.699 240.617 218.124 241.111C218.557 241.596 218.774 242.363 218.774 243.412L218.722 244.153H214.432C214.432 244.881 214.562 245.418 214.822 245.765C215.082 246.103 215.537 246.272 216.187 246.272C216.837 246.272 217.491 246.246 218.15 246.194ZM214.419 243.373H217.799C217.799 242.576 217.669 242.012 217.409 241.683C217.158 241.354 216.746 241.189 216.174 241.189C215.593 241.189 215.156 241.362 214.861 241.709C214.575 242.056 214.428 242.61 214.419 243.373ZM225.191 241.241C224.246 241.241 223.774 241.57 223.774 242.229C223.774 242.541 223.882 242.753 224.099 242.866C224.324 242.996 224.818 243.126 225.581 243.256C225.971 243.325 226.3 243.403 226.569 243.49C226.838 243.568 227.054 243.681 227.219 243.828C227.392 243.967 227.514 244.144 227.583 244.361C227.661 244.578 227.7 244.855 227.7 245.193C227.7 245.869 227.488 246.363 227.063 246.675C226.638 246.978 226.01 247.13 225.178 247.13C224.909 247.13 224.615 247.113 224.294 247.078C223.982 247.052 223.644 247.009 223.28 246.948L222.89 246.883L222.942 246.038C223.436 246.107 223.869 246.164 224.242 246.207C224.615 246.242 224.927 246.259 225.178 246.259C225.681 246.259 226.062 246.181 226.322 246.025C226.591 245.86 226.725 245.587 226.725 245.206C226.725 244.842 226.612 244.586 226.387 244.439C226.153 244.3 225.659 244.175 224.905 244.062C224.524 244.001 224.199 243.932 223.93 243.854C223.67 243.767 223.453 243.659 223.28 243.529C223.115 243.39 222.994 243.217 222.916 243.009C222.838 242.801 222.799 242.541 222.799 242.229C222.799 241.917 222.855 241.644 222.968 241.41C223.089 241.176 223.254 240.981 223.462 240.825C223.67 240.669 223.917 240.556 224.203 240.487C224.489 240.409 224.801 240.37 225.139 240.37C225.408 240.37 225.707 240.387 226.036 240.422C226.365 240.448 226.729 240.491 227.128 240.552L227.492 240.617L227.466 241.449C226.981 241.38 226.547 241.328 226.166 241.293C225.793 241.258 225.468 241.241 225.191 241.241ZM232.56 240.5V241.345H230.493V244.452C230.493 245.206 230.549 245.696 230.662 245.921C230.766 246.155 231.022 246.272 231.429 246.272L232.586 246.194L232.651 247C232.356 247.043 232.096 247.078 231.871 247.104C231.654 247.13 231.472 247.143 231.325 247.143C230.987 247.143 230.701 247.104 230.467 247.026C230.242 246.957 230.06 246.831 229.921 246.649C229.782 246.467 229.683 246.224 229.622 245.921C229.561 245.618 229.531 245.232 229.531 244.764V241.345H228.608V240.5H229.531V238.511H230.493V240.5H232.56ZM238.339 242.463V245.791C238.365 246.112 238.617 246.302 239.093 246.363L239.054 247.13C238.37 247.13 237.854 246.957 237.507 246.61C236.736 246.957 235.956 247.13 235.167 247.13C234.569 247.13 234.114 246.961 233.802 246.623C233.49 246.285 233.334 245.8 233.334 245.167C233.334 244.534 233.495 244.071 233.815 243.776C234.136 243.473 234.639 243.286 235.323 243.217L237.364 243.022V242.463C237.364 242.021 237.269 241.705 237.078 241.514C236.888 241.323 236.628 241.228 236.298 241.228C235.952 241.228 235.596 241.241 235.232 241.267C234.877 241.284 234.513 241.315 234.14 241.358L233.737 241.397L233.698 240.656C234.626 240.465 235.471 240.37 236.233 240.37C236.97 240.37 237.503 240.539 237.832 240.877C238.17 241.206 238.339 241.735 238.339 242.463ZM234.335 245.115C234.335 245.912 234.665 246.311 235.323 246.311C235.904 246.311 236.485 246.211 237.065 246.012L237.364 245.908V243.763L235.44 243.945C235.05 243.98 234.769 244.092 234.595 244.283C234.422 244.474 234.335 244.751 234.335 245.115ZM243.63 240.5V241.345H241.563V244.452C241.563 245.206 241.619 245.696 241.732 245.921C241.836 246.155 242.092 246.272 242.499 246.272L243.656 246.194L243.721 247C243.426 247.043 243.166 247.078 242.941 247.104C242.724 247.13 242.542 247.143 242.395 247.143C242.057 247.143 241.771 247.104 241.537 247.026C241.312 246.957 241.13 246.831 240.991 246.649C240.852 246.467 240.753 246.224 240.692 245.921C240.631 245.618 240.601 245.232 240.601 244.764V241.345H239.678V240.5H240.601V238.511H241.563V240.5H243.63ZM249.241 246.194L249.618 246.155L249.644 246.922C249.15 246.991 248.69 247.043 248.266 247.078C247.85 247.113 247.464 247.13 247.109 247.13C246.173 247.13 245.51 246.861 245.12 246.324C244.73 245.778 244.535 244.933 244.535 243.789C244.535 241.51 245.44 240.37 247.252 240.37C248.136 240.37 248.79 240.617 249.215 241.111C249.648 241.596 249.865 242.363 249.865 243.412L249.813 244.153H245.523C245.523 244.881 245.653 245.418 245.913 245.765C246.173 246.103 246.628 246.272 247.278 246.272C247.928 246.272 248.582 246.246 249.241 246.194ZM245.51 243.373H248.89C248.89 242.576 248.76 242.012 248.5 241.683C248.248 241.354 247.837 241.189 247.265 241.189C246.684 241.189 246.246 241.362 245.952 241.709C245.666 242.056 245.518 242.61 245.51 243.373ZM255.216 241.722V247H254.241V240.5H255.203V240.955C255.853 240.565 256.485 240.37 257.101 240.37C257.907 240.37 258.47 240.591 258.791 241.033C258.938 240.946 259.107 240.864 259.298 240.786C259.488 240.699 259.688 240.626 259.896 240.565C260.112 240.504 260.325 240.457 260.533 240.422C260.741 240.387 260.931 240.37 261.105 240.37C261.538 240.37 261.893 240.426 262.171 240.539C262.457 240.643 262.682 240.821 262.847 241.072C263.02 241.315 263.137 241.644 263.198 242.06C263.267 242.467 263.302 242.97 263.302 243.568V247H262.327V243.594C262.327 243.143 262.309 242.766 262.275 242.463C262.24 242.16 262.171 241.917 262.067 241.735C261.971 241.553 261.833 241.427 261.651 241.358C261.477 241.28 261.248 241.241 260.962 241.241C260.676 241.241 260.381 241.284 260.078 241.371C259.774 241.449 259.54 241.527 259.376 241.605L259.129 241.722C259.241 241.999 259.298 242.632 259.298 243.62V247H258.323V243.646C258.323 243.178 258.305 242.792 258.271 242.489C258.236 242.177 258.167 241.93 258.063 241.748C257.967 241.557 257.829 241.427 257.647 241.358C257.473 241.28 257.244 241.241 256.958 241.241C256.68 241.241 256.394 241.284 256.1 241.371C255.814 241.449 255.593 241.527 255.437 241.605L255.216 241.722ZM269.697 242.463V245.791C269.723 246.112 269.974 246.302 270.451 246.363L270.412 247.13C269.727 247.13 269.212 246.957 268.865 246.61C268.094 246.957 267.314 247.13 266.525 247.13C265.927 247.13 265.472 246.961 265.16 246.623C264.848 246.285 264.692 245.8 264.692 245.167C264.692 244.534 264.852 244.071 265.173 243.776C265.494 243.473 265.996 243.286 266.681 243.217L268.722 243.022V242.463C268.722 242.021 268.627 241.705 268.436 241.514C268.245 241.323 267.985 241.228 267.656 241.228C267.309 241.228 266.954 241.241 266.59 241.267C266.235 241.284 265.871 241.315 265.498 241.358L265.095 241.397L265.056 240.656C265.983 240.465 266.828 240.37 267.591 240.37C268.328 240.37 268.861 240.539 269.19 240.877C269.528 241.206 269.697 241.735 269.697 242.463ZM265.693 245.115C265.693 245.912 266.022 246.311 266.681 246.311C267.262 246.311 267.842 246.211 268.423 246.012L268.722 245.908V243.763L266.798 243.945C266.408 243.98 266.126 244.092 265.953 244.283C265.78 244.474 265.693 244.751 265.693 245.115ZM272.596 241.722V247H271.621V240.5H272.583V240.955C273.285 240.565 273.956 240.37 274.598 240.37C275.031 240.37 275.386 240.426 275.664 240.539C275.95 240.643 276.175 240.821 276.34 241.072C276.513 241.323 276.63 241.653 276.691 242.06C276.76 242.467 276.795 242.97 276.795 243.568V247H275.833V243.594C275.833 243.143 275.811 242.766 275.768 242.463C275.733 242.16 275.664 241.917 275.56 241.735C275.456 241.553 275.313 241.427 275.131 241.358C274.949 241.28 274.715 241.241 274.429 241.241C274.151 241.241 273.857 241.284 273.545 241.371C273.241 241.449 273.007 241.527 272.843 241.605L272.596 241.722ZM283.192 242.463V245.791C283.218 246.112 283.469 246.302 283.946 246.363L283.907 247.13C283.222 247.13 282.707 246.957 282.36 246.61C281.589 246.957 280.809 247.13 280.02 247.13C279.422 247.13 278.967 246.961 278.655 246.623C278.343 246.285 278.187 245.8 278.187 245.167C278.187 244.534 278.347 244.071 278.668 243.776C278.989 243.473 279.491 243.286 280.176 243.217L282.217 243.022V242.463C282.217 242.021 282.122 241.705 281.931 241.514C281.74 241.323 281.48 241.228 281.151 241.228C280.804 241.228 280.449 241.241 280.085 241.267C279.73 241.284 279.366 241.315 278.993 241.358L278.59 241.397L278.551 240.656C279.478 240.465 280.323 240.37 281.086 240.37C281.823 240.37 282.356 240.539 282.685 240.877C283.023 241.206 283.192 241.735 283.192 242.463ZM279.188 245.115C279.188 245.912 279.517 246.311 280.176 246.311C280.757 246.311 281.337 246.211 281.918 246.012L282.217 245.908V243.763L280.293 243.945C279.903 243.98 279.621 244.092 279.448 244.283C279.275 244.474 279.188 244.751 279.188 245.115ZM287.625 250.055C287.105 250.055 286.667 250.02 286.312 249.951C285.956 249.89 285.666 249.782 285.441 249.626C285.224 249.479 285.068 249.279 284.973 249.028C284.877 248.777 284.83 248.465 284.83 248.092C284.83 247.91 284.847 247.75 284.882 247.611C284.925 247.481 284.986 247.351 285.064 247.221C285.15 247.1 285.259 246.983 285.389 246.87C285.519 246.749 285.675 246.619 285.857 246.48C285.614 246.315 285.493 246.016 285.493 245.583C285.493 245.436 285.601 245.163 285.818 244.764L285.935 244.556C285.25 244.244 284.908 243.59 284.908 242.593C284.908 241.111 285.718 240.37 287.339 240.37C287.772 240.37 288.158 240.413 288.496 240.5L288.691 240.539L290.615 240.487V241.319L289.38 241.293C289.666 241.579 289.809 242.012 289.809 242.593C289.809 243.408 289.605 243.98 289.198 244.309C288.799 244.63 288.166 244.79 287.3 244.79C287.048 244.79 286.836 244.773 286.663 244.738C286.507 245.111 286.429 245.358 286.429 245.479C286.429 245.748 286.511 245.912 286.676 245.973C286.858 246.042 287.356 246.077 288.171 246.077C288.587 246.077 288.942 246.107 289.237 246.168C289.531 246.22 289.774 246.32 289.965 246.467C290.155 246.614 290.294 246.809 290.381 247.052C290.467 247.303 290.511 247.615 290.511 247.988C290.511 249.366 289.549 250.055 287.625 250.055ZM285.883 242.593C285.883 243.113 285.995 243.481 286.221 243.698C286.455 243.906 286.836 244.01 287.365 244.01C287.893 244.01 288.27 243.902 288.496 243.685C288.721 243.468 288.834 243.1 288.834 242.58C288.834 242.06 288.721 241.696 288.496 241.488C288.27 241.271 287.893 241.163 287.365 241.163C286.836 241.163 286.455 241.271 286.221 241.488C285.995 241.705 285.883 242.073 285.883 242.593ZM285.792 248.014C285.792 248.248 285.822 248.443 285.883 248.599C285.943 248.755 286.043 248.881 286.182 248.976C286.32 249.071 286.502 249.136 286.728 249.171C286.962 249.214 287.252 249.236 287.599 249.236C288.292 249.236 288.786 249.141 289.081 248.95C289.375 248.759 289.523 248.439 289.523 247.988C289.523 247.771 289.497 247.594 289.445 247.455C289.401 247.316 289.319 247.208 289.198 247.13C289.076 247.052 288.912 247 288.704 246.974C288.496 246.948 288.236 246.935 287.924 246.935L286.52 246.87C286.234 247.078 286.039 247.26 285.935 247.416C285.839 247.572 285.792 247.771 285.792 248.014ZM296.213 246.194L296.59 246.155L296.616 246.922C296.122 246.991 295.663 247.043 295.238 247.078C294.822 247.113 294.437 247.13 294.081 247.13C293.145 247.13 292.482 246.861 292.092 246.324C291.702 245.778 291.507 244.933 291.507 243.789C291.507 241.51 292.413 240.37 294.224 240.37C295.108 240.37 295.763 240.617 296.187 241.111C296.621 241.596 296.837 242.363 296.837 243.412L296.785 244.153H292.495C292.495 244.881 292.625 245.418 292.885 245.765C293.145 246.103 293.6 246.272 294.25 246.272C294.9 246.272 295.555 246.246 296.213 246.194ZM292.482 243.373H295.862C295.862 242.576 295.732 242.012 295.472 241.683C295.221 241.354 294.809 241.189 294.237 241.189C293.657 241.189 293.219 241.362 292.924 241.709C292.638 242.056 292.491 242.61 292.482 243.373ZM299.332 247H298.357V240.5H299.319V241.384C300.064 240.873 300.857 240.53 301.698 240.357V241.345C301.516 241.38 301.325 241.427 301.126 241.488C300.935 241.549 300.745 241.614 300.554 241.683C300.372 241.744 300.203 241.809 300.047 241.878C299.891 241.947 299.761 242.008 299.657 242.06L299.332 242.229V247Z" fill="black"/>
</svg>
