<svg version="1.1" viewBox="0.0 0.0 734.6824146981627 441.88451443569556" fill="none" stroke="none" stroke-linecap="square" stroke-miterlimit="10" xmlns:xlink="http://www.w3.org/1999/xlink" xmlns="http://www.w3.org/2000/svg"><clipPath id="p.0"><path d="m0 0l734.68243 0l0 441.88452l-734.68243 0l0 -441.88452z" clip-rule="nonzero"/></clipPath><g clip-path="url(#p.0)"><path fill="#000000" fill-opacity="0.0" d="m0 0l734.68243 0l0 441.88452l-734.68243 0z" fill-rule="evenodd"/><path fill="#cfe2f3" d="m267.23883 41.375576l0 0c0 -6.795704 5.509033 -12.30471 12.304718 -12.30471l154.31973 0c3.2633972 0 6.393158 1.2963848 8.700745 3.6039658c2.3075562 2.307579 3.6039429 5.437332 3.6039429 8.700745l0 49.21735c0 6.7957077 -5.5090027 12.30471 -12.3046875 12.30471l-154.31973 0c-6.795685 0 -12.304718 -5.5090027 -12.304718 -12.30471z" fill-rule="evenodd"/><path stroke="#000000" stroke-width="1.0" stroke-linejoin="round" stroke-linecap="butt" d="m267.23883 41.375576l0 0c0 -6.795704 5.509033 -12.30471 12.304718 -12.30471l154.31973 0c3.2633972 0 6.393158 1.2963848 8.700745 3.6039658c2.3075562 2.307579 3.6039429 5.437332 3.6039429 8.700745l0 49.21735c0 6.7957077 -5.5090027 12.30471 -12.3046875 12.30471l-154.31973 0c-6.795685 0 -12.304718 -5.5090027 -12.304718 -12.30471z" fill-rule="evenodd"/><path fill="#000000" d="m340.07465 72.90425l5.125 -13.359375l1.90625 0l5.46875 13.359375l-2.015625 0l-1.546875 -4.046875l-5.59375 0l-1.46875 4.046875l-1.875 0zm3.859375 -5.484375l4.53125 0l-1.40625 -3.703125q-0.625 -1.6875 -0.9375 -2.765625q-0.265625 1.28125 -0.71875 2.546875l-1.46875 3.921875zm9.849823 9.1875l0 -13.375l1.484375 0l0 1.25q0.53125 -0.734375 1.1875 -1.09375q0.671875 -0.375 1.625 -0.375q1.234375 0 2.171875 0.640625q0.953125 0.625 1.4375 1.796875q0.484375 1.15625 0.484375 2.546875q0 1.484375 -0.53125 2.671875q-0.53125 1.1875 -1.546875 1.828125q-1.015625 0.625 -2.140625 0.625q-0.8125 0 -1.46875 -0.34375q-0.65625 -0.34375 -1.0625 -0.875l0 4.703125l-1.640625 0zm1.484375 -8.484375q0 1.859375 0.75 2.765625q0.765625 0.890625 1.828125 0.890625q1.09375 0 1.875 -0.921875q0.78125 -0.9375 0.78125 -2.875q0 -1.84375 -0.765625 -2.765625q-0.75 -0.921875 -1.8125 -0.921875q-1.046875 0 -1.859375 0.984375q-0.796875 0.96875 -0.796875 2.84375zm8.891357 8.484375l0 -13.375l1.484375 0l0 1.25q0.53125 -0.734375 1.1875 -1.09375q0.671875 -0.375 1.625 -0.375q1.234375 0 2.171875 0.640625q0.953125 0.625 1.4375 1.796875q0.484375 1.15625 0.484375 2.546875q0 1.484375 -0.53125 2.671875q-0.53125 1.1875 -1.546875 1.828125q-1.015625 0.625 -2.140625 0.625q-0.8125 0 -1.46875 -0.34375q-0.65625 -0.34375 -1.0625 -0.875l0 4.703125l-1.640625 0zm1.484375 -8.484375q0 1.859375 0.75 2.765625q0.765625 0.890625 1.828125 0.890625q1.09375 0 1.875 -0.921875q0.78125 -0.9375 0.78125 -2.875q0 -1.84375 -0.765625 -2.765625q-0.75 -0.921875 -1.8125 -0.921875q-1.046875 0 -1.859375 0.984375q-0.796875 0.96875 -0.796875 2.84375z" fill-rule="nonzero"/><path fill="#cfe2f3" d="m23.553806 196.40182l0 0c0 -6.7957 5.5090046 -12.304718 12.304707 -12.304718l154.31973 0c3.2634125 0 6.393158 1.2963867 8.700729 3.6039734c2.3075867 2.3075714 3.6039734 5.437332 3.6039734 8.700745l0 49.217346c0 6.7957153 -5.5090027 12.304718 -12.304703 12.304718l-154.31973 0c-6.795702 0 -12.304707 -5.5090027 -12.304707 -12.304718z" fill-rule="evenodd"/><path stroke="#000000" stroke-width="1.0" stroke-linejoin="round" stroke-linecap="butt" d="m23.553806 196.40182l0 0c0 -6.7957 5.5090046 -12.304718 12.304707 -12.304718l154.31973 0c3.2634125 0 6.393158 1.2963867 8.700729 3.6039734c2.3075867 2.3075714 3.6039734 5.437332 3.6039734 8.700745l0 49.217346c0 6.7957153 -5.5090027 12.304718 -12.304703 12.304718l-154.31973 0c-6.795702 0 -12.304707 -5.5090027 -12.304707 -12.304718z" fill-rule="evenodd"/><path fill="#000000" d="m93.797966 227.9305l5.125 -13.359375l1.90625 0l5.46875 13.359375l-2.015625 0l-1.546875 -4.046875l-5.59375 0l-1.46875 4.046875l-1.875 0zm3.859375 -5.484375l4.53125 0l-1.40625 -3.703125q-0.625 -1.6875 -0.9375 -2.765625q-0.265625 1.28125 -0.71875 2.546875l-1.46875 3.921875zm16.177948 5.484375l0 -1.421875q-1.125 1.640625 -3.0625 1.640625q-0.859375 0 -1.609375 -0.328125q-0.734375 -0.328125 -1.09375 -0.828125q-0.359375 -0.5 -0.5 -1.21875q-0.109375 -0.46875 -0.109375 -1.53125l0 -5.984375l1.640625 0l0 5.359375q0 1.28125 0.109375 1.734375q0.15625 0.640625 0.65625 1.015625q0.5 0.375 1.234375 0.375q0.734375 0 1.375 -0.375q0.65625 -0.390625 0.921875 -1.03125q0.265625 -0.65625 0.265625 -1.890625l0 -5.1875l1.640625 0l0 9.671875l-1.46875 0zm7.625717 -1.46875l0.234375 1.453125q-0.6875 0.140625 -1.234375 0.140625q-0.890625 0 -1.390625 -0.28125q-0.484375 -0.28125 -0.6875 -0.734375q-0.203125 -0.46875 -0.203125 -1.9375l0 -5.578125l-1.203125 0l0 -1.265625l1.203125 0l0 -2.390625l1.625 -0.984375l0 3.375l1.65625 0l0 1.265625l-1.65625 0l0 5.671875q0 0.6875 0.078125 0.890625q0.09375 0.203125 0.28125 0.328125q0.203125 0.109375 0.578125 0.109375q0.265625 0 0.71875 -0.0625zm1.6051788 1.46875l0 -13.359375l1.640625 0l0 4.796875q1.140625 -1.328125 2.890625 -1.328125q1.0781326 0 1.8593826 0.421875q0.796875 0.421875 1.140625 1.171875q0.34375 0.75 0.34375 2.171875l0 6.125l-1.640625 0l0 -6.125q0 -1.234375 -0.53125 -1.796875q-0.53125 -0.5625 -1.5156326 -0.5625q-0.71875 0 -1.359375 0.390625q-0.640625 0.375 -0.921875 1.015625q-0.265625 0.640625 -0.265625 1.78125l0 5.296875l-1.640625 0z" fill-rule="nonzero"/><path fill="#cfe2f3" d="m267.23752 196.40182l0 0c0 -6.7957 5.509033 -12.304718 12.304718 -12.304718l154.31973 0c3.2633972 0 6.393158 1.2963867 8.700745 3.6039734c2.3075562 2.3075714 3.6039429 5.437332 3.6039429 8.700745l0 49.217346c0 6.7957153 -5.5090027 12.304718 -12.3046875 12.304718l-154.31973 0c-6.795685 0 -12.304718 -5.5090027 -12.304718 -12.304718z" fill-rule="evenodd"/><path stroke="#000000" stroke-width="1.0" stroke-linejoin="round" stroke-linecap="butt" d="m267.23752 196.40182l0 0c0 -6.7957 5.509033 -12.304718 12.304718 -12.304718l154.31973 0c3.2633972 0 6.393158 1.2963867 8.700745 3.6039734c2.3075562 2.3075714 3.6039429 5.437332 3.6039429 8.700745l0 49.217346c0 6.7957153 -5.5090027 12.304718 -12.3046875 12.304718l-154.31973 0c-6.795685 0 -12.304718 -5.5090027 -12.304718 -12.304718z" fill-rule="evenodd"/><path fill="#000000" d="m315.5787 227.9305l0 -13.359375l2.65625 0l3.15625 9.453125q0.4375 1.328125 0.640625 1.984375q0.234375 -0.734375 0.703125 -2.140625l3.203125 -9.296875l2.375 0l0 13.359375l-1.703125 0l0 -11.171875l-3.875 11.171875l-1.59375 0l-3.859375 -11.375l0 11.375l-1.703125 0zm22.009552 -3.109375l1.6875 0.203125q-0.40625 1.484375 -1.484375 2.3125q-1.078125 0.8125 -2.765625 0.8125q-2.125 0 -3.375 -1.296875q-1.234375 -1.3125 -1.234375 -3.671875q0 -2.453125 1.25 -3.796875q1.265625 -1.34375 3.265625 -1.34375q1.9375 0 3.15625 1.328125q1.234375 1.3125 1.234375 3.703125q0 0.15625 0 0.4375l-7.21875 0q0.09375 1.59375 0.90625 2.453125q0.8125 0.84375 2.015625 0.84375q0.90625 0 1.546875 -0.46875q0.640625 -0.484375 1.015625 -1.515625zm-5.390625 -2.65625l5.40625 0q-0.109375 -1.21875 -0.625 -1.828125q-0.78125 -0.953125 -2.03125 -0.953125q-1.125 0 -1.90625 0.765625q-0.765625 0.75 -0.84375 2.015625zm8.485077 2.875l1.625 -0.25q0.125 0.96875 0.75 1.5q0.625 0.515625 1.75 0.515625q1.125 0 1.671875 -0.453125q0.546875 -0.46875 0.546875 -1.09375q0 -0.546875 -0.484375 -0.875q-0.328125 -0.21875 -1.671875 -0.546875q-1.8125 -0.46875 -2.515625 -0.796875q-0.6875 -0.328125 -1.046875 -0.90625q-0.359375 -0.59375 -0.359375 -1.3125q0 -0.640625 0.296875 -1.1875q0.296875 -0.5625 0.8125 -0.921875q0.375 -0.28125 1.03125 -0.46875q0.671875 -0.203125 1.421875 -0.203125q1.140625 0 2.0 0.328125q0.859375 0.328125 1.265625 0.890625q0.421875 0.5625 0.578125 1.5l-1.609375 0.21875q-0.109375 -0.75 -0.640625 -1.171875q-0.515625 -0.421875 -1.46875 -0.421875q-1.140625 0 -1.625 0.375q-0.46875 0.375 -0.46875 0.875q0 0.3125 0.1875 0.578125q0.203125 0.265625 0.640625 0.4375q0.234375 0.09375 1.4375 0.421875q1.75 0.453125 2.4375 0.75q0.6875 0.296875 1.078125 0.859375q0.390625 0.5625 0.390625 1.40625q0 0.828125 -0.484375 1.546875q-0.46875 0.71875 -1.375 1.125q-0.90625 0.390625 -2.046875 0.390625q-1.875 0 -2.875 -0.78125q-0.984375 -0.78125 -1.25 -2.328125zm9.328125 0l1.625 -0.25q0.125 0.96875 0.75 1.5q0.625 0.515625 1.75 0.515625q1.125 0 1.671875 -0.453125q0.546875 -0.46875 0.546875 -1.09375q0 -0.546875 -0.484375 -0.875q-0.328125 -0.21875 -1.671875 -0.546875q-1.8125 -0.46875 -2.515625 -0.796875q-0.6875 -0.328125 -1.046875 -0.90625q-0.359375 -0.59375 -0.359375 -1.3125q0 -0.640625 0.296875 -1.1875q0.296875 -0.5625 0.8125 -0.921875q0.375 -0.28125 1.03125 -0.46875q0.671875 -0.203125 1.421875 -0.203125q1.140625 0 2.0 0.328125q0.859375 0.328125 1.265625 0.890625q0.421875 0.5625 0.578125 1.5l-1.609375 0.21875q-0.109375 -0.75 -0.640625 -1.171875q-0.515625 -0.421875 -1.46875 -0.421875q-1.140625 0 -1.625 0.375q-0.46875 0.375 -0.46875 0.875q0 0.3125 0.1875 0.578125q0.203125 0.265625 0.640625 0.4375q0.234375 0.09375 1.4375 0.421875q1.75 0.453125 2.4375 0.75q0.6875 0.296875 1.078125 0.859375q0.390625 0.5625 0.390625 1.40625q0 0.828125 -0.484375 1.546875q-0.46875 0.71875 -1.375 1.125q-0.90625 0.390625 -2.046875 0.390625q-1.875 0 -2.875 -0.78125q-0.984375 -0.78125 -1.25 -2.328125zm16.296875 1.703125q-0.921875 0.765625 -1.765625 1.09375q-0.828125 0.3125 -1.796875 0.3125q-1.59375 0 -2.453125 -0.78125q-0.859375 -0.78125 -0.859375 -1.984375q0 -0.71875 0.328125 -1.296875q0.328125 -0.59375 0.84375 -0.9375q0.53125 -0.359375 1.1875 -0.546875q0.46875 -0.125 1.453125 -0.25q1.984375 -0.234375 2.921875 -0.5625q0.015625 -0.34375 0.015625 -0.421875q0 -1.0 -0.46875 -1.421875q-0.625 -0.546875 -1.875 -0.546875q-1.15625 0 -1.703125 0.40625q-0.546875 0.40625 -0.8125 1.421875l-1.609375 -0.21875q0.21875 -1.015625 0.71875 -1.640625q0.5 -0.640625 1.453125 -0.984375q0.953125 -0.34375 2.1875 -0.34375q1.25 0 2.015625 0.296875q0.78125 0.28125 1.140625 0.734375q0.375 0.4375 0.515625 1.109375q0.078125 0.421875 0.078125 1.515625l0 2.1875q0 2.28125 0.109375 2.890625q0.109375 0.59375 0.40625 1.15625l-1.703125 0q-0.265625 -0.515625 -0.328125 -1.1875zm-0.140625 -3.671875q-0.890625 0.375 -2.671875 0.625q-1.015625 0.140625 -1.4375 0.328125q-0.421875 0.1875 -0.65625 0.53125q-0.21875 0.34375 -0.21875 0.78125q0 0.65625 0.5 1.09375q0.5 0.4375 1.453125 0.4375q0.9375 0 1.671875 -0.40625q0.75 -0.421875 1.09375 -1.140625q0.265625 -0.5625 0.265625 -1.640625l0 -0.609375zm3.8913574 5.65625l1.59375 0.234375q0.109375 0.75 0.5625 1.078125q0.609375 0.453125 1.671875 0.453125q1.140625 0 1.75 -0.453125q0.625 -0.453125 0.84375 -1.265625q0.125 -0.5 0.109375 -2.109375q-1.0625 1.265625 -2.671875 1.265625q-2.0 0 -3.09375 -1.4375q-1.09375 -1.4375 -1.09375 -3.453125q0 -1.390625 0.5 -2.5625q0.515625 -1.171875 1.453125 -1.796875q0.953125 -0.640625 2.25 -0.640625q1.703125 0 2.8125 1.375l0 -1.15625l1.515625 0l0 8.359375q0 2.265625 -0.46875 3.203125q-0.453125 0.9375 -1.453125 1.484375q-0.984375 0.546875 -2.453125 0.546875q-1.71875 0 -2.796875 -0.78125q-1.0625 -0.765625 -1.03125 -2.34375zm1.359375 -5.8125q0 1.90625 0.75 2.78125q0.765625 0.875 1.90625 0.875q1.125 0 1.890625 -0.859375q0.765625 -0.875 0.765625 -2.734375q0 -1.78125 -0.796875 -2.671875q-0.78125 -0.90625 -1.890625 -0.90625q-1.09375 0 -1.859375 0.890625q-0.765625 0.875 -0.765625 2.625zm15.953827 1.90625l1.6875 0.203125q-0.40625 1.484375 -1.484375 2.3125q-1.078125 0.8125 -2.765625 0.8125q-2.125 0 -3.375 -1.296875q-1.234375 -1.3125 -1.234375 -3.671875q0 -2.453125 1.25 -3.796875q1.265625 -1.34375 3.265625 -1.34375q1.9375 0 3.15625 1.328125q1.234375 1.3125 1.234375 3.703125q0 0.15625 0 0.4375l-7.21875 0q0.09375 1.59375 0.90625 2.453125q0.8125 0.84375 2.015625 0.84375q0.90625 0 1.546875 -0.46875q0.640625 -0.484375 1.015625 -1.515625zm-5.390625 -2.65625l5.40625 0q-0.109375 -1.21875 -0.625 -1.828125q-0.78125 -0.953125 -2.03125 -0.953125q-1.125 0 -1.90625 0.765625q-0.765625 0.75 -0.84375 2.015625zm8.485107 2.875l1.625 -0.25q0.125 0.96875 0.75 1.5q0.625 0.515625 1.75 0.515625q1.125 0 1.671875 -0.453125q0.546875 -0.46875 0.546875 -1.09375q0 -0.546875 -0.484375 -0.875q-0.328125 -0.21875 -1.671875 -0.546875q-1.8125 -0.46875 -2.515625 -0.796875q-0.6875 -0.328125 -1.046875 -0.90625q-0.359375 -0.59375 -0.359375 -1.3125q0 -0.640625 0.296875 -1.1875q0.296875 -0.5625 0.8125 -0.921875q0.375 -0.28125 1.03125 -0.46875q0.671875 -0.203125 1.421875 -0.203125q1.140625 0 2.0 0.328125q0.859375 0.328125 1.265625 0.890625q0.421875 0.5625 0.578125 1.5l-1.609375 0.21875q-0.109375 -0.75 -0.640625 -1.171875q-0.515625 -0.421875 -1.46875 -0.421875q-1.140625 0 -1.625 0.375q-0.46875 0.375 -0.46875 0.875q0 0.3125 0.1875 0.578125q0.203125 0.265625 0.640625 0.4375q0.234375 0.09375 1.4375 0.421875q1.75 0.453125 2.4375 0.75q0.6875 0.296875 1.078125 0.859375q0.390625 0.5625 0.390625 1.40625q0 0.828125 -0.484375 1.546875q-0.46875 0.71875 -1.375 1.125q-0.90625 0.390625 -2.046875 0.390625q-1.875 0 -2.875 -0.78125q-0.984375 -0.78125 -1.25 -2.328125z" fill-rule="nonzero"/><path fill="#cfe2f3" d="m515.1312 196.40182l0 0c0 -6.7957 5.509033 -12.304718 12.3046875 -12.304718l154.31976 0c3.2633667 0 6.3931274 1.2963867 8.700745 3.6039734c2.3075562 2.3075714 3.6039429 5.437332 3.6039429 8.700745l0 49.217346c0 6.7957153 -5.508972 12.304718 -12.3046875 12.304718l-154.31976 0c-6.7956543 0 -12.3046875 -5.5090027 -12.3046875 -12.304718z" fill-rule="evenodd"/><path stroke="#000000" stroke-width="1.0" stroke-linejoin="round" stroke-linecap="butt" d="m515.1312 196.40182l0 0c0 -6.7957 5.509033 -12.304718 12.3046875 -12.304718l154.31976 0c3.2633667 0 6.3931274 1.2963867 8.700745 3.6039734c2.3075562 2.3075714 3.6039429 5.437332 3.6039429 8.700745l0 49.217346c0 6.7957153 -5.508972 12.304718 -12.3046875 12.304718l-154.31976 0c-6.7956543 0 -12.3046875 -5.5090027 -12.3046875 -12.304718z" fill-rule="evenodd"/><path fill="#000000" d="m579.59296 227.9305l0 -13.359375l5.046875 0q1.328125 0 2.03125 0.125q0.96875 0.171875 1.640625 0.640625q0.671875 0.453125 1.078125 1.28125q0.40625 0.828125 0.40625 1.828125q0 1.703125 -1.09375 2.890625q-1.078125 1.171875 -3.921875 1.171875l-3.421875 0l0 5.421875l-1.765625 0zm1.765625 -7.0l3.453125 0q1.71875 0 2.4375 -0.640625q0.71875 -0.640625 0.71875 -1.796875q0 -0.84375 -0.421875 -1.4375q-0.421875 -0.59375 -1.125 -0.78125q-0.4375 -0.125 -1.640625 -0.125l-3.421875 0l0 4.78125zm10.4592285 7.0l0 -9.671875l1.46875 0l0 1.46875q0.5625 -1.03125 1.03125 -1.359375q0.484375 -0.328125 1.0625 -0.328125q0.828125 0 1.6875 0.53125l-0.5625 1.515625q-0.609375 -0.359375 -1.203125 -0.359375q-0.546875 0 -0.96875 0.328125q-0.421875 0.328125 -0.609375 0.890625q-0.28125 0.875 -0.28125 1.921875l0 5.0625l-1.625 0zm5.6188965 -4.84375q0 -2.6875 1.484375 -3.96875q1.25 -1.078125 3.046875 -1.078125q2.0 0 3.265625 1.3125q1.265625 1.296875 1.265625 3.609375q0 1.859375 -0.5625 2.9375q-0.5625 1.0625 -1.640625 1.65625q-1.0625 0.59375 -2.328125 0.59375q-2.03125 0 -3.28125 -1.296875q-1.25 -1.3125 -1.25 -3.765625zm1.6875 0q0 1.859375 0.796875 2.796875q0.8125 0.921875 2.046875 0.921875q1.21875 0 2.03125 -0.921875q0.8125 -0.9375 0.8125 -2.84375q0 -1.796875 -0.8125 -2.71875q-0.8125 -0.921875 -2.03125 -0.921875q-1.234375 0 -2.046875 0.921875q-0.796875 0.90625 -0.796875 2.765625zm9.688232 4.84375l0 -8.40625l-1.453125 0l0 -1.265625l1.453125 0l0 -1.03125q0 -0.96875 0.171875 -1.453125q0.234375 -0.640625 0.828125 -1.03125q0.59375 -0.390625 1.671875 -0.390625q0.6875 0 1.53125 0.15625l-0.25 1.4375q-0.5 -0.09375 -0.953125 -0.09375q-0.75 0 -1.0625 0.328125q-0.3125 0.3125 -0.3125 1.1875l0 0.890625l1.890625 0l0 1.265625l-1.890625 0l0 8.40625l-1.625 0zm4.7926636 -11.46875l0 -1.890625l1.640625 0l0 1.890625l-1.640625 0zm0 11.46875l0 -9.671875l1.640625 0l0 9.671875l-1.640625 0zm4.0979614 0l0 -13.359375l1.640625 0l0 13.359375l-1.640625 0zm10.816711 -3.109375l1.6875 0.203125q-0.40625 1.484375 -1.484375 2.3125q-1.078125 0.8125 -2.765625 0.8125q-2.125 0 -3.375 -1.296875q-1.234375 -1.3125 -1.234375 -3.671875q0 -2.453125 1.25 -3.796875q1.265625 -1.34375 3.265625 -1.34375q1.9375 0 3.15625 1.328125q1.234375 1.3125 1.234375 3.703125q0 0.15625 0 0.4375l-7.21875 0q0.09375 1.59375 0.90625 2.453125q0.8125 0.84375 2.015625 0.84375q0.90625 0 1.546875 -0.46875q0.640625 -0.484375 1.015625 -1.515625zm-5.390625 -2.65625l5.40625 0q-0.109375 -1.21875 -0.625 -1.828125q-0.78125 -0.953125 -2.03125 -0.953125q-1.125 0 -1.90625 0.765625q-0.765625 0.75 -0.84375 2.015625z" fill-rule="nonzero"/><path fill="#cfe2f3" d="m23.553806 320.88715l0 0c0 -16.78598 13.607723 -30.393707 30.3937 -30.393707l0 0c8.060913 0 15.791668 3.202179 21.491596 8.9021c5.6999207 5.6999207 8.902107 13.430695 8.902107 21.491608l0 0c0 16.78598 -13.607727 30.393707 -30.393703 30.393707l0 0c-16.785976 0 -30.3937 -13.607727 -30.3937 -30.393707z" fill-rule="evenodd"/><path stroke="#000000" stroke-width="1.0" stroke-linejoin="round" stroke-linecap="butt" d="m23.553806 320.88715l0 0c0 -16.78598 13.607723 -30.393707 30.3937 -30.393707l0 0c8.060913 0 15.791668 3.202179 21.491596 8.9021c5.6999207 5.6999207 8.902107 13.430695 8.902107 21.491608l0 0c0 16.78598 -13.607727 30.393707 -30.393703 30.393707l0 0c-16.785976 0 -30.3937 -13.607727 -30.3937 -30.393707z" fill-rule="evenodd"/><path fill="#cfe2f3" d="m141.69554 320.88715l0 0c0 -16.78598 13.607727 -30.393707 30.393692 -30.393707l0 0c8.060913 0 15.791672 3.202179 21.491592 8.9021c5.699936 5.6999207 8.902115 13.430695 8.902115 21.491608l0 0c0 16.78598 -13.607727 30.393707 -30.393707 30.393707l0 0c-16.785965 0 -30.393692 -13.607727 -30.393692 -30.393707z" fill-rule="evenodd"/><path stroke="#000000" stroke-width="1.0" stroke-linejoin="round" stroke-linecap="butt" d="m141.69554 320.88715l0 0c0 -16.78598 13.607727 -30.393707 30.393692 -30.393707l0 0c8.060913 0 15.791672 3.202179 21.491592 8.9021c5.699936 5.6999207 8.902115 13.430695 8.902115 21.491608l0 0c0 16.78598 -13.607727 30.393707 -30.393707 30.393707l0 0c-16.785965 0 -30.393692 -13.607727 -30.393692 -30.393707z" fill-rule="evenodd"/><path fill="#cfe2f3" d="m271.37534 320.88715l0 0c0 -16.78598 13.607727 -30.393707 30.393707 -30.393707l0 0c8.060883 0 15.7916565 3.202179 21.491577 8.9021c5.6999207 5.6999207 8.9021 13.430695 8.9021 21.491608l0 0c0 16.78598 -13.607727 30.393707 -30.393677 30.393707l0 0c-16.78598 0 -30.393707 -13.607727 -30.393707 -30.393707z" fill-rule="evenodd"/><path stroke="#000000" stroke-width="1.0" stroke-linejoin="round" stroke-linecap="butt" d="m271.37534 320.88715l0 0c0 -16.78598 13.607727 -30.393707 30.393707 -30.393707l0 0c8.060883 0 15.7916565 3.202179 21.491577 8.9021c5.6999207 5.6999207 8.9021 13.430695 8.9021 21.491608l0 0c0 16.78598 -13.607727 30.393707 -30.393677 30.393707l0 0c-16.78598 0 -30.393707 -13.607727 -30.393707 -30.393707z" fill-rule="evenodd"/><path fill="#cfe2f3" d="m330.4462 381.67453l0 0c0 -16.78598 13.607727 -30.393677 30.393707 -30.393677l0 0c8.060913 0 15.7916565 3.202179 21.491577 8.9021c5.6999207 5.6999207 8.9021 13.430664 8.9021 21.491577l0 0c0 16.78598 -13.607697 30.393707 -30.393677 30.393707l0 0c-16.78598 0 -30.393707 -13.607727 -30.393707 -30.393707z" fill-rule="evenodd"/><path stroke="#000000" stroke-width="1.0" stroke-linejoin="round" stroke-linecap="butt" d="m330.4462 381.67453l0 0c0 -16.78598 13.607727 -30.393677 30.393707 -30.393677l0 0c8.060913 0 15.7916565 3.202179 21.491577 8.9021c5.6999207 5.6999207 8.9021 13.430664 8.9021 21.491577l0 0c0 16.78598 -13.607697 30.393707 -30.393677 30.393707l0 0c-16.78598 0 -30.393707 -13.607727 -30.393707 -30.393707z" fill-rule="evenodd"/><path fill="#cfe2f3" d="m381.38846 320.88715l0 0c0 -16.78598 13.607727 -30.393707 30.393707 -30.393707l0 0c8.060883 0 15.7916565 3.202179 21.491577 8.9021c5.6999207 5.6999207 8.9021 13.430695 8.9021 21.491608l0 0c0 16.78598 -13.607727 30.393707 -30.393677 30.393707l0 0c-16.78598 0 -30.393707 -13.607727 -30.393707 -30.393707z" fill-rule="evenodd"/><path stroke="#000000" stroke-width="1.0" stroke-linejoin="round" stroke-linecap="butt" d="m381.38846 320.88715l0 0c0 -16.78598 13.607727 -30.393707 30.393707 -30.393707l0 0c8.060883 0 15.7916565 3.202179 21.491577 8.9021c5.6999207 5.6999207 8.9021 13.430695 8.9021 21.491608l0 0c0 16.78598 -13.607727 30.393707 -30.393677 30.393707l0 0c-16.78598 0 -30.393707 -13.607727 -30.393707 -30.393707z" fill-rule="evenodd"/><path fill="#cfe2f3" d="m519.19556 326.46457l0 0c0 -16.78598 13.607727 -30.393707 30.393677 -30.393707l0 0c8.060913 0 15.791687 3.202179 21.491577 8.9021c5.699951 5.699951 8.9021 13.430695 8.9021 21.491608l0 0c0 16.78598 -13.607666 30.393707 -30.393677 30.393707l0 0c-16.78595 0 -30.393677 -13.607727 -30.393677 -30.393707z" fill-rule="evenodd"/><path stroke="#000000" stroke-width="1.0" stroke-linejoin="round" stroke-linecap="butt" d="m519.19556 326.46457l0 0c0 -16.78598 13.607727 -30.393707 30.393677 -30.393707l0 0c8.060913 0 15.791687 3.202179 21.491577 8.9021c5.699951 5.699951 8.9021 13.430695 8.9021 21.491608l0 0c0 16.78598 -13.607666 30.393707 -30.393677 30.393707l0 0c-16.78595 0 -30.393677 -13.607727 -30.393677 -30.393707z" fill-rule="evenodd"/><path fill="#cfe2f3" d="m578.2664 387.25198l0 0c0 -16.78598 13.607727 -30.393707 30.393677 -30.393707l0 0c8.060913 0 15.791687 3.202179 21.491577 8.9021c5.699951 5.6999207 8.902161 13.430695 8.902161 21.491608l0 0c0 16.78595 -13.607727 30.393677 -30.393738 30.393677l0 0c-16.78595 0 -30.393677 -13.607727 -30.393677 -30.393677z" fill-rule="evenodd"/><path stroke="#000000" stroke-width="1.0" stroke-linejoin="round" stroke-linecap="butt" d="m578.2664 387.25198l0 0c0 -16.78598 13.607727 -30.393707 30.393677 -30.393707l0 0c8.060913 0 15.791687 3.202179 21.491577 8.9021c5.699951 5.6999207 8.902161 13.430695 8.902161 21.491608l0 0c0 16.78595 -13.607727 30.393677 -30.393738 30.393677l0 0c-16.78595 0 -30.393677 -13.607727 -30.393677 -30.393677z" fill-rule="evenodd"/><path fill="#cfe2f3" d="m629.2087 326.46457l0 0c0 -16.78598 13.607727 -30.393707 30.393677 -30.393707l0 0c8.060913 0 15.791687 3.202179 21.491577 8.9021c5.699951 5.699951 8.9021 13.430695 8.9021 21.491608l0 0c0 16.78598 -13.607666 30.393707 -30.393677 30.393707l0 0c-16.78595 0 -30.393677 -13.607727 -30.393677 -30.393707z" fill-rule="evenodd"/><path stroke="#000000" stroke-width="1.0" stroke-linejoin="round" stroke-linecap="butt" d="m629.2087 326.46457l0 0c0 -16.78598 13.607727 -30.393707 30.393677 -30.393707l0 0c8.060913 0 15.791687 3.202179 21.491577 8.9021c5.699951 5.699951 8.9021 13.430695 8.9021 21.491608l0 0c0 16.78598 -13.607666 30.393707 -30.393677 30.393707l0 0c-16.78595 0 -30.393677 -13.607727 -30.393677 -30.393707z" fill-rule="evenodd"/><path fill="#000000" fill-opacity="0.0" d="m267.23883 65.98425l-154.20471 118.11023" fill-rule="evenodd"/><path stroke="#000000" stroke-width="1.0" stroke-linejoin="round" stroke-linecap="butt" d="m267.23883 65.98425l-149.44138 114.46185" fill-rule="evenodd"/><path fill="#000000" stroke="#000000" stroke-width="1.0" stroke-linecap="butt" d="m116.79309 179.13481l-2.598381 4.0707397l4.6071014 -1.4481506z" fill-rule="evenodd"/><path fill="#000000" fill-opacity="0.0" d="m446.16797 65.98425l158.42523 118.11023" fill-rule="evenodd"/><path stroke="#000000" stroke-width="1.0" stroke-linejoin="round" stroke-linecap="butt" d="m446.16797 65.98425l153.61487 114.52403" fill-rule="evenodd"/><path fill="#000000" stroke="#000000" stroke-width="1.0" stroke-linecap="butt" d="m598.7956 181.8325l4.6255493 1.3881989l-2.651001 -4.0366516z" fill-rule="evenodd"/><path fill="#000000" fill-opacity="0.0" d="m356.7034 102.89764l0 81.196846" fill-rule="evenodd"/><path stroke="#000000" stroke-width="1.0" stroke-linejoin="round" stroke-linecap="butt" d="m356.7034 102.89764l0 75.196846" fill-rule="evenodd"/><path fill="#000000" stroke="#000000" stroke-width="1.0" stroke-linecap="butt" d="m355.05167 178.09448l1.6517334 4.538101l1.6517334 -4.538101z" fill-rule="evenodd"/><path fill="#cfe2f3" d="m82.62467 381.67453l0 0c0 -16.78598 13.607727 -30.393677 30.3937 -30.393677l0 0c8.060913 0 15.791672 3.202179 21.491592 8.9021c5.6999207 5.6999207 8.902115 13.430664 8.902115 21.491577l0 0c0 16.78598 -13.607727 30.393707 -30.393707 30.393707l0 0c-16.785973 0 -30.3937 -13.607727 -30.3937 -30.393707z" fill-rule="evenodd"/><path stroke="#000000" stroke-width="1.0" stroke-linejoin="round" stroke-linecap="butt" d="m82.62467 381.67453l0 0c0 -16.78598 13.607727 -30.393677 30.3937 -30.393677l0 0c8.060913 0 15.791672 3.202179 21.491592 8.9021c5.6999207 5.6999207 8.902115 13.430664 8.902115 21.491577l0 0c0 16.78598 -13.607727 30.393707 -30.393707 30.393707l0 0c-16.785973 0 -30.3937 -13.607727 -30.3937 -30.393707z" fill-rule="evenodd"/></g></svg>